<?xml version="1.0" encoding="UTF-8"?>
<svg id="uuid-c42de9f9-94e3-424c-918c-4f9995a28d6f" data-name="Layer 2" xmlns="http://www.w3.org/2000/svg" width="24.79" height="25.4" viewBox="0 0 24.79 25.4">
  <g id="uuid-6e94b4c9-2897-4068-90b8-47d1d0dda34a" data-name="Layer 10">
    <path d="m22.93,24.4H2.23c-.36,0-.65-.27-.65-.61v-10.78c0-.34.29-.61.65-.61h20.7c.36,0,.65.27.65.61v10.77c0,.34-.29.61-.65.61Z" style="fill: none; stroke: #d7dae0; stroke-linecap: round; stroke-linejoin: round; stroke-width: 2px;"/>
    <g>
      <path d="m7.13,9.83h-1.45c0-.16-.54-1.01-1.61-2.54-1.12-1.61-1.77-2.72-1.92-3.31h-.09c.1.86.15,1.63.15,2.32,0,.96.03,2.14.08,3.53H.84c.06-1.21.09-2.54.09-3.99s-.03-2.64-.09-3.64h1.74c0,.21.48,1.03,1.45,2.48,1.03,1.54,1.62,2.58,1.77,3.12h.09c-.09-.87-.14-1.65-.14-2.34,0-1.06-.03-2.14-.08-3.26h1.46c-.05.97-.08,2.18-.08,3.64s.03,2.8.08,3.99Z" style="fill: #d7dae0;"/>
      <path d="m14.18,6.92c0,.98-.3,1.75-.91,2.31s-1.32.83-2.14.83-1.45-.25-2.01-.76-.84-1.22-.84-2.14c0-.99.3-1.76.91-2.32s1.32-.84,2.14-.84c.78,0,1.44.25,2,.76s.83,1.23.83,2.15Zm-1.53.18c0-.57-.13-1.04-.4-1.43s-.61-.58-1.04-.58-.75.18-1.01.54-.39.81-.39,1.35c0,.57.13,1.04.4,1.43s.61.58,1.04.58.75-.18,1.01-.54.39-.81.39-1.35Z" style="fill: #d7dae0;"/>
      <path d="m18.61,8.74l-.1,1.04c-.27.12-.62.18-1.03.18-.63,0-1.11-.17-1.43-.52s-.48-1.01-.48-1.99c0-.59,0-1.26.01-2-.2,0-.47.01-.81.04l.04-1.15c.3.02.58.04.84.04,0-.21.02-.75.05-1.63l1.39-.17c-.06.78-.09,1.38-.09,1.8.33,0,.82-.02,1.47-.05l-.05,1.17c-.59-.02-1.08-.04-1.45-.04,0,.52-.01,1.06-.01,1.63,0,.7.07,1.16.21,1.4s.39.35.74.35c.21,0,.45-.03.69-.1Z" style="fill: #d7dae0;"/>
      <path d="m24.49,6.45c0,.2-.01.46-.04.78l-3.77.06c.05.44.24.81.57,1.1s.75.44,1.28.44c.59,0,1.21-.09,1.87-.26l-.12,1.14c-.54.2-1.21.29-2,.29-1.01,0-1.78-.28-2.32-.85s-.81-1.25-.81-2.04.25-1.55.76-2.17,1.22-.92,2.12-.92c.83,0,1.44.22,1.85.67s.6,1.03.6,1.75Zm-1.37-.05c0-.9-.38-1.35-1.15-1.35s-1.16.46-1.3,1.39l2.45-.05Z" style="fill: #d7dae0;"/>
    </g>
    <g>
      <path d="m9.9,22.14h-1.3c.07-.82.11-1.62.11-2.4,0-.58-.07-.96-.22-1.14s-.39-.27-.72-.27c-.35,0-.7.12-1.04.36,0,1.38.02,2.54.05,3.46h-1.3c.04-1.01.05-2.22.05-3.63,0-1.3-.05-2.38-.15-3.24l1.38-.08c-.05,1.05-.07,1.96-.07,2.73h.06c.43-.39.92-.59,1.47-.59.52,0,.93.12,1.23.36.3.24.45.66.45,1.25,0,.06,0,.19-.01.38,0,.19-.01.32-.01.38,0,.54,0,1.35.02,2.43Z" style="fill: #d7dae0;"/>
      <path d="m15.26,22.14l-1.14.04c-.05-.18-.08-.32-.08-.42h-.08c-.43.35-.92.53-1.49.53-.54,0-.94-.14-1.21-.42-.27-.28-.41-.84-.41-1.69,0-.1,0-.24,0-.42,0-.18,0-.34,0-.48,0-.36-.03-.94-.09-1.73l1.36-.05c-.05.62-.08,1.22-.08,1.78,0,.8.06,1.33.18,1.61.12.28.35.42.7.42.38,0,.71-.09.99-.27,0-1.71-.02-2.88-.06-3.49l1.32-.04c-.03.62-.05,1.41-.05,2.39,0,.73.04,1.48.13,2.25Z" style="fill: #d7dae0;"/>
      <path d="m20.89,19.62c0,.71-.2,1.33-.61,1.86-.4.53-.96.8-1.67.8-.52,0-.89-.11-1.1-.33h-.06l-.1.19h-1.15c.04-1.14.06-2.35.06-3.63,0-1.2-.05-2.28-.16-3.24l1.4-.08c-.03.76-.05,1.62-.05,2.57h.06c.33-.29.77-.43,1.33-.43.62,0,1.12.23,1.49.68.37.45.55.99.55,1.61Zm-1.3.13c0-.41-.1-.76-.31-1.06-.21-.3-.49-.45-.85-.45-.45,0-.78.13-.99.4,0,1.11.02,1.95.07,2.51.21.16.47.24.8.24.43,0,.75-.16.96-.48.21-.32.32-.71.32-1.17Z" style="fill: #d7dae0;"/>
    </g>
  </g>
</svg>