<?xml version="1.0" encoding="UTF-8"?>
<svg id="uuid-345a9aba-067b-426f-9c4f-2a89e88362ad" data-name="Layer 3" xmlns="http://www.w3.org/2000/svg" width="128" height="128" viewBox="0 0 128 128">
  <path d="m8,0h111c3.31,0,6,2.69,6,6v54H2V6C2,2.69,4.69,0,8,0Z" style="fill: #fff;"/>
  <g>
    <path d="m119,54H8.92c-3.28,0-5.95,2.63-6,5.91l-.91,56.11c0,.25,0,.51.03.76.4,3.62,2.25,5.65,5.68,5.95h111.05c.34,0,.69-.02,1.03-.08,3.09-.59,4.91-2.59,5.2-6.25v-56.4c0-3.31-2.69-6-6-6Z" style="fill: #f7971d;"/>
    <g>
      <path d="m45.49,115.3h-9.13c.5-6.09.75-12.02.75-17.78,0-4.29-.51-7.1-1.54-8.44s-2.72-2.01-5.08-2.01c-2.49,0-4.94.88-7.35,2.64,0,10.24.11,18.77.34,25.58h-9.13c.25-7.47.38-16.42.38-26.85,0-9.61-.35-17.6-1.06-23.96l9.71-.58c-.34,7.76-.51,14.5-.51,20.23h.45c3.02-2.91,6.48-4.37,10.37-4.37,3.68,0,6.57.88,8.67,2.64,2.09,1.76,3.14,4.85,3.14,9.29,0,.46-.03,1.39-.09,2.8-.06,1.41-.09,2.34-.09,2.8,0,4.02.06,10.02.17,17.99Z"/>
      <path d="m80.64,115.26l-8.03.29c-.37-1.3-.55-2.34-.55-3.11h-.55c-3,2.6-6.5,3.9-10.5,3.9-3.78,0-6.62-1.04-8.53-3.13s-2.87-6.24-2.87-12.48c0-.75.02-1.79.05-3.14.03-1.35.05-2.53.05-3.54,0-2.67-.22-6.94-.65-12.79l9.58-.36c-.37,4.62-.55,9.01-.55,13.15,0,5.9.42,9.88,1.25,11.92.84,2.05,2.48,3.07,4.93,3.07,2.68,0,4.99-.67,6.93-2.02,0-12.67-.14-21.27-.41-25.8l9.27-.33c-.23,4.55-.34,10.45-.34,17.71,0,5.37.31,10.92.93,16.66Z"/>
      <path d="m117.6,96.65c0,5.23-1.42,9.82-4.26,13.77-2.84,3.95-6.74,5.93-11.71,5.93-3.66,0-6.25-.82-7.76-2.46h-.45l-.69,1.41h-8.07c.3-8.46.45-17.4.45-26.85,0-8.89-.38-16.87-1.13-23.96l9.85-.58c-.23,5.61-.34,11.96-.34,19.04h.41c2.31-2.14,5.44-3.22,9.37-3.22,4.39,0,7.88,1.67,10.45,5,2.57,3.34,3.86,7.31,3.86,11.91Zm-9.13.94c0-3.01-.73-5.62-2.18-7.82-1.45-2.2-3.45-3.31-5.99-3.31-3.16,0-5.47.98-6.93,2.93,0,8.24.17,14.44.52,18.61,1.44,1.18,3.31,1.77,5.6,1.77,3.04,0,5.3-1.19,6.78-3.56,1.48-2.37,2.21-5.25,2.21-8.62Z"/>
    </g>
  </g>
  <g>
    <path d="m40.53,43.3h-6.67c0-.76-2.47-4.78-7.42-12.05-5.18-7.66-8.14-12.9-8.86-15.73h-.43c.45,4.06.67,7.74.67,11.02,0,4.58.13,10.17.38,16.75h-6.64c.27-5.75.4-12.07.4-18.95s-.13-12.53-.4-17.28h8.02c0,.98,2.22,4.91,6.67,11.77,4.73,7.29,7.45,12.24,8.15,14.83h.4c-.43-4.14-.65-7.85-.65-11.13,0-5.03-.13-10.19-.38-15.47h6.75c-.25,4.6-.38,10.36-.38,17.28s.13,13.29.38,18.95Z"/>
    <path d="m72.66,29.46c0,4.68-1.4,8.33-4.18,10.97-2.79,2.63-6.07,3.95-9.85,3.95s-6.69-1.2-9.26-3.6-3.86-5.78-3.86-10.15c0-4.69,1.4-8.37,4.21-11.02,2.81-2.65,6.1-3.98,9.88-3.98,3.58,0,6.65,1.21,9.22,3.63,2.56,2.42,3.85,5.82,3.85,10.2Zm-7.05.83c0-2.69-.61-4.95-1.84-6.78s-2.82-2.74-4.78-2.74-3.46.85-4.66,2.56c-1.2,1.71-1.79,3.84-1.79,6.4,0,2.69.61,4.95,1.84,6.78,1.22,1.83,2.82,2.74,4.78,2.74s3.46-.85,4.66-2.56c1.2-1.71,1.8-3.84,1.8-6.4Z"/>
    <path d="m92.76,38.09l-.46,4.95c-1.26.56-2.84.83-4.75.83-2.92,0-5.11-.82-6.59-2.45-1.48-1.63-2.21-4.78-2.21-9.44,0-2.8.02-5.97.05-9.52-.92,0-2.16.06-3.73.17l.19-5.48c1.39.11,2.67.17,3.86.17.02-.98.09-3.57.22-7.77l6.4-.81c-.27,3.69-.41,6.55-.41,8.57,1.51,0,3.77-.07,6.78-.22l-.22,5.54c-2.74-.11-4.96-.17-6.67-.17-.04,2.47-.05,5.06-.05,7.77,0,3.3.32,5.52.97,6.64s1.79,1.68,3.43,1.68c.99,0,2.05-.16,3.19-.47Z"/>
    <path d="m119.49,27.24c0,.95-.05,2.18-.16,3.7l-17.39.31c.25,2.1,1.12,3.84,2.62,5.23,1.49,1.39,3.46,2.09,5.89,2.09,2.7,0,5.57-.42,8.61-1.25l-.54,5.4c-2.48.93-5.56,1.39-9.23,1.39-4.64,0-8.2-1.35-10.68-4.04-2.47-2.69-3.71-5.93-3.71-9.71s1.17-7.38,3.52-10.28c2.35-2.9,5.61-4.36,9.79-4.36,3.82,0,6.65,1.07,8.5,3.2,1.85,2.13,2.78,4.91,2.78,8.32Zm-6.32-.25c0-4.27-1.76-6.4-5.29-6.4s-5.36,2.21-5.99,6.62l11.28-.22Z"/>
  </g>
</svg>