<?xml version="1.0" encoding="UTF-8"?>
<svg id="uuid-27697f64-1f16-4fa2-947f-36c16d2264c7" data-name="Layer 3" xmlns="http://www.w3.org/2000/svg" width="24" height="24" xmlns:xlink="http://www.w3.org/1999/xlink" viewBox="0 0 24 24">
  <defs>
    <filter id="uuid-65a0fd22-dd7e-4784-928c-2ebca5a85348" x="1" y="11" width="22" height="12.12" color-interpolation-filters="sRGB" filterUnits="userSpaceOnUse">
      <feColorMatrix result="cm" values="-1 0 0 0 1 0 -1 0 0 1 0 0 -1 0 1 0 0 0 1 0"/>
      <feFlood flood-color="#fff" result="bg"/>
      <feBlend in="cm" in2="bg"/>
    </filter>
    <mask id="uuid-20f28dd6-cc39-464f-93cc-da7bac6d1003" data-name="mask" x="1" y="11" width="22" height="12.12" maskUnits="userSpaceOnUse">
      <g style="filter: url(#uuid-65a0fd22-dd7e-4784-928c-2ebca5a85348);">
        <g>
          <path d="m9.06,20.34h-1.3c.07-.82.11-1.62.11-2.4,0-.58-.07-.96-.22-1.14s-.39-.27-.72-.27c-.35,0-.7.12-1.04.36,0,1.38.02,2.54.05,3.46h-1.3c.04-1.01.05-2.22.05-3.63,0-1.3-.05-2.38-.15-3.24l1.38-.08c-.05,1.05-.07,1.96-.07,2.73h.06c.43-.39.92-.59,1.47-.59.52,0,.93.12,1.23.36.3.24.45.66.45,1.25,0,.06,0,.19-.01.38,0,.19-.01.32-.01.38,0,.54,0,1.35.02,2.43Z" style="fill: #fff;"/>
          <path d="m14.55,20.34l-1.14.04c-.05-.18-.08-.32-.08-.42h-.08c-.43.35-.92.53-1.49.53-.54,0-.94-.14-1.21-.42-.27-.28-.41-.84-.41-1.69,0-.1,0-.24,0-.42,0-.18,0-.34,0-.48,0-.36-.03-.94-.09-1.73l1.36-.05c-.05.62-.08,1.22-.08,1.78,0,.8.06,1.33.18,1.61.12.28.35.42.7.42.38,0,.71-.09.99-.27,0-1.71-.02-2.87-.06-3.49l1.32-.04c-.03.62-.05,1.41-.05,2.39,0,.73.04,1.48.13,2.25Z" style="fill: #fff;"/>
          <path d="m20.29,17.82c0,.71-.2,1.33-.61,1.86-.4.53-.96.8-1.67.8-.52,0-.89-.11-1.1-.33h-.06l-.1.19h-1.15c.04-1.14.06-2.35.06-3.63,0-1.2-.05-2.28-.16-3.24l1.4-.08c-.03.76-.05,1.62-.05,2.57h.06c.33-.29.77-.43,1.33-.43.62,0,1.12.23,1.49.68.37.45.55.99.55,1.61Zm-1.3.13c0-.41-.1-.76-.31-1.06-.21-.3-.49-.45-.85-.45-.45,0-.78.13-.99.4,0,1.11.02,1.95.07,2.51.21.16.47.24.8.24.43,0,.75-.16.96-.48.21-.32.32-.71.32-1.17Z" style="fill: #fff;"/>
        </g>
      </g>
    </mask>
  </defs>
  <g style="mask: url(#uuid-20f28dd6-cc39-464f-93cc-da7bac6d1003);">
    <path d="m22.35,23H1.65c-.36,0-.65-.27-.65-.61v-10.78c0-.34.29-.61.65-.61h20.7c.36,0,.65.27.65.61v10.77c0,.34-.29.61-.65.61Z"/>
  </g>
  <g>
    <path d="m5.47,5.04c.48.67.88,1.26,1.18,1.78h.03c-.04-.85-.06-1.47-.06-1.86v-2.96h1.23v6.53h-1.29l-2.19-3.01c-.39-.52-.79-1.12-1.2-1.81h-.03c.04.8.06,1.42.06,1.86v2.96h-1.23V2h1.29l2.21,3.04Z"/>
    <path d="m13.72,6.17c0,.37-.06.71-.17,1.02s-.28.57-.49.79-.47.39-.77.5c-.3.12-.64.18-1.01.18s-.72-.06-1.03-.18c-.3-.12-.56-.29-.77-.5-.21-.22-.37-.48-.48-.79-.11-.31-.17-.64-.17-1.02s.06-.71.17-1.02c.11-.31.28-.57.49-.79.21-.22.47-.39.77-.5.3-.12.64-.18,1.01-.18s.72.06,1.03.18c.3.12.56.29.77.5.21.22.37.48.49.79.11.31.17.64.17,1.02Zm-1.23,0c0-.25-.03-.47-.09-.66-.06-.19-.14-.35-.25-.48-.11-.13-.24-.23-.39-.29-.15-.06-.32-.1-.49-.1s-.34.03-.49.1c-.15.07-.28.16-.38.29-.11.13-.19.29-.25.48-.06.19-.09.41-.09.66s.03.47.09.66c.06.19.15.35.25.48.11.13.24.23.39.29.15.07.31.1.49.1s.34-.03.49-.1c.15-.07.27-.16.38-.29.11-.13.19-.29.25-.48.06-.19.09-.41.09-.66Z"/>
    <path d="m17.52,8.53c-.13.04-.29.07-.48.09-.19.02-.36.03-.52.03-.41,0-.74-.06-1-.19-.26-.13-.44-.31-.55-.55-.08-.17-.12-.41-.12-.7v-2.45h-.91v-.95h.91v-1.32h1.19v1.32h1.41v.95h-1.41v2.3c0,.18.03.32.09.41.1.15.3.22.6.22.14,0,.27-.01.41-.03.14-.02.26-.05.38-.08v.96Z"/>
    <path d="m20.72,7.72c.23,0,.47-.02.72-.07.25-.05.51-.11.76-.2v.92c-.15.07-.39.13-.71.19-.32.06-.65.09-.99.09s-.67-.04-.98-.13c-.31-.09-.58-.22-.81-.42-.23-.19-.41-.44-.55-.75s-.2-.68-.2-1.11.06-.81.19-1.13c.13-.32.3-.59.51-.8.21-.21.46-.37.74-.48.28-.11.56-.16.86-.16s.59.05.85.14c.26.09.49.23.67.43s.34.45.44.75.16.67.16,1.09c0,.16,0,.3-.01.42h-3.19c.02.22.07.4.15.56.08.15.19.28.33.38.14.1.29.17.48.21.18.04.38.07.59.07Zm-.48-3.13c-.15,0-.29.03-.4.08s-.22.13-.3.22c-.09.09-.15.2-.2.32-.05.12-.08.26-.1.4h1.92c0-.14-.02-.27-.06-.4-.04-.12-.1-.23-.17-.32s-.17-.17-.28-.22-.24-.08-.39-.08Z"/>
  </g>
</svg>