<?xml version="1.0" encoding="UTF-8"?>
<svg id="uuid-63a7c527-4d7d-4761-a0e7-034cd5437646" data-name="Layer 10" xmlns="http://www.w3.org/2000/svg" width="50" height="40" viewBox="0 0 50 40">
  <path d="m35.35,31H14.65c-.36,0-.65-.27-.65-.61v-10.78c0-.34.29-.61.65-.61h20.7c.36,0,.65.27.65.61v10.77c0,.34-.29.61-.65.61Z" style="fill: none; stroke: #40c057; stroke-linecap: round; stroke-linejoin: round; stroke-width: 2px;"/>
  <g>
    <path d="m19.55,16.44h-1.45c0-.16-.54-1.01-1.61-2.54-1.12-1.61-1.77-2.72-1.92-3.31h-.09c.1.86.15,1.63.15,2.32,0,.96.03,2.14.08,3.53h-1.44c.06-1.21.09-2.54.09-3.99s-.03-2.64-.09-3.64h1.74c0,.21.48,1.03,1.45,2.48,1.03,1.54,1.62,2.58,1.77,3.12h.09c-.09-.87-.14-1.65-.14-2.34,0-1.06-.03-2.14-.08-3.26h1.46c-.05.97-.08,2.18-.08,3.64s.03,2.8.08,3.99Z" style="fill: #40c057;"/>
    <path d="m26.6,13.52c0,.98-.3,1.75-.91,2.31s-1.32.83-2.14.83-1.45-.25-2.01-.76-.84-1.22-.84-2.14c0-.99.3-1.76.91-2.32s1.32-.84,2.14-.84c.78,0,1.44.25,2,.76s.83,1.23.83,2.15Zm-1.53.18c0-.57-.13-1.04-.4-1.43s-.61-.58-1.04-.58-.75.18-1.01.54-.39.81-.39,1.35c0,.57.13,1.04.4,1.43s.61.58,1.04.58.75-.18,1.01-.54.39-.81.39-1.35Z" style="fill: #40c057;"/>
    <path d="m31.03,15.34l-.1,1.04c-.27.12-.62.18-1.03.18-.63,0-1.11-.17-1.43-.52s-.48-1.01-.48-1.99c0-.59,0-1.26.01-2-.2,0-.47.01-.81.04l.04-1.15c.3.02.58.04.84.04,0-.21.02-.75.05-1.63l1.39-.17c-.06.78-.09,1.38-.09,1.8.33,0,.82-.02,1.47-.05l-.05,1.17c-.59-.02-1.08-.04-1.45-.04,0,.52-.01,1.06-.01,1.63,0,.7.07,1.16.21,1.4s.39.35.74.35c.21,0,.45-.03.69-.1Z" style="fill: #40c057;"/>
    <path d="m36.91,13.05c0,.2-.01.46-.04.78l-3.77.06c.05.44.24.81.57,1.1s.75.44,1.28.44c.59,0,1.21-.09,1.87-.26l-.12,1.14c-.54.2-1.21.29-2,.29-1.01,0-1.78-.28-2.32-.85s-.81-1.25-.81-2.04.25-1.55.76-2.17,1.22-.92,2.12-.92c.83,0,1.44.22,1.85.67s.6,1.03.6,1.75Zm-1.37-.05c0-.9-.38-1.35-1.15-1.35s-1.16.46-1.3,1.39l2.45-.05Z" style="fill: #40c057;"/>
  </g>
  <g>
    <path d="m21.41,29.04h-1.43c.08-.91.12-1.79.12-2.64,0-.64-.08-1.06-.24-1.25-.16-.2-.43-.3-.79-.3-.39,0-.77.13-1.15.39,0,1.52.02,2.79.05,3.8h-1.43c.04-1.11.06-2.44.06-3.99,0-1.43-.05-2.62-.17-3.56l1.52-.09c-.05,1.15-.08,2.16-.08,3.01h.07c.47-.43,1.01-.65,1.62-.65.58,0,1.03.13,1.36.39.33.26.49.72.49,1.38,0,.07,0,.21-.01.42,0,.21-.01.35-.01.42,0,.6,0,1.49.03,2.67Z" style="fill: #40c057;"/>
    <path d="m27.68,29.04l-1.26.04c-.06-.19-.09-.35-.09-.46h-.09c-.47.39-1.02.58-1.64.58-.59,0-1.04-.16-1.33-.46s-.45-.93-.45-1.86c0-.11,0-.27,0-.47,0-.2,0-.38,0-.53,0-.4-.03-1.03-.1-1.9l1.5-.05c-.06.69-.09,1.34-.09,1.96,0,.88.07,1.47.2,1.77s.39.46.77.46c.42,0,.78-.1,1.08-.3,0-1.88-.02-3.16-.06-3.84l1.45-.05c-.04.68-.05,1.55-.05,2.63,0,.8.05,1.62.15,2.48Z" style="fill: #40c057;"/>
    <path d="m34.24,26.27c0,.78-.22,1.46-.67,2.05-.44.59-1.05.88-1.83.88-.57,0-.98-.12-1.21-.37h-.07l-.11.21h-1.26c.05-1.26.07-2.59.07-3.99,0-1.32-.06-2.51-.18-3.56l1.54-.09c-.04.83-.05,1.78-.05,2.83h.06c.36-.32.85-.48,1.47-.48.69,0,1.23.25,1.64.74.4.5.6,1.08.6,1.77Zm-1.43.14c0-.45-.11-.83-.34-1.16-.23-.33-.54-.49-.94-.49-.49,0-.86.14-1.08.43,0,1.22.03,2.15.08,2.77.23.18.52.26.88.26.48,0,.83-.18,1.06-.53.23-.35.35-.78.35-1.28Z" style="fill: #40c057;"/>
  </g>
</svg>