<svg xmlns="http://www.w3.org/2000/svg" id="-ahk_svg__Row_1" viewBox="0 0 16 16"><defs><clipPath id="-ahk_svg__clippath"><path fill="none" d="M-1 7h3V2h7l3 5h5v-8H-1"/></clipPath><filter id="-ahk_svg__luminosity-noclip" width="14" height="15" x="142" y="1" color-interpolation-filters="sRGB" filterUnits="userSpaceOnUse"><feFlood flood-color="#fff" result="bg"/><feBlend in="SourceGraphic" in2="bg"/></filter><style>.-ahk_svg__cls-1{fill:#0f0}</style><mask id="-ahk_svg__mask" width="14" height="15" x="142" y="1" maskUnits="userSpaceOnUse"/></defs><g id="-ahk_svg__Layer-77"><g clip-path="url(#-ahk_svg__clippath)"><path d="M15 1v14H1V1zm0-1H1a1 1 0 0 0-1 1v14a1 1 0 0 0 1 1h14a1 1 0 0 0 1-1V1a1 1 0 0 0-1-1" class="-ahk_svg__cls-1"/></g><g id="-ahk_svg__Text"><path d="m3.04 10.36-1.478 5.388H.31L2.347 9.35h.781zm1.207 3.006v.98H1.282v-.98zm-.04 2.382L2.729 10.36l-.102-1.01h.79l2.046 6.398zM6.762 9.35v6.398h-1.19V9.35zm2.374 2.628v.98H6.451v-.98zm.892-2.628v6.398h-1.18V9.35zm2.552 0v6.398h-1.19V9.35zm3.217 0-2.126 3.133-1.287 1.578-.222-1.205.856-1.34 1.337-2.166zm-1.344 6.398-1.523-2.98.848-.8 2.081 3.78z" class="-ahk_svg__cls-1"/></g></g></svg>