<svg xmlns="http://www.w3.org/2000/svg" width="16" height="16"><path fill="#0ff" fill-rule="evenodd" d="M8.76 9c0-2.21-1.79-4-4.26-4S0 6.79 0 9s2.01 4 4.5 4c1.22 0 1.92-.16 2.63-.69 0 0-.59-.49-.7-1.25-.61.64-1.93.48-1.93.48-1.54-.03-2.86-1.14-2.86-2.55S2.92 6.44 4.5 6.44s2.63 1.19 2.63 2.55"/><path fill="#0ff" fill-rule="evenodd" d="M7.13 9c0 2.21 1.9 4 4.37 4s4.01-1.79 4.01-4c0-2.64-2.37-4.12-2.37-4.12L11.88 6.1s1.73 1.58 1.73 3.3c0 1.4-1.12 2.12-2.11 2.14-1.61.03-2.73-1.19-2.73-2.55"/><path fill="#0ff" fill-rule="evenodd" d="m15 3-5 5V3z"/></svg>