<svg xmlns="http://www.w3.org/2000/svg" width="16" height="16"><path fill="#0ff" fill-rule="evenodd" d="M7.13 5c0 2.21 1.79 4 4.26 4s4.5-1.79 4.5-4-2.02-4-4.5-4c-1.22 0-1.92.16-2.63.69 0 0 .59.49.7 1.25.61-.64 1.93-.48 1.93-.48 1.54.03 2.86 1.14 2.86 2.55s-1.28 2.55-2.86 2.55-2.63-1.19-2.63-2.55H7.12Z"/><path fill="#0ff" fill-rule="evenodd" d="M8.76 5c0-2.21-1.79-4-4.26-4S0 2.79 0 5s2.01 4 4.5 4H7S6 8 6 7c-.61.64-1.5.55-1.5.55C2.96 7.52 1.64 6.41 1.64 5S2.92 2.45 4.5 2.45 7.13 3.64 7.13 5"/><path fill="#0ff" fill-rule="evenodd" d="M4 16v-1l3-3-2-2-1-1V8h2l4 4-4 4z"/><path fill="#0ff" d="M11 14h5v2h-5z"/></svg>