<svg xmlns="http://www.w3.org/2000/svg" id="-backup_svg__Layer-81" viewBox="0 0 16 16"><defs><filter id="-backup_svg__luminosity-noclip" width="14" height="15" x="-98" y="-99" color-interpolation-filters="sRGB" filterUnits="userSpaceOnUse"><feFlood flood-color="#fff" result="bg"/><feBlend in="SourceGraphic" in2="bg"/></filter><filter id="-backup_svg__luminosity-noclip-2" width="21.875" height="22" x="-5.875" y="1" color-interpolation-filters="sRGB" filterUnits="userSpaceOnUse"><feFlood flood-color="#fff" result="bg"/><feBlend in="SourceGraphic" in2="bg"/></filter><mask id="-backup_svg__mask" width="14" height="15" x="-98" y="-99" maskUnits="userSpaceOnUse"/><mask id="-backup_svg__mask-1" width="21.875" height="22" x="-5.875" y="1" maskUnits="userSpaceOnUse"><path d="m-2 23 .125-6.125h-4v-10h4L-2 1 8 12z" filter="url(#-backup_svg__luminosity-noclip-2)"/></mask><style>.-backup_svg__cls-1{fill:#decd87;fill-rule:evenodd}</style></defs><g mask="url(#-backup_svg__mask-1)"><path id="-backup_svg__rect7" d="M2 4h14l-1 1v10H3V5z" class="-backup_svg__cls-1"/><path id="-backup_svg__rect8" d="M2 2h14v2H2z" class="-backup_svg__cls-1"/><path id="-backup_svg__rect9" fill="#504416" fill-rule="evenodd" d="m16 4-1 1H3L2 4z"/><path id="-backup_svg__rect10" fill="#100c00" fill-rule="evenodd" d="M6 6h6v1H6z"/></g><path fill="#0f0" d="M3 11H0v2h3v2l3-3-3-3z"/></svg>