<svg xmlns="http://www.w3.org/2000/svg" id="Layer_copy" viewBox="0 0 16 16"><defs><clipPath id="clippath"><path fill="none" d="M-1 7h3V2h7l3 5h5v-8H-1"/></clipPath><filter id="luminosity-noclip" width="14" height="15" x="-158" y="-59" color-interpolation-filters="sRGB" filterUnits="userSpaceOnUse"><feFlood flood-color="#fff" result="bg"/><feBlend in="SourceGraphic" in2="bg"/></filter><style>.cls-3{fill:#0cf}</style><mask id="mask" width="14" height="15" x="-158" y="-59" maskUnits="userSpaceOnUse"/></defs><path d="M15 1v14H1V1zm0-1H1a1 1 0 0 0-1 1v14a1 1 0 0 0 1 1h14a1 1 0 0 0 1-1V1a1 1 0 0 0-1-1" class="cls-3" clip-path="url(#clippath)"/><path id="Text" d="M5.676 13.16v.066q0 .66-.154 1.149-.152.49-.423.815c-.271.325-.393.38-.637.488s-.509.162-.792.162q-.426 0-.793-.162c-.367-.162-.458-.271-.644-.488q-.276-.325-.427-.815c-.151-.49-.152-.71-.152-1.15v-.065q0-.66.154-1.15.152-.489.423-.817c.271-.328.393-.38.637-.488q.367-.16.792-.16.427 0 .793.16.367.162.64.488.277.328.43.818t.153 1.149m-1.14.14v-.224a3.4 3.4 0 0 0-.067-.716 1.7 1.7 0 0 0-.185-.495q-.117-.195-.277-.287a.55.55 0 0 0-.347-.093.7.7 0 0 0-.342.093.8.8 0 0 0-.277.287q-.117.197-.182.495c-.065.298-.064.438-.064.716v.224q0 .418.066.721.067.303.187.497c.12.194.173.225.277.288q.158.094.345.094a.66.66 0 0 0 .344-.094.84.84 0 0 0 .275-.288q.117-.194.182-.497c.065-.303.064-.442.064-.72m4.615-2.668v5.115H8.008v-3.722l-1.292.5v-.962l2.317-.931zm5.162 2.527v.066q0 .66-.153 1.149a2.4 2.4 0 0 1-.424.815q-.27.326-.637.488c-.367.162-.508.162-.792.162s-.548-.054-.792-.162-.46-.271-.644-.488q-.277-.325-.429-.815c-.152-.49-.15-.71-.15-1.15v-.065q0-.66.152-1.15.154-.489.424-.817.271-.327.638-.488.366-.16.792-.16c.426 0 .548.054.792.16q.366.162.641.488c.275.326.327.491.43.818q.15.49.151 1.149m-1.141.14v-.224q0-.417-.066-.716a1.7 1.7 0 0 0-.184-.495.8.8 0 0 0-.278-.287.68.68 0 0 0-.688 0 .8.8 0 0 0-.277.287q-.118.197-.182.495-.064.3-.064.716v.224q0 .418.066.721t.187.497c.12.194.171.225.277.288q.157.094.344.094a.52.52 0 0 0 .344-.094q.158-.095.275-.288c.117-.193.139-.295.181-.497s.065-.442.065-.72" class="cls-3"/></svg>