<svg xmlns="http://www.w3.org/2000/svg" xmlns:xlink="http://www.w3.org/1999/xlink" id="Row_1" width="16" height="16"><defs><filter id="luminosity-noclip" width="15" height="16.3" x="121" y="-40" color-interpolation-filters="sRGB" filterUnits="userSpaceOnUse"><feFlood flood-color="#fff" result="bg"/><feBlend in="SourceGraphic" in2="bg"/></filter><filter id="luminosity-noclip-2" width="16" height="16.3" x="0" y="0" color-interpolation-filters="sRGB" filterUnits="userSpaceOnUse"><feFlood flood-color="#fff" result="bg"/><feBlend in="SourceGraphic" in2="bg"/></filter><filter id="luminosity-noclip-3" width="16" height="16" x="20" y="20" color-interpolation-filters="sRGB" filterUnits="userSpaceOnUse"><feFlood flood-color="#fff" result="bg"/><feBlend in="SourceGraphic" in2="bg"/></filter><mask id="mask" width="15" height="16.3" x="121" y="-40" maskUnits="userSpaceOnUse"/><mask id="mask-1" width="16" height="16.3" x="0" y="0" maskUnits="userSpaceOnUse"><g filter="url(#luminosity-noclip-2)"><use xlink:href="#Lock_Mask" width="10" height="12.3" transform="translate(6 4)"/></g></mask><mask id="mask-2" width="16" height="16" x="20" y="20" maskUnits="userSpaceOnUse"/><symbol id="Lock" viewBox="0 0 8.01 11"><g id="Layer_99"><path id="lock" d="M8.01 5v5H0V5c-.01-.55.44-1 .99-1H7c.55 0 1 .45 1 1Z" class="cls-2"/><path id="lock-2" fill="#b1b1b1" fill-rule="evenodd" d="M8.01 7v3H0s8-5 8-3Zm-2-1h-3"/><path d="M5.01 0h-2a2 2 0 0 0-2 2v3h1V2c0-.55.45-1 1-1h2c.55 0 1 .45 1 1v3h1V2c0-1.1-.9-2-2-2" class="cls-2"/><path d="M3.01 5h2v3h-2zm-2-1.5h1V4h-1zm5 0h1V4h-1z"/></g></symbol><symbol id="Lock_Mask" viewBox="0 0 10 12.3"><path fill-rule="evenodd" d="M10 1.38C9.27.54 8.2 0 7 0H5C2.79 0 1 1.79 1 4v.77l-.12.12C.31 5.45 0 6.2 0 7v5.29h10z"/></symbol><style>.cls-1{fill:#fafafa}.cls-2{fill:#fff;fill-rule:evenodd}.cls-5{fill:#181f21}</style></defs><g id="Layer-29"><g mask="url(#mask-1)"><path fill="#fff8e1" d="M13.97 6.34c0-.39-.06-.77-.16-1.15v.02a5.6 5.6 0 0 0-2.88-3.39C9.19.88 8.83.01 7.53 0s-1.96.33-2.9.88C2.38 2.12-.14 3.6 0 6.58c0-.01 0-.03.01-.04.1 1.43.82 2.75 1.96 3.62 3.89 3.38 12.02 1.3 12-3.82"/><path d="M8.91 8.04a.42.42 0 0 0-.3-.12H5.36c-.11 0-.22.04-.3.12a.25.25 0 0 0-.07.23c.13.47.42.88.82 1.17.33.27.74.43 1.17.46.43-.03.84-.19 1.17-.46.4-.29.69-.7.82-1.17.02-.08 0-.17-.07-.23Z" class="cls-5"/><circle cx="9.98" cy="6.27" r="1" class="cls-5"/><circle cx="9.48" cy="5.77" r=".5" class="cls-1"/><path d="M4 7.27c.55 0 1-.44 1-1 0-.55-.44-1-1-1-.55 0-1 .44-1 1 0 .55.45 1 1 1" class="cls-5"/><circle cx="3.49" cy="5.77" r=".5" class="cls-1"/></g><use xlink:href="#Lock" width="8.01" height="11" transform="translate(7.99 6)"/></g></svg>