<svg xmlns="http://www.w3.org/2000/svg" id="Done" viewBox="0 0 16 16"><defs><clipPath id="clippath"/><filter id="luminosity-noclip" width="16" height="18" x="-98" y="-20" color-interpolation-filters="sRGB" filterUnits="userSpaceOnUse"><feFlood flood-color="#fff" result="bg"/><feBlend in="SourceGraphic" in2="bg"/></filter><style>.cls-1{fill:#fafafa}.cls-2{fill:#181f21}</style><mask id="mask" width="16" height="18" x="-98" y="-20" maskUnits="userSpaceOnUse"/></defs><g id="Layer_35"><path fill="#fff8e1" d="M14.973 8.422a5 5 0 0 0-.16-1.15l-.001.016a5.58 5.58 0 0 0-2.876-3.386C10.192 2.959 9.32 2.242 8.543 2h.001c-.973-.347-1.97.41-2.907.962C3.382 4.2.86 5.682 1.007 8.659l.012-.04a4.97 4.97 0 0 0 1.963 3.622l-.005-.003c3.885 3.385 12.021 1.298 11.996-3.816"/><path d="M9.91 10.118A.4.4 0 0 0 9.615 10H6.363a.4.4 0 0 0-.298.118.25.25 0 0 0-.068.23c.134.47.423.882.819 1.168a2.1 2.1 0 0 0 1.172.462 2.1 2.1 0 0 0 1.17-.462c.396-.286.685-.697.819-1.167a.25.25 0 0 0-.066-.231" class="cls-2"/><circle cx="10.981" cy="8.347" r=".998" class="cls-2"/><circle cx="10.482" cy="7.848" r=".499" class="cls-1"/><path d="M4.996 9.345a.998.998 0 1 0-.996-1v.002c0 .55.446.997.996.998" class="cls-2"/><circle cx="4.493" cy="7.848" r=".499" class="cls-1"/></g></svg>