<svg xmlns="http://www.w3.org/2000/svg" viewBox="0 0 16 16"><g><path d="m14.319 8 1.528-2.104c.157-.12.1-.512.1-.512l-1.65-2.768s-.314-.245-.503-.176l-2.39.174L10.032.336C10.004.143 9.642 0 9.642 0H6.33s-.38.144-.404.336l-1.399 2.25-2.363-.146a.5.5 0 0 0-.148-.024c-.14 0-.355.2-.355.2L.01 5.384s-.057.392.1.512L1.718 8l-1.61 2.104c-.156.12-.099.512-.099.512l1.65 2.768s.314.245.503.176l2.363-.11 1.398 2.214A.4.4 0 0 0 6.33 16h3.3c.205 0 .379-.144.403-.336l1.371-2.213 2.39.109a.5.5 0 0 0 .15.024.41.41 0 0 0 .354-.2l1.65-2.768a.395.395 0 0 0-.1-.512z" style="fill:#f2f2f2"/><path d="m14.319 8 1.528-2.104c.157-.12.1-.512.1-.512l-1.65-2.768L1.66 13.384s.314.245.503.176l2.363-.11 1.398 2.214A.4.4 0 0 0 6.33 16h3.3c.205 0 .379-.144.403-.336l1.371-2.213 2.39.109a.5.5 0 0 0 .15.024.41.41 0 0 0 .354-.2l1.65-2.768a.395.395 0 0 0-.1-.512z" style="fill:#b4b4b4"/><ellipse cx="7.965" cy="8" rx="4.585" ry="4.571"/><g><circle cx="8" cy="8" r="4"/><circle cx="8" cy="8" r="3" style="fill:#fff"/><path d="m7.2 8.4 1.552 1.104.46-.701L8.012 8"/><path d="M8.2 8.4V6.758h-1V8.4"/></g></g></svg>