<svg xmlns="http://www.w3.org/2000/svg" id="-clojure_svg__Layer-76" viewBox="0 0 16 16"><defs><filter id="-clojure_svg__luminosity-noclip" width="14" height="15" x="-38" y="-119" color-interpolation-filters="sRGB" filterUnits="userSpaceOnUse"><feFlood flood-color="#fff" result="bg"/><feBlend in="SourceGraphic" in2="bg"/></filter><style>.-clojure_svg__cls-1{fill:#1e88e5}.-clojure_svg__cls-2{fill:#64dd17}</style><mask id="-clojure_svg__mask" width="14" height="15" x="-38" y="-119" maskUnits="userSpaceOnUse"/></defs><path d="M12.164 13.321h-.05a5 5 0 0 1-2.212-.552A5.1 5.1 0 0 1 8 13.143 5.15 5.15 0 0 1 2.857 8c0-1.384.556-2.637 1.448-3.562-.143-.023-.285-.05-.437-.052-1.42-.057-3.033.862-3.795 2.578C.029 7.304 0 7.648 0 8a8 8 0 0 0 8 8c2.568 0 4.838-1.222 6.302-3.102a5.9 5.9 0 0 1-2.138.423" class="-clojure_svg__cls-2"/><path d="m3.81 2.67.091.002a4.75 4.75 0 0 1 2.147.575A5.1 5.1 0 0 1 8 2.857 5.15 5.15 0 0 1 13.143 8a5.12 5.12 0 0 1-1.449 3.563c.144.018.284.043.436.044h.035c1.443 0 2.978-.814 3.705-2.236.078-.446.13-.902.13-1.37A8 8 0 0 0 8 0C5.412 0 3.126 1.24 1.664 3.147c.708-.304 1.443-.476 2.146-.476" class="-clojure_svg__cls-1"/><path d="M8.85 7.888c.086 1.273.499 2.246 1.156 2.882A3.42 3.42 0 0 0 11.429 8a3.43 3.43 0 0 0-3.43-3.429c-.127 0-.248.024-.373.038.593.8 1.04 1.873 1.224 3.28" class="-clojure_svg__cls-1"/><path d="M7.145 8.057c-.158-1.196-.586-2.14-1.212-2.776A3.41 3.41 0 0 0 4.57 8 3.43 3.43 0 0 0 8 11.429c.09 0 .175-.02.263-.027-.6-.81-1.022-1.904-1.118-3.345" class="-clojure_svg__cls-2"/></svg>