<svg xmlns="http://www.w3.org/2000/svg" width="16" height="16"><defs><filter id="a" width="16" height="16" x="0" y="0" color-interpolation-filters="sRGB" filterUnits="userSpaceOnUse"><feFlood flood-color="#fff" result="bg"/><feBlend in="SourceGraphic" in2="bg"/></filter><mask id="b" width="16" height="16" x="0" y="0" maskUnits="userSpaceOnUse"><g filter="url(#a)"><path d="M5 5h11v11H5z"/></g></mask></defs><g><g mask="url(#b)"><g><path fill="#ff2020" d="m6 6 7 4V9L8 0H7z"/><path fill="#06b7ff" d="M6 0H5L0 9v1l5-2"/><path fill="#0f0" d="m8 8-8 3v1h13v-1z"/></g></g><path fill="#e8eaed" d="M7 7h3v4H7zm3 2h3v1h-3zm3-2h3v3h-3zm-1 3h1v4h-1zm1 3h3v3h-3z"/><path fill="#e8eaed" d="M12 13h1v1h-1z"/></g></svg>