<svg xmlns="http://www.w3.org/2000/svg" viewBox="0 0 16 16"><path fill="#330c00" fill-rule="evenodd" stroke="#bf7445" stroke-miterlimit="10" stroke-width=".5" d="M11.74 3.9c0 .621-1.988 1.125-4.74 1.125S2.259 4.52 2.259 3.9 4.248 2.775 7 2.775s4.74.504 4.74 1.125Z"/><path fill="#a5531c" fill-rule="evenodd" d="M2 4v7c0 .867.741 1.928 1.472 2.393C4.213 13.865 6 14 7 14s2.731-.135 3.472-.607C11.203 12.928 12 11.867 12 11V4c-1 1-4 1-5 1S3 5 2 4"/><path fill-rule="evenodd" d="M7 14c1 0 2.731-.135 3.472-.607C11.203 12.928 12 11.867 12 11V4c-.42.42-1.19.663-2.017.804C12 12 6 14 7 14" opacity=".25"/><path fill="#fff" fill-rule="evenodd" d="M2 4v7c0 .867.741 1.928 1.472 2.393.14.089.315.165.515.231L3.99 4.8C3.173 4.657 2.415 4.415 2 4" opacity=".1"/><path fill="#aa592d" fill-rule="evenodd" d="M12 4.975V6c1 0 2 0 2 2s-1 2-2 2v1c2 0 3 0 3-3s-1-3-3-3.025"/></svg>