<svg xmlns="http://www.w3.org/2000/svg" id="-config_svg__Layer-71" viewBox="0 0 16 16"><defs><filter id="-config_svg__luminosity-noclip" width="14" height="15" x="-58" y="-119" color-interpolation-filters="sRGB" filterUnits="userSpaceOnUse"><feFlood flood-color="#fff" result="bg"/><feBlend in="SourceGraphic" in2="bg"/></filter><style>.-config_svg__cls-3{fill:#707070}</style><mask id="-config_svg__mask" width="14" height="15" x="-58" y="-119" maskUnits="userSpaceOnUse"/></defs><path id="-config_svg__Gear" d="m14.319 8 1.528-2.104c.157-.12.1-.512.1-.512l-1.65-2.768s-.314-.245-.503-.176l-2.39.174L10.032.336C10.004.143 9.642 0 9.642 0H6.33s-.38.144-.404.336l-1.399 2.25-2.363-.146a.5.5 0 0 0-.148-.024c-.14 0-.355.2-.355.2L.01 5.384s-.057.392.1.512L1.718 8l-1.61 2.104c-.156.12-.099.512-.099.512l1.65 2.768s.314.245.503.176l2.363-.11 1.398 2.214A.4.4 0 0 0 6.33 16h3.3c.205 0 .379-.144.403-.336l1.371-2.213 2.39.109a.5.5 0 0 0 .15.024.41.41 0 0 0 .354-.2l1.65-2.768a.395.395 0 0 0-.1-.512z" style="fill:#f2f2f2"/><path id="-config_svg__Gear-2" d="m14.319 8 1.528-2.104c.157-.12.1-.512.1-.512l-1.65-2.768L1.66 13.384s.314.245.503.176l2.363-.11 1.398 2.214A.4.4 0 0 0 6.33 16h3.3c.205 0 .379-.144.403-.336l1.371-2.213 2.39.109a.5.5 0 0 0 .15.024.41.41 0 0 0 .354-.2l1.65-2.768a.395.395 0 0 0-.1-.512z" style="fill:#b4b4b4"/><ellipse cx="7.965" cy="8" rx="4.585" ry="4.571"/><path d="M4.33 10.776 12.296 6.5a4.6 4.6 0 0 0-.683-1.269L3.65 9.53q.234.657.68 1.245Z" class="-config_svg__cls-3"/><path d="m8.675 12.531.039-9.04a4.6 4.6 0 0 0-1.44-.005l-.019 9.05q.69.107 1.42-.005" class="-config_svg__cls-3"/><path d="M12.306 9.488 4.317 5.256a4.6 4.6 0 0 0-.672 1.274l8.006 4.217q.415-.56.655-1.259Z" class="-config_svg__cls-3"/><circle cx="8" cy="8" r="1.5" style="fill:#fff"/></svg>