<svg xmlns="http://www.w3.org/2000/svg" viewBox="0 0 16 16"><path fill="#71c6ff" d="M6.874 2H1v2h5.503a5.8 5.8 0 0 1 .37-2m.634 5.27A5.6 5.6 0 0 1 6.86 6H1v2h6.92zm4.729 5.22q-.115.01-.234.01h-.003a2.63 2.63 0 0 1-1.784-.715L9 13H5l-2-2v-1H1v2l3 3h6l2.404-2.404z"/><path fill="#f50637" stroke="#d20f39" stroke-linecap="round" stroke-linejoin="round" d="M8.5 4.062a3.6 3.6 0 0 0 .695 2.131l2.245 3.958q.019.04.042.074l.005.01c.12.167.312.266.515.265a.62.62 0 0 0 .477-.227l.006.003.022-.04a.7.7 0 0 0 .083-.145l2.2-3.877a3.6 3.6 0 0 0 .71-2.152C15.5 2.095 13.815.5 11.882.5S8.5 2.095 8.5 4.062"/><circle cx="12" cy="4" r="1.5"/></svg>