<svg xmlns="http://www.w3.org/2000/svg" id="-docker_svg__Layer-62" viewBox="0 0 16 16"><defs><filter id="-docker_svg__luminosity-noclip" width="14" height="15" x="-78" y="-79" color-interpolation-filters="sRGB" filterUnits="userSpaceOnUse"><feFlood flood-color="#fff" result="bg"/><feBlend in="SourceGraphic" in2="bg"/></filter><style>.-docker_svg__cls-1{fill:#0288d1}</style><mask id="-docker_svg__mask" width="14" height="15" x="-78" y="-79" maskUnits="userSpaceOnUse"/></defs><path d="M6 6.168v1.664c0 .094.068.168.145.168h1.71C7.932 8 8 7.926 8 7.832V6.16A.16.16 0 0 0 7.84 6H6.145C6.068 6 6 6.074 6 6.168m4-.328V4.18c0-.106-.068-.18-.145-.18h-1.71C8.068 4 8 4.064 8 4.18v1.65c0 .085.068.17.145.17H9.84a.16.16 0 0 0 .16-.16m0 1.992V6.168C10 6.084 9.932 6 9.845 6h-1.7C8.068 6 8 6.074 8 6.168v1.664c0 .094.068.168.145.168h1.7c.087 0 .155-.074.155-.168" class="-docker_svg__cls-1"/><path d="M8 5.832V4.168C8 4.084 7.942 4 7.836 4H6.145C6.068 4 6 4.074 6 4.168v1.664c0 .094.058.168.145.168h1.69A.16.16 0 0 0 8 5.832" class="-docker_svg__cls-1"/><path d="M8 3.832V2.168C8 2.084 7.942 2 7.836 2H6.145C6.068 2 6 2.074 6 2.168v1.664c0 .094.058.168.145.168h1.69A.16.16 0 0 0 8 3.832m-4 3.98V6.166C4 6.073 3.942 6 3.836 6H2.145C2.068 6 2 6.063 2 6.167v1.644c0 .095.058.189.145.189h1.69C3.933 8 4 7.906 4 7.812m0-2V4.166C4 4.073 3.942 4 3.836 4H2.145C2.068 4 2 4.063 2 4.167v1.644c0 .095.058.189.145.189h1.69C3.933 6 4 5.906 4 5.812m2 2V6.166C6 6.073 5.942 6 5.836 6H4.145C4.068 6 4 6.063 4 6.167v1.644c0 .095.058.189.145.189h1.69C5.933 8 6 7.906 6 7.812" class="-docker_svg__cls-1"/><path fill="#10c7ff" d="M15.997 5.285S15.185 5.062 14 6c0-2-2-3-2-3s-.588 1.984 0 4c-.23.116-.423 1-1 1H0c0 2.285.689 7 6 7 3.81 0 6.57-2.859 7.362-6.852 2.001.154 2.635-2.863 2.635-2.863"/></svg>