<svg xmlns="http://www.w3.org/2000/svg" id="Layer-23" viewBox="0 0 16 16"><defs><filter id="luminosity-noclip" width="14" height="15" x="-78" y="-59" color-interpolation-filters="sRGB" filterUnits="userSpaceOnUse"><feFlood flood-color="#fff" result="bg"/><feBlend in="SourceGraphic" in2="bg"/></filter><style>.cls-1{fill:#fafafa}.cls-2{fill:#efebe9}</style><mask id="mask" width="14" height="15" x="-78" y="-59" maskUnits="userSpaceOnUse"/></defs><path fill="#ede7f6" d="M3.884 9.357c.23-.15.419-.524.304-.788-.314.134-.3.443-.304.787m3.551.857c.25-.08.489-.359.354-.648-.194.135-.32.32-.354.648"/><path d="M.457 14.344c0 .314.08.653.3.773.808.454 3.64.1 4.603-.115.504-.114.913-.488 1.387-.693 1.067-.464 1.84-.838 2.693-1.461.618-.454 1.601-1.73 1.706-2.494l-.843-.19c-.02.858-.215 1.053-.978 1.252-.513.14-1.516.17-2.04.08-.693-.114-1.007-.479-1.321-.893-.609-.807.134-1.371-.828-1.426-1.013 1.242-2.798.35-3.581.225-.334.483-1.117 3.625-1.107 4.344.483-.165.788.015 1.221.184 1.537.594.195 1.117-.419.963-.419-.1-.548-.374-.793-.549m2.01-7.167c.624.12 1.177.38 1.706.643.863.43 1.018.37 1.097.968.01.11-.01.17.305.27.528.164-.305-.13 1.112-.125.843.005 2.773.344 3.396.738.26.164.21.374 1.088.349-.01-1.032-.285-2.574-.689-3.521-.493-1.147-1.147-1.322-2.478-1.75-.779-.25-3.063-.525-3.771-.086-.663.414-.788.908-1.407 1.776-.18.254-.244.449-.359.738" class="cls-1"/><path d="M7.959 9.297c.499.204-.025 1.526-.718 1.207-.225-.634.309-.993.453-1.277-.299-.045-1.152-.18-1.406-.085-.33.125-.404.828-.234 1.157.798 1.566 4.324 1.232 3.95.015-.15-.494-.29-.573-.793-.743-.404-.135-.808-.274-1.252-.274m-6.27-.175c.4.384 1.302.444 1.886.474.074-.773.14-1.352.758-1.307.304.414.144.903-.175 1.217.544-.005.858-.414.778-1.007-.459-.33-1.85-.988-2.548-1.083-.195.21-.674 1.357-.699 1.706" class="cls-1"/><path d="M.752 14.06c.329-.03 1.187.22 1.257.499-.534.064-1.212.015-1.257-.5m-.295.284c.245.175.375.449.793.549.614.154 1.956-.37.42-.963-.434-.17-.739-.349-1.222-.184-.01-.719.773-3.86 1.107-4.345.783.125 2.568 1.018 3.58-.224.963.055.22.619.829 1.426.314.414.628.779 1.321.893.524.09 1.526.06 2.04-.08.763-.199.958-.394.978-1.251l.843.19c-.105.762-1.088 2.039-1.706 2.493-.853.623-1.626.997-2.693 1.461-.474.205-.883.579-1.387.693-.962.215-3.795.57-4.603.115-.22-.12-.3-.459-.3-.773m6.978-4.13c.035-.329.16-.513.354-.648.135.29-.105.569-.354.648m.524-.917c.444 0 .848.14 1.252.274.503.17.643.25.793.743.374 1.217-3.153 1.551-3.95-.015-.17-.33-.095-1.032.234-1.157.254-.095 1.107.04 1.406.085-.144.284-.678.643-.454 1.277.694.319 1.217-1.003.719-1.207m-4.075.06c.005-.344-.01-.654.304-.788.115.264-.075.638-.304.788m-2.195-.235c.025-.349.504-1.496.699-1.706.698.095 2.09.754 2.548 1.083.08.593-.234 1.002-.778 1.007.32-.314.479-.803.175-1.217-.619-.045-.684.534-.758 1.307-.584-.03-1.487-.09-1.886-.474m-.498-.399c-.185-.509-.185-1.302.598-1.366L1.39 8.469c-.105.24-.105.184-.2.254m1.276-1.546c.115-.29.18-.484.36-.738.618-.868.743-1.362 1.406-1.776.708-.439 2.993-.164 3.77.085 1.332.429 1.986.604 2.48 1.75.403.948.678 2.49.688 3.522-.878.025-.828-.185-1.088-.35-.623-.393-2.553-.732-3.396-.737-1.417-.005-.584.289-1.112.124-.315-.1-.295-.16-.305-.269-.08-.598-.234-.539-1.097-.968-.529-.264-1.082-.523-1.706-.643m8.828-.244c-.095-.315.08-.295.384-.509.175-.125.314-.254.529-.374.803-.449 2.3-.524 2.938.01.259.214.683.633.618 1.182-.135 1.092-.883 1.69-1.496 2.19-.624.508-1.661 1.032-2.733.683-.09-.22-.02-1.611-.125-2.125-.095-.459-.045-.509.22-.783.777-.808 2.463-1.397 3.42-.703.405.3.29.414.5.643.259-.28-.225-1.217-2.01-1.157-1.212.04-1.736.988-2.245.943M4.033 4.095c.025-.694.664-2.13 1.302-2.629C6.108.868 6.916.304 8.103.978c.295.164.28.249.31.658.024.394-.01.539-.11.858-.788 2.543-1.447 1.082-3.97 1.686.094-.828.813-1.566 1.212-1.95.683-.664 1.177-1.093 2.204-.953.284.474.314.773-.03 1.327-.459.738-.573.693-.503 1.197.359-.09.468-.44.633-.788C8.851.918 7.395.663 6.502 1.048c-.598.254-1.665 1.431-2.015 2.14-.07.139-.144.318-.21.473zm3.95.104c.105-.623.724-.778.724-2.698 0-.828-1.018-1.57-2.35-1.017-1.141.468-1.316.828-1.925 1.745-.573.868-.553 1.82-1.047 2.624-.145.23-.274.309-.434.538-.115.17-.2.384-.314.584-.234.384-.474.663-.663 1.122-.599.015-1.103.025-1.162.643-.08.848.319 1.058.319 1.377-.005.344-1.402 3.816-1.013 5.885.11.569.484.574 1.083.644 1.441.174 3.311.114 4.603-.404l2.344-1.122c.594-.335 1.591-.968 2.035-1.432.314-.324.479-.598.748-.982.37-.539.38-.529.46-1.262.488.09 1.4.304 1.705.568-.035.345-.205.18-.205.49.195.004.519-.24.599-.51-.205-.299-.42-.249-.713-.488.234-.185.658-.27.982-.404.698-.29 1.89-1.167 2.185-1.965.234-.644.06-1.716-.32-2.135-.399-.439-1.326-.663-2.084-.663-.903 0-1.836.648-2.564.927-.28-.244-.3-.523-.504-.793-.234-.319-1.76-1.117-2.489-1.271Z"/><path d="M11.295 6.933c.509.045 1.033-.903 2.245-.943 1.785-.06 2.269.878 2.01 1.157-.21-.23-.095-.344-.5-.643-.957-.694-2.643-.105-3.42.703-.265.274-.315.324-.22.783.105.514.035 1.905.125 2.125 1.072.349 2.11-.175 2.733-.684.614-.498 1.362-1.097 1.496-2.19.065-.548-.359-.967-.618-1.181-.639-.534-2.135-.46-2.938-.01-.214.12-.354.25-.528.374-.305.214-.48.194-.384.509ZM4.033 4.095l.245-.434c.065-.155.14-.334.21-.474.348-.708 1.416-1.885 2.014-2.14.893-.384 2.35-.13 1.347 1.965-.165.35-.274.699-.633.788-.07-.503.045-.458.503-1.197.344-.553.315-.853.03-1.326-1.027-.14-1.521.289-2.204.952-.4.384-1.117 1.122-1.212 1.95 2.523-.603 3.182.858 3.97-1.685.1-.32.135-.464.11-.858-.03-.41-.015-.494-.31-.659-1.187-.673-1.995-.11-2.768.49-.638.498-1.277 1.934-1.301 2.627Z" class="cls-2"/><path fill="#eee" d="M1.19 8.723c.095-.07.095-.015.2-.254l.4-1.112c-.784.064-.784.857-.6 1.366"/><path d="M2.009 14.559c-.07-.28-.928-.53-1.257-.5.045.514.723.564 1.257.5" class="cls-2"/></svg>