<svg xmlns="http://www.w3.org/2000/svg" id="-env_svg__Layer-50" viewBox="0 0 16 16"><defs><filter id="-env_svg__luminosity-noclip" width="14" height="15" x="2" y="-59" color-interpolation-filters="sRGB" filterUnits="userSpaceOnUse"><feFlood flood-color="#fff" result="bg"/><feBlend in="SourceGraphic" in2="bg"/></filter><style>.-env_svg__cls-1{fill:#b4ef11;fill-rule:evenodd}</style><mask id="-env_svg__mask" width="14" height="15" x="2" y="-59" maskUnits="userSpaceOnUse"/></defs><path d="M13.542 9.648h-.008a.19.19 0 0 1-.154-.094l-.642-1.112a.2.2 0 0 1-.02-.137l.123-.512-.29.215a.186.186 0 0 1-.243-.018l-.821-.821a.19.19 0 0 1-.049-.178c.002-.01.197-.79-.098-1.244-.102.27-.198.601-.177.793a.186.186 0 0 1-.178.243h-.002a.2.2 0 0 1-.078-.017c-.06-.028-1.466-.685-2.271-1.99l-.021-.016a.186.186 0 0 1-.038-.261.73.73 0 0 0 .147-.42.187.187 0 0 1 .201-.18c1.311.104 3.68.546 4.816 2.337l.017.035c.032.086.766 2.109-.062 3.297a.19.19 0 0 1-.152.08M8.91 3.689a.187.187 0 0 1-.187-.186.74.74 0 0 0-.308-.599.187.187 0 0 1-.032-.275C9.32 1.567 11.33 1.117 11.376 1.1c.012-.004-.247 0 0 0 2.373 0 3.328 1.722 3.472 1.972a.186.186 0 0 1-.147.301h-.005l-1.207-.02a.2.2 0 0 1-.128-.053l-.351-.346-.028.348a.19.19 0 0 1-.167.17l-1.182.12a.19.19 0 0 1-.196-.127c-.116-.356-.532-.539-.863-.63l.29.403a.186.186 0 0 1-.135.295l-1.803.155zm-1.843.176q-.016 0-.032-.003l-1.803-.31a.186.186 0 0 1-.12-.293l.29-.404c-.331.091-.747.274-.862.63a.19.19 0 0 1-.196.128l-1.182-.12a.186.186 0 0 1-.168-.173L2.975 3l-.176.285a.19.19 0 0 1-.156.088l-1.362.02a.187.187 0 0 1-.167-.275c.044-.082.942-2.018 3.444-2.018.247 0-1.137 0 0 0 .045.023 2.108.65 3.036 1.704a.186.186 0 0 1-.032.275.74.74 0 0 0-.308.599.186.186 0 0 1-.186.186Z" class="-env_svg__cls-1"/><path d="M2.434 9.267a.19.19 0 0 1-.153-.08C1.454 8 2.188 5.977 2.22 5.891l.018-.035C3.373 4.064 5.74 3.622 7.053 3.518a.187.187 0 0 1 .2.18.73.73 0 0 0 .148.42.187.187 0 0 1-.037.262l-.022.015c-.805 1.306-2.21 1.963-2.27 1.99a.187.187 0 0 1-.262-.201c.032-.187-.067-.536-.174-.817-.294.454-.1 1.234-.098 1.243a.19.19 0 0 1-.049.178l-.821.822a.186.186 0 0 1-.243.018l-.29-.215.123.512a.2.2 0 0 1-.02.136l-.643 1.113a.19.19 0 0 1-.153.093z" class="-env_svg__cls-1"/><path fill="#e77825" fill-rule="evenodd" d="M8.313 12.86a.2.2 0 0 1-.112-.036 1.56 1.56 0 0 0-1.138-.296.184.184 0 0 1-.21-.172c-.168-2.567-.062-5.271.316-8.036a.186.186 0 0 1 .313-.11.73.73 0 0 0 .887.096.186.186 0 0 1 .282.18c-.278 2.372-.328 5.046-.153 8.178a.187.187 0 0 1-.186.196Z"/><path fill="#e6bb7e" fill-rule="evenodd" d="M.01 15.875c0-1.067.869-2.122 1.936-2.122q.174 0 .345.03a1.94 1.94 0 0 1 1.814-1.258c.489 0 .957.187 1.312.512a1.925 1.925 0 0 1 1.852-1.368c.94 0 1.725.673 1.9 1.562a1.93 1.93 0 0 1 1.189-.408c.556 0 1.074.232 1.44.643q.277-.085.57-.085c.571 0 1.102.245 1.47.677a1.93 1.93 0 0 1 2.075 1.599c.009.054.009.218.009.218z"/></svg>