<svg xmlns="http://www.w3.org/2000/svg" id="Layer-37" viewBox="0 0 16 16"><defs><filter id="luminosity-noclip" width="14" height="15" x="2" y="-39" color-interpolation-filters="sRGB" filterUnits="userSpaceOnUse"><feFlood flood-color="#fff" result="bg"/><feBlend in="SourceGraphic" in2="bg"/></filter><style>.cls-2{fill:#7a7674}.cls-3{fill:#7c7775}</style><mask id="mask" width="14" height="15" x="2" y="-39" maskUnits="userSpaceOnUse"/></defs><path d="M14 2H2v5h12z" class="cls-3"/><path d="M2 8h12v6H2z" class="cls-2"/><path d="M9.5 13h-3a.5.5 0 0 1 0-1h3a.5.5 0 0 1 0 1m0-7h-3a.5.5 0 0 1 0-1h3a.5.5 0 0 1 0 1"/><path fill="#fff" d="M6 3h4v1H6zm0 6h4v1H6z"/><path d="M1 15h14v1H1zM1 0h14v1H1z" class="cls-3"/><path d="M0 0h1v16H0zm15 0h1v16h-1z" class="cls-2"/></svg>