<svg xmlns="http://www.w3.org/2000/svg" viewBox="0 0 16 16"><path fill="#2b313f" d="M0 0h16v16H0z"/><path fill="#424a60" d="M15 6H1V1h14zm0 9H1V7h14z"/><path fill="#e7eced" d="M9.534 4.067H6.905a.84.84 0 0 1-.838-.839v-.357a.239.239 0 1 1 .478 0v.357c0 .2.161.36.36.36h2.63a.36.36 0 0 0 .36-.36v-.357a.239.239 0 1 1 .478 0v.357a.84.84 0 0 1-.839.839m0 6.937H6.905a.84.84 0 0 1-.838-.838v-.358a.239.239 0 1 1 .478 0v.358c0 .199.161.36.36.36h2.63a.36.36 0 0 0 .36-.36v-.358a.239.239 0 1 1 .478 0v.358a.84.84 0 0 1-.839.838"/></svg>