<svg xmlns="http://www.w3.org/2000/svg" viewBox="0 0 16 16"><rect width="15" height="15" x=".5" y=".5" fill="#0054a0" rx=".991" ry=".991"/><path fill="#006fff" d="M14.51 1c.27 0 .49.22.49.49v13.02c0 .27-.22.49-.49.49H1.49a.49.49 0 0 1-.49-.49V1.49c0-.27.22-.49.49-.49zm0-1H1.49A1.49 1.49 0 0 0 0 1.49v13.02C0 15.332.667 16 1.49 16h13.02A1.49 1.49 0 0 0 16 14.51V1.49A1.49 1.49 0 0 0 14.51 0"/><path fill="#3d8c2a" stroke="#0c3500" stroke-miterlimit="10" d="M.53 12.356a.4.4 0 0 0-.03.149v1.504A1.493 1.493 0 0 0 1.99 15.5h1.4q.076 0 .148-.03.076-.03.133-.09l3.85-2.4c.069-.07.646-.722.652-.82.005-.097-.76.505-.82.429 1.024-1.012-.49-1.904-.502-1.919L5.007 8.808c-.076-.076-.414-.428-.522-.428-.107 0-1.997 1.97-2.073 2.046L.619 12.223a.4.4 0 0 0-.09.133Z"/><path fill="#4ee01e" d="M.03 12.856a.4.4 0 0 0-.03.149v1.504A1.493 1.493 0 0 0 1.49 16h1.4q.076 0 .148-.03.076-.03.133-.09l4.136-4.138a.4.4 0 0 0 .03-.528.3.3 0 0 0-.03-.047L4.776 8.633a.407.407 0 0 0-.575 0L.12 12.723a.4.4 0 0 0-.09.133"/><path fill="#71b263" stroke="#0c3500" stroke-miterlimit="10" d="M6.282 15.42c.051 0 2.285-1.142 2.285-1.142.047.02 2.284 0 2.284 0 .395 0 3.426-.747 3.427-1.142 0 0 1.162-1.095 1.142-1.142-.02-.05.04-1.105 0-1.143l-3.846-3.95a.405.405 0 0 0-.575 0l-8.402 8.402s-.275.502 1.792-.54c0 0 1.893-.485 1.893.657Z"/><path fill="#7cff5c" d="M2.521 15.45a.4.4 0 0 0 0 .298c.042.1.122.18.222.222q.072.03.15.03h11.616A1.493 1.493 0 0 0 16 14.51v-3.031a.4.4 0 0 0-.12-.282L11.583 6.91a.405.405 0 0 0-.574 0l-8.403 8.403a.4.4 0 0 0-.09.132z"/><path fill="#f8b64c" d="M2.76 5.57c-.646 0-1.282-.274-1.76-.636V1.38c0-.274.175-.372.393-.38l3.638.002a2.83 2.83 0 0 1 .584 1.713 2.856 2.856 0 0 1-2.856 2.856"/></svg>