<svg xmlns="http://www.w3.org/2000/svg" id="Done" viewBox="0 0 16 16"><defs><clipPath id="clippath"><path fill="none" d="M-1-1v18h4v-5H2v-1.977L-.105 6.312a4.7 4.7 0 0 1-.85-2.666C-1 0 .963-.9 3.413-.9 5.323-.9 6.996.323 7.68 2H9l3 3h5v-6z"/></clipPath><clipPath id="clippath-1"/><filter id="luminosity-noclip" width="16" height="18" x="-18" y="20" color-interpolation-filters="sRGB" filterUnits="userSpaceOnUse"><feFlood flood-color="#fff" result="bg"/><feBlend in="SourceGraphic" in2="bg"/></filter><style>.cls-4{fill:#ff0}</style><mask id="mask" width="16" height="18" x="-18" y="20" maskUnits="userSpaceOnUse"/></defs><g id="Layer_10_copy_4"><path d="M15 1v14H1V1zm0-1H1a1 1 0 0 0-1 1v14a1 1 0 0 0 1 1h14a1 1 0 0 0 1-1V1a1 1 0 0 0-1-1" class="cls-4" clip-path="url(#clippath)"/><g id="icon"><path id="Text" d="M7.873 13.152V7.217h1.57v5.935q0 .85-.319 1.46c-.319.61-.502.716-.867.93s-.778.323-1.24.323q-.702 0-1.253-.281c-.551-.281-.657-.474-.868-.858s-.316-.873-.316-1.462h1.576q0 .474.109.759c.109.285.173.326.304.41s.28.126.449.126q.263 0 .457-.164c.194-.164.227-.27.295-.48s.103-.466.103-.763m6.563.375q0-.252-.05-.448c-.05-.196-.097-.25-.19-.36s-.23-.218-.405-.325-.402-.218-.68-.332q-.492-.198-.931-.424c-.44-.226-.555-.326-.785-.525s-.412-.433-.542-.703-.197-.584-.197-.943q0-.528.19-.964c.19-.436.308-.541.543-.75s.512-.37.835-.484.678-.17 1.069-.17q.825 0 1.418.346c.593.346.7.543.914.938s.322.84.322 1.336h-1.564q0-.387-.114-.689c-.115-.302-.197-.358-.36-.472s-.376-.17-.634-.17q-.363 0-.597.144c-.234.144-.272.225-.346.387s-.111.346-.111.553q0 .223.102.402c.102.179.163.227.284.325s.269.19.443.278.368.173.583.255q.591.223 1.037.49c.446.267.544.377.741.597s.345.47.442.747.147.594.147.95q0 .527-.182.96c-.182.433-.297.538-.527.745s-.509.366-.835.477-.689.167-1.087.167q-.574 0-1.093-.167c-.519-.167-.651-.28-.917-.507s-.474-.512-.627-.858-.228-.753-.228-1.222h1.564q0 .393.088.677c.088.284.147.342.264.457s.258.2.422.252.35.08.556.08q.37 0 .598-.136c.228-.136.264-.214.334-.372s.106-.339.106-.542" class="cls-4"/></g><path fill="#f50637" d="M3.532 10.06a.62.62 0 0 0 .476-.227L5.67 6.911l.932-1.588a3.6 3.6 0 0 0 .414-1.676C7.016 1.689 5.34.1 3.413.1S.045 1.688.045 3.648c-.001.765.242 1.51.692 2.122L3.02 9.794c.12.167.31.266.512.265M1.674 3.41a1.903 1.903 0 1 1 3.805 0 1.903 1.903 0 0 1-3.805 0"/></g></svg>