<svg xmlns="http://www.w3.org/2000/svg" id="-json_svg__Layer-28" viewBox="0 0 16 16"><defs><filter id="-json_svg__luminosity-noclip" width="14" height="15" x="-98" y="-79" color-interpolation-filters="sRGB" filterUnits="userSpaceOnUse"><feFlood flood-color="#fff" result="bg"/><feBlend in="SourceGraphic" in2="bg"/></filter><style>.-json_svg__cls-2{fill:#ffcf00}</style><mask id="-json_svg__mask" width="14" height="15" x="-98" y="-79" maskUnits="userSpaceOnUse"/></defs><path id="-json_svg__Combined-Shape" fill="none" stroke="#ffd000" stroke-linecap="round" stroke-linejoin="round" d="M3.964 1.5c-1.154 0-2.307 1.374-2.307 2.334v1.751C1.657 6.875.497 7.336.5 7.92s1.157 1.045 1.157 2.334v1.75c0 1.168 1.153 2.335 2.307 2.335M12.036 1.5c1.154 0 2.307 1.167 2.307 2.334v1.751c0 1.29 1.16 1.751 1.157 2.335s-1.157 1.045-1.157 2.334v1.75c0 1.168-1.153 2.335-2.307 2.335"/><rect width="2.307" height="2.334" x="6.847" y="7.92" class="-json_svg__cls-2" rx=".75" ry=".75"/><rect width="2.307" height="2.334" x="10.306" y="7.92" class="-json_svg__cls-2" rx=".75" ry=".75"/><rect width="2.307" height="2.334" x="3.387" y="7.92" class="-json_svg__cls-2" rx=".75" ry=".75"/></svg>