<svg xmlns="http://www.w3.org/2000/svg" viewBox="0 0 16 16"><path fill="#c6c6c6" d="M4.43 6.29C3.878 7.709 7.492 7.03 9 8c-.45-1.98-2.641-4.883-4-5.457S3.227 2.141 3.134 2.2a.28.28 0 0 0-.132.274S4.982 4.873 4.43 6.29"/><path fill="#fff" d="M15.882 3.434c-1.882-.458-1.862.061-2.513.123-.28-.246-1.396-.922-2.545-.369-1.147.553-1.292 1.3-1.292 2.367 0 .41-.38.866-.38.866.201.412.11 1.31 0 1.145-.125-.184-.35-1.11-.681-1.51C5.948 3.628.526 4.132.526 4.132c-.58.164-1.035.44.648 1.62a445 445 0 0 0 4.82 3.326c.663.451-.485 1.543-1.421 1.922H1.139l3.434 3.434 1.144-1.145C8.358 13.268 10.63 12.37 12 11c2-2 1-4.023 1-4.023 1-1 1-2 1-2 2-1 2.192-1.388 1.882-1.542Z"/></svg>