<svg xmlns="http://www.w3.org/2000/svg" id="Layer-12" viewBox="0 0 16 16"><defs><filter id="luminosity-noclip" width="14" height="15" x="-198" y="-79" color-interpolation-filters="sRGB" filterUnits="userSpaceOnUse"><feFlood flood-color="#fff" result="bg"/><feBlend in="SourceGraphic" in2="bg"/></filter><style>.cls-1{fill:#fff}</style><mask id="mask" width="14" height="15" x="-198" y="-79" maskUnits="userSpaceOnUse"/></defs><path id="path5" d="M12 5 11.944.5a.5.5 0 0 0-.5-.5H1.477A.48.48 0 0 0 1 .478v13.044c0 .264.214.478.478.478H8v-1H2V1h9v4" class="cls-1"/><path d="M3 6h5v1H3zm0 3h4v1H3zm0-6h7v1H3z" class="cls-1"/><path fill="red" d="M11.462 7.047c-1.213.21-2.203 1.208-2.415 2.42A2.98 2.98 0 0 0 10 12.22v3.06c0 .265.321.398.509.21l1.036-1.036a.644.644 0 0 1 .91 0l1.037 1.037a.297.297 0 0 0 .508-.21v-3.06c.61-.55 1-1.337 1-2.222a3.002 3.002 0 0 0-3.539-2.953M12 12a2 2 0 1 1 0-4 2 2 0 0 1 0 4"/></svg>