<svg xmlns="http://www.w3.org/2000/svg" id="Row_5" width="16" height="16"><defs><filter id="luminosity-noclip" width="14" height="15" x="182" y="-79" color-interpolation-filters="sRGB" filterUnits="userSpaceOnUse"><feFlood flood-color="#fff" result="bg"/><feBlend in="SourceGraphic" in2="bg"/></filter><style>.cls-1{fill:#ff8c3e}</style><mask id="mask" width="14" height="15" x="182" y="-79" maskUnits="userSpaceOnUse"/></defs><g id="Layer-32"><path d="M13 6H3c0 4.57 0 7.71 1.14 10h8c1.14-2.29.86-5.43.86-10m-2 9H5c-1.14-2.29-.87-6.7-1-8h8c0 2.29.14 5.71-1 8" class="cls-1"/><path d="M11 9c0 1.14.14 3.86-1 5H6c-1.14-2.29-1-4-1-4 3.5.04 4.86-.86 4.86-.86.42-.27.8-.41 1.14-.14m-1-4c3.43-1.14-1.29-2.71.95-5-4.52 1.14.19 3.86-.95 5M6 5c3.43-1.14-.71-2.25 1-4-3.45.87-.13 3.13-1 4" class="cls-1"/></g></svg>