<svg xmlns="http://www.w3.org/2000/svg" id="Layer-39" viewBox="0 0 16 16"><defs><filter id="luminosity-noclip" width="14" height="15" x="-38" y="-39" color-interpolation-filters="sRGB" filterUnits="userSpaceOnUse"><feFlood flood-color="#fff" result="bg"/><feBlend in="SourceGraphic" in2="bg"/></filter><style>.cls-1{fill:#fff}</style><mask id="mask" width="14" height="15" x="-38" y="-39" maskUnits="userSpaceOnUse"/></defs><path d="M1 5v2c0 2 3 3 7 3s7-1 7-3V5c-1 1-3 2-7 2S2 6 1 5m0 5v2c0 2 2.966 3 7 3 4.011 0 7-1 7-3v-2c-1 1-3 2-7 2s-6.02-1.02-7-2" class="cls-1"/><ellipse cx="8" cy="3" class="cls-1" rx="7" ry="2"/></svg>