<svg xmlns="http://www.w3.org/2000/svg" width="16" height="16"><defs><filter id="a" width="16" height="18" x="0" y="0" color-interpolation-filters="sRGB" filterUnits="userSpaceOnUse"><feFlood flood-color="#fff" result="bg"/><feBlend in="SourceGraphic" in2="bg"/></filter><mask id="b" width="16" height="18" x="0" y="0" maskUnits="userSpaceOnUse"><g filter="url(#a)"><path fill-rule="evenodd" d="M7 6h9v12-2H7z"/></g></mask></defs><g fill="#ff13c0" mask="url(#b)"><path d="m3.47 8.67.92.86h.81V13l.87-.87V8.67zm5.2.86.86-.86V7.8h-.86zm-1.74-.86v2.6l.87-.87V8.67zm5.2-1.74H1.73l.87.87H13zM10.4 5.2H0l.87.87h10.4zM4.33 3.47l-.86.86v.87h.86zm1.74-1.74-.87.87v1.73h.87zm2.6 1.74H7.8V0l-.87.87v3.47h2.6l-.87-.87Z"/></g><g><path fill="#ffe68f" fill-rule="evenodd" d="M9 8v8h7V8z"/><path d="M7 6h5v1H7zm3 4h5v1h-5zm0 2h5v1h-5zm3 2h2v1h-2z"/></g></svg>