<svg xmlns="http://www.w3.org/2000/svg" id="Done" viewBox="0 0 16 16"><defs><clipPath id="clippath"/><filter id="luminosity-noclip" width="16" height="18" x="-38" y="-20" color-interpolation-filters="sRGB" filterUnits="userSpaceOnUse"><feFlood flood-color="#fff" result="bg"/><feBlend in="SourceGraphic" in2="bg"/></filter><style>.cls-1{fill:#787878}</style><mask id="mask" width="16" height="18" x="-38" y="-20" maskUnits="userSpaceOnUse"/></defs><g id="Layer_22_copy_2"><path d="M7.335.35a1.35 1.35 0 0 1 1.33.001l5.735 3.24c.362.203.604.606.6 1.022v6.863c.003.435-.264.849-.647 1.048l-5.765 3.253a1.26 1.26 0 0 1-1.28-.036l-1.73-1c-.119-.07-.251-.126-.334-.24.073-.1.205-.112.311-.155.24-.077.462-.2.683-.318.056-.039.124-.024.178.01.492.283.98.573 1.475.853.106.061.213-.02.303-.07 1.883-1.064 3.768-2.124 5.651-3.19l.112-.192.001-6.486a.2.2 0 0 0-.12-.202L8.092 1.513a.2.2 0 0 0-.226 0L2.122 4.751A.2.2 0 0 0 2 4.953v6.623s1.002.797 1.539 1.1c.302.163.673.26 1.006.135a.76.76 0 0 0 .495-.717c.003-2.257-.002-4.513.002-6.77-.007-.1.088-.182.185-.173q.387-.004.773 0c.108-.002.182.106.169.207-.001 2.27.003 4.541-.002 6.812 0 .605-.248 1.264-.808 1.56-.69.357-1.542.281-2.223-.061-.59-.295-1.152-.642-1.732-.958-.402-.208-.404-1.1-.404-1.1V4.613a1.19 1.19 0 0 1 .62-1.036z" class="cls-1"/><path d="M9.188 4.991c.88-.056 1.821-.033 2.613.4.613.332.953 1.029.963 1.71-.017.092-.113.142-.2.136-.256 0-.51.003-.766-.002-.108.004-.171-.095-.185-.191-.073-.326-.25-.648-.557-.806-.471-.235-1.017-.223-1.53-.219-.375.02-.778.053-1.095.273-.244.167-.318.504-.23.775.081.195.306.258.49.316 1.06.277 2.183.25 3.223.615.43.148.852.437 1 .888.192.604.107 1.326-.322 1.811-.349.4-.857.617-1.363.735-.674.15-1.373.153-2.056.087-.644-.073-1.313-.242-1.81-.68-.424-.37-.632-.944-.611-1.498.005-.094.098-.16.188-.151q.386-.005.77 0c.103-.007.18.081.185.178.047.31.164.636.435.82.522.337 1.177.314 1.775.323.496-.022 1.052-.028 1.456-.356.214-.186.277-.499.22-.768-.063-.227-.3-.333-.505-.402-1.046-.33-2.182-.21-3.218-.585-.42-.149-.828-.43-.99-.862-.225-.612-.122-1.368.353-1.837.463-.466 1.132-.646 1.767-.71" class="cls-1"/></g></svg>