<svg xmlns="http://www.w3.org/2000/svg" id="Done" viewBox="0 0 16 16"><defs><clipPath id="clippath"/><filter id="luminosity-noclip" width="14" height="15" x="-178" y="-19" color-interpolation-filters="sRGB" filterUnits="userSpaceOnUse"><feFlood flood-color="#fff" result="bg"/><feBlend in="SourceGraphic" in2="bg"/></filter><style>.cls-1{fill:#282828}.cls-7{fill:#606060}</style><mask id="mask" width="14" height="15" x="-178" y="-19" maskUnits="userSpaceOnUse"/></defs><g id="Layer-35"><path d="M0 11.426h2.284v2.285H0zm13.704 0h2.284v2.285h-2.284zm-9.136 0h2.284v2.285H4.568zm4.568 0h2.284v2.285H9.136z" class="cls-7"/><path d="M2.284 11.426h2.284v2.285H2.284zm4.568 0h2.284v2.285H6.852zm4.568 0h2.284v2.285H11.42z" class="cls-1"/><path d="M2.284 9.141h2.284v2.285H2.284zm4.568 0h2.284v2.285H6.852zm4.568 0h2.284v2.285H11.42z" class="cls-7"/><path d="M4.568 9.141h2.284v2.285H4.568zm4.568 0h2.284v2.285H9.136zm4.568 0h2.284v2.285h-2.284zM0 9.141h2.284v2.285H0z" class="cls-1"/><path d="M0 6.856h2.284v2.285H0zm13.704 0h2.284v2.285h-2.284zm-9.136 0h2.284v2.285H4.568zm4.568 0h2.284v2.285H9.136z" class="cls-7"/><path d="M2.284 6.856h2.284v2.285H2.284zm4.568 0h2.284v2.285H6.852zm4.568 0h2.284v2.285H11.42z" class="cls-1"/><path d="M2.284 4.571h2.284v2.285H2.284zm4.568 0h2.284v2.285H6.852zm4.568 0h2.284v2.285H11.42z" class="cls-7"/><path d="M4.568 4.571h2.284v2.285H4.568zm4.568 0h2.284v2.285H9.136zm4.568 0h2.284v2.285h-2.284zM0 4.571h2.284v2.285H0z" class="cls-1"/><path d="M0 2.285h2.284V4.57H0zm13.704 0h2.284V4.57h-2.284zm-9.136 0h2.284V4.57H4.568zm4.568 0h2.284V4.57H9.136z" class="cls-7"/><path d="M2.284 2.285h2.284V4.57H2.284zm4.568 0h2.284V4.57H6.852zm4.568 0h2.284V4.57H11.42z" class="cls-1"/><path d="M2.284 0h2.284v2.285H2.284zm4.568 0h2.284v2.285H6.852zm4.568 0h2.284v2.285H11.42z" class="cls-7"/><path d="M4.568 0h2.284v2.285H4.568zm4.568 0h2.284v2.285H9.136zm4.568 0h1.281c.554 0 1.003.45 1.003 1.003v1.282h-2.284zM1.005 0h1.28v2.285H0v-1.28C0 .45.45 0 1.005 0" class="cls-1"/><path fill="#3d8c2a" stroke="#0c3500" stroke-miterlimit="10" d="M.6 12.28a.4.4 0 0 0-.029.15v1.504a1.495 1.495 0 0 0 1.49 1.492H3.46q.076 0 .149-.03.076-.03.132-.09l3.85-2.402c.068-.069.646-.722.651-.82s-.76.506-.82.43c1.024-1.013-.49-1.905-.502-1.92L5.077 8.731c-.076-.076-.414-.428-.521-.428s-1.998 1.97-2.074 2.047L.69 12.148a.4.4 0 0 0-.09.133Z"/><path fill="#4ee01e" d="M.03 12.852A.4.4 0 0 0 0 13v1.505a1.495 1.495 0 0 0 1.49 1.49h1.4q.077 0 .149-.029.075-.03.133-.09l4.135-4.14a.4.4 0 0 0 .03-.528.3.3 0 0 0-.03-.046L4.775 8.628a.406.406 0 0 0-.575 0l-4.08 4.09a.4.4 0 0 0-.09.134"/><path fill="#71b263" stroke="#0c3500" stroke-miterlimit="10" d="M6.281 15.426c.051 0 2.284-1.143 2.284-1.143.047.02 2.284 0 2.284 0 .395 0 3.425-.747 3.426-1.143 0 0 1.162-1.095 1.142-1.142-.02-.05.039-1.105 0-1.143l-3.846-3.952a.405.405 0 0 0-.575 0l-8.4 8.405s-.275.503 1.792-.54c0 0 1.893-.485 1.893.658Z"/><path fill="#7cff5c" d="M2.512 15.447a.4.4 0 0 0 0 .298c.042.1.122.18.222.222q.072.03.15.03h11.614a1.493 1.493 0 0 0 1.49-1.491v-3.032a.4.4 0 0 0-.119-.282l-4.298-4.289a.405.405 0 0 0-.574 0l-8.4 8.405a.4.4 0 0 0-.09.133z"/></g></svg>