<svg xmlns="http://www.w3.org/2000/svg" id="Row_1" width="16" height="16"><defs><filter id="luminosity-noclip" width="15" height="16.3" x="1" y="0" color-interpolation-filters="sRGB" filterUnits="userSpaceOnUse"><feFlood flood-color="#fff" result="bg"/><feBlend in="SourceGraphic" in2="bg"/></filter><filter id="luminosity-noclip-2" width="16" height="16" x="-100" y="60" color-interpolation-filters="sRGB" filterUnits="userSpaceOnUse"><feFlood flood-color="#fff" result="bg"/><feBlend in="SourceGraphic" in2="bg"/></filter><mask id="mask" width="15" height="16.3" x="1" y="0" maskUnits="userSpaceOnUse"><g filter="url(#luminosity-noclip)"><path fill-rule="evenodd" d="M16 5.38C15.27 4.54 14.2 4 13 4h-2C8.79 4 7 5.79 7 8v.77l-.12.12c-.57.57-.88 1.32-.88 2.12v5.29h10z"/></g></mask><mask id="mask-1" width="16" height="16" x="-100" y="60" maskUnits="userSpaceOnUse"/><style>.cls-2{fill:#fff;fill-rule:evenodd}</style></defs><g id="Layer-12"><g mask="url(#mask)"><g id="Layer_13_copy_2"><path fill="#3f51b5" d="M8.01 8c-1.81 2.03-4.29 3.05-7 3l3 3c2.57-.64 4.3-2.02 6-4z"/><path fill="#1976d2" d="M1.01 0v11c2.71.05 5.19-.97 7-3z"/><path fill="#29b6f6" d="M1 0c1.75 1.99 5.26 6.01 7.01 8 1.93-2.21 3.03-5.06 3-8z"/></g></g><g id="Layer_99"><path id="lock" d="M16 11v5H8v-5c-.01-.55.44-1 .99-1H15c.55 0 1 .45 1 1" class="cls-2"/><path id="lock-2" fill="#b1b1b1" fill-rule="evenodd" d="M16 13v3H8s8-5 8-3m-2-1h-3"/><path d="M13 6h-2c-1.1 0-2 .9-2 2v3h1V8c0-.55.45-1 1-1h2c.55 0 1 .45 1 1v3h1V8c0-1.1-.9-2-2-2" class="cls-2"/><path d="M11 11h2v3h-2zM9 9.5h1v.5H9zm5 0h1v.5h-1z"/></g></g></svg>