<svg xmlns="http://www.w3.org/2000/svg" id="Done" viewBox="0 0 16 16"><defs><clipPath id="clippath"><path fill="none" d="M-1 16h3V2h7l3 3h5v-6H-1"/></clipPath><clipPath id="clippath-1"/><filter id="luminosity-noclip" width="16" height="18" x="-118" y="20" color-interpolation-filters="sRGB" filterUnits="userSpaceOnUse"><feFlood flood-color="#fff" result="bg"/><feBlend in="SourceGraphic" in2="bg"/></filter><style>.cls-1{fill:#0f0}</style><mask id="mask" width="16" height="18" x="-118" y="20" maskUnits="userSpaceOnUse"/></defs><g id="Layer_10_copy_5"><path d="M15 1v14H1V1zm0-1H1a1 1 0 0 0-1 1v14a1 1 0 0 0 1 1h14a1 1 0 0 0 1-1V1a1 1 0 0 0-1-1" class="cls-1" clip-path="url(#clippath)"/><g id="icon"><path id="Text" d="M6.902 12.666H5.127v-1.312h1.775q.405 0 .654-.173c.249-.173.287-.277.363-.484s.114-.441.114-.703q0-.38-.114-.718c-.114-.338-.197-.405-.363-.542s-.384-.205-.654-.205H5.607v7.219h-1.57V7.217h2.865q.85 0 1.456.357c.606.357.716.566.935.982s.328.891.328 1.426q0 .833-.328 1.43c-.328.597-.53.707-.935.926s-.89.328-1.456.328m7.534.861q0-.252-.05-.448c-.05-.196-.097-.25-.19-.36s-.23-.218-.405-.325-.402-.218-.68-.332q-.492-.198-.931-.424c-.44-.226-.555-.326-.785-.525s-.412-.433-.542-.703-.197-.584-.197-.943q0-.528.19-.964c.19-.436.308-.541.543-.75s.512-.37.835-.484.678-.17 1.069-.17q.825 0 1.418.346c.593.346.7.543.914.938s.322.84.322 1.336h-1.564q0-.387-.114-.689c-.115-.302-.197-.358-.36-.472s-.376-.17-.634-.17q-.363 0-.597.144c-.234.144-.272.225-.346.387s-.111.346-.111.553q0 .223.102.402c.102.179.163.227.284.325s.269.19.443.278.368.173.583.255q.591.223 1.037.49c.446.267.544.377.741.597s.345.47.442.747.147.594.147.95q0 .527-.182.96c-.182.433-.297.538-.527.745s-.509.366-.835.477-.689.167-1.087.167q-.574 0-1.093-.167c-.519-.167-.651-.28-.917-.507s-.474-.512-.627-.858-.228-.753-.228-1.222h1.564q0 .393.088.677c.088.284.147.342.264.457s.258.2.422.252.35.08.556.08q.37 0 .598-.136c.228-.136.264-.214.334-.372s.106-.339.106-.542" class="cls-1"/></g></g></svg>