<svg xmlns="http://www.w3.org/2000/svg" id="Layer-61" viewBox="0 0 16 16"><defs><filter id="luminosity-noclip" width="14" height="15" x="-58" y="-79" color-interpolation-filters="sRGB" filterUnits="userSpaceOnUse"><feFlood flood-color="#fff" result="bg"/><feBlend in="SourceGraphic" in2="bg"/></filter><style>.cls-4{fill:#71c6ff}</style><mask id="mask" width="14" height="15" x="-58" y="-79" maskUnits="userSpaceOnUse"/></defs><path d="M11.992 8V4.967H1.986a1 1 0 0 0-1 1V13a1 1 0 0 0 1 1h1.03v-3.496C3.016 9.674 3.69 9 4.52 9h6.472a1 1 0 0 0 1-1" class="cls-4"/><path d="M.986 13a1 1 0 0 0 1 1h1.03v-3.496C2 14 .986 13 .986 13" opacity=".3"/><circle cx="9" cy="7" r="1"/><path fill="#ffd028" d="M13 5v3.494C13 9.326 12.326 10 11.494 10H5.027a1 1 0 0 0-1 1v2.995H14a1 1 0 0 0 1-1V6a1 1 0 0 0-1-1z"/><path d="M4.027 13.995H14a1 1 0 0 0 1-1V6c0 8-10.973 7.995-10.973 7.995" opacity=".22"/><circle cx="7" cy="12" r="1"/><path d="M5 2v2h1V3h4v1h1V2z" class="cls-4"/><path fill="#005369" d="M5 4h1v1H5z"/><path fill="#005468" d="M10 4h1v1h-1z"/></svg>