<svg xmlns="http://www.w3.org/2000/svg" width="16" height="16"><defs><clipPath id="a"><path fill="none" d="M-1 17h5v-5H2V2h7l3 2h5v-5H-1"/></clipPath><clipPath id="b"><path fill="none" d="M4 17v-3L14 4h3v-5L4 12h-5v5"/></clipPath></defs><g><g clip-path="url(#a)"><path fill="#678484" d="M15 1v14H1V1zm0-1H1C.45 0 0 .45 0 1v14c0 .55.45 1 1 1h14c.55 0 1-.45 1-1V1c0-.55-.45-1-1-1"/></g><g clip-path="url(#b)"><path fill="#89846d" d="M15 1v14H1V1zm0-1H1C.45 0 0 .45 0 1v14c0 .55.45 1 1 1h14c.55 0 1-.45 1-1V1c0-.55-.45-1-1-1"/></g><g><path fill="#89846d" d="M14 8v.77C14 9.98 12.96 11 11.77 11H9.76c-.96 0-1.75.82-1.75 1.79v1.27c0 .95 0 1.94 2 1.94h1c2 0 2-.98 2-2h-1v1h-1v-2h3s2 0 2-2v-1s0-2-1-2h-1Z"/><path fill="#678484" d="M7 13v-.77C7 11.02 8.04 10 9.23 10h2.01c.96 0 1.75-.82 1.75-1.79V6.94c0-.95 0-1.94-2-1.94h-1c-2 0-2 2-2 2h1V6h1v2h-3s-2 0-2 2v1c0 2 1 2 1 2h1Z"/></g></g></svg>