<svg xmlns="http://www.w3.org/2000/svg" id="-sack_svg__Layer_93" viewBox="0 0 16 16"><defs><filter id="-sack_svg__luminosity-noclip" width="14" height="15" x="-78" y="-99" color-interpolation-filters="sRGB" filterUnits="userSpaceOnUse"><feFlood flood-color="#fff" result="bg"/><feBlend in="SourceGraphic" in2="bg"/></filter><style>.-sack_svg__cls-1{fill:#5b2d0e}.-sack_svg__cls-2{fill:#281104;stroke:#2a0900;stroke-miterlimit:10;stroke-width:.25px}.-sack_svg__cls-3{fill:#66320e}.-sack_svg__cls-4{fill:#a85c29}.-sack_svg__cls-5{fill:#f9a369}</style><mask id="-sack_svg__mask" width="14" height="15" x="-78" y="-99" maskUnits="userSpaceOnUse"/></defs><path d="m4.758 3.974-.38-.014s-.376-.12-.076-.584.85-.533 1.129-1.2c0 0 .061 1.305-.673 1.798" class="-sack_svg__cls-1"/><path d="M6.441 1.744a.38.38 0 0 0-.504-.147 1.42 1.42 0 0 0-.761 1.166 1.53 1.53 0 0 1-.797 1.197s.837.607 1.49 0c0 0 .899-.809 1.516-.395 0 0-.582-1.227-.944-1.821M8.166 3.45s-.01-.632.575-1.274c0 0 .654-.662.696-1.377A.75.75 0 0 0 8.8.012c-.335-.046-.817.024-1.382.508l-.216.197a.264.264 0 0 0-.049.326c.267.459.938 1.674 1.013 2.407" class="-sack_svg__cls-4"/><path d="M6.305 2.222s.238.29.777.018a.8.8 0 0 0 .39-.406.66.66 0 0 0-.027-.573s.716.746.837 2.428h-.861s-.837-.467-1.116-1.467" class="-sack_svg__cls-5"/><path d="M6.86 2.379c-.151.029-.45.005-.555-.157-.154-.24-.068-.492.235-.744 0 0 .683-.528.916-.205.056.078.116.299.088.48-.039.246-.207.536-.684.626" class="-sack_svg__cls-1"/><path d="M7.473 4.467s-.366.223-.506.714c0 0-.671 2.235-2.42 3.537a3.4 3.4 0 0 0-.53.475c-.538.613-1.503 2.128-.725 4.022 0 0 .815 2.23 4.287 2.727 1.28.184 2.597-.068 3.678-.778.817-.537 1.618-1.387 1.933-2.724.106-.451.119-.918.021-1.37a3.98 3.98 0 0 0-1.345-2.213 11 11 0 0 1-1.544-1.564C9.65 6.444 8.81 5.277 8.473 4.36z" class="-sack_svg__cls-5"/><path d="M11.866 8.857a11.2 11.2 0 0 1-1.872-1.988c.207.804.374 1.744.385 2.718.037 3.062-2.403 5.444-5.233 5.559.61.348 1.404.648 2.433.796 1.28.184 2.597-.068 3.678-.778.817-.537 1.618-1.387 1.932-2.724.107-.451.12-.918.022-1.37a3.98 3.98 0 0 0-1.345-2.213" class="-sack_svg__cls-4"/><path d="M7.772 3.74s-.25 1.065-.454 1.577a.3.3 0 0 0-.023.154l.002.01c.045.343.53.328.566-.017q.014-.12.006-.287s-.16-.89-.097-1.436" class="-sack_svg__cls-1"/><path d="M8.197 4.45s.668 1.653-.093 3.519a.226.226 0 1 0 .426.153c.17-.553.421-2.229-.082-3.632z" class="-sack_svg__cls-2"/><path d="M7.997 4.35s.668 1.653-.093 3.519a.226.226 0 1 0 .426.153c.17-.553.61-2.24.105-3.643z" class="-sack_svg__cls-3"/><path d="M7.887 4.567s1.664 1.691.879 6.053a.27.27 0 0 0 .53.101c.183-.943.46-4.202-.8-6.154z" class="-sack_svg__cls-2"/><path d="M8.012 4.548s1.338 1.61.554 5.972a.27.27 0 0 0 .53.101c.183-.943.689-4.202-.57-6.154z" class="-sack_svg__cls-3"/><path d="M7.119 4.314c0 .138-.05.237.088.254l1.15.14c.162.02.15-.043.169-.234z" class="-sack_svg__cls-2"/><path d="M6.967 4.297v.028c0 .132.101.242.233.253l1.187.1a.254.254 0 0 0 .048-.506l-1.187-.128a.254.254 0 0 0-.28.253" class="-sack_svg__cls-3"/><path d="M7.119 3.814c0 .138-.05.237.088.254l1.15.14c.162.02.15-.043.169-.234z" class="-sack_svg__cls-2"/><path d="M6.967 3.797c0 .138.103.254.24.27l1.15.142a.273.273 0 0 0 .306-.271V3.92a.273.273 0 0 0-.244-.271l-1.15-.124a.273.273 0 0 0-.302.272" class="-sack_svg__cls-3"/></svg>