<svg xmlns="http://www.w3.org/2000/svg" id="Done" viewBox="0 0 16 16"><defs><clipPath id="clippath"><path fill="none" d="M-1 17h4v-5l-1-1V2h8l2 3h5v-6H-1"/></clipPath><clipPath id="clippath-1"/><filter id="luminosity-noclip" width="16" height="18" x="-58" y="20" color-interpolation-filters="sRGB" filterUnits="userSpaceOnUse"><feFlood flood-color="#fff" result="bg"/><feBlend in="SourceGraphic" in2="bg"/></filter><style>.cls-3{fill:#ff5c00}</style><mask id="mask" width="16" height="18" x="-58" y="20" maskUnits="userSpaceOnUse"/></defs><g id="SH"><path d="M15 1v14H1V1zm0-1H1a1 1 0 0 0-1 1v14a1 1 0 0 0 1 1h14a1 1 0 0 0 1-1V5.277c0-.181.093-.122 0-.277V1a1 1 0 0 0-1-1" class="cls-3" clip-path="url(#clippath)"/><g id="icon"><path id="Text" d="M7.863 13.527q0-.252-.05-.448c-.05-.196-.097-.25-.19-.36s-.229-.218-.405-.325-.402-.218-.68-.332q-.492-.198-.931-.424c-.439-.226-.555-.326-.785-.525s-.411-.433-.542-.703-.197-.584-.197-.943q0-.528.19-.964c.19-.436.309-.541.543-.75s.513-.37.835-.484.679-.17 1.07-.17q.825 0 1.417.346c.592.346.7.543.914.938s.323.84.323 1.336H7.81q0-.387-.114-.689c-.114-.302-.197-.358-.36-.472s-.376-.17-.633-.17q-.364 0-.598.144c-.234.144-.272.225-.346.387s-.111.346-.111.553q0 .223.102.402c.102.179.163.227.285.325s.268.19.442.278.368.173.583.255q.592.223 1.037.49c.445.267.544.377.741.597s.345.47.443.747.146.594.146.95q0 .527-.181.96c-.181.433-.297.538-.528.745s-.509.366-.835.477-.688.167-1.087.167q-.574 0-1.092-.167c-.518-.167-.652-.28-.917-.507s-.475-.512-.627-.858-.229-.753-.229-1.222h1.565q0 .393.087.677c.087.284.147.342.264.457s.258.2.422.252.35.08.557.08q.369 0 .597-.136c.228-.136.264-.214.334-.372s.106-.339.106-.542m3.691-6.31v8.531h-1.57V7.217zm3.135 3.504v1.306h-3.545v-1.306zm1.178-3.504v8.531h-1.559V7.217z" class="cls-3"/></g></g></svg>