<svg xmlns="http://www.w3.org/2000/svg" width="16" height="16"><path fill="#0ff" fill-rule="evenodd" d="M7.13 8c0 1.35-1.02 2.55-2.63 2.55S1.64 9.41 1.64 8 2.97 5.48 4.5 5.45c0 0 1.32-.15 1.93.48.11-.76.7-1.25.7-1.25-.7-.52-1.4-.69-2.63-.69-2.49 0-4.5 1.79-4.5 4s2.01 4 4.5 4 4.26-1.79 4.26-4"/><path fill="#0ff" fill-rule="evenodd" d="M8.76 8c0-1.35 1.13-2.58 2.73-2.55.99.02 2.11.74 2.11 2.14 0 1.72-1.73 3.3-1.73 3.3l1.26 1.22s2.37-1.48 2.37-4.12c0-2.21-1.53-4-4.01-4s-4.37 1.79-4.37 4"/><path fill="#0ff" fill-rule="evenodd" d="m15 14-5-5v5z"/></svg>