<svg xmlns="http://www.w3.org/2000/svg" id="Layer-47" viewBox="0 0 16 16"><defs><filter id="luminosity-noclip" width="14" height="15" x="-158" y="-99" color-interpolation-filters="sRGB" filterUnits="userSpaceOnUse"><feFlood flood-color="#fff" result="bg"/><feBlend in="SourceGraphic" in2="bg"/></filter><style>.cls-2{fill:none;stroke-linecap:round;stroke-linejoin:round;stroke:#f1c40f;stroke-width:1.2px}</style><mask id="mask" width="14" height="15" x="-158" y="-99" maskUnits="userSpaceOnUse"/></defs><path id="path4496" fill="none" stroke="#7f8c8d" stroke-linecap="round" stroke-linejoin="round" stroke-width="2" d="M9 3H1"/><path id="path4479" d="M10.22 1.973C10.99.66 12.68.211 14.004.967S15.79 3.4 15.04 4.724a2.786 2.786 0 0 1-3.77 1.056 2.757 2.757 0 0 1-1.086-3.744" class="cls-2"/><path id="path4479-2" d="M1.717 12.255c.581-.994 1.86-1.334 2.863-.762s1.353 1.843.785 2.844a2.11 2.11 0 0 1-2.854.799 2.086 2.086 0 0 1-.822-2.833" class="cls-2"/><path id="path4496-4" d="M6.204 13.439c2.34 0 6.417-.49 6.417-7.108" class="cls-2"/></svg>