<svg xmlns="http://www.w3.org/2000/svg" id="Layer-46" viewBox="0 0 16 16"><defs><filter id="luminosity-noclip" width="14" height="15" x="-138" y="-99" color-interpolation-filters="sRGB" filterUnits="userSpaceOnUse"><feFlood flood-color="#fff" result="bg"/><feBlend in="SourceGraphic" in2="bg"/></filter><style>.cls-1{fill:#ffb13b}</style><mask id="mask" width="14" height="15" x="-138" y="-99" maskUnits="userSpaceOnUse"/></defs><path id="svgbar" d="M2.406 7c-3.252-2.02-3.164 4.138 0 2h11.188c3.167 2.138 3.249-4.02 0-2z" class="cls-1"/><path id="svgbar-2" d="M4.674 3.13C3.897-.853-.853 3.9 3.131 4.676l8.195 8.194c.777 3.985 5.527-.769 1.543-1.544z" class="cls-1"/><path id="svgbar-3" d="M9 2.406c2.08-3.21-4.08-3.206-2 0v11.188c-2.08 3.21 4.08 3.207 2 0z" class="cls-1"/><path id="svgbar-4" d="M12.87 4.675c3.985-.778-.77-5.527-1.544-1.544L3.13 11.326c-3.986.777.769 5.526 1.543 1.543z" class="cls-1"/></svg>