<svg xmlns="http://www.w3.org/2000/svg" id="-svgo_svg__Row_6" viewBox="0 0 16 16"><defs><filter id="-svgo_svg__luminosity-noclip" width="14" height="15" x="102" y="-99" color-interpolation-filters="sRGB" filterUnits="userSpaceOnUse"><feFlood flood-color="#fff" result="bg"/><feBlend in="SourceGraphic" in2="bg"/></filter><style>.-svgo_svg__cls-1{fill:#71c6ff}</style><mask id="-svgo_svg__mask" width="14" height="15" x="102" y="-99" maskUnits="userSpaceOnUse"/></defs><g id="-svgo_svg__Layer-16"><path d="M4.127 6.509a1.011 1.011 0 0 0 1.699.519l.799.593a1.377 1.377 0 0 0 .369 1.8l-.649 1.112a.689.689 0 1 0 .276.16l.644-1.11a1.38 1.38 0 0 0 1.78-.629l1.24.538v.013a.639.639 0 1 0 .12-.311L9.16 8.657a1.38 1.38 0 0 0-.468-1.411l.638-.997a.854.854 0 1 0-.27-.172l-.637.996a1.38 1.38 0 0 0-1.609.293l-.799-.596a1.01 1.01 0 1 0-1.889-.261Z" class="-svgo_svg__cls-1"/><path d="M14.646 6.38a7 7 0 0 0-.828-1.9c.275-.387.538-.782.782-1.2L12.715 1.4a16 16 0 0 0-1.233.808 6.8 6.8 0 0 0-1.84-.76C9.562.969 9.464.484 9.337 0h-2.67a16 16 0 0 0-.299 1.42 6.9 6.9 0 0 0-1.896.753A16 16 0 0 0 3.287 1.4L1.4 3.285q.342.58.725 1.12a6.9 6.9 0 0 0-.88 1.992q-.628.111-1.246.27v2.666q.579.15 1.158.253c.159.768.448 1.503.854 2.174q-.321.46-.611.954l1.886 1.885c.32-.185.623-.382.92-.587a6.9 6.9 0 0 0 2.228.928q.096.53.232 1.06h2.667c.095-.362.171-.724.24-1.087a6.9 6.9 0 0 0 2.171-.938q.473.329.972.624l1.884-1.885c-.21-.358-.435-.7-.67-1.04a6.9 6.9 0 0 0 .8-2.073c.423-.074.846-.16 1.269-.27V6.666a16 16 0 0 0-1.354-.286m-1.968 3.441a5.05 5.05 0 0 1-2.696 2.928 5.02 5.02 0 0 1-3.986.052 5.08 5.08 0 0 1-2.778-2.887 5.02 5.02 0 0 1 .191-3.956 5.06 5.06 0 0 1 2.545-2.426 5.03 5.03 0 0 1 4.072.054 5.028 5.028 0 0 1 2.653 6.235" class="-svgo_svg__cls-1"/></g></svg>