<svg xmlns="http://www.w3.org/2000/svg" id="Done" viewBox="0 0 16 16"><defs><clipPath id="clippath"><path fill="none" d="M-1 7h3V2h7l3 5h5v-8H-1"/></clipPath><clipPath id="clippath-1"/><filter id="luminosity-noclip" width="16" height="18" x="-138" y="20" color-interpolation-filters="sRGB" filterUnits="userSpaceOnUse"><feFlood flood-color="#fff" result="bg"/><feBlend in="SourceGraphic" in2="bg"/></filter><style>.cls-1{fill:#fff}</style><mask id="mask" width="16" height="18" x="-138" y="20" maskUnits="userSpaceOnUse"/></defs><g id="AHK_copy_2"><path d="M15 1v14H1V1zm0-1H1a1 1 0 0 0-1 1v14a1 1 0 0 0 1 1h14a1 1 0 0 0 1-1V1a1 1 0 0 0-1-1" class="cls-1" clip-path="url(#clippath)"/><path id="Text" d="M5.34 9.35v.984H.93V9.35zm-1.628 0v6.398h-1.18V9.35zm3.376 0 .994 2.21.955-2.21h1.326l-1.589 3.168 1.62 3.23h-1.37l-.995-2.254-.99 2.254H5.694l1.638-3.252L5.73 9.35zm7.89 0v.984h-4.413V9.35zm-1.63 0v6.398h-1.18V9.35z" class="cls-1"/></g></svg>