<svg xmlns="http://www.w3.org/2000/svg" viewBox="0 0 16 16"><defs><clipPath id="a"><path fill="none" d="M-1 17h5v-5H2V2h8l2 3 5-.001V-1H-1"/></clipPath></defs><g clip-path="url(#a)"><path fill="#006fff" d="m14.997 1 .003.003V5l-.003 10L1 14.997 1.003 1zm0-1H1.003C.449 0 0 .449 0 1.003v13.994C0 15.551.449 16 1.003 16h13.994c.554 0 1.003-.449 1.003-1.003V1.003C16 .449 15.551 0 14.997 0"/></g><path fill="#0070ff" d="M10.434 7.217v1.312H4.609V7.217zm-2.15 0v8.531h-1.56V7.217zm6.152 6.31q0-.252-.05-.448c-.05-.196-.097-.25-.19-.36s-.23-.218-.405-.325-.402-.218-.68-.332q-.492-.198-.931-.424c-.44-.226-.555-.326-.785-.525s-.412-.433-.542-.703-.197-.584-.197-.943q0-.528.19-.964c.19-.436.308-.541.543-.75s.512-.37.835-.484.678-.17 1.069-.17q.825 0 1.418.346c.593.346.7.543.914.938s.322.84.322 1.336h-1.564q0-.387-.114-.689c-.115-.302-.197-.358-.36-.472s-.376-.17-.634-.17q-.363 0-.597.144c-.234.144-.272.225-.346.387s-.111.346-.111.553q0 .223.102.402c.102.179.163.227.284.325s.269.19.443.278.368.173.583.255q.591.223 1.037.49c.446.267.544.377.741.597s.345.47.442.747.147.594.147.95q0 .527-.182.96c-.182.433-.297.538-.527.745s-.509.366-.835.477-.689.167-1.087.167q-.574 0-1.093-.167c-.519-.167-.651-.28-.917-.507s-.474-.512-.627-.858-.228-.753-.228-1.222h1.564q0 .393.088.677c.088.284.147.342.264.457s.258.2.422.252.35.08.556.08q.37 0 .598-.136c.228-.136.264-.214.334-.372s.106-.339.106-.542"/></svg>