<svg xmlns="http://www.w3.org/2000/svg" id="Layer-48" viewBox="0 0 16 16"><defs><filter id="luminosity-noclip" width="14" height="15" x="-178" y="-39" color-interpolation-filters="sRGB" filterUnits="userSpaceOnUse"><feFlood flood-color="#fff" result="bg"/><feBlend in="SourceGraphic" in2="bg"/></filter><style>.cls-1{fill:#fff}</style><mask id="mask" width="14" height="15" x="-178" y="-39" maskUnits="userSpaceOnUse"/></defs><path id="Y" d="M7 1 5.724 2.915A4.3 4.3 0 0 0 5 5.305V8H3V5.307c0-.852-.252-1.685-.725-2.394L1 1h2l1 3 1-3z" class="cls-1"/><path id="A" fill="#ff2c3c" d="M10 5 9 7H7l1-2 1-2 1-2h1l1 2 1 2 1 2h-2l-1-2z"/><path id="M" d="M1 9v6h2v-4l1 3h2l1-3v4h2V9H6l-1 3-1-3z" class="cls-1"/><path id="L" d="M13 13V9h-2v6h4v-2z" class="cls-1"/></svg>