<svg xmlns="http://www.w3.org/2000/svg" viewBox="0 0 16 16"><path fill="#36cbff" d="M12.549 13.714c-.754.52-2.632 1.637-2.632 1.637s.5.551.083.649c-1 0-2.753-.005-3 0-.664.005-1 0-2 0-1-1 1-1 1-1s-1 0-1.544-1.07c-.129.314-.705 1.725-1.05 2.07H1.12c-.582-.31.88-2 .88-2s-1 1.143-1 0v-2c0-1.143 1-2 1-2V9c0-2.286 2.549-2.143 2.549-2.143s-1.143 0-1.143-2.286c0-1.142-.088-1.111 0-1.142.309-.119 1.272-.54 1.493-.781.792-1.505 1.935-1.505 1.935-1.505L8 0l1 1v1l1-1h1c.443.86 1 2 1 4s-2 3-2.88 3c-.077.129.335.335 1.143 1.143 1.143 1.143.494 3.936.581 4.08.016.026.02.037.02.037s.392.11 1.685-.689c.69-.427 1.353-1.132 2.285-1.142.902-.016.996 1.077 0 1.142s-1.532.623-2.285 1.143"/></svg>