<svg xmlns="http://www.w3.org/2000/svg" xmlns:xlink="http://www.w3.org/1999/xlink" width="16" height="16"><defs><symbol id="e" viewBox="0 0 13 10"><path fill="#fff" d="M5 0H1C.45 0 0 .45 0 1v8c0 .55.45 1 1 1h11c.55 0 1-.45 1-1V2c0-.55-.45-1-1-1H6c0-.55-.45-1-1-1"/></symbol><symbol id="d" viewBox="0 0 6 2"><path fill="url(#a)" d="M0 1v1h5c.55 0 1-.45 1-1s-.45-1-1-1H1C.45 0 0 .45 0 1" opacity=".72" style="isolation:isolate"/></symbol><symbol id="f" viewBox="0 0 13 10"><g mask="url(#b)"><path fill="#0ff" d="M0 0h13v10H0z"/></g><use xlink:href="#d" width="6" height="2"/></symbol><linearGradient id="a" x1="-7226.14" x2="-7226.14" y1="23619.99" y2="23623.99" gradientTransform="matrix(.5 0 0 -.5 3616.07 11811.99)" gradientUnits="userSpaceOnUse"><stop offset="0"/><stop offset="1" stop-opacity=".15"/></linearGradient><mask id="b" width="13" height="10" x="0" y="0" maskUnits="userSpaceOnUse"><use xlink:href="#e" width="13" height="10"/></mask></defs><use xlink:href="#f" width="13" height="10"/><path d="M10.41 2H7.59L2 7.59V10h2v6h10v-6h2V7.59z"/><path fill="#ff2020" d="M12 9 9 6 6 9H3l5-5h2l5 5z"/><path fill="#fff" d="M12 11 9 8l-3 3H5v4h8v-4z"/><path d="M7 11h4v4H7z"/><path fill="#c98000" d="M8 12h2v3H8z"/></svg>