<svg xmlns="http://www.w3.org/2000/svg" xmlns:xlink="http://www.w3.org/1999/xlink" width="16" height="16"><defs><symbol id="f" viewBox="0 0 13 11"><path fill="#fff" d="M0 0v11h10.98c.55 0 1-.45 1-1V6c.55 0 1-.45 1-1V1c.01-.75-.39-.99-.99-1z"/></symbol><symbol id="b" viewBox="0 0 13 11"><path d="M0 0v11h11c.55 0 1-.45 1-1V6c.55 0 1-.45 1-1V1c0-.75-.41-.99-1-1z" opacity=".3" style="isolation:isolate"/></symbol><symbol id="h" viewBox="0 0 7 16"><path fill="#fff" d="M7 2.95c0-.6-.37-1.14-.93-1.36L0 0v14l6 2c1 0 1-1 1-1z"/></symbol><symbol id="d" viewBox="0 0 7.91 11"><path d="M0 1.31V11h7.91V3.39C7.91.51 5.89.63 3.81.63S0 1.31 0 1.31" opacity=".6"/><path d="M0 0h7.91v11H0z" opacity="0"/></symbol><symbol id="i" viewBox="0 0 13.02 11"><g mask="url(#a)"><path fill="#ff2020" d="M.02 0h13v11h-13z"/></g><use xlink:href="#b" width="13" height="11"/><use xlink:href="#d" width="7.91" height="11" transform="translate(.02)"/></symbol><symbol id="k" viewBox="0 0 7 16"><g mask="url(#e)"><path fill="#ff2020" d="M0 0h7v16H0z"/></g></symbol><mask id="a" width="13.02" height="11" x="0" y="0" maskUnits="userSpaceOnUse"><use xlink:href="#f" width="13" height="11" transform="translate(.02)"/></mask><mask id="e" width="7" height="16" x="0" y="0" maskUnits="userSpaceOnUse"><use xlink:href="#h" width="7" height="16"/></mask><linearGradient id="j" x1="31.25" x2="33.99" y1="-194.69" y2="-194.69" gradientTransform="matrix(3.78 0 0 -3.78 -118.13 -728.84)" gradientUnits="userSpaceOnUse"><stop offset=".69"/><stop offset="1" stop-opacity="0"/></linearGradient></defs><use xlink:href="#i" width="13.02" height="11"/><g><path d="M2 1h13v11c0 1.1-.9 2-2 2H2z"/><path fill="#fff" d="M13 5h1v1h-1zm0-3h-1v1h1v1h1V2zm-3 0h1v1h-1zM8 2h1v1H8zM6 2h1v1H6zM4 2H3v2h1V3h1V2zM3 5h1v1H3zm0 2h1v1H3zm0 2h1v1H3zm1 3v-1H3v2h2v-1zm2 0h1v1H6z"/><path fill="#40ffa0" d="M13 13H8V7h6v5c0 .55-.45 1-1 1"/></g><path fill="url(#j)" d="m0 0 1 2h10v12H0z"/><use xlink:href="#k" width="7" height="16"/></svg>