<svg xmlns="http://www.w3.org/2000/svg" xmlns:xlink="http://www.w3.org/1999/xlink" width="16" height="16"><defs><symbol id="f" viewBox="0 0 13 11"><path fill="#fff" d="M0 0v11h10.98c.55 0 1-.45 1-1V6c.55 0 1-.45 1-1V1c.01-.75-.39-.99-.99-1z"/></symbol><symbol id="b" viewBox="0 0 13 11"><path d="M0 0v11h11c.55 0 1-.45 1-1V6c.55 0 1-.45 1-1V1c0-.75-.41-.99-1-1z" opacity=".3" style="isolation:isolate"/></symbol><symbol id="h" viewBox="0 0 7 16"><path fill="#fff" d="M7 2.95c0-.6-.37-1.14-.93-1.36L0 0v14l6 2c1 0 1-1 1-1z"/></symbol><symbol id="d" viewBox="0 0 7.91 11"><path d="M0 1.31V11h7.91V3.39C7.91.51 5.89.63 3.81.63S0 1.31 0 1.31" opacity=".6"/><path d="M0 0h7.91v11H0z" opacity="0"/></symbol><symbol id="i" viewBox="0 0 13.02 11"><g mask="url(#a)"><path fill="#a040ff" d="M.02 0h13v11h-13z"/></g><use xlink:href="#b" width="13" height="11"/><use xlink:href="#d" width="7.91" height="11" transform="translate(.02)"/></symbol><symbol id="k" viewBox="0 0 7 16"><g mask="url(#e)"><path fill="#a040ff" d="M0 0h7v16H0z"/></g></symbol><mask id="a" width="13.02" height="11" x="0" y="0" maskUnits="userSpaceOnUse"><use xlink:href="#f" width="13" height="11" transform="translate(.02)"/></mask><mask id="e" width="7" height="16" x="0" y="0" maskUnits="userSpaceOnUse"><use xlink:href="#h" width="7" height="16"/></mask><linearGradient id="j" x1="1.84" x2="4.57" y1="-42.94" y2="-42.94" gradientTransform="matrix(3.78 0 0 -3.78 -6.95 -155.3)" gradientUnits="userSpaceOnUse"><stop offset=".69"/><stop offset="1" stop-opacity="0"/></linearGradient></defs><use xlink:href="#i" width="13.02" height="11"/><g><path d="m2 11-.03-5.03c0-1.1.9-2 2-2H5V1h8v3h1c1.1 0 2 .9 2 2v5.99C16 13 15 14 14 14H6s-4-1.9-4-3"/><path fill="#71c6ff" d="M11.99 7V5H4c-.55 0-1.03.42-1.03.97V12c0 .55.45 1 1 1H5V9.5C5 8.67 5.67 8 6.5 8h4.49c.55 0 1-.45 1-1"/><path fill="#ffd028" d="M13 5v2.49C13 8.32 12.33 9 11.49 9H7.02c-.55 0-1 .45-1 1v2.99h7.97c.55 0 1-.45 1-1V6c0-.55-.45-1-1-1h-1Z"/><path fill="#c6c6c6" d="M6 2v2h1V3h4v1h1V2z"/><path fill="#052128" d="M6 4h1v1H6zm5 0h1v1h-1z"/></g><path fill="url(#j)" d="m0 0 1 2h10v12H0z"/><use xlink:href="#k" width="7" height="16"/></svg>