<svg xmlns="http://www.w3.org/2000/svg" xmlns:xlink="http://www.w3.org/1999/xlink" width="16" height="16"><defs><symbol id="e" viewBox="0 0 13 10"><path fill="#fff" d="M5 0H1C.45 0 0 .45 0 1v8c0 .55.45 1 1 1h11c.55 0 1-.45 1-1V2c0-.55-.45-1-1-1H6c0-.55-.45-1-1-1"/></symbol><symbol id="d" viewBox="0 0 6 2"><path fill="url(#a)" d="M0 1v1h5c.55 0 1-.45 1-1s-.45-1-1-1H1C.45 0 0 .45 0 1" opacity=".72" style="isolation:isolate"/></symbol><symbol id="f" viewBox="0 0 13 10"><g mask="url(#b)"><path fill="#ff13c0" d="M0 0h13v10H0z"/></g><use xlink:href="#d" width="6" height="2"/></symbol><linearGradient id="a" x1="-7226.14" x2="-7226.14" y1="23619.99" y2="23623.99" gradientTransform="matrix(.5 0 0 -.5 3616.07 11811.99)" gradientUnits="userSpaceOnUse"><stop offset="0"/><stop offset="1" stop-opacity=".15"/></linearGradient><mask id="b" width="13" height="10" x="0" y="0" maskUnits="userSpaceOnUse"><use xlink:href="#e" width="13" height="10"/></mask></defs><use xlink:href="#f" width="13" height="10"/><g><path d="M2 4h14v12H2z"/><path d="M3 5h12v10H3z"/><path fill="#0054a0" d="M3.38 5.38h11.25v9.25H3.38z"/><path fill="#006fff" d="M14.25 5.75v8.5H3.75v-8.5zM15 5H3v10h12z"/><path fill="#49c41c" d="m15 12-4-3-4 4v2h8z"/><path fill="#7cff5c" d="M3 15h7.3l-1.08-1.08-2.93-2.93L3 14z"/><path fill="#f3d55a" d="M4.73 8.94c-.62.12-1.22.03-1.73-.21V4.99h3.75c.23.51.32 1.11.2 1.73a2.83 2.83 0 0 1-2.22 2.22"/></g></svg>