<svg xmlns="http://www.w3.org/2000/svg" xmlns:xlink="http://www.w3.org/1999/xlink" width="16" height="16"><defs><symbol id="e" viewBox="0 0 13 10"><path fill="#fff" d="M5 0H1C.45 0 0 .45 0 1v8c0 .55.45 1 1 1h11c.55 0 1-.45 1-1V2c0-.55-.45-1-1-1H6c0-.55-.45-1-1-1"/></symbol><symbol id="d" viewBox="0 0 6 2"><path fill="url(#a)" d="M0 1v1h5c.55 0 1-.45 1-1s-.45-1-1-1H1C.45 0 0 .45 0 1" opacity=".72" style="isolation:isolate"/></symbol><symbol id="f" viewBox="0 0 13 10"><g mask="url(#b)"><path fill="#a040ff" d="M0 0h13v10H0z"/></g><use xlink:href="#d" width="6" height="2"/></symbol><linearGradient id="a" x1="-7226.14" x2="-7226.14" y1="23619.99" y2="23623.99" gradientTransform="matrix(.5 0 0 -.5 3616.07 11811.99)" gradientUnits="userSpaceOnUse"><stop offset="0"/><stop offset="1" stop-opacity=".15"/></linearGradient><mask id="b" width="13" height="10" x="0" y="0" maskUnits="userSpaceOnUse"><use xlink:href="#e" width="13" height="10"/></mask></defs><use xlink:href="#f" width="13" height="10"/><path d="M2 14.85v-1.08L8.65 3l1.43 6.41-7.44 6.51z"/><path d="m9 4.48-5.92 9.63L9 8.92z"/><path d="M9.46 12.22 8.65 3h1.52L16 13.77v1.08z"/><path d="M14.92 14.11 9.74 4.48l.73 7.08z"/><path d="m2.64 15.92 4.75-5.48 8.6 4.14.01.27-.44 1.07z"/><path d="M3.08 14.85h11.84l-7.4-3.18z"/><path fill="#40a0ff" d="m9 4.48-5.92 9.63L9 8.92z"/><path fill="#ff4040" d="m10.47 11.56 4.45 2.55-5.18-9.63"/><path fill="#40ff40" d="M3.08 14.85h11.84l-7.4-3.18z"/></svg>