<svg xmlns="http://www.w3.org/2000/svg" xmlns:xlink="http://www.w3.org/1999/xlink" width="16" height="16"><defs><symbol id="f" viewBox="0 0 13 11"><path fill="#fff" d="M0 0v11h10.98c.55 0 1-.45 1-1V6c.55 0 1-.45 1-1V1c.01-.75-.39-.99-.99-1z"/></symbol><symbol id="b" viewBox="0 0 13 11"><path d="M0 0v11h11c.55 0 1-.45 1-1V6c.55 0 1-.45 1-1V1c0-.75-.41-.99-1-1z" opacity=".3" style="isolation:isolate"/></symbol><symbol id="h" viewBox="0 0 7 16"><path fill="#fff" d="M7 2.95c0-.6-.37-1.14-.93-1.36L0 0v14l6 2c1 0 1-1 1-1z"/></symbol><symbol id="d" viewBox="0 0 7.91 11"><path d="M0 1.31V11h7.91V3.39C7.91.51 5.89.63 3.81.63S0 1.31 0 1.31" opacity=".6"/><path d="M0 0h7.91v11H0z" opacity="0"/></symbol><symbol id="i" viewBox="0 0 13.02 11"><g mask="url(#a)"><path fill="#ff13c0" d="M.02 0h13v11h-13z"/></g><use xlink:href="#b" width="13" height="11"/><use xlink:href="#d" width="7.91" height="11" transform="translate(.02)"/></symbol><symbol id="k" viewBox="0 0 7 16"><g mask="url(#e)"><path fill="#ff13c0" d="M0 0h7v16H0z"/></g></symbol><mask id="a" width="13.02" height="11" x="0" y="0" maskUnits="userSpaceOnUse"><use xlink:href="#f" width="13" height="11" transform="translate(.02)"/></mask><mask id="e" width="7" height="16" x="0" y="0" maskUnits="userSpaceOnUse"><use xlink:href="#h" width="7" height="16"/></mask><linearGradient id="j" x1="60.67" x2="63.41" y1="-144.11" y2="-144.11" gradientTransform="matrix(3.78 0 0 -3.78 -229.31 -537.66)" gradientUnits="userSpaceOnUse"><stop offset=".69"/><stop offset="1" stop-opacity="0"/></linearGradient></defs><use xlink:href="#i" width="13.02" height="11"/><g><path d="M6 14c-1-1-2-.9-2-2v-1.5c0-.28-.22-.5-.5-.5S3 9.78 3 9.5v-3c0-.28.22-.5.5-.5s.5-.22.5-.5V4c0-1.1.9-2 2-2h7c1.1 0 2 .9 2 2v1.5c0 .28.22.5.5.5s.5.22.5.5v3c0 .28-.22.5-.5.5s-.5.22-.5.5V12c0 1.1-.9 2-2 2z"/><path fill="#ff0" d="M4.42 6.95C5.07 6.82 5 6.44 5 6V4c0-.55.45-1 1-1h1.75c.14 0 .25.11.25.25v.5c0 .14-.11.25-.25.25H7c-.55 0-1 .45-1 1v1s0 2-1 2c1 0 1 2 1 2v1c0 .55.45 1 1 1h.75c.14 0 .25.11.25.25v.5c0 .14-.11.25-.25.25H6c-.55 0-1-.45-1-1v-2c0-.44.07-.82-.58-.95A.51.51 0 0 1 4 8.56V7.45c0-.24.18-.44.42-.49Zm10.16 0C13.93 6.82 14 6.44 14 6V4c0-.55-.45-1-1-1h-1.75c-.14 0-.25.11-.25.25v.5c0 .14.11.25.25.25H12c.55 0 1 .45 1 1v1s0 2 1 2c-1 0-1 2-1 2v1c0 .55-.45 1-1 1h-.75c-.14 0-.25.11-.25.25v.5c0 .14.11.25.25.25H13c.55 0 1-.45 1-1v-2c0-.44-.07-.82.58-.95.24-.05.42-.25.42-.49V7.45c0-.24-.18-.44-.42-.49Z"/></g><path fill="url(#j)" d="m0 0 1 2h10v12H0z"/><use xlink:href="#k" width="7" height="16"/></svg>