<svg xmlns="http://www.w3.org/2000/svg" xmlns:xlink="http://www.w3.org/1999/xlink" width="16" height="16"><defs><symbol id="e" viewBox="0 0 13 10"><path fill="#fff" d="M5 0H1C.45 0 0 .45 0 1v8c0 .55.45 1 1 1h11c.55 0 1-.45 1-1V2c0-.55-.45-1-1-1H6c0-.55-.45-1-1-1"/></symbol><symbol id="d" viewBox="0 0 6 2"><path fill="url(#a)" d="M0 1v1h5c.55 0 1-.45 1-1s-.45-1-1-1H1C.45 0 0 .45 0 1" opacity=".72" style="isolation:isolate"/></symbol><symbol id="f" viewBox="0 0 13 10"><g mask="url(#b)"><path fill="#0ff" d="M0 0h13v10H0z"/></g><use xlink:href="#d" width="6" height="2"/></symbol><linearGradient id="a" x1="-7226.14" x2="-7226.14" y1="23619.99" y2="23623.99" gradientTransform="matrix(.5 0 0 -.5 3616.07 11811.99)" gradientUnits="userSpaceOnUse"><stop offset="0"/><stop offset="1" stop-opacity=".15"/></linearGradient><mask id="b" width="13" height="10" x="0" y="0" maskUnits="userSpaceOnUse"><use xlink:href="#e" width="13" height="10"/></mask></defs><use xlink:href="#f" width="13" height="10"/><g><path d="M13 13H5l1-2.46V7h7z"/><rect width="5" height="4" x="11" y="11" rx=".5" ry=".5"/><path fill="#ff2020" d="M14.9 12h-2.8c-.06 0-.1.04-.1.1v1.8c0 .06.04.1.1.1h2.8c.06 0 .1-.04.1-.1v-1.8c0-.06-.04-.1-.1-.1"/><rect width="5" height="4" x="1" y="11" rx=".5" ry=".5"/><path fill="#ff2020" d="M4.9 12H2.1c-.06 0-.1.04-.1.1v1.8c0 .06.04.1.1.1h2.8c.06 0 .1-.04.1-.1v-1.8c0-.06-.04-.1-.1-.1"/><rect width="6" height="4" x="3" y="8" rx=".5" ry=".5"/><path fill="#ff2020" d="M7.9 9H4.1c-.06 0-.1.04-.1.1v1.8c0 .06.04.1.1.1h3.8c.06 0 .1-.04.1-.1V9.1c0-.06-.04-.1-.1-.1"/><rect width="6" height="4" x="9" y="8" rx=".5" ry=".5"/><path fill="#ff2020" d="M13.9 9h-3.8c-.06 0-.1.04-.1.1v1.8c0 .06.04.1.1.1h3.8c.06 0 .1-.04.1-.1V9.1c0-.06-.04-.1-.1-.1"/><rect width="5" height="4" x="11" y="5" rx=".5" ry=".5"/><path fill="#ff2020" d="M14.9 6h-2.8c-.06 0-.1.04-.1.1v1.8c0 .06.04.1.1.1h2.8c.06 0 .1-.04.1-.1V6.1c0-.06-.04-.1-.1-.1"/><rect width="6" height="4" x="5" y="5" rx=".5" ry=".5"/><path fill="#ff2020" d="M9.9 6H6.1c-.06 0-.1.04-.1.1v1.8c0 .06.04.1.1.1h3.8c.06 0 .1-.04.1-.1V6.1c0-.06-.04-.1-.1-.1"/><rect width="5" height="4" x="6" y="11" rx=".5" ry=".5"/><path fill="#ff2020" d="M9.9 12H7.1c-.06 0-.1.04-.1.1v1.8c0 .06.04.1.1.1h2.8c.06 0 .1-.04.1-.1v-1.8c0-.06-.04-.1-.1-.1"/></g></svg>