<svg xmlns="http://www.w3.org/2000/svg" xmlns:xlink="http://www.w3.org/1999/xlink" width="16" height="16"><defs><symbol id="h" viewBox="0 0 13 11"><path fill="#fff" d="M0 0v11h10.98c.55 0 1-.45 1-1V6c.55 0 1-.45 1-1V1c.01-.75-.39-.99-.99-1z"/></symbol><symbol id="b" viewBox="0 0 13 11"><path d="M0 0v11h11c.55 0 1-.45 1-1V6c.55 0 1-.45 1-1V1c0-.75-.41-.99-1-1z" opacity=".3" style="isolation:isolate"/></symbol><symbol id="i" viewBox="0 0 7 16"><path fill="#fff" d="M7 2.95c0-.6-.37-1.14-.93-1.36L0 0v14l6 2c1 0 1-1 1-1z"/></symbol><symbol id="d" viewBox="0 0 7.91 11"><path d="M0 1.31V11h7.91V3.39C7.91.51 5.89.63 3.81.63S0 1.31 0 1.31" opacity=".6"/><path d="M0 0h7.91v11H0z" opacity="0"/></symbol><symbol id="j" viewBox="0 0 13.02 11"><g mask="url(#a)"><path fill="#ff2020" d="M.02 0h13v11h-13z"/></g><use xlink:href="#b" width="13" height="11"/><use xlink:href="#d" width="7.91" height="11" transform="translate(.02)"/></symbol><symbol id="l" viewBox="0 0 7 16"><g mask="url(#e)"><path fill="#ff2020" d="M0 0h7v16H0z"/></g></symbol><symbol id="k" viewBox="0 0 11 14"><path fill="url(#f)" d="m0 0 1 2h10v12H0z"/></symbol><mask id="a" width="13.02" height="11" x="0" y="0" maskUnits="userSpaceOnUse"><use xlink:href="#h" width="13" height="11" transform="translate(.02)"/></mask><mask id="e" width="7" height="16" x="0" y="0" maskUnits="userSpaceOnUse"><use xlink:href="#i" width="7" height="16"/></mask><linearGradient id="f" x1="6041.82" x2="6044.55" y1="10203.98" y2="10203.98" gradientTransform="matrix(3.78 0 0 -3.78 -22835.21 38573.21)" gradientUnits="userSpaceOnUse"><stop offset=".69"/><stop offset="1" stop-opacity="0"/></linearGradient></defs><use xlink:href="#j" width="13.02" height="11"/><path d="M2 2h14v10c0 1.1-.9 2-2 2H2z"/><path fill="#50fff6" d="M13.5 8H12c-.68 0-1.17.6-1.5 1.22C10.17 8.61 9.68 8 9 8H7.5C6.67 8 6 8.67 6 9.5v2c0 .83.67 1.5 1.5 1.5H9c.68 0 1.17-.6 1.5-1.22.33.61.82 1.22 1.5 1.22h1.5c.83 0 1.5-.67 1.5-1.5v-2c0-.83-.67-1.5-1.5-1.5"/><path d="M9 12c1-1 1-1.5 1-1.5S10 10 9 9H7.5c-.28 0-.5.22-.5.5v2c0 .28.22.5.5.5zm3 0c-1-1-1-1.5-1-1.5s0-.5 1-1.5h1.5c.28 0 .5.22.5.5v2c0 .28-.22.5-.5.5z"/><path fill="#4dfffa" d="M14 3H3v10h2v-1H4V4h10v2h1V3z"/><use xlink:href="#k" width="11" height="14"/><use xlink:href="#l" width="7" height="16"/></svg>