<svg xmlns="http://www.w3.org/2000/svg" xmlns:xlink="http://www.w3.org/1999/xlink" width="16" height="16"><defs><symbol id="g" viewBox="0 0 13 11"><path fill="#fff" d="M0 0v11h10.98c.55 0 1-.45 1-1V6c.55 0 1-.45 1-1V1c.01-.75-.39-.99-.99-1z"/></symbol><symbol id="c" viewBox="0 0 13 11"><path d="M0 0v11h11c.55 0 1-.45 1-1V6c.55 0 1-.45 1-1V1c0-.75-.41-.99-1-1z" opacity=".3" style="isolation:isolate"/></symbol><symbol id="h" viewBox="0 0 7 16"><path fill="#fff" d="M7 2.95c0-.6-.37-1.14-.93-1.36L0 0v14l6 2c1 0 1-1 1-1z"/></symbol><symbol id="d" viewBox="0 0 7.91 11"><path d="M0 1.31V11h7.91V3.39C7.91.51 5.89.63 3.81.63S0 1.31 0 1.31" opacity=".6"/><path d="M0 0h7.91v11H0z" opacity="0"/></symbol><symbol id="i" viewBox="0 0 13.02 11"><g mask="url(#a)"><path fill="#ff13c0" d="M.02 0h13v11h-13z"/></g><use xlink:href="#c" width="13" height="11"/><use xlink:href="#d" width="7.91" height="11" transform="translate(.02)"/></symbol><symbol id="k" viewBox="0 0 7 16"><g mask="url(#e)"><path fill="#ff13c0" d="M0 0h7v16H0z"/></g></symbol><mask id="a" width="13.02" height="11" x="0" y="0" maskUnits="userSpaceOnUse"><use xlink:href="#g" width="13" height="11" transform="translate(.02)"/></mask><mask id="e" width="7" height="16" x="0" y="0" maskUnits="userSpaceOnUse"><use xlink:href="#h" width="7" height="16"/></mask><linearGradient id="j" x1="-12.87" x2="-10.13" y1="-232.63" y2="-232.63" gradientTransform="matrix(3.78 0 0 -3.78 48.64 -872.23)" gradientUnits="userSpaceOnUse"><stop offset=".69"/><stop offset="1" stop-opacity="0"/></linearGradient></defs><g><use xlink:href="#i" width="13.02" height="11"/><path d="M12.43 13 9 8l3.43-5H16v1.06L13.17 8 16 11.94V13z"/><path d="m2.23 13 3.6-5-3.6-5h4.34L10 8l-3.43 5z"/><path fill="#fff" d="m13 4-3 4 3 4h2l-3-4 3-4zM6 4l3 4-3 4H4l3-4-3-4z"/></g><path fill="url(#j)" d="m0 0 1 2h3.16l5.37 5.7 1.37-1.52L11 2v12l-.07-4.36L9.54 8.3 3.99 14H0z"/><use xlink:href="#k" width="7" height="16"/></svg>