<svg xmlns="http://www.w3.org/2000/svg" xmlns:xlink="http://www.w3.org/1999/xlink" width="16" height="16"><defs><symbol id="f" viewBox="0 0 13 11"><path fill="#fff" d="M0 0v11h10.98c.55 0 1-.45 1-1V6c.55 0 1-.45 1-1V1c.01-.75-.39-.99-.99-1z"/></symbol><symbol id="b" viewBox="0 0 13 11"><path d="M0 0v11h11c.55 0 1-.45 1-1V6c.55 0 1-.45 1-1V1c0-.75-.41-.99-1-1z" opacity=".3" style="isolation:isolate"/></symbol><symbol id="h" viewBox="0 0 7 16"><path fill="#fff" d="M7 2.95c0-.6-.37-1.14-.93-1.36L0 0v14l6 2c1 0 1-1 1-1z"/></symbol><symbol id="d" viewBox="0 0 7.91 11"><path d="M0 1.31V11h7.91V3.39C7.91.51 5.89.63 3.81.63S0 1.31 0 1.31" opacity=".6"/><path d="M0 0h7.91v11H0z" opacity="0"/></symbol><symbol id="i" viewBox="0 0 13.02 11"><g mask="url(#a)"><path fill="#40a0ff" d="M.02 0h13v11h-13z"/></g><use xlink:href="#b" width="13" height="11"/><use xlink:href="#d" width="7.91" height="11" transform="translate(.02)"/></symbol><symbol id="k" viewBox="0 0 7 16"><g mask="url(#e)"><path fill="#40a0ff" d="M0 0h7v16H0z"/></g></symbol><mask id="a" width="13.02" height="11" x="0" y="0" maskUnits="userSpaceOnUse"><use xlink:href="#f" width="13" height="11" transform="translate(.02)"/></mask><mask id="e" width="7" height="16" x="0" y="0" maskUnits="userSpaceOnUse"><use xlink:href="#h" width="7" height="16"/></mask><linearGradient id="j" x1="31.25" x2="33.99" y1="-93.53" y2="-93.53" gradientTransform="matrix(3.78 0 0 -3.78 -118.13 -346.48)" gradientUnits="userSpaceOnUse"><stop offset=".69"/><stop offset="1" stop-opacity="0"/></linearGradient></defs><use xlink:href="#i" width="13.02" height="11"/><g><path fill-rule="evenodd" d="M3 12.5v-8c0-.28.22-.5.5-.5H6V2.5c0-.28.22-.5.5-.5h6c.28 0 .5.22.5.5V4h2.5c.28 0 .5.22.5.5v9c0 .28-.22.5-.5.5H6l-2.5-1c-.28 0-.5-.22-.5-.5"/><path fill-rule="evenodd" d="M8 3S7 3 7 4v1H4v8h11V5h-3V4c0-1-1-1-1-1zm0 1h3v1H8z"/><path fill="#fd741a" fill-rule="evenodd" d="M4.5 5c-.28 0-.5.22-.5.5v7c0 .28.22.5.5.5h10c.28 0 .5-.22.5-.5v-7c0-.28-.22-.5-.5-.5z"/><path fill="#6b2b00" fill-rule="evenodd" d="m4.01 7 2 2H13l2-2s-1 3-3 4H6.94C5 10 4.02 7 4.02 7Z"/><path fill="#28150b" fill-rule="evenodd" d="M6 9h7l-1 1H7z"/><path fill="#fc0" fill-rule="evenodd" d="m11 8-1 1v1l1 1H8l1-1V9L8 8z"/><path fill="#c6c6c6" fill-rule="evenodd" d="M7.5 3h4c.28 0 .5.22.5.5V5h-1V4H8v1H7V3.5c0-.28.22-.5.5-.5"/><path fill="#fc0" d="M7 5h1v1H7zm4 0h1v1h-1z"/></g><path fill="url(#j)" d="m0 0 1 2h10v12H0z"/><use xlink:href="#k" width="7" height="16"/></svg>