<svg xmlns="http://www.w3.org/2000/svg" xmlns:xlink="http://www.w3.org/1999/xlink" width="16" height="16"><defs><symbol id="f" viewBox="0 0 13 11"><path fill="#fff" d="M0 0v11h10.98c.55 0 1-.45 1-1V6c.55 0 1-.45 1-1V1c.01-.75-.39-.99-.99-1z"/></symbol><symbol id="b" viewBox="0 0 13 11"><path d="M0 0v11h11c.55 0 1-.45 1-1V6c.55 0 1-.45 1-1V1c0-.75-.41-.99-1-1z" opacity=".3" style="isolation:isolate"/></symbol><symbol id="h" viewBox="0 0 7 16"><path fill="#fff" d="M7 2.95c0-.6-.37-1.14-.93-1.36L0 0v14l6 2c1 0 1-1 1-1z"/></symbol><symbol id="d" viewBox="0 0 7.91 11"><path d="M0 1.31V11h7.91V3.39C7.91.51 5.89.63 3.81.63S0 1.31 0 1.31" opacity=".6"/><path d="M0 0h7.91v11H0z" opacity="0"/></symbol><symbol id="i" viewBox="0 0 13.02 11"><g mask="url(#a)"><path fill="#ff6700" d="M.02 0h13v11h-13z"/></g><use xlink:href="#b" width="13" height="11"/><use xlink:href="#d" width="7.91" height="11" transform="translate(.02)"/></symbol><symbol id="k" viewBox="0 0 7 16"><g mask="url(#e)"><path fill="#ff6700" d="M0 0h7v16H0z"/></g></symbol><mask id="a" width="13.02" height="11" x="0" y="0" maskUnits="userSpaceOnUse"><use xlink:href="#f" width="13" height="11" transform="translate(.02)"/></mask><mask id="e" width="7" height="16" x="0" y="0" maskUnits="userSpaceOnUse"><use xlink:href="#h" width="7" height="16"/></mask><linearGradient id="j" x1="1.84" x2="4.57" y1="-144.11" y2="-144.11" gradientTransform="matrix(3.78 0 0 -3.78 -6.95 -537.66)" gradientUnits="userSpaceOnUse"><stop offset=".69"/><stop offset="1" stop-opacity="0"/></linearGradient></defs><use xlink:href="#i" width="13.02" height="11"/><g><path d="M16 14V2H3v1H2v9l4 2z"/><path fill="#00ff06" d="M6 5h3v2H6zm0 3h2v3H6zm3 1h4v2H9zm1-4h3v3h-3z"/><path fill="#586977" d="M4 6v1H3v2h1v1H3v2h1v1h11V3H4v1H3v2zm1-2h9v8H5z"/></g><path fill="url(#j)" d="m0 0 1 2h10v12H0z"/><use xlink:href="#k" width="7" height="16"/></svg>