<svg xmlns="http://www.w3.org/2000/svg" xmlns:xlink="http://www.w3.org/1999/xlink" width="16" height="16"><defs><symbol id="e" viewBox="0 0 13 10"><path fill="#fff" d="M5 0H1C.45 0 0 .45 0 1v8c0 .55.45 1 1 1h11c.55 0 1-.45 1-1V2c0-.55-.45-1-1-1H6c0-.55-.45-1-1-1"/></symbol><symbol id="d" viewBox="0 0 6 2"><path fill="url(#a)" d="M0 1v1h5c.55 0 1-.45 1-1s-.45-1-1-1H1C.45 0 0 .45 0 1" opacity=".72" style="isolation:isolate"/></symbol><symbol id="f" viewBox="0 0 13 10"><g mask="url(#b)"><path fill="#ff6700" d="M0 0h13v10H0z"/></g><use xlink:href="#d" width="6" height="2"/></symbol><linearGradient id="a" x1="-7226.14" x2="-7226.14" y1="23619.99" y2="23623.99" gradientTransform="matrix(.5 0 0 -.5 3616.07 11811.99)" gradientUnits="userSpaceOnUse"><stop offset="0"/><stop offset="1" stop-opacity=".15"/></linearGradient><mask id="b" width="13" height="10" x="0" y="0" maskUnits="userSpaceOnUse"><use xlink:href="#e" width="13" height="10"/></mask></defs><use xlink:href="#f" width="13" height="10"/><g fill-rule="evenodd"><path d="m10.54 16-2.75-3.21-1.84 1.58-2.31-2.31 1.76-2.05-1.76-2.05 2.31-2.31 1.84 1.58 2.75-3.21h2.7L16 5.4v9.24l-2.76 1.38h-2.7Z"/><path fill="#41b3ff" d="M13 5h-2L7.89 8.62 6 7 5 8l1.71 2L5 12l1 1 1.89-1.62L11 15h2l2-1V6zm0 8-3.5-3L13 7z"/><path fill="#007dd2" d="m11 5-6 7 1 1 7-6V5z"/><path fill="#0098ff" d="M11 15 5 8l1-1 7 6v2z"/><path fill="#41b3ff" d="M13 15h-2l2-2V7l-2-2h2l2 1v8z"/></g></svg>