<svg xmlns="http://www.w3.org/2000/svg" xmlns:xlink="http://www.w3.org/1999/xlink" width="16" height="16"><defs><symbol id="e" viewBox="0 0 13 10"><path fill="#fff" d="M5 0H1C.45 0 0 .45 0 1v8c0 .55.45 1 1 1h11c.55 0 1-.45 1-1V2c0-.55-.45-1-1-1H6c0-.55-.45-1-1-1"/></symbol><symbol id="d" viewBox="0 0 6 2"><path fill="url(#a)" d="M0 1v1h5c.55 0 1-.45 1-1s-.45-1-1-1H1C.45 0 0 .45 0 1" opacity=".72" style="isolation:isolate"/></symbol><symbol id="f" viewBox="0 0 13 10"><g mask="url(#b)"><path fill="#a040ff" d="M0 0h13v10H0z"/></g><use xlink:href="#d" width="6" height="2"/></symbol><linearGradient id="a" x1="-7226.14" x2="-7226.14" y1="23619.99" y2="23623.99" gradientTransform="matrix(.5 0 0 -.5 3616.07 11811.99)" gradientUnits="userSpaceOnUse"><stop offset="0"/><stop offset="1" stop-opacity=".15"/></linearGradient><mask id="b" width="13" height="10" x="0" y="0" maskUnits="userSpaceOnUse"><use xlink:href="#e" width="13" height="10"/></mask></defs><use xlink:href="#f" width="13" height="10"/><g fill-rule="evenodd"><path d="M13 3H6c-1.86.04-2 2-2 2v7H1.92s0 4 3 4H12c1.86-.05 2-2.01 2-2.01v-7h2s0-4-3-4Z"/><path fill="#b29f79" d="M14 4c1 0 1 2 1 2h-3V4z"/><path fill="#ffe9a3" d="M7 4c-1.1 0-2 .9-2 2v7H2.91s0 2 2 2H11c1.1 0 2-.9 2-2V6c-.01-1.33.32-2 1-2z"/><path d="M11.04 12H3v1h7.05s0 .99 1 .99c0 0 1 0 1-1-1 0-1-1-1-1Z"/></g></svg>