<svg xmlns="http://www.w3.org/2000/svg" xmlns:xlink="http://www.w3.org/1999/xlink" width="16" height="16"><defs><symbol id="f" viewBox="0 0 13 11"><path fill="#fff" d="M0 0v11h10.98c.55 0 1-.45 1-1V6c.55 0 1-.45 1-1V1c.01-.75-.39-.99-.99-1z"/></symbol><symbol id="b" viewBox="0 0 13 11"><path d="M0 0v11h11c.55 0 1-.45 1-1V6c.55 0 1-.45 1-1V1c0-.75-.41-.99-1-1z" opacity=".3" style="isolation:isolate"/></symbol><symbol id="h" viewBox="0 0 7 16"><path fill="#fff" d="M7 2.95c0-.6-.37-1.14-.93-1.36L0 0v14l6 2c1 0 1-1 1-1z"/></symbol><symbol id="d" viewBox="0 0 7.91 11"><path d="M0 1.31V11h7.91V3.39C7.91.51 5.89.63 3.81.63S0 1.31 0 1.31" opacity=".6"/><path d="M0 0h7.91v11H0z" opacity="0"/></symbol><symbol id="i" viewBox="0 0 13.02 11"><g mask="url(#a)"><path fill="#ff6700" d="M.02 0h13v11h-13z"/></g><use xlink:href="#b" width="13" height="11"/><use xlink:href="#d" width="7.91" height="11" transform="translate(.02)"/></symbol><symbol id="k" viewBox="0 0 7 16"><g mask="url(#e)"><path fill="#ff6700" d="M0 0h7v16H0z"/></g></symbol><mask id="a" width="13.02" height="11" x="0" y="0" maskUnits="userSpaceOnUse"><use xlink:href="#f" width="13" height="11" transform="translate(.02)"/></mask><mask id="e" width="7" height="16" x="0" y="0" maskUnits="userSpaceOnUse"><use xlink:href="#h" width="7" height="16"/></mask><linearGradient id="j" x1="16.55" x2="19.28" y1="-144.11" y2="-144.11" gradientTransform="matrix(3.78 0 0 -3.78 -62.54 -537.66)" gradientUnits="userSpaceOnUse"><stop offset=".69"/><stop offset="1" stop-opacity="0"/></linearGradient></defs><use xlink:href="#i" width="13.02" height="11"/><g><path d="M6 14v-1h-.5c-.83 0-1.5-.67-1.5-1.5V11H3V8h1V7H3V4h1v-.5C4 2.67 4.67 2 5.5 2H6V1h3v1h1V1h3v1h.5c.83 0 1.5.67 1.5 1.5V4h1v3h-1v1h1v3h-1v.5c0 .83-.67 1.5-1.5 1.5H13v1h-3v-1H9v1zm5-5V6H8v3z"/><rect width="5" height="5" x="7" y="5" rx="1.5" ry="1.5"/><path fill="#586977" d="M14 8V3.5c0-.28-.22-.5-.5-.5h-8c-.28 0-.5.22-.5.5v8c0 .28.22.5.5.5h8c.28 0 .5-.22.5-.5z"/><rect width="5" height="5" x="7" y="5" fill="#00ff06" rx=".9" ry=".9"/><path fill="#cdcdcd" d="M7 2h1v2H7zm4 0h1v2h-1zm-4 9h1v2H7zm4 0h1v2h-1zM4 5h2v1H4zm0 4h2v1H4zm9-4h2v1h-2zm0 4h2v1h-2z"/></g><path fill="url(#j)" d="m0 0 1 2h10v12l-.45-1.38-1.98.05-.07.95-3.79.37H0z"/><use xlink:href="#k" width="7" height="16"/></svg>