<svg xmlns="http://www.w3.org/2000/svg" xmlns:xlink="http://www.w3.org/1999/xlink" width="16" height="16"><defs><symbol id="e" viewBox="0 0 13 10"><path fill="#fff" d="M5 0H1C.45 0 0 .45 0 1v8c0 .55.45 1 1 1h11c.55 0 1-.45 1-1V2c0-.55-.45-1-1-1H6c0-.55-.45-1-1-1"/></symbol><symbol id="c" viewBox="0 0 6 2"><path fill="url(#a)" d="M0 1v1h5c.55 0 1-.45 1-1s-.45-1-1-1H1C.45 0 0 .45 0 1" opacity=".72" style="isolation:isolate"/></symbol><symbol id="f" viewBox="0 0 13 10"><g mask="url(#b)"><path fill="#0ff" d="M0 0h13v10H0z"/></g><use xlink:href="#c" width="6" height="2"/></symbol><linearGradient id="a" x1="-7226.14" x2="-7226.14" y1="23619.99" y2="23623.99" gradientTransform="matrix(.5 0 0 -.5 3616.07 11811.99)" gradientUnits="userSpaceOnUse"><stop offset="0"/><stop offset="1" stop-opacity=".15"/></linearGradient><mask id="b" width="13" height="10" x="0" y="0" maskUnits="userSpaceOnUse"><use xlink:href="#e" width="13" height="10"/></mask></defs><use xlink:href="#f" width="13" height="10"/><g><path d="M15.72 6.5c0-.33.1-1.12-.72-1.5V3.98c.14-.9.18-1.98-1.26-1.98-1.32.42-2.29 1.38-2.29 1.38l-.39.65C10.66 4 10.46 4 9.99 4c-2.51 0-5.5.43-5.5 2.5 0 .29.08.78.5 1.24v2.25c0 .13.02.26.05.37l.97 2.77v1.35c-.02.4.14.78.42 1.07.28.28.66.44 1.06.44h5c.82 0 1.49-.68 1.5-1.5v-1.38l.96-2.77c.03-.12.05-.25.05-.38V7.93c.6-.49.71-1.08.71-1.43Z"/><path fill="#f50637" stroke="#f50637" stroke-linecap="round" stroke-linejoin="round" d="M10.5 7.5c-1 0-4-.42-4-.42v2.91l1.02 2.96v1.55h4.99v-1.57l1.01-2.96-.02-2.98s-2 .51-3 .51"/><path stroke="#ff0135" stroke-linecap="round" stroke-miterlimit="10" d="M6 6.5c0 .55 1.79 1 4 1s4.22-.45 4.22-1-2.01-1-4.22-1-4 .45-4 1Z"/><path fill="#f50637" stroke="#ff0135" stroke-linecap="round" stroke-linejoin="round" d="m11.43 9.29 1.08-4.84m0 0 1.07-.95"/></g></svg>