<svg xmlns="http://www.w3.org/2000/svg" xmlns:xlink="http://www.w3.org/1999/xlink" width="16" height="16"><defs><symbol id="f" viewBox="0 0 13 10"><path fill="#fff" d="M5 0H1C.45 0 0 .45 0 1v8c0 .55.45 1 1 1h11c.55 0 1-.45 1-1V2c0-.55-.45-1-1-1H6c0-.55-.45-1-1-1"/></symbol><symbol id="d" viewBox="0 0 6 2"><path fill="url(#a)" d="M0 1v1h5c.55 0 1-.45 1-1s-.45-1-1-1H1C.45 0 0 .45 0 1" opacity=".72" style="isolation:isolate"/></symbol><symbol id="h" viewBox="0 0 13 10"><g mask="url(#b)"><path fill="#ff6700" d="M0 0h13v10H0z"/></g><use xlink:href="#d" width="6" height="2"/></symbol><symbol id="g" viewBox="0 0 13 10"><g mask="url(#e)"><path fill="#ff13c0" d="M0 0h13v10H0z"/></g><use xlink:href="#d" width="6" height="2"/></symbol><mask id="b" width="13" height="10" x="0" y="0" maskUnits="userSpaceOnUse"><use xlink:href="#f" width="13" height="10"/></mask><mask id="e" width="13" height="10" x="0" y="0" maskUnits="userSpaceOnUse"><use xlink:href="#f" width="13" height="10"/></mask><linearGradient id="a" x1="-7226.14" x2="-7226.14" y1="23619.99" y2="23623.99" gradientTransform="matrix(.5 0 0 -.5 3616.07 11811.99)" gradientUnits="userSpaceOnUse"><stop offset="0"/><stop offset="1" stop-opacity=".15"/></linearGradient></defs><use xlink:href="#g" width="13" height="10"/><use xlink:href="#h" width="13" height="10"/><path d="M12 15c-.84 0-1.93 0-3-.83C7.93 15 6.84 15 6 15c-2.35 0-4-2.08-4-5.05S3.65 4.9 6 4.9c.81 0 1.94 0 3 1.2 1.06-1.2 2.19-1.2 3-1.2 2.35 0 4 2.08 4 5.05S14.35 15 12 15"/><path fill="#40a0ff" d="M12 5.9c-.98 0-2 0-3 2.02C8 5.9 6.98 5.9 6 5.9c-1.93 0-3 1.81-3 4.05S4.07 14 6 14c.98 0 2 0 3-1.22C10 14 11.02 14 12 14c1.93 0 3-1.81 3-4.05S13.93 5.9 12 5.9"/><path d="M12 12c-.71 0-2-.76-2-2.05S11.29 8 12 8s1 .66 1 1.95S12.71 12 12 12m-6 0c.71 0 2-.76 2-2.05S6.71 8 6 8s-1 .66-1 1.95S5.29 12 6 12"/></svg>