<svg xmlns="http://www.w3.org/2000/svg" xmlns:xlink="http://www.w3.org/1999/xlink" width="16" height="16"><defs><symbol id="e" viewBox="0 0 13 10"><path fill="#fff" d="M5 0H1C.45 0 0 .45 0 1v8c0 .55.45 1 1 1h11c.55 0 1-.45 1-1V2c0-.55-.45-1-1-1H6c0-.55-.45-1-1-1"/></symbol><symbol id="c" viewBox="0 0 6 2"><path fill="url(#a)" d="M0 1v1h5c.55 0 1-.45 1-1s-.45-1-1-1H1C.45 0 0 .45 0 1" opacity=".72" style="isolation:isolate"/></symbol><symbol id="f" viewBox="0 0 13 10"><g mask="url(#b)"><path fill="#a040ff" d="M0 0h13v10H0z"/></g><use xlink:href="#c" width="6" height="2"/></symbol><linearGradient id="a" x1="-7226.14" x2="-7226.14" y1="23619.99" y2="23623.99" gradientTransform="matrix(.5 0 0 -.5 3616.07 11811.99)" gradientUnits="userSpaceOnUse"><stop offset="0"/><stop offset="1" stop-opacity=".15"/></linearGradient><mask id="b" width="13" height="10" x="0" y="0" maskUnits="userSpaceOnUse"><use xlink:href="#e" width="13" height="10"/></mask></defs><use xlink:href="#f" width="13" height="10"/><g><path d="M5 16c-1.1 0-2-.9-2-2V5c0-1.1.9-2 2-2h8.94c1.1 0 2 .9 2 2l.05 8.98a1.996 1.996 0 0 1-2 2.01H5Z"/><path fill="#092800" d="M5 14.5c-.28 0-.5-.22-.5-.5V5c0-.28.22-.5.5-.5h8.94c.28 0 .5.22.5.5l.05 8.99c0 .14-.05.26-.14.36s-.22.15-.36.15z"/><path fill="#008900" d="m13.94 5 .04 9H5V5zm0-1H5c-.55 0-1 .45-1 1v9c0 .55.45 1 1 1h8.99c.56 0 1.01-.45 1-1.01L14.94 5c0-.55-.45-1-1-1"/><path fill="#0f0" d="m6 7 2 3-2 3h2l2-3-2-3zm4 5h3v1h-3z"/></g></svg>