<svg xmlns="http://www.w3.org/2000/svg" xmlns:xlink="http://www.w3.org/1999/xlink" width="16" height="16"><defs><symbol id="e" viewBox="0 0 13 10"><path fill="#fff" d="M5 0H1C.45 0 0 .45 0 1v8c0 .55.45 1 1 1h11c.55 0 1-.45 1-1V2c0-.55-.45-1-1-1H6c0-.55-.45-1-1-1"/></symbol><symbol id="c" viewBox="0 0 6 2"><path fill="url(#a)" d="M0 1v1h5c.55 0 1-.45 1-1s-.45-1-1-1H1C.45 0 0 .45 0 1" opacity=".72" style="isolation:isolate"/></symbol><symbol id="f" viewBox="0 0 13 10"><g mask="url(#b)"><path fill="#a040ff" d="M0 0h13v10H0z"/></g><use xlink:href="#c" width="6" height="2"/></symbol><linearGradient id="a" x1="-7226.14" x2="-7226.14" y1="23619.99" y2="23623.99" gradientTransform="matrix(.5 0 0 -.5 3616.07 11811.99)" gradientUnits="userSpaceOnUse"><stop offset="0"/><stop offset="1" stop-opacity=".15"/></linearGradient><mask id="b" width="13" height="10" x="0" y="0" maskUnits="userSpaceOnUse"><use xlink:href="#e" width="13" height="10"/></mask></defs><use xlink:href="#f" width="13" height="10"/><g><path d="M4.03 16C2.9 16 2 15.1 2 14V8c0-1.1.9-2 2-2h1V3h8v3h1c1.1 0 2 .9 2 2v5.99c0 1.1-.9 2.01-2.01 2.01z"/><path fill="#71c6ff" d="M12 9V7H4c-.55 0-1 .45-1 1v6c0 .55.45 1 1 1h1v-3.5c0-.83.67-1.5 1.5-1.5H11c.55 0 1-.45 1-1"/><path fill="#ffd028" d="M13 7v2.49c0 .83-.67 1.51-1.51 1.51H7c-.55 0-1 .45-1 1v3h8c.55 0 1-.45 1-1V8c0-.55-.45-1-1-1z"/><path fill="#c6c6c6" d="M6 4v2h1V5h4v1h1V4z"/><path fill="#052128" d="M6 6h1v1H6zm5 0h1v1h-1z"/></g></svg>