<svg xmlns="http://www.w3.org/2000/svg" width="16" height="16"><defs><radialGradient id="a" cx="113.12" cy="28.51" r="1.55" fx="113.12" fy="28.51" gradientTransform="matrix(3.17987 .02886 -5.34769 -8.7289 -201.46 252)" gradientUnits="userSpaceOnUse"><stop offset="0"/><stop offset=".88" stop-opacity="0"/></radialGradient></defs><path fill="#ffeead" d="M12.02 0c.59.01 1 .25 1 1v4c-.02.55-.46 1-1.01 1v4c0 .55-.45 1-1 1H.02V0z"/><path d="M0 0v11h11c.55 0 1-.45 1-1V6c.55 0 1-.45 1-1V1c0-.75-.41-.99-1-1z" opacity=".3" style="isolation:isolate"/><path fill="url(#a)" d="M13 16V0H0v16z" opacity=".71" style="isolation:isolate"/><path fill="#ffeead" d="M7 15s0 1-1 1l-6-2V0l6.07 1.58c.56.22.93.76.93 1.36v12.05Z"/></svg>