<svg xmlns="http://www.w3.org/2000/svg" xmlns:xlink="http://www.w3.org/1999/xlink" width="16" height="16"><defs><symbol id="e" viewBox="0 0 13 10"><path fill="#fff" d="M5 0H1C.45 0 0 .45 0 1v8c0 .55.45 1 1 1h11c.55 0 1-.45 1-1V2c0-.55-.45-1-1-1H6c0-.55-.45-1-1-1"/></symbol><symbol id="c" viewBox="0 0 6 2"><path fill="url(#a)" d="M0 1v1h5c.55 0 1-.45 1-1s-.45-1-1-1H1C.45 0 0 .45 0 1" opacity=".72" style="isolation:isolate"/></symbol><symbol id="f" viewBox="0 0 13 10"><g mask="url(#b)"><path fill="#40a0ff" d="M0 0h13v10H0z"/></g><use xlink:href="#c" width="6" height="2"/></symbol><linearGradient id="a" x1="-7226.14" x2="-7226.14" y1="23619.99" y2="23623.99" gradientTransform="matrix(.5 0 0 -.5 3616.07 11811.99)" gradientUnits="userSpaceOnUse"><stop offset="0"/><stop offset="1" stop-opacity=".15"/></linearGradient><mask id="b" width="13" height="10" x="0" y="0" maskUnits="userSpaceOnUse"><use xlink:href="#e" width="13" height="10"/></mask></defs><use xlink:href="#f" width="13" height="10"/><g><path fill-rule="evenodd" d="M3 15.5v-9c0-.28.22-.5.5-.5H6V4.5c0-.28.22-.5.5-.5h6c.28 0 .5.22.5.5V6h2.5c.28 0 .5.22.5.5v9c0 .28-.22.5-.5.5h-12c-.28 0-.5-.22-.5-.5"/><path fill-rule="evenodd" d="M8 5S7 5 7 6v1H4v8h11V7h-3V6c0-1-1-1-1-1zm0 1h3v1H8z"/><path fill="#fd741a" fill-rule="evenodd" d="M4.5 7c-.28 0-.5.22-.5.5v7c0 .28.22.5.5.5h10c.28 0 .5-.22.5-.5v-7c0-.28-.22-.5-.5-.5z"/><path fill="#6b2b00" fill-rule="evenodd" d="m4.01 9 2 2H13l2-2s-1 3-3 4H6.94C5 12 4.02 9 4.02 9Z"/><path fill="#28150b" fill-rule="evenodd" d="M6 11h7l-1 1H7z"/><path fill="#fc0" fill-rule="evenodd" d="m11 10-1 1v1l1 1H8l1-1v-1l-1-1z"/><path fill="#c6c6c6" fill-rule="evenodd" d="M7.5 5h4c.28 0 .5.22.5.5V7h-1V6H8v1H7V5.5c0-.28.22-.5.5-.5"/><path fill="#fc0" d="M7 7h1v1H7zm4 0h1v1h-1z"/></g></svg>