<svg xmlns="http://www.w3.org/2000/svg" xmlns:xlink="http://www.w3.org/1999/xlink" width="16" height="16"><defs><symbol id="e" viewBox="0 0 13 10"><path fill="#fff" d="M5 0H1C.45 0 0 .45 0 1v8c0 .55.45 1 1 1h11c.55 0 1-.45 1-1V2c0-.55-.45-1-1-1H6c0-.55-.45-1-1-1"/></symbol><symbol id="c" viewBox="0 0 6 2"><path fill="url(#a)" d="M0 1v1h5c.55 0 1-.45 1-1s-.45-1-1-1H1C.45 0 0 .45 0 1" opacity=".72" style="isolation:isolate"/></symbol><symbol id="f" viewBox="0 0 13 10"><g mask="url(#b)"><path fill="#ff2020" d="M0 0h13v10H0z"/></g><use xlink:href="#c" width="6" height="2"/></symbol><linearGradient id="a" x1="-7226.14" x2="-7226.14" y1="23619.99" y2="23623.99" gradientTransform="matrix(.5 0 0 -.5 3616.07 11811.99)" gradientUnits="userSpaceOnUse"><stop offset="0"/><stop offset="1" stop-opacity=".15"/></linearGradient><mask id="b" width="13" height="10" x="0" y="0" maskUnits="userSpaceOnUse"><use xlink:href="#e" width="13" height="10"/></mask></defs><use xlink:href="#f" width="13" height="10"/><g><path d="M3 3h13v11c0 1.1-.9 2-2 2H3z"/><path fill="#fff" d="M14 7h1v1h-1zm0-3h-1v1h1v1h1V4zm-3 0h1v1h-1zM9 4h1v1H9zM7 4h1v1H7zM5 4H4v2h1V5h1V4zM4 7h1v1H4zm0 2h1v1H4zm0 2h1v1H4zm1 3v-1H4v2h2v-1zm2 0h1v1H7z"/><path fill="#40ffa0" d="M14 15H9V9h6v5c0 .55-.45 1-1 1"/></g></svg>