<svg xmlns="http://www.w3.org/2000/svg" xmlns:xlink="http://www.w3.org/1999/xlink" width="16" height="16"><defs><symbol id="e" viewBox="0 0 13 10"><path fill="#fff" d="M5 0H1C.45 0 0 .45 0 1v8c0 .55.45 1 1 1h11c.55 0 1-.45 1-1V2c0-.55-.45-1-1-1H6c0-.55-.45-1-1-1"/></symbol><symbol id="d" viewBox="0 0 6 2"><path fill="url(#a)" d="M0 1v1h5c.55 0 1-.45 1-1s-.45-1-1-1H1C.45 0 0 .45 0 1" opacity=".72" style="isolation:isolate"/></symbol><symbol id="f" viewBox="0 0 13 10"><g mask="url(#b)"><path fill="#ff6700" d="M0 0h13v10H0z"/></g><use xlink:href="#d" width="6" height="2"/></symbol><linearGradient id="a" x1="-7226.14" x2="-7226.14" y1="23619.99" y2="23623.99" gradientTransform="matrix(.5 0 0 -.5 3616.07 11811.99)" gradientUnits="userSpaceOnUse"><stop offset="0"/><stop offset="1" stop-opacity=".15"/></linearGradient><mask id="b" width="13" height="10" x="0" y="0" maskUnits="userSpaceOnUse"><use xlink:href="#e" width="13" height="10"/></mask></defs><use xlink:href="#f" width="13" height="10"/><g fill-rule="evenodd"><path d="M8 16c-1.1 0-2-.9-2-2v-.27c-.29.17-.64.27-1 .27-1.1 0-2-.9-2-2v-2c0-1.1.9-2 2-2 .36 0 .71.1 1 .27V8c0-1.1.9-2 2-2h.27C8.1 5.71 8 5.36 8 5c0-1.1.9-2 2-2h2c1.1 0 2 .9 2 2 0 .36-.1.71-.27 1H14c1.1 0 2 .9 2 2v6c0 1.1-.9 2-2 2z"/><path fill="#40a0ff" d="M11 15h3c.55 0 1-.45 1-1v-2h-1v.5c0 .28-.22.5-.5.5h-1c-.28 0-.5-.22-.5-.5v-3c0-.28.22-.5.5-.5h1c.28 0 .5.22.5.5v.5h1V8c0-.55-.45-1-1-1h-2V6h.5c.28 0 .5-.22.5-.5v-1c0-.28-.22-.5-.5-.5h-3c-.28 0-.5.22-.5.5v1c0 .28.22.5.5.5h.5v1H8c-.55 0-1 .45-1 1v2H6v-.5c0-.28-.22-.5-.5-.5h-1c-.28 0-.5.22-.5.5v3c0 .28.22.5.5.5h1c.28 0 .5-.22.5-.5V12h1v2c0 .55.45 1 1 1h1"/></g></svg>