<svg xmlns="http://www.w3.org/2000/svg" xmlns:xlink="http://www.w3.org/1999/xlink" width="16" height="16"><defs><symbol id="g" viewBox="0 0 13 11"><path fill="#fff" d="M0 0v11h10.98c.55 0 1-.45 1-1V6c.55 0 1-.45 1-1V1c.01-.75-.39-.99-.99-1z"/></symbol><symbol id="c" viewBox="0 0 13 11"><path d="M0 0v11h11c.55 0 1-.45 1-1V6c.55 0 1-.45 1-1V1c0-.75-.41-.99-1-1z" opacity=".3" style="isolation:isolate"/></symbol><symbol id="h" viewBox="0 0 7 16"><path fill="#fff" d="M7 2.95c0-.6-.37-1.14-.93-1.36L0 0v14l6 2c1 0 1-1 1-1z"/></symbol><symbol id="d" viewBox="0 0 7.91 11"><path d="M0 1.31V11h7.91V3.39C7.91.51 5.89.63 3.81.63S0 1.31 0 1.31" opacity=".6"/><path d="M0 0h7.91v11H0z" opacity="0"/></symbol><symbol id="i" viewBox="0 0 13.02 11"><g mask="url(#a)"><path fill="#ff2020" d="M.02 0h13v11h-13z"/></g><use xlink:href="#c" width="13" height="11"/><use xlink:href="#d" width="7.91" height="11" transform="translate(.02)"/></symbol><symbol id="k" viewBox="0 0 7 16"><g mask="url(#e)"><path fill="#ff2020" d="M0 0h7v16H0z"/></g></symbol><mask id="a" width="13.02" height="11" x="0" y="0" maskUnits="userSpaceOnUse"><use xlink:href="#g" width="13" height="11" transform="translate(.02)"/></mask><mask id="e" width="7" height="16" x="0" y="0" maskUnits="userSpaceOnUse"><use xlink:href="#h" width="7" height="16"/></mask><linearGradient id="j" x1="-12.87" x2="-10.13" y1="-144.11" y2="-144.11" gradientTransform="matrix(3.78 0 0 -3.78 48.64 -537.66)" gradientUnits="userSpaceOnUse"><stop offset=".69"/><stop offset="1" stop-opacity="0"/></linearGradient></defs><use xlink:href="#i" width="13.02" height="11"/><g><path d="M11 14H8c-1 0-1-1-1-1H3v-3h4V9H5V2h9v7h-2v1h4v3h-4s0 1-1 1"/><path fill="#fff" d="M11 11v-.02c0-.54-.44-.98-.98-.98H10V8h3V4s.01 0 .01-1H6v5h3v2h-.02c-.54 0-.98.44-.98.98V11H4v1h4v.02c0 .54.44.98.98.98h1.03c.54 0 .98-.44.98-.98V12h4v-1h-4ZM7 7V4h5v3zm3 5H9v-1h1z"/></g><path fill="url(#j)" d="m0 0 1 2h10v12H0z"/><use xlink:href="#k" width="7" height="16"/></svg>