<svg xmlns="http://www.w3.org/2000/svg" xmlns:xlink="http://www.w3.org/1999/xlink" width="16" height="16"><defs><symbol id="e" viewBox="0 0 13 10"><path fill="#fff" d="M5 0H1C.45 0 0 .45 0 1v8c0 .55.45 1 1 1h11c.55 0 1-.45 1-1V2c0-.55-.45-1-1-1H6c0-.55-.45-1-1-1"/></symbol><symbol id="c" viewBox="0 0 6 2"><path fill="url(#a)" d="M0 1v1h5c.55 0 1-.45 1-1s-.45-1-1-1H1C.45 0 0 .45 0 1" opacity=".72" style="isolation:isolate"/></symbol><symbol id="f" viewBox="0 0 13 10"><g mask="url(#b)"><path fill="#ff2020" d="M0 0h13v10H0z"/></g><use xlink:href="#c" width="6" height="2"/></symbol><linearGradient id="a" x1="-7226.14" x2="-7226.14" y1="23619.99" y2="23623.99" gradientTransform="matrix(.5 0 0 -.5 3616.07 11811.99)" gradientUnits="userSpaceOnUse"><stop offset="0"/><stop offset="1" stop-opacity=".15"/></linearGradient><mask id="b" width="13" height="10" x="0" y="0" maskUnits="userSpaceOnUse"><use xlink:href="#e" width="13" height="10"/></mask></defs><use xlink:href="#f" width="13" height="10"/><path d="M2 4h14v10c0 1.1-.9 2-2 2H2z"/><path fill="#50fff6" d="M13.5 10H12c-.68 0-1.17.6-1.5 1.22C10.17 10.61 9.68 10 9 10H7.5c-.83 0-1.5.67-1.5 1.5v2c0 .83.67 1.5 1.5 1.5H9c.68 0 1.17-.6 1.5-1.22.33.61.82 1.22 1.5 1.22h1.5c.83 0 1.5-.67 1.5-1.5v-2c0-.83-.67-1.5-1.5-1.5"/><path d="M9 14c1-1 1-1.5 1-1.5s0-.5-1-1.5H7.5c-.28 0-.5.22-.5.5v2c0 .28.22.5.5.5zm3 0c-1-1-1-1.5-1-1.5s0-.5 1-1.5h1.5c.28 0 .5.22.5.5v2c0 .28-.22.5-.5.5z"/><path fill="#4dfffa" d="M14 5H3v10h2v-1H4V6h10v2h1V5z"/></svg>