<svg xmlns="http://www.w3.org/2000/svg" xmlns:xlink="http://www.w3.org/1999/xlink" width="16" height="16"><defs><symbol id="e" viewBox="0 0 13 10"><path fill="#fff" d="M5 0H1C.45 0 0 .45 0 1v8c0 .55.45 1 1 1h11c.55 0 1-.45 1-1V2c0-.55-.45-1-1-1H6c0-.55-.45-1-1-1"/></symbol><symbol id="c" viewBox="0 0 6 2"><path fill="url(#a)" d="M0 1v1h5c.55 0 1-.45 1-1s-.45-1-1-1H1C.45 0 0 .45 0 1" opacity=".72" style="isolation:isolate"/></symbol><symbol id="f" viewBox="0 0 13 10"><g mask="url(#b)"><path fill="#ff6700" d="M0 0h13v10H0z"/></g><use xlink:href="#c" width="6" height="2"/></symbol><linearGradient id="a" x1="-7226.14" x2="-7226.14" y1="23619.99" y2="23623.99" gradientTransform="matrix(.5 0 0 -.5 3616.07 11811.99)" gradientUnits="userSpaceOnUse"><stop offset="0"/><stop offset="1" stop-opacity=".15"/></linearGradient><mask id="b" width="13" height="10" x="0" y="0" maskUnits="userSpaceOnUse"><use xlink:href="#e" width="13" height="10"/></mask></defs><use xlink:href="#f" width="13" height="10"/><g><path d="M6 16v-1h-.5c-.83 0-1.5-.67-1.5-1.5V13H3v-3h1V9H3V6h1v-.5C4 4.67 4.67 4 5.5 4H6V3h3v1h1V3h3v1h.5c.83 0 1.5.67 1.5 1.5V6h1v3h-1v1h1v3h-1v.5c0 .83-.67 1.5-1.5 1.5H13v1h-3v-1H9v1zm5-5V8H8v3z"/><rect width="5" height="5" x="7" y="7" rx="1.5" ry="1.5"/><path fill="#586977" d="M14 10V5.5c0-.28-.22-.5-.5-.5h-8c-.28 0-.5.22-.5.5v8c0 .28.22.5.5.5h8c.28 0 .5-.22.5-.5z"/><rect width="5" height="5" x="7" y="7" fill="#00ff06" rx=".9" ry=".9"/><path fill="#cdcdcd" d="M7 4h1v2H7zm4 0h1v2h-1zm-4 9h1v2H7zm4 0h1v2h-1zM4 7h2v1H4zm0 4h2v1H4zm9-4h2v1h-2zm0 4h2v1h-2z"/></g></svg>