<svg xmlns="http://www.w3.org/2000/svg" xmlns:xlink="http://www.w3.org/1999/xlink" width="16" height="16"><defs><symbol id="b" viewBox="0 0 13 10"><path d="M5 0H1C.45 0 0 .45 0 1v8c0 .55.45 1 1 1h11c.55 0 1-.45 1-1V2c0-.55-.45-1-1-1H6c0-.55-.45-1-1-1" style="fill:#fff"/></symbol><symbol id="d" viewBox="0 0 6 2"><path d="M0 1v1h5c.55 0 1-.45 1-1s-.45-1-1-1H1C.45 0 0 .45 0 1" style="fill:url(#a);isolation:isolate;opacity:.72"/></symbol><symbol id="e" viewBox="0 0 13 10"><g style="mask:url(#c)"><path d="M0 0h13v10H0z" style="fill:#a040ff"/></g><use xlink:href="#d" width="6" height="2"/></symbol><linearGradient id="a" x1="-7226.14" x2="-7226.14" y1="23619.99" y2="23623.99" gradientTransform="matrix(.5 0 0 -.5 3616.07 11811.99)" gradientUnits="userSpaceOnUse"><stop offset="0"/><stop offset="1" stop-opacity=".15"/></linearGradient><mask id="c" width="13" height="10" x="0" y="0" maskUnits="userSpaceOnUse"><use xlink:href="#b" width="13" height="10"/></mask></defs><use xlink:href="#e" width="13" height="10"/><path d="m15.01 5-4.72-2.77c-.3-.17-.64-.25-.98-.25s-.68.09-1 .26L3.73 4.91c-.46.27-.74.76-.74 1.29v5.58c0 .68.38 1.32.99 1.67l1.14.64c.38.23.82.37 1.24.41.09.1.2.2.36.28l1.59.95c.3.18.65.27 1 .27s.7-.09 1-.27l4.7-2.76c.61-.36.98-1.02.98-1.73V6.73c0-.71-.38-1.37-.99-1.73ZM6 11.43V6.75zm3.26 1.47-.24-.12q.135.045.3.09z"/><path d="M14.51 5.86 9.81 3.1c-.31-.17-.68-.17-.99 0L4.24 5.77c-.15.09-.24.25-.24.43v5.58c0 .33.18.63.48.8l1.16.66c.31.19.67.28 1.03.28h.26c.68-.09 1.16-.7 1.07-1.36V7.15c0-.07-.06-.13-.13-.13H7v5.2c-.12.39-.39.72-1.07.4l-.78-.69V6.52c0-.15.09-.29.22-.36l3.88-2.14h.07l4.53 2.54.07.11-.02 4.71-.08.13-4.5 2.51h-.07l-1.21-.6s-.08-.03-.12 0c-.22.14-.46.25-.71.33-.08.03-.19.07.04.21l1.58.94c.15.09.32.13.49.13s.34-.05.49-.13l4.7-2.76c.31-.18.49-.51.49-.87V6.76c0-.36-.19-.69-.49-.87Z" style="fill:#a3ea0a"/><path d="M10.77 11.23c-1.29-.02-1.57-.3-1.67-.9-.01-.06-.77-.11-.77-.11-.08 0-.14.06-.14.13 0 .77.45 1.68 2.58 1.68 1.54 0 2.23-.56 2.23-1.55s-.51-1.3-2.01-1.45c-1-.1-1.3-.34-1.3-.68 0-.27.26-.6.88-.58 1 .03 1.28.08 1.43.71 0 0 1 .12 1 .08-.1-1.09-.87-1.6-2.43-1.6-1.39 0-2.22.55-2.22 1.47 0 1 .83 1.25 2.16 1.4 1.06.11 1.28.35 1.28.65 0 .51-.42.75-1.02.74Z" style="fill:#a3ea0a"/></svg>