<svg xmlns="http://www.w3.org/2000/svg" xmlns:xlink="http://www.w3.org/1999/xlink" width="16" height="16" data-name="Row 5 &amp;amp; 6"><defs><symbol id="e" data-name="( closedFolder )" viewBox="0 0 13 10"><path fill="#fff" d="M5 0H1C.45 0 0 .45 0 1v8c0 .55.45 1 1 1h11c.55 0 1-.45 1-1V2c0-.55-.45-1-1-1H6c0-.55-.45-1-1-1" data-name="folder"/></symbol><symbol id="d" data-name="( closedFolder_tab )" viewBox="0 0 6 2"><path fill="url(#a)" d="M0 1v1h5c.55 0 1-.45 1-1s-.45-1-1-1H1C.45 0 0 .45 0 1" data-name="tab" opacity=".72" style="isolation:isolate"/></symbol><symbol id="f" data-name="-folder-closed-blue" viewBox="0 0 13 10"><g><g mask="url(#b)"><path fill="#40a0ff" d="M0 0h13v10H0z"/></g><use xlink:href="#d" width="6" height="2"/></g></symbol><linearGradient id="a" x1="-7226.14" x2="-7226.14" y1="23619.99" y2="23623.99" gradientTransform="matrix(.5 0 0 -.5 3616.07 11811.99)" gradientUnits="userSpaceOnUse"><stop offset="0"/><stop offset="1" stop-opacity=".15"/></linearGradient><mask id="b" width="13" height="10" x="0" y="0" data-name="mask" maskUnits="userSpaceOnUse"><use xlink:href="#e" width="13" height="10"/></mask></defs><g data-name="Layer 24 copy"><use xlink:href="#f" width="13" height="10"/><g data-name="icon"><rect width="11" height="12" x="5" y="4" rx="1.49" ry="1.49"/><path fill="#f29b00" d="M6 9v5c0 .55.45 1 1 1h7c.55 0 1-.45 1-1V9c0-.55-.45-1-1-1H7c-.55 0-1 .45-1 1"/><rect width="9" height="2" x="6" y="5" fill="#efe39a" rx="1" ry="1"/><path fill="red" d="m8 12 1 1V7c0-.55-.45-1-1-1s-1 .45-1 1v6z"/></g></g></svg>