<svg xmlns="http://www.w3.org/2000/svg" xmlns:xlink="http://www.w3.org/1999/xlink" width="16" height="16"><defs><symbol id="b" viewBox="0 0 13 10"><path d="M5 0H1C.45 0 0 .45 0 1v8c0 .55.45 1 1 1h11c.55 0 1-.45 1-1V2c0-.55-.45-1-1-1H6c0-.55-.45-1-1-1" style="fill:#fff"/></symbol><symbol id="d" viewBox="0 0 6 2"><path d="M0 1v1h5c.55 0 1-.45 1-1s-.45-1-1-1H1C.45 0 0 .45 0 1" style="fill:url(#a);isolation:isolate;opacity:.72"/></symbol><symbol id="e" viewBox="0 0 13 10"><g style="mask:url(#c)"><path d="M0 0h13v10H0z" style="fill:#0ff"/></g><use xlink:href="#d" width="6" height="2"/></symbol><linearGradient id="a" x1="-7226.14" x2="-7226.14" y1="23619.99" y2="23623.99" gradientTransform="matrix(.5 0 0 -.5 3616.07 11811.99)" gradientUnits="userSpaceOnUse"><stop offset="0"/><stop offset="1" stop-opacity=".15"/></linearGradient><mask id="c" width="13" height="10" x="0" y="0" maskUnits="userSpaceOnUse"><use xlink:href="#b" width="13" height="10"/></mask></defs><use xlink:href="#e" width="13" height="10"/><path d="M10.02 15.98c-.42 0-.84-.16-1.16-.48l-4.37-4.37a1.66 1.66 0 0 1 0-2.32l3.7-3.7.64-.63a1.66 1.66 0 0 1 2.32 0l4.38 4.38-.17.17.19-.18c.63.64.62 1.67 0 2.31l-4.36 4.36c-.32.32-.74.48-1.16.48Zm1.71-4.23c.02.11.04.22.04.33l.29-.29c-.11 0-.22-.02-.33-.04M6.15 9.97l2.11 2.11c.01-.44.18-.84.48-1.16v-1.8a1.658 1.658 0 0 1-.47-1.1l-.08-.08-2.03 2.03Z"/><path d="m14.81 9.55-4.37-4.37a.646.646 0 0 0-.91 0l-.91.91 1.15 1.15a.79.79 0 0 1 .79.18c.21.21.27.52.18.79l1.11 1.11c.39-.14.83.06.98.45.1.28.03.6-.19.81-.31.29-.8.28-1.09-.03a.78.78 0 0 1-.16-.8l-1.1-1.11v2.72l.27.22c.3.3.3.78 0 1.08s-.78.3-1.08 0-.3-.78 0-1.07c.07-.07.16-.13.26-.27V8.57c-.39-.08-.57-.52-.43-.91L8.18 6.53 5.19 9.52c-.25.25-.25.66 0 .91l4.37 4.37c.25.25.66.25.91 0l4.35-4.35c.25-.25.25-.66 0-.91" style="fill:#ff4040"/><circle cx="9.97" cy="11.97" r="1.08"/><circle cx="12.06" cy="9.99" r="1.08"/><circle cx="9.91" cy="7.92" r="1.08"/></svg>