<svg xmlns="http://www.w3.org/2000/svg" xmlns:xlink="http://www.w3.org/1999/xlink" width="16" height="16"><defs><symbol id="b" viewBox="0 0 13 10"><path d="M5 0H1C.45 0 0 .45 0 1v8c0 .55.45 1 1 1h11c.55 0 1-.45 1-1V2c0-.55-.45-1-1-1H6c0-.55-.45-1-1-1" style="fill:#fff"/></symbol><symbol id="d" viewBox="0 0 6 2"><path d="M0 1v1h5c.55 0 1-.45 1-1s-.45-1-1-1H1C.45 0 0 .45 0 1" style="fill:url(#a);isolation:isolate;opacity:.72"/></symbol><symbol id="e" viewBox="0 0 13 10"><g style="mask:url(#c)"><path d="M0 0h13v10H0z" style="fill:#ff6700"/></g><use xlink:href="#d" width="6" height="2"/></symbol><linearGradient id="a" x1="-7226.14" x2="-7226.14" y1="23619.99" y2="23623.99" gradientTransform="matrix(.5 0 0 -.5 3616.07 11811.99)" gradientUnits="userSpaceOnUse"><stop offset="0"/><stop offset="1" stop-opacity=".15"/></linearGradient><mask id="c" width="13" height="10" x="0" y="0" maskUnits="userSpaceOnUse"><use xlink:href="#b" width="13" height="10"/></mask></defs><use xlink:href="#e" width="13" height="10"/><path d="M4.43 15.78V8.56H2.32V5.24h7.82v3.32H7.99v7.22z"/><path d="M9.14 6.24v1.31H3.32V6.24zm-2.15 0v8.53H5.43V6.24z"/><path d="M12.32 15.89c-.49 0-.96-.07-1.4-.22a3.7 3.7 0 0 1-1.26-.7c-.38-.32-.68-.73-.89-1.22-.21-.47-.31-1.02-.31-1.62v-1H10q-.165-.12-.3-.24c-.33-.29-.6-.63-.79-1.02q-.3-.615-.3-1.38c0-.765.09-.95.27-1.36.18-.42.45-.79.79-1.1.33-.29.72-.52 1.17-.68.43-.15.9-.23 1.4-.23q1.095 0 1.92.48c.55.32.99.77 1.29 1.32.29.54.44 1.15.44 1.81v1h-1.25c.17.14.32.28.46.43.28.32.5.68.64 1.08.13.38.2.81.2 1.28s-.09.94-.26 1.35c-.18.43-.44.8-.78 1.1-.33.3-.73.53-1.18.68-.43.15-.9.22-1.41.22Zm-.3-3.73c0 .18.02.29.04.36.08.07.16.08.29.08h.04v-.05c0-.09 0-.15-.02-.19-.01 0-.06-.04-.15-.1-.06-.04-.13-.07-.2-.11Zm.15-3.73s.09.07.15.11c0-.05-.02-.09-.03-.13h-.11v.01Z"/><path d="M13.38 12.55c0-.17-.02-.32-.05-.45s-.1-.25-.19-.36-.23-.22-.4-.33-.4-.22-.68-.33q-.495-.195-.93-.42c-.435-.225-.55-.33-.79-.52s-.41-.43-.54-.7-.2-.58-.2-.94.06-.67.19-.96.31-.54.54-.75.51-.37.83-.48.68-.17 1.07-.17c.55 0 1.02.12 1.42.35s.7.54.91.94.32.84.32 1.34h-1.56c0-.26-.04-.49-.11-.69s-.2-.36-.36-.47-.38-.17-.63-.17c-.24 0-.44.05-.6.14s-.27.22-.35.39-.11.35-.11.55c0 .15.03.28.1.4s.16.23.28.33.27.19.44.28.37.17.58.25c.39.15.74.31 1.04.49s.54.38.74.6.34.47.44.75.15.59.15.95-.06.67-.18.96-.3.54-.53.74-.51.37-.83.48-.69.17-1.09.17-.75-.06-1.09-.17-.65-.28-.92-.51-.47-.51-.63-.86-.23-.75-.23-1.22h1.56c0 .26.03.49.09.68s.15.34.26.46.26.2.42.25.35.08.56.08c.25 0 .45-.04.6-.13s.26-.21.33-.37.11-.34.11-.54Z"/><path d="M11 6.9h2.39v7.55H11z"/><path d="M9.14 6.24v1.31H3.32V6.24zm-2.15 0v8.53H5.43V6.24zM13.38 12.55c0-.17-.02-.32-.05-.45s-.1-.25-.19-.36-.23-.22-.4-.33-.4-.22-.68-.33q-.495-.195-.93-.42c-.435-.225-.55-.33-.79-.52s-.41-.43-.54-.7-.2-.58-.2-.94.06-.67.19-.96.31-.54.54-.75.51-.37.83-.48.68-.17 1.07-.17c.55 0 1.02.12 1.42.35s.7.54.91.94.32.84.32 1.34h-1.56c0-.26-.04-.49-.11-.69s-.2-.36-.36-.47-.38-.17-.63-.17c-.24 0-.44.05-.6.14s-.27.22-.35.39-.11.35-.11.55c0 .15.03.28.1.4s.16.23.28.33.27.19.44.28.37.17.58.25c.39.15.74.31 1.04.49s.54.38.74.6.34.47.44.75.15.59.15.95-.06.67-.18.96-.3.54-.53.74-.51.37-.83.48-.69.17-1.09.17-.75-.06-1.09-.17-.65-.28-.92-.51-.47-.51-.63-.86-.23-.75-.23-1.22h1.56c0 .26.03.49.09.68s.15.34.26.46.26.2.42.25.35.08.56.08c.25 0 .45-.04.6-.13s.26-.21.33-.37.11-.34.11-.54Z" style="fill:#36cbff"/></svg>