<svg xmlns="http://www.w3.org/2000/svg" xmlns:xlink="http://www.w3.org/1999/xlink" width="16" height="16"><defs><symbol id="b" viewBox="0 0 13 10"><path d="M5 0H1C.45 0 0 .45 0 1v8c0 .55.45 1 1 1h11c.55 0 1-.45 1-1V2c0-.55-.45-1-1-1H6c0-.55-.45-1-1-1" style="fill:#fff"/></symbol><symbol id="d" viewBox="0 0 6 2"><path d="M0 1v1h5c.55 0 1-.45 1-1s-.45-1-1-1H1C.45 0 0 .45 0 1" style="fill:url(#a);isolation:isolate;opacity:.72"/></symbol><symbol id="e" viewBox="0 0 13 10"><g style="mask:url(#c)"><path d="M0 0h13v10H0z" style="fill:#ff2020"/></g><use xlink:href="#d" width="6" height="2"/></symbol><linearGradient id="a" x1="-7226.14" x2="-7226.14" y1="23619.99" y2="23623.99" gradientTransform="matrix(.5 0 0 -.5 3616.07 11811.99)" gradientUnits="userSpaceOnUse"><stop offset="0"/><stop offset="1" stop-opacity=".15"/></linearGradient><mask id="c" width="13" height="10" x="0" y="0" maskUnits="userSpaceOnUse"><use xlink:href="#b" width="13" height="10"/></mask></defs><use xlink:href="#e" width="13" height="10"/><path d="M11.52 15.89c-.6 0-1.15-.11-1.64-.33a3.5 3.5 0 0 1-1.29-.99c-.34-.41-.59-.92-.76-1.49a6.4 6.4 0 0 1-.24-1.83V9.77c0-.68.08-1.3.25-1.84.17-.58.43-1.08.77-1.49.36-.43.8-.77 1.31-.99.49-.21 1.04-.32 1.64-.32.78 0 1.46.16 2.02.47.58.33 1.04.81 1.35 1.43.28.56.45 1.24.5 2.01l.07 1.06h-3.59l-.04-.96c-.02-.41-.07-.61-.1-.69-.03 0-.1-.02-.21-.02-.12 0-.18.02-.19.03-.06.09-.11.2-.16.43-.04.23-.07.52-.07.87v1.49q0 .51.06.87c.04.24.09.36.12.42.01.03.06.05.19.05.22 0 .3-.04.3-.04-.04-.03.02-.22.04-.64l.04-.95h3.56L15.41 12c-.03.77-.2 1.45-.5 2.02-.32.61-.79 1.09-1.39 1.41-.57.3-1.25.46-2.02.46Zm.26-7.45"/><path d="M12.86 11.96h1.56c-.03.63-.16 1.16-.38 1.6s-.55.77-.98.99-.94.34-1.54.34c-.46 0-.87-.08-1.24-.24s-.67-.4-.92-.71-.44-.69-.57-1.14-.2-.97-.2-1.55V9.77c0-.58.07-1.1.21-1.55s.33-.84.59-1.15.57-.55.93-.71.78-.24 1.24-.24c.61 0 1.12.12 1.53.35s.73.57.95 1.01q.33.66.39 1.62h-1.56q-.03-.615-.15-.99c-.12-.375-.22-.42-.4-.52s-.43-.16-.75-.16c-.25 0-.46.04-.64.13s-.33.23-.44.42-.2.43-.25.72-.08.64-.08 1.05v1.49c0 .39.02.74.07 1.03s.12.54.23.73.24.34.42.43.39.14.66.14c.32 0 .57-.05.76-.14s.33-.26.42-.5.15-.57.17-.99Z"/><path d="M12.86 11.96h1.56c-.03.63-.16 1.16-.38 1.6s-.55.77-.98.99-.94.34-1.54.34c-.46 0-.87-.08-1.24-.24s-.67-.4-.92-.71-.44-.69-.57-1.14-.2-.97-.2-1.55V9.77c0-.58.07-1.1.21-1.55s.33-.84.59-1.15.57-.55.93-.71.78-.24 1.24-.24c.61 0 1.12.12 1.53.35s.73.57.95 1.01.35.98.39 1.62h-1.56q-.03-.615-.15-.99c-.12-.375-.22-.42-.4-.52s-.43-.16-.75-.16c-.25 0-.46.04-.64.13s-.33.23-.44.42-.2.43-.25.72-.08.64-.08 1.05v1.49c0 .39.02.74.07 1.03s.12.54.23.73.24.34.42.43.39.14.66.14c.32 0 .57-.05.76-.14s.33-.26.42-.5.15-.57.17-.99Z" style="fill:#0ff"/></svg>