<svg xmlns="http://www.w3.org/2000/svg" xmlns:xlink="http://www.w3.org/1999/xlink" width="16" height="16"><defs><symbol id="a" viewBox="0 0 13 11"><path d="M0 0v11h10.98c.55 0 1-.45 1-1V6c.55 0 1-.45 1-1V1c.01-.75-.39-.99-.99-1z" style="fill:#fff"/></symbol><symbol id="c" viewBox="0 0 13 11"><path d="M0 0v11h11c.55 0 1-.45 1-1V6c.55 0 1-.45 1-1V1c0-.75-.41-.99-1-1z" style="isolation:isolate;opacity:.3"/></symbol><symbol id="e" viewBox="0 0 7 16"><path d="M7 2.95c0-.6-.37-1.14-.93-1.36L0 0v14l6 2c1 0 1-1 1-1z" style="fill:#fff"/></symbol><symbol id="d" viewBox="0 0 7.91 11"><path d="M0 1.31V11h7.91V3.39C7.91.51 5.89.63 3.81.63S0 1.31 0 1.31" style="opacity:.6"/><path d="M0 0h7.91v11H0z" style="opacity:0"/></symbol><symbol id="g" viewBox="0 0 13.02 11"><g style="mask:url(#b)"><path d="M.02 0h13v11h-13z" style="fill:#ff13c0"/></g><use xlink:href="#c" width="13" height="11"/><use xlink:href="#d" width="7.91" height="11" transform="translate(.02)"/></symbol><symbol id="i" viewBox="0 0 7 16"><g style="mask:url(#f)"><path d="M0 0h7v16H0z" style="fill:#ff13c0"/></g></symbol><mask id="b" width="13.02" height="11" x="0" y="0" maskUnits="userSpaceOnUse"><use xlink:href="#a" width="13" height="11" transform="translate(.02)"/></mask><mask id="f" width="7" height="16" x="0" y="0" maskUnits="userSpaceOnUse"><use xlink:href="#e" width="7" height="16"/></mask><linearGradient id="h" x1="1.84" x2="4.57" y1="-182.05" y2="-182.05" gradientTransform="matrix(3.78 0 0 -3.78 -6.95 -681.05)" gradientUnits="userSpaceOnUse"><stop offset=".69"/><stop offset="1" stop-opacity="0"/></linearGradient></defs><use xlink:href="#g" width="13.02" height="11"/><path d="M3 14V5h1.62C5.09 4.61 6 4 7 4h5c1 0 1.91.62 2.38 1.01H16V14z"/><path d="M10 6.01H9L7 5C6 5 5 6 5 6H4v8h11V6.01h-1s-2-2.01-4 0m0 7H9l-1-.49s-1-.51-2 .49H5V7.02h1c.63-.33 2.34-.27 3 0l.05 4.01.95 1V7.02c.66-.26 1.36-.81 2-.49l1 .5h1v6h-1c-1-1.01-2.02-.54-2.02-.54l-.98.54Z"/><circle cx="9.5" cy="2.5" r="2.5"/><circle cx="9.5" cy="3.5" r="1.5"/><path d="M10 6.01H9c-2-2.01-4 0-4 0H4v7h11V6.02h-1s-2-2.01-4 0Zm0 6H9s-2-2-4 0V7.02s2-2.01 4 0l.05 3.01.95 1V7.02c2-2 4 0 4 0v5c-2-2.01-4 0-4 0Z" style="fill:#fff"/><circle cx="9.5" cy="2.5" r="1.5" style="fill:#fff"/><path d="m0 0 1 2 8.23 3.11-1.76-1.84L8.33.8l1.79-.15.89 1.35v12H0z" style="fill:url(#h)"/><use xlink:href="#i" width="7" height="16"/></svg>