<svg xmlns="http://www.w3.org/2000/svg" xmlns:xlink="http://www.w3.org/1999/xlink" width="16" height="16"><defs><symbol id="b" viewBox="0 0 13 10"><path d="M5 0H1C.45 0 0 .45 0 1v8c0 .55.45 1 1 1h11c.55 0 1-.45 1-1V2c0-.55-.45-1-1-1H6c0-.55-.45-1-1-1" style="fill:#fff"/></symbol><symbol id="d" viewBox="0 0 6 2"><path d="M0 1v1h5c.55 0 1-.45 1-1s-.45-1-1-1H1C.45 0 0 .45 0 1" style="fill:url(#a);isolation:isolate;opacity:.72"/></symbol><symbol id="e" viewBox="0 0 13 10"><g style="mask:url(#c)"><path d="M0 0h13v10H0z" style="fill:#ff13c0"/></g><use xlink:href="#d" width="6" height="2"/></symbol><linearGradient id="a" x1="-7226.14" x2="-7226.14" y1="23619.99" y2="23623.99" gradientTransform="matrix(.5 0 0 -.5 3616.07 11811.99)" gradientUnits="userSpaceOnUse"><stop offset="0"/><stop offset="1" stop-opacity=".15"/></linearGradient><mask id="c" width="13" height="10" x="0" y="0" maskUnits="userSpaceOnUse"><use xlink:href="#b" width="13" height="10"/></mask></defs><use xlink:href="#e" width="13" height="10"/><path d="M4 17V6.59L6.59 4H17v10.41L14.41 17z" style="opacity:1"/><path d="M8 16h6V7h-2v5H8z" style="fill:#ffd028"/><path d="m16 5-2 2v9l2-2z" style="fill:#d6a12b;fill-rule:evenodd"/><path d="M14 7h-2l2-2h2z" style="fill:#ffd028;fill-rule:evenodd"/><path d="M11 7H5v9h2v-5h4z" style="fill:#71c6ff"/><path d="M13 5H7L5 7h6z" style="fill:#71c6ff;fill-rule:evenodd"/><path d="M14.5 6.5h-9L5 7h9z" style="opacity:.44"/></svg>