<svg xmlns="http://www.w3.org/2000/svg" xmlns:xlink="http://www.w3.org/1999/xlink" width="16" height="16" data-name="Layer 179"><defs><symbol id="g" data-name="( openFolder_back )" viewBox="0 0 13 11"><path fill="#fff" d="M0 0v11h10.98c.55 0 1-.45 1-1V6c.55 0 1-.45 1-1V1c.01-.75-.39-.99-.99-1z" data-name="folder"/></symbol><symbol id="c" data-name="( openFolder_backShadows )" viewBox="0 0 13 11"><path d="M0 0v11h11c.55 0 1-.45 1-1V6c.55 0 1-.45 1-1V1c0-.75-.41-.99-1-1z" data-name="folder_shadow" opacity=".3" style="isolation:isolate"/></symbol><symbol id="h" data-name="( openFolder_flap )" viewBox="0 0 7 16"><path fill="#fff" d="M7 2.95c0-.6-.37-1.14-.93-1.36L0 0v14l6 2c1 0 1-1 1-1z" data-name="flap"/></symbol><symbol id="d" data-name="( openFolder_flapShadow )" viewBox="0 0 7.91 11"><g><path d="M0 1.31V11h7.91V3.39C7.91.51 5.89.63 3.81.63S0 1.31 0 1.31" opacity=".6"/><path d="M0 0h7.91v11H0z" opacity="0"/></g></symbol><symbol id="i" data-name="-folder-back-purple" viewBox="0 0 13.02 11"><g><g mask="url(#a)"><path fill="#a040ff" d="M.02 0h13v11h-13z"/></g><use xlink:href="#c" width="13" height="11"/><use xlink:href="#d" width="7.91" height="11" transform="translate(.02)"/></g></symbol><symbol id="k" data-name="-folder-flap-purple" viewBox="0 0 7 16"><g mask="url(#e)"><path fill="#a040ff" d="M0 0h7v16H0z"/></g></symbol><mask id="a" width="13.02" height="11" x="0" y="0" data-name="mask" maskUnits="userSpaceOnUse"><use xlink:href="#g" width="13" height="11" transform="translate(.02)"/></mask><mask id="e" width="7" height="16" x="0" y="0" data-name="mask-1" maskUnits="userSpaceOnUse"><use xlink:href="#h" width="7" height="16"/></mask><linearGradient id="j" x1="-42.29" x2="-39.55" y1="-232.63" y2="-232.63" gradientTransform="matrix(3.78 0 0 -3.78 159.82 -872.23)" gradientUnits="userSpaceOnUse"><stop offset=".69"/><stop offset="1" stop-opacity="0"/></linearGradient></defs><use xlink:href="#i" width="13.02" height="11"/><g><path d="M2 11.67V3.23L9 .89l7 2.34v8.44L9 14z"/><path fill="#e6a475" d="m15 3.95-6 2-6-2 6-2z"/><path fill="#a06841" d="m15 10.95-6 2v-7l6-2z"/><path fill="#c78c61" d="m3 10.95 6 2v-7l-6-2z"/><path fill="#ecb354" d="m13 4.61-2 .67v7l2-.67z"/><path fill="#fce8b2" d="m11 5.28-6-2 2.04-.68L13 4.61z"/></g><path fill="url(#j)" d="m0 0 1 2h6.34L9 1l2 1v11l-1.93.67-3.93-1.29L0 14z" data-name="icon_shadow"/><use xlink:href="#k" width="7" height="16"/></svg>