<svg xmlns="http://www.w3.org/2000/svg" xmlns:xlink="http://www.w3.org/1999/xlink" width="16" height="16"><defs><symbol id="b" viewBox="0 0 13 10"><path d="M5 0H1C.45 0 0 .45 0 1v8c0 .55.45 1 1 1h11c.55 0 1-.45 1-1V2c0-.55-.45-1-1-1H6c0-.55-.45-1-1-1" style="fill:#fff"/></symbol><symbol id="d" viewBox="0 0 6 2"><path d="M0 1v1h5c.55 0 1-.45 1-1s-.45-1-1-1H1C.45 0 0 .45 0 1" style="fill:url(#a);isolation:isolate;opacity:.72"/></symbol><symbol id="e" viewBox="0 0 13 10"><g style="mask:url(#c)"><path d="M0 0h13v10H0z" style="fill:#ff13c0"/></g><use xlink:href="#d" width="6" height="2"/></symbol><linearGradient id="a" x1="-7226.14" x2="-7226.14" y1="23619.99" y2="23623.99" gradientTransform="matrix(.5 0 0 -.5 3616.07 11811.99)" gradientUnits="userSpaceOnUse"><stop offset="0"/><stop offset="1" stop-opacity=".15"/></linearGradient><mask id="c" width="13" height="10" x="0" y="0" maskUnits="userSpaceOnUse"><use xlink:href="#b" width="13" height="10"/></mask></defs><use xlink:href="#e" width="13" height="10"/><path d="M14.61 4.01C12.74 2.13 10.83 2.13 8.95 4l-.06.06-.05.06c-.73 1.01-1.03 1.95-.89 2.85S6.86 8.06 6.86 8.06v-.12c-.79-.03-1.66.24-2.68.84l-.11.06-.09.09c-1.88 1.87-1.88 3.78-.01 5.66s3.78 1.88 5.66.01l.06-.06.05-.08c.6-.87.89-1.75.89-2.69v-.13l.98-.98h.15c.93 0 1.81-.29 2.67-.87l.08-.05.07-.07c1.88-1.87 1.88-3.78.01-5.66Zm-2.83 2.82"/><path d="M12.49 6.12c-.71-.71-2.12-.71-3.54.7-.09-.58.08-1.25.71-2.12 1.57-1.56 2.83-1.41 4.24 0s1.56 2.68 0 4.24c-.78.52-1.47.7-2.12.7 1.42-1.41 1.42-2.83.71-3.53Z" style="fill:#e8eaed"/><rect width="5" height="2" x="6.8" y="8.3" rx=".5" ry=".5" style="fill:#e8eaed" transform="rotate(-44.89 9.295 9.295)"/><path d="M6.11 12.48c-.71-.71-.7-2.12.71-3.53-.55-.02-1.23.17-2.12.7-1.57 1.56-1.42 2.83 0 4.24s2.68 1.57 4.24 0c.52-.76.71-1.46.71-2.12-1.42 1.41-2.83 1.41-3.54.7Z" style="fill:#e8eaed"/></svg>