<svg xmlns="http://www.w3.org/2000/svg" xmlns:xlink="http://www.w3.org/1999/xlink" width="16" height="16"><defs><symbol id="a" viewBox="0 0 13 11"><path d="M0 0v11h10.98c.55 0 1-.45 1-1V6c.55 0 1-.45 1-1V1c.01-.75-.39-.99-.99-1z" style="fill:#fff"/></symbol><symbol id="c" viewBox="0 0 13 11"><path d="M0 0v11h11c.55 0 1-.45 1-1V6c.55 0 1-.45 1-1V1c0-.75-.41-.99-1-1z" style="isolation:isolate;opacity:.3"/></symbol><symbol id="e" viewBox="0 0 7 16"><path d="M7 2.95c0-.6-.37-1.14-.93-1.36L0 0v14l6 2c1 0 1-1 1-1z" style="fill:#fff"/></symbol><symbol id="d" viewBox="0 0 7.91 11"><path d="M0 1.31V11h7.91V3.39C7.91.51 5.89.63 3.81.63S0 1.31 0 1.31" style="opacity:.6"/><path d="M0 0h7.91v11H0z" style="opacity:0"/></symbol><symbol id="g" viewBox="0 0 13.02 11"><g style="mask:url(#b)"><path d="M.02 0h13v11h-13z" style="fill:#a040ff"/></g><use xlink:href="#c" width="13" height="11"/><use xlink:href="#d" width="7.91" height="11" transform="translate(.02)"/></symbol><symbol id="i" viewBox="0 0 7 16"><g style="mask:url(#f)"><path d="M0 0h7v16H0z" style="fill:#a040ff"/></g></symbol><mask id="b" width="13.02" height="11" x="0" y="0" maskUnits="userSpaceOnUse"><use xlink:href="#a" width="13" height="11" transform="translate(.02)"/></mask><mask id="f" width="7" height="16" x="0" y="0" maskUnits="userSpaceOnUse"><use xlink:href="#e" width="7" height="16"/></mask><linearGradient id="h" x1="31.25" x2="33.99" y1="-30.3" y2="-30.3" gradientTransform="matrix(3.78 0 0 -3.78 -118.13 -107.51)" gradientUnits="userSpaceOnUse"><stop offset=".69"/><stop offset="1" stop-opacity="0"/></linearGradient></defs><use xlink:href="#g" width="13.02" height="11"/><path d="M15.01 2.92 10.3.15c-.3-.17-1.66-.17-1.98 0L3.74 2.83C3.28 3.1 3 3.59 3 4.12V9.7c0 .68.38 1.32.99 1.67l1.14.64c.38.23.82.37 1.24.41.09.1.2.2.36.28l1.59.95c.3.18.65.27 1 .27s.7-.09 1-.27l4.7-2.76c.61-.36.98-1.02.98-1.73V4.65c0-.71-.38-1.37-.99-1.73M6 9.35V4.67zm3.26 1.47-.24-.12q.135.045.3.09z"/><path d="m14.51 3.78-4.7-2.76c-.31-.17-.68-.17-.99 0L4.24 3.69c-.15.09-.24.25-.24.43V9.7c0 .33.18.63.48.8l1.16.66c.31.19.67.28 1.03.28h.26c.68-.09 1.16-.7 1.07-1.36V5.07c0-.07-.06-.13-.13-.13H7v5.2c-.12.39-.39.72-1.07.4l-.78-.69V4.44c0-.15.09-.29.22-.36l3.88-2.14h.07l4.53 2.54.07.11-.02 4.71-.08.13-4.5 2.51h-.07l-1.21-.6s-.08-.03-.12 0c-.22.14-.46.25-.71.33-.08.03-.19.07.04.21l1.58.94c.15.09.32.13.49.13s.34-.05.49-.13l4.7-2.76c.31-.18.49-.51.49-.87V4.68c0-.36-.19-.69-.49-.87Z" style="fill:#a3ea0a"/><path d="M10.77 9.15c-1.29-.02-1.57-.3-1.67-.9-.01-.06-.77-.11-.77-.11-.08 0-.14.06-.14.13 0 .77.45 1.68 2.58 1.68 1.54 0 2.23-.56 2.23-1.55s-.51-1.3-2.01-1.45c-1-.1-1.3-.34-1.3-.68 0-.27.26-.6.88-.58 1 .03 1.28.08 1.43.71 0 0 1 .12 1 .08-.1-1.09-.87-1.6-2.43-1.6-1.39 0-2.22.55-2.22 1.47 0 1 .83 1.25 2.16 1.4 1.06.11 1.28.35 1.28.65 0 .51-.42.75-1.02.74Z" style="fill:#a3ea0a"/><path d="m0 0 1 2h5L8.82.41l1.78.26.41 1.33v12H0z" style="fill:url(#h)"/><use xlink:href="#i" width="7" height="16"/></svg>