<svg xmlns="http://www.w3.org/2000/svg" xmlns:xlink="http://www.w3.org/1999/xlink" width="16" height="16"><defs><symbol id="a" viewBox="0 0 13 11"><path d="M0 0v11h10.98c.55 0 1-.45 1-1V6c.55 0 1-.45 1-1V1c.01-.75-.39-.99-.99-1z" style="fill:#fff"/></symbol><symbol id="c" viewBox="0 0 13 11"><path d="M0 0v11h11c.55 0 1-.45 1-1V6c.55 0 1-.45 1-1V1c0-.75-.41-.99-1-1z" style="isolation:isolate;opacity:.3"/></symbol><symbol id="e" viewBox="0 0 7 16"><path d="M7 2.95c0-.6-.37-1.14-.93-1.36L0 0v14l6 2c1 0 1-1 1-1z" style="fill:#fff"/></symbol><symbol id="d" viewBox="0 0 7.91 11"><path d="M0 1.31V11h7.91V3.39C7.91.51 5.89.63 3.81.63S0 1.31 0 1.31" style="opacity:.6"/><path d="M0 0h7.91v11H0z" style="opacity:0"/></symbol><symbol id="g" viewBox="0 0 13.02 11"><g style="mask:url(#b)"><path d="M.02 0h13v11h-13z" style="fill:#a040ff"/></g><use xlink:href="#c" width="13" height="11"/><use xlink:href="#d" width="7.91" height="11" transform="translate(.02)"/></symbol><symbol id="i" viewBox="0 0 7 16"><g style="mask:url(#f)"><path d="M0 0h7v16H0z" style="fill:#a040ff"/></g></symbol><mask id="b" width="13.02" height="11" x="0" y="0" maskUnits="userSpaceOnUse"><use xlink:href="#a" width="13" height="11" transform="translate(.02)"/></mask><mask id="f" width="7" height="16" x="0" y="0" maskUnits="userSpaceOnUse"><use xlink:href="#e" width="7" height="16"/></mask><linearGradient id="h" x1="1.84" x2="4.57" y1="-30.3" y2="-30.3" gradientTransform="matrix(3.78 0 0 -3.78 -6.95 -107.51)" gradientUnits="userSpaceOnUse"><stop offset=".69"/><stop offset="1" stop-opacity="0"/></linearGradient></defs><use xlink:href="#g" width="13.02" height="11"/><path d="m2 11-.03-5.03c0-1.1.9-2 2-2H5V1h8v3h1c1.1 0 2 .9 2 2v5.99C16 13 15 14 14 14H6s-4-1.9-4-3"/><path d="M11.99 7V5H4c-.55 0-1.03.42-1.03.97V12c0 .55.45 1 1 1H5V9.5C5 8.67 5.67 8 6.5 8h4.49c.55 0 1-.45 1-1" style="fill:#71c6ff"/><path d="M13 5v2.49C13 8.32 12.33 9 11.49 9H7.02c-.55 0-1 .45-1 1v2.99h7.97c.55 0 1-.45 1-1V6c0-.55-.45-1-1-1h-1Z" style="fill:#ffd028"/><path d="M6 2v2h1V3h4v1h1V2z" style="fill:#c6c6c6"/><path d="M6 4h1v1H6zM11 4h1v1h-1z" style="fill:#052128"/><path d="m0 0 1 2h10v12H0z" style="fill:url(#h)"/><use xlink:href="#i" width="7" height="16"/></svg>