<svg xmlns="http://www.w3.org/2000/svg" xmlns:xlink="http://www.w3.org/1999/xlink" width="16" height="16"><defs><symbol id="a" viewBox="0 0 13 11"><path d="M0 0v11h10.98c.55 0 1-.45 1-1V6c.55 0 1-.45 1-1V1c.01-.75-.39-.99-.99-1z" style="fill:#fff"/></symbol><symbol id="c" viewBox="0 0 13 11"><path d="M0 0v11h11c.55 0 1-.45 1-1V6c.55 0 1-.45 1-1V1c0-.75-.41-.99-1-1z" style="isolation:isolate;opacity:.3"/></symbol><symbol id="e" viewBox="0 0 7 16"><path d="M7 2.95c0-.6-.37-1.14-.93-1.36L0 0v14l6 2c1 0 1-1 1-1z" style="fill:#fff"/></symbol><symbol id="d" viewBox="0 0 7.91 11"><path d="M0 1.31V11h7.91V3.39C7.91.51 5.89.63 3.81.63S0 1.31 0 1.31" style="opacity:.6"/><path d="M0 0h7.91v11H0z" style="opacity:0"/></symbol><symbol id="g" viewBox="0 0 13.02 11"><g style="mask:url(#b)"><path d="M.02 0h13v11h-13z" style="fill:#0ff"/></g><use xlink:href="#c" width="13" height="11"/><use xlink:href="#d" width="7.91" height="11" transform="translate(.02)"/></symbol><symbol id="i" viewBox="0 0 7 16"><g style="mask:url(#f)"><path d="M0 0h7v16H0z" style="fill:#0ff"/></g></symbol><mask id="b" width="13.02" height="11" x="0" y="0" maskUnits="userSpaceOnUse"><use xlink:href="#a" width="13" height="11" transform="translate(.02)"/></mask><mask id="f" width="7" height="16" x="0" y="0" maskUnits="userSpaceOnUse"><use xlink:href="#e" width="7" height="16"/></mask><linearGradient id="h" x1="60.67" x2="63.41" y1="-30.3" y2="-30.3" gradientTransform="matrix(3.78 0 0 -3.78 -229.31 -107.51)" gradientUnits="userSpaceOnUse"><stop offset=".69"/><stop offset="1" stop-opacity="0"/></linearGradient></defs><use xlink:href="#g" width="13.02" height="11"/><path d="M10.02 13.98c-.42 0-.84-.16-1.16-.48L4.49 9.13a1.66 1.66 0 0 1 0-2.32l3.7-3.7.64-.63a1.66 1.66 0 0 1 2.32 0l4.38 4.38-.17.17.19-.18c.63.64.62 1.67 0 2.31l-4.36 4.36c-.32.32-.74.48-1.16.48Zm1.71-4.23c.02.11.04.22.04.33l.29-.29c-.11 0-.22-.02-.33-.04M6.15 7.97l2.11 2.11c.01-.44.18-.84.48-1.16v-1.8a1.658 1.658 0 0 1-.47-1.1l-.08-.08-2.03 2.03Z"/><path d="m14.81 7.55-4.37-4.37a.646.646 0 0 0-.91 0l-.91.91 1.15 1.15a.79.79 0 0 1 .79.18c.21.21.27.52.18.79l1.11 1.11c.39-.14.83.06.98.45.1.28.03.6-.19.81-.31.29-.8.28-1.09-.03a.78.78 0 0 1-.16-.8l-1.1-1.11v2.72l.27.22c.3.3.3.78 0 1.08s-.78.3-1.08 0-.3-.78 0-1.07c.07-.07.16-.13.26-.27V6.57c-.39-.08-.57-.52-.43-.91L8.18 4.53 5.19 7.52c-.25.25-.25.66 0 .91l4.37 4.37c.25.25.66.25.91 0l4.35-4.35c.25-.25.25-.66 0-.91" style="fill:#ff4040"/><circle cx="9.97" cy="9.97" r="1.08"/><circle cx="12.06" cy="7.99" r="1.08"/><circle cx="9.91" cy="5.92" r="1.08"/><path d="m0 0 1 2 5.7 3.5L10 2h.99v12H0z" style="fill:url(#h)"/><use xlink:href="#i" width="7" height="16"/></svg>