<svg xmlns="http://www.w3.org/2000/svg" xmlns:xlink="http://www.w3.org/1999/xlink" width="16" height="16"><defs><symbol id="b" viewBox="0 0 13 10"><path d="M5 0H1C.45 0 0 .45 0 1v8c0 .55.45 1 1 1h11c.55 0 1-.45 1-1V2c0-.55-.45-1-1-1H6c0-.55-.45-1-1-1" style="fill:#fff"/></symbol><symbol id="d" viewBox="0 0 6 2"><path d="M0 1v1h5c.55 0 1-.45 1-1s-.45-1-1-1H1C.45 0 0 .45 0 1" style="fill:url(#a);isolation:isolate;opacity:.72"/></symbol><symbol id="e" viewBox="0 0 13 10"><g style="mask:url(#c)"><path d="M0 0h13v10H0z" style="fill:#ff2020"/></g><use xlink:href="#d" width="6" height="2"/></symbol><linearGradient id="a" x1="-7226.14" x2="-7226.14" y1="23619.99" y2="23623.99" gradientTransform="matrix(.5 0 0 -.5 3616.07 11811.99)" gradientUnits="userSpaceOnUse"><stop offset="0"/><stop offset="1" stop-opacity=".15"/></linearGradient><mask id="c" width="13" height="10" x="0" y="0" maskUnits="userSpaceOnUse"><use xlink:href="#b" width="13" height="10"/></mask></defs><use xlink:href="#e" width="13" height="10"/><path d="M6.16 14.9c-.52 0-1-.1-1.46-.3-.46-.21-.86-.51-1.2-.92-.33-.39-.59-.88-.76-1.44-.16-.53-.24-1.14-.24-1.82 0-.77.08-1.39.25-1.92.17-.56.42-1.04.74-1.43.34-.41.74-.73 1.21-.93.45-.2.94-.3 1.45-.3s1 .1 1.45.3c.46.2.87.52 1.21.92.33.39.58.87.75 1.43.16.53.25 1.14.25 1.83 0 .77-.08 1.39-.25 1.92-.17.56-.42 1.04-.74 1.43q-.51.615-1.2.93c-.45.2-.94.3-1.46.3m0-5.71c-.03.07-.06.15-.08.28q-.06.3-.06.75v.3c0 .3.02.55.07.75.03.13.06.22.09.28.03-.07.06-.15.08-.28q.06-.3.06-.75v-.3c0-.3-.02-.55-.06-.74-.03-.13-.06-.22-.09-.29Z"/><path d="M8.81 10.32v.09c0 .59-.07 1.1-.2 1.53s-.32.8-.56 1.09-.52.51-.84.65-.67.22-1.05.22-.72-.07-1.05-.22-.61-.36-.85-.65-.43-.65-.57-1.09-.2-.95-.2-1.53v-.09c0-.59.07-1.1.2-1.53s.32-.8.56-1.09.52-.51.84-.65.67-.21 1.05-.21.72.07 1.05.21.6.36.85.65.43.65.57 1.09.2.95.2 1.53m-1.51.19v-.3q0-.555-.09-.96c-.09-.405-.14-.49-.24-.66s-.23-.3-.37-.38-.29-.12-.46-.12-.31.04-.45.12-.26.21-.37.38-.18.39-.24.66-.08.58-.08.96v.3q0 .555.09.96c.09.405.14.49.25.66s.23.3.37.38.29.13.45.13.32-.04.45-.13.26-.21.36-.38.18-.39.24-.66.08-.59.08-.96ZM10.53 14.78v-4.5l-1.7.67V7.52l3.86-1.56h1.35v8.82z"/><path d="M13.04 6.96v6.82h-1.51V8.82l-1.71.67V8.21l3.06-1.24h.15Z"/><path d="M8.81 10.32v.09c0 .59-.07 1.1-.2 1.53s-.32.8-.56 1.09-.52.51-.84.65-.67.22-1.05.22-.72-.07-1.05-.22-.61-.36-.85-.65-.43-.65-.57-1.09-.2-.95-.2-1.53v-.09c0-.59.07-1.1.2-1.53s.32-.8.56-1.09.52-.51.84-.65.67-.21 1.05-.21.72.07 1.05.21.6.36.85.65.43.65.57 1.09.2.95.2 1.53m-1.51.19v-.3q0-.555-.09-.96c-.09-.405-.14-.49-.24-.66s-.23-.3-.37-.38-.29-.12-.46-.12-.31.04-.45.12-.26.21-.37.38-.18.39-.24.66-.08.58-.08.96v.3q0 .555.09.96c.09.405.14.49.25.66s.23.3.37.38.29.13.45.13.32-.04.45-.13.26-.21.36-.38.18-.39.24-.66.08-.59.08-.96ZM13.04 6.96v6.82h-1.51V8.82l-1.71.67V8.21l3.06-1.24h.15Z" style="fill:#36cbff"/></svg>