<svg xmlns="http://www.w3.org/2000/svg" xmlns:xlink="http://www.w3.org/1999/xlink" width="16" height="16" data-name="Layer 176"><defs><symbol id="e" data-name="( closedFolder )" viewBox="0 0 13 10"><path fill="#fff" d="M5 0H1C.45 0 0 .45 0 1v8c0 .55.45 1 1 1h11c.55 0 1-.45 1-1V2c0-.55-.45-1-1-1H6c0-.55-.45-1-1-1" data-name="folder"/></symbol><symbol id="c" data-name="( closedFolder_tab )" viewBox="0 0 6 2"><path fill="url(#a)" d="M0 1v1h5c.55 0 1-.45 1-1s-.45-1-1-1H1C.45 0 0 .45 0 1" data-name="tab" opacity=".72" style="isolation:isolate"/></symbol><symbol id="f" data-name="-folder-closed-purple" viewBox="0 0 13 10"><g><g mask="url(#b)"><path fill="#a040ff" d="M0 0h13v10H0z"/></g><use xlink:href="#c" width="6" height="2"/></g></symbol><linearGradient id="a" x1="-7226.14" x2="-7226.14" y1="23619.99" y2="23623.99" gradientTransform="matrix(.5 0 0 -.5 3616.07 11811.99)" gradientUnits="userSpaceOnUse"><stop offset="0"/><stop offset="1" stop-opacity=".15"/></linearGradient><linearGradient id="g" x1="-13.37" x2="-18.66" y1="167.77" y2="173.07" gradientTransform="translate(26 -160)" gradientUnits="userSpaceOnUse"><stop offset="0" stop-color="#06b7ff"/><stop offset="1" stop-color="red"/></linearGradient><mask id="b" width="13" height="10" x="0" y="0" data-name="mask" maskUnits="userSpaceOnUse"><use xlink:href="#e" width="13" height="10"/></mask></defs><use xlink:href="#f" width="13" height="10"/><g><g><path fill="none" d="M3.14 10.84c-.05-.26-.09-.52-.11-.79.02.27.05.53.11.79M8.7 5.2V3.27h1c1.94 0 3.68.88 4.84 2.26A6.37 6.37 0 0 0 9.6 3.19c-3.33 0-6.23 2.54-6.56 5.78h1.88A4.444 4.444 0 0 1 8.7 5.19Zm-5.38 6.33s-.02-.08-.04-.12c.01.04.02.08.04.12m6.38 4.4h-.82c-.27-.02-.53-.06-.79-.11.49.11.99.18 1.5.18 1.99 0 3.77-.91 4.94-2.34a6.31 6.31 0 0 1-4.84 2.26Z"/><path d="M9.7 15.93c1.94 0 3.68-.88 4.84-2.26a6.38 6.38 0 0 0 0-8.12A6.31 6.31 0 0 0 9.7 3.29h-1v1.93A4.434 4.434 0 0 0 4.92 9H3.04c-.02.2-.03.41-.03.62 0 .15.01.3.02.44.01.27.06.53.11.79.04.19.09.39.15.57.01.04.02.08.04.12.71 2.12 2.56 3.76 4.77 4.29.26.05.52.09.79.11h.82Z"/></g><path fill="#f5f5f5" d="M9.32 6.14a3.461 3.461 0 0 0 0 6.92 3.461 3.461 0 0 0 0-6.92m0 5.25c-.99 0-1.79-.8-1.79-1.79s.8-1.79 1.79-1.79 1.79.8 1.79 1.79-.8 1.79-1.79 1.79"/><path fill="url(#g)" fill-rule="evenodd" d="M9.7 5.57v-1.3c2.94 0 5.33 2.39 5.33 5.33s-2.39 5.33-5.33 5.33v-1.29a4.05 4.05 0 0 0 3.73-4.33A4.044 4.044 0 0 0 9.7 5.58Zm-3.47 6.69c-.55-.64-.89-1.44-.95-2.28H4.03c.06 1.18.53 2.29 1.31 3.17zm2.71 2.66v-1.29c-.87-.07-1.7-.41-2.36-.99l-.91.91c.9.82 2.05 1.3 3.27 1.37"/></g></svg>