<svg xmlns="http://www.w3.org/2000/svg" xmlns:xlink="http://www.w3.org/1999/xlink" width="16" height="16"><defs><symbol id="a" viewBox="0 0 13 11"><path d="M0 0v11h10.98c.55 0 1-.45 1-1V6c.55 0 1-.45 1-1V1c.01-.75-.39-.99-.99-1z" style="fill:#fff"/></symbol><symbol id="c" viewBox="0 0 13 11"><path d="M0 0v11h11c.55 0 1-.45 1-1V6c.55 0 1-.45 1-1V1c0-.75-.41-.99-1-1z" style="isolation:isolate;opacity:.3"/></symbol><symbol id="e" viewBox="0 0 7 16"><path d="M7 2.95c0-.6-.37-1.14-.93-1.36L0 0v14l6 2c1 0 1-1 1-1z" style="fill:#fff"/></symbol><symbol id="d" viewBox="0 0 7.91 11"><path d="M0 1.31V11h7.91V3.39C7.91.51 5.89.63 3.81.63S0 1.31 0 1.31" style="opacity:.6"/><path d="M0 0h7.91v11H0z" style="opacity:0"/></symbol><symbol id="g" viewBox="0 0 13.02 11"><g style="mask:url(#b)"><path d="M.02 0h13v11h-13z" style="fill:#ff2020"/></g><use xlink:href="#c" width="13" height="11"/><use xlink:href="#d" width="7.91" height="11" transform="translate(.02)"/></symbol><symbol id="i" viewBox="0 0 7 16"><g style="mask:url(#f)"><path d="M0 0h7v16H0z" style="fill:#ff2020"/></g></symbol><mask id="b" width="13.02" height="11" x="0" y="0" maskUnits="userSpaceOnUse"><use xlink:href="#a" width="13" height="11" transform="translate(.02)"/></mask><mask id="f" width="7" height="16" x="0" y="0" maskUnits="userSpaceOnUse"><use xlink:href="#e" width="7" height="16"/></mask><linearGradient id="h" x1="-27.58" x2="-24.84" y1="-80.88" y2="-80.88" gradientTransform="matrix(3.78 0 0 -3.78 104.23 -298.69)" gradientUnits="userSpaceOnUse"><stop offset=".69"/><stop offset="1" stop-opacity="0"/></linearGradient></defs><use xlink:href="#g" width="13.02" height="11"/><path d="M8.37 13.97c-.64 0-1.19-.48-1.27-1.11l-.13-.91c-.06-.03-.11-.06-.17-.09l-1.1.43-.28.02c-.46 0-.89-.25-1.12-.64L3.18 9.78c-.33-.58-.19-1.27.32-1.66l.76-.58v-.15l-.76-.58c-.52-.4-.65-1.11-.32-1.67l1.13-1.9c.22-.38.65-.63 1.1-.63.14 0 .28.02.41.07l.98.38c.05-.03.11-.06.16-.09l.14-.93c.08-.61.62-1.08 1.27-1.08h2.26c.64 0 1.19.48 1.27 1.11l.13.91c.06.03.11.06.17.09l1.1-.43.29-.02c.46 0 .89.24 1.11.64l1.12 1.89c.32.57.18 1.27-.32 1.66l-.76.58v.15l.76.58c.5.39.64 1.09.33 1.64l-1.14 1.92c-.22.38-.64.63-1.1.63-.14 0-.28-.02-.41-.07l-.98-.38c-.05.03-.11.06-.16.09l-.14.93c-.08.61-.62 1.08-1.27 1.08H8.37Z"/><path d="M13.7 8.01c.02-.18.04-.35.04-.54s-.02-.36-.04-.54l1.19-.91c.11-.08.14-.23.07-.35l-1.13-1.9a.28.28 0 0 0-.25-.14c-.03 0-.07 0-.1.02l-1.41.55q-.435-.33-.96-.54L10.9 2.2a.28.28 0 0 0-.28-.23H8.36c-.14 0-.26.1-.28.23l-.21 1.46q-.51.21-.96.54L5.5 3.65s-.07-.02-.1-.02c-.1 0-.19.05-.24.14l-1.13 1.9c-.07.12-.04.27.07.35l1.19.91c-.02.18-.04.36-.04.54s.02.36.04.54l-1.19.91c-.11.08-.14.23-.07.35l1.13 1.9c.05.09.15.14.25.14.03 0 .07 0 .1-.02l1.41-.55q.435.33.96.54l.21 1.46c.02.13.14.23.28.23h2.26c.14 0 .26-.1.28-.23l.21-1.46q.51-.21.96-.54l1.41.55s.07.02.1.02c.1 0 .19-.05.24-.14l1.13-1.9c.07-.12.04-.27-.07-.35z" style="fill:#e8eaed"/><path d="M6.92 10.74q.435.33.96.54l.21 1.46c.02.13.14.23.28.23h2.26c.14 0 .26-.1.28-.23l.21-1.46q.51-.21.96-.54l1.41.55s.07.02.1.02c.1 0 .19-.05.24-.14l1.13-1.9c.07-.12.04-.27-.07-.35l-1.19-.91c.02-.18.04-.35.04-.54s-.02-.36-.04-.54l1.19-.91c.11-.08.14-.23.07-.35l-1.13-1.9a.28.28 0 0 0-.25-.14c-.03 0-.07 0-.1.02l-1.41.55" style="fill:#aeaeaf"/><circle cx="9.5" cy="7.5" r="2.5"/><path d="m0 0 1 2 5.68 2L8 1.64l2.89-.02L11 2v12l-.13-.47-3.07-.23-1-1.76L.99 14H0z" style="fill:url(#h)"/><use xlink:href="#i" width="7" height="16"/></svg>