<svg xmlns="http://www.w3.org/2000/svg" xmlns:xlink="http://www.w3.org/1999/xlink" width="16" height="16"><defs><symbol id="b" viewBox="0 0 13 10"><path d="M5 0H1C.45 0 0 .45 0 1v8c0 .55.45 1 1 1h11c.55 0 1-.45 1-1V2c0-.55-.45-1-1-1H6c0-.55-.45-1-1-1" style="fill:#fff"/></symbol><symbol id="d" viewBox="0 0 6 2"><path d="M0 1v1h5c.55 0 1-.45 1-1s-.45-1-1-1H1C.45 0 0 .45 0 1" style="fill:url(#a);isolation:isolate;opacity:.72"/></symbol><symbol id="e" viewBox="0 0 13 10"><g style="mask:url(#c)"><path d="M0 0h13v10H0z" style="fill:#ff13c0"/></g><use xlink:href="#d" width="6" height="2"/></symbol><linearGradient id="a" x1="-7226.14" x2="-7226.14" y1="23619.99" y2="23623.99" gradientTransform="matrix(.5 0 0 -.5 3616.07 11811.99)" gradientUnits="userSpaceOnUse"><stop offset="0"/><stop offset="1" stop-opacity=".15"/></linearGradient><mask id="c" width="13" height="10" x="0" y="0" maskUnits="userSpaceOnUse"><use xlink:href="#b" width="13" height="10"/></mask></defs><use xlink:href="#e" width="13" height="10"/><path d="M6 16c-1.1 0-2-.9-2-2v-1.5c0-.28-.22-.5-.5-.5s-.5-.22-.5-.5v-3c0-.28.22-.5.5-.5s.5-.22.5-.5V6c0-1.1.9-2 2-2h7c1.1 0 2 .9 2 2v1.5c0 .28.22.5.5.5s.5.22.5.5v3c0 .28-.22.5-.5.5s-.5.22-.5.5V14c0 1.1-.9 2-2 2z"/><path d="M4.42 8.95C5.07 8.82 5 8.44 5 8V6c0-.55.45-1 1-1h1.75c.14 0 .25.11.25.25v.5c0 .14-.11.25-.25.25H7c-.55 0-1 .45-1 1v1s0 2-1 2c1 0 1 2 1 2v1c0 .55.45 1 1 1h.75c.14 0 .25.11.25.25v.5c0 .14-.11.25-.25.25H6c-.55 0-1-.45-1-1v-2c0-.44.07-.82-.58-.95a.51.51 0 0 1-.42-.49V9.45c0-.24.18-.44.42-.49ZM14.58 8.95C13.93 8.82 14 8.44 14 8V6c0-.55-.45-1-1-1h-1.75c-.14 0-.25.11-.25.25v.5c0 .14.11.25.25.25H12c.55 0 1 .45 1 1v1s0 2 1 2c-1 0-1 2-1 2v1c0 .55-.45 1-1 1h-.75c-.14 0-.25.11-.25.25v.5c0 .14.11.25.25.25H13c.55 0 1-.45 1-1v-2c0-.44-.07-.82.58-.95.24-.05.42-.25.42-.49V9.45c0-.24-.18-.44-.42-.49Z" style="fill:#ff0"/></svg>