<svg xmlns="http://www.w3.org/2000/svg" xmlns:xlink="http://www.w3.org/1999/xlink" width="16" height="16"><defs><symbol id="a" viewBox="0 0 13 11"><path d="M0 0v11h10.98c.55 0 1-.45 1-1V6c.55 0 1-.45 1-1V1c.01-.75-.39-.99-.99-1z" style="fill:#fff"/></symbol><symbol id="c" viewBox="0 0 13 11"><path d="M0 0v11h11c.55 0 1-.45 1-1V6c.55 0 1-.45 1-1V1c0-.75-.41-.99-1-1z" style="isolation:isolate;opacity:.3"/></symbol><symbol id="e" viewBox="0 0 7 16"><path d="M7 2.95c0-.6-.37-1.14-.93-1.36L0 0v14l6 2c1 0 1-1 1-1z" style="fill:#fff"/></symbol><symbol id="d" viewBox="0 0 7.91 11"><path d="M0 1.31V11h7.91V3.39C7.91.51 5.89.63 3.81.63S0 1.31 0 1.31" style="opacity:.6"/><path d="M0 0h7.91v11H0z" style="opacity:0"/></symbol><symbol id="g" viewBox="0 0 13.02 11"><g style="mask:url(#b)"><path d="M.02 0h13v11h-13z" style="fill:#ff13c0"/></g><use xlink:href="#c" width="13" height="11"/><use xlink:href="#d" width="7.91" height="11" transform="translate(.02)"/></symbol><symbol id="i" viewBox="0 0 7 16"><g style="mask:url(#f)"><path d="M0 0h7v16H0z" style="fill:#ff13c0"/></g></symbol><mask id="b" width="13.02" height="11" x="0" y="0" maskUnits="userSpaceOnUse"><use xlink:href="#a" width="13" height="11" transform="translate(.02)"/></mask><mask id="f" width="7" height="16" x="0" y="0" maskUnits="userSpaceOnUse"><use xlink:href="#e" width="7" height="16"/></mask><linearGradient id="h" x1="-12.87" x2="-10.13" y1="-30.3" y2="-30.3" gradientTransform="matrix(3.78 0 0 -3.78 48.64 -107.51)" gradientUnits="userSpaceOnUse"><stop offset=".69"/><stop offset="1" stop-opacity="0"/></linearGradient></defs><use xlink:href="#g" width="13.02" height="11"/><path d="M14 4h-1v-.06C13 3.06 13 1 10 1H9C6.8 1 6 2.79 6 4c-1.21 0-3 .8-3 3v1c0 2.97 1.92 3 2 3h1v.06C6 11.94 6 14 9 14h1c3 0 3-2.03 3-3 1.21 0 3-.8 3-3V7c0-1.38-.52-3-2-3"/><path d="M13 5v.77C13 6.98 11.96 8 10.77 8H8.76c-.96 0-1.75.82-1.75 1.79v1.27c0 .95 0 1.94 2 1.94h1c2 0 2-.98 2-2h-1v1h-1v-2h3s2 0 2-2V7s0-2-1-2h-1Z" style="fill:#f6c20a"/><path d="M6 10v-.77C6 8.02 7.04 7 8.23 7h2.01c.96 0 1.75-.82 1.75-1.79V3.94c0-.95 0-1.94-2-1.94h-1c-2 0-2 2-2 2h1V3h1v2h-3s-2 0-2 2v1c0 2 1 2 1 2h1Z" style="fill:#06b7ff"/><path d="m0 0 1 2h10v12H0z" style="fill:url(#h)"/><use xlink:href="#i" width="7" height="16"/></svg>