<svg xmlns="http://www.w3.org/2000/svg" xmlns:xlink="http://www.w3.org/1999/xlink" width="16" height="16"><defs><symbol id="a" viewBox="0 0 13 11"><path d="M0 0v11h10.98c.55 0 1-.45 1-1V6c.55 0 1-.45 1-1V1c.01-.75-.39-.99-.99-1z" style="fill:#fff"/></symbol><symbol id="c" viewBox="0 0 13 11"><path d="M0 0v11h11c.55 0 1-.45 1-1V6c.55 0 1-.45 1-1V1c0-.75-.41-.99-1-1z" style="isolation:isolate;opacity:.3"/></symbol><symbol id="e" viewBox="0 0 7 16"><path d="M7 2.95c0-.6-.37-1.14-.93-1.36L0 0v14l6 2c1 0 1-1 1-1z" style="fill:#fff"/></symbol><symbol id="d" viewBox="0 0 7.91 11"><path d="M0 1.31V11h7.91V3.39C7.91.51 5.89.63 3.81.63S0 1.31 0 1.31" style="opacity:.6"/><path d="M0 0h7.91v11H0z" style="opacity:0"/></symbol><symbol id="g" viewBox="0 0 13.02 11"><g style="mask:url(#b)"><path d="M.02 0h13v11h-13z" style="fill:#a040ff"/></g><use xlink:href="#c" width="13" height="11"/><use xlink:href="#d" width="7.91" height="11" transform="translate(.02)"/></symbol><symbol id="i" viewBox="0 0 7 16"><g style="mask:url(#f)"><path d="M0 0h7v16H0z" style="fill:#a040ff"/></g></symbol><mask id="b" width="13.02" height="11" x="0" y="0" maskUnits="userSpaceOnUse"><use xlink:href="#a" width="13" height="11" transform="translate(.02)"/></mask><mask id="f" width="7" height="16" x="0" y="0" maskUnits="userSpaceOnUse"><use xlink:href="#e" width="7" height="16"/></mask><linearGradient id="h" x1="104.8" x2="107.53" y1="-182.05" y2="-182.05" gradientTransform="matrix(3.78 0 0 -3.78 -396.08 -681.05)" gradientUnits="userSpaceOnUse"><stop offset=".69"/><stop offset="1" stop-opacity="0"/></linearGradient></defs><use xlink:href="#g" width="13.02" height="11"/><path d="M9.7 14V8.91c-.49-.09-.84-.24-1.09-.35-.02 0-.04-.02-.05-.02-.02.03-1.86 2.24-1.86 2.24V7c0-.58 0-2.36 1.59-2.36.3 0 .59.07.92.15.15.04.32.08.49.11V2h2.54l3.46 5.23v1.58L12.23 14z"/><path d="M7 9.39v.35S9 10 11 10v3l4-5-4-5v3C8.79 6 7 7.1 7 9.39" style="fill:#0f0"/><path d="M5.9 14V8.89c-.13-.03-.24-.07-.35-.11l-1.65 2V6.47c-.01-.74-.01-1.14.35-1.51l.29-.3.49-.03c.24 0 .43.07.61.14.07.03.16.06.25.09V2h2.68l2.4 6-2.4 6H5.89Z"/><path d="M4 10h3v3l4-5-4-5v3H4z" style="fill:#0f0"/><path d="M2 12.31V2h2.68l2.41 6.03-2.47 5.31z"/><path d="M3 9v4l4-5-4-5v6" style="fill:#0f0"/><path d="m0 0 1 2 3.28.58 3.65.1L9.9 5.5 11 2v12l-.31-3.35-1.32-.02-1.44 2.89L3 14H0z" style="fill:url(#h)"/><use xlink:href="#i" width="7" height="16"/></svg>