<svg xmlns="http://www.w3.org/2000/svg" xmlns:xlink="http://www.w3.org/1999/xlink" width="16" height="16"><defs><symbol id="b" viewBox="0 0 13 10"><path d="M5 0H1C.45 0 0 .45 0 1v8c0 .55.45 1 1 1h11c.55 0 1-.45 1-1V2c0-.55-.45-1-1-1H6c0-.55-.45-1-1-1" style="fill:#fff"/></symbol><symbol id="d" viewBox="0 0 6 2"><path d="M0 1v1h5c.55 0 1-.45 1-1s-.45-1-1-1H1C.45 0 0 .45 0 1" style="fill:url(#a);isolation:isolate;opacity:.72"/></symbol><symbol id="e" viewBox="0 0 13 10"><g style="mask:url(#c)"><path d="M0 0h13v10H0z" style="fill:#ff2020"/></g><use xlink:href="#d" width="6" height="2"/></symbol><linearGradient id="a" x1="-7226.14" x2="-7226.14" y1="23619.99" y2="23623.99" gradientTransform="matrix(.5 0 0 -.5 3616.07 11811.99)" gradientUnits="userSpaceOnUse"><stop offset="0"/><stop offset="1" stop-opacity=".15"/></linearGradient><mask id="c" width="13" height="10" x="0" y="0" maskUnits="userSpaceOnUse"><use xlink:href="#b" width="13" height="10"/></mask></defs><use xlink:href="#e" width="13" height="10"/><path d="M9.52 16.01c-1.28 0-2.49-1.28-2.49-2.63 0-.13.02-.26.04-.38a4.31 4.31 0 0 1-4.05-4.29c0-3.05 3.1-4.7 6-4.7 2.5 0 6.38 1.63 6.85 4.59.44 2.73.17 4.48-.86 5.68-1.02 1.2-2.72 1.73-5.5 1.73Z"/><path d="M4.02 8.7c0 1.82 1.48 3.3 3.3 3.3h.98c.15 0 .27.12.27.28 0 .06-.03.12-.07.18-.23.26-.47.59-.47.92 0 .76.74 1.63 1.49 1.63 4.6 0 6.13-1.47 5.37-6.26C14.5 6.31 11.02 5 9.02 5s-4.99 1.02-5 3.7" style="fill:#e8eaed"/><circle cx="13.02" cy="11" r="1"/><circle cx="12.02" cy="8" r="1"/><circle cx="9.02" cy="7" r="1"/><circle cx="6.02" cy="9" r="1"/></svg>