<svg xmlns="http://www.w3.org/2000/svg" xmlns:xlink="http://www.w3.org/1999/xlink" width="16" height="16"><defs><symbol id="b" viewBox="0 0 13 10"><path d="M5 0H1C.45 0 0 .45 0 1v8c0 .55.45 1 1 1h11c.55 0 1-.45 1-1V2c0-.55-.45-1-1-1H6c0-.55-.45-1-1-1" style="fill:#fff"/></symbol><symbol id="d" viewBox="0 0 6 2"><path d="M0 1v1h5c.55 0 1-.45 1-1s-.45-1-1-1H1C.45 0 0 .45 0 1" style="fill:url(#a);isolation:isolate;opacity:.72"/></symbol><symbol id="e" viewBox="0 0 13 10"><g style="mask:url(#c)"><path d="M0 0h13v10H0z" style="fill:#ff6700"/></g><use xlink:href="#d" width="6" height="2"/></symbol><linearGradient id="a" x1="-7226.14" x2="-7226.14" y1="23619.99" y2="23623.99" gradientTransform="matrix(.5 0 0 -.5 3616.07 11811.99)" gradientUnits="userSpaceOnUse"><stop offset="0"/><stop offset="1" stop-opacity=".15"/></linearGradient><mask id="c" width="13" height="10" x="0" y="0" maskUnits="userSpaceOnUse"><use xlink:href="#b" width="13" height="10"/></mask></defs><use xlink:href="#e" width="13" height="10"/><path d="M5.89 15.7c-.23.19-.53.3-.84.3h-.84c-.46 0-.86-.23-1.06-.62-.1-.2-.31-.58.08-1.48-.14-.23-.23-.52-.23-.89v-1c0-.92.58-1.52 1.06-1.86v-.28c0-1.07.48-1.74 1.04-2.15-.14-.39-.13-.79-.12-1.05v-.23c0-.39 0-.58-.02-.67-.07-.82.51-1.09.69-1.15.17-.07.44-.19.6-.28.21-.38.61-.98 1.18-1.22l.61-.74c.38-.39.73-.46.96-.46s.57.07.89.39l.07.08.58.72.12-.04c.39-.13.73-.25 1.07-.25h.1l.17.03.29.06.21.21c.31.31.49.75.48 1.2-.03 1.49-.14 1.97-.3 2.49-.03.11-.07.21-.1.37a6.6 6.6 0 0 1-.29 1c.42-.15.93-.15.99-.15 1.34 0 1.69.86 1.69 1.37 0 .44-.08.78-.26 1.05-.2.3-.5.49-.85.54.02.29.07.64.11.89.2 1.43-1.07 2.47-1.98 3.02v1.13h-6l-.11-.29Z"/><path d="M12.55 9.13c-.21.13-.45.37-.55.87-.1.47-.13 1.1 0 1.5.31.96-.51 1.23-1 1.5 0 0 .57-1.62.05-3.14-.27-.81-.54-.76-.48-.86.21 0 .79-.81 1.04-2.04.14-.72.34-.67.38-2.68 0-.17-.07-.35-.19-.47-.17-.03-.49.08-.81.19l-1 1v-.82c0-.11-.04-.22-.11-.32L9.19 3c-.13-.13-.24-.13-.37 0l-.83.99s-.37-.13-.96 1c-.17.18-.81.47-1.05.56-.07.02 0 .02 0 .87 0 .71-.2 1.28 1 1.57-1.43.32-1.94.89-1.94 1.86v.86s-1.06.43-1.06 1.28v1c0 .86.73.29.73.29s-1.18 1.71-.52 1.71h.84c.11 0 .22-.06.28-.15.26-.39.59-1.2.67-1.4.02-.05.81.09.88.16.08.08.22.16.22.16s-.83.56-.47 1.23h4.37c.01-.47-.21-.49-.21-.49l.02-.15s2.36-1.05 2.18-2.38c-.14-.98-.24-1.78.11-2.03.27-.19.89.44.89-.58 0-.54-1.23-.37-1.44-.24Z" style="fill:#36cbff"/></svg>