<svg xmlns="http://www.w3.org/2000/svg" xmlns:xlink="http://www.w3.org/1999/xlink" width="16" height="16"><defs><symbol id="a" viewBox="0 0 13 11"><path d="M0 0v11h10.98c.55 0 1-.45 1-1V6c.55 0 1-.45 1-1V1c.01-.75-.39-.99-.99-1z" style="fill:#fff"/></symbol><symbol id="c" viewBox="0 0 13 11"><path d="M0 0v11h11c.55 0 1-.45 1-1V6c.55 0 1-.45 1-1V1c0-.75-.41-.99-1-1z" style="isolation:isolate;opacity:.3"/></symbol><symbol id="e" viewBox="0 0 7 16"><path d="M7 2.95c0-.6-.37-1.14-.93-1.36L0 0v14l6 2c1 0 1-1 1-1z" style="fill:#fff"/></symbol><symbol id="d" viewBox="0 0 7.91 11"><path d="M0 1.31V11h7.91V3.39C7.91.51 5.89.63 3.81.63S0 1.31 0 1.31" style="opacity:.6"/><path d="M0 0h7.91v11H0z" style="opacity:0"/></symbol><symbol id="g" viewBox="0 0 13.02 11"><g style="mask:url(#b)"><path d="M.02 0h13v11h-13z" style="fill:#ff2020"/></g><use xlink:href="#c" width="13" height="11"/><use xlink:href="#d" width="7.91" height="11" transform="translate(.02)"/></symbol><symbol id="i" viewBox="0 0 7 16"><g style="mask:url(#f)"><path d="M0 0h7v16H0z" style="fill:#ff2020"/></g></symbol><mask id="b" width="13.02" height="11" x="0" y="0" maskUnits="userSpaceOnUse"><use xlink:href="#a" width="13" height="11" transform="translate(.02)"/></mask><mask id="f" width="7" height="16" x="0" y="0" maskUnits="userSpaceOnUse"><use xlink:href="#e" width="7" height="16"/></mask><linearGradient id="h" x1="60.67" x2="63.41" y1="-80.88" y2="-80.88" gradientTransform="matrix(3.78 0 0 -3.78 -229.31 -298.69)" gradientUnits="userSpaceOnUse"><stop offset=".69"/><stop offset="1" stop-opacity="0"/></linearGradient></defs><use xlink:href="#g" width="13.02" height="11"/><path d="M9.52 14.01c-1.28 0-2.49-1.28-2.49-2.63 0-.13.02-.26.04-.38a4.31 4.31 0 0 1-4.05-4.29c0-3.05 3.1-4.7 6-4.7 2.5 0 6.38 1.63 6.85 4.59.44 2.73.17 4.48-.86 5.68-1.02 1.2-2.72 1.73-5.5 1.73Z"/><path d="M4.02 6.7c0 1.82 1.48 3.3 3.3 3.3h.98c.15 0 .27.12.27.28 0 .06-.03.12-.07.18-.23.26-.47.59-.47.92 0 .76.74 1.63 1.49 1.63 4.6 0 6.13-1.47 5.37-6.26C14.5 4.31 11.02 3 9.02 3s-4.99 1.02-5 3.7" style="fill:#e8eaed"/><circle cx="13.02" cy="9" r="1"/><circle cx="12.02" cy="6" r="1"/><circle cx="9.02" cy="5" r="1"/><circle cx="6.02" cy="7" r="1"/><path d="m0 0 1 2h10v12H9.77l-4.08-3.71L1 14H0z" style="fill:url(#h)"/><use xlink:href="#i" width="7" height="16"/></svg>