<svg xmlns="http://www.w3.org/2000/svg" xmlns:xlink="http://www.w3.org/1999/xlink" width="16" height="16"><defs><symbol id="b" viewBox="0 0 13 10"><path d="M5 0H1C.45 0 0 .45 0 1v8c0 .55.45 1 1 1h11c.55 0 1-.45 1-1V2c0-.55-.45-1-1-1H6c0-.55-.45-1-1-1" style="fill:#fff"/></symbol><symbol id="d" viewBox="0 0 6 2"><path d="M0 1v1h5c.55 0 1-.45 1-1s-.45-1-1-1H1C.45 0 0 .45 0 1" style="fill:url(#a);isolation:isolate;opacity:.72"/></symbol><symbol id="e" viewBox="0 0 13 10"><g style="mask:url(#c)"><path d="M0 0h13v10H0z" style="fill:#ff2020"/></g><use xlink:href="#d" width="6" height="2"/></symbol><linearGradient id="a" x1="-7226.14" x2="-7226.14" y1="23619.99" y2="23623.99" gradientTransform="matrix(.5 0 0 -.5 3616.07 11811.99)" gradientUnits="userSpaceOnUse"><stop offset="0"/><stop offset="1" stop-opacity=".15"/></linearGradient><mask id="c" width="13" height="10" x="0" y="0" maskUnits="userSpaceOnUse"><use xlink:href="#b" width="13" height="10"/></mask></defs><use xlink:href="#e" width="13" height="10"/><path d="M8.62 15.78v-11h3.51v2.57c.12-.02.25-.02.38-.02.39 0 .75.07 1.09.21.37.15.69.39.95.71.24.3.43.67.55 1.12.11.4.16.85.16 1.39v5.04H8.63Z"/><path d="M11.12 5.78v9H9.61v-9zm-.24 5.61h-.44c0-.44.04-.84.14-1.22s.23-.7.41-.98.4-.49.65-.64.54-.23.85-.23c.26 0 .49.04.71.13s.4.23.56.42.28.44.36.75.13.68.13 1.12v4.04h-1.51v-4.05c0-.29-.03-.51-.09-.68s-.15-.29-.27-.36-.27-.11-.44-.11-.34.05-.48.14-.25.22-.33.39-.15.36-.19.57-.06.45-.06.7Z"/><path d="M11.12 5.78v9H9.61v-9zm-.24 5.61h-.44c0-.44.04-.84.14-1.22s.23-.7.41-.98.4-.49.65-.64.54-.23.85-.23c.26 0 .49.04.71.13s.4.23.56.42.28.44.36.75.13.68.13 1.12v4.04h-1.51v-4.05c0-.29-.03-.51-.09-.68s-.15-.29-.27-.36-.27-.11-.44-.11-.34.05-.48.14-.25.22-.33.39-.15.36-.19.57-.06.45-.06.7Z" style="fill:#0ff"/></svg>