<svg xmlns="http://www.w3.org/2000/svg" xmlns:xlink="http://www.w3.org/1999/xlink" width="16" height="16"><defs><symbol id="a" viewBox="0 0 13 11"><path d="M0 0v11h10.98c.55 0 1-.45 1-1V6c.55 0 1-.45 1-1V1c.01-.75-.39-.99-.99-1z" style="fill:#fff"/></symbol><symbol id="c" viewBox="0 0 13 11"><path d="M0 0v11h11c.55 0 1-.45 1-1V6c.55 0 1-.45 1-1V1c0-.75-.41-.99-1-1z" style="isolation:isolate;opacity:.3"/></symbol><symbol id="e" viewBox="0 0 7 16"><path d="M7 2.95c0-.6-.37-1.14-.93-1.36L0 0v14l6 2c1 0 1-1 1-1z" style="fill:#fff"/></symbol><symbol id="d" viewBox="0 0 7.91 11"><path d="M0 1.31V11h7.91V3.39C7.91.51 5.89.63 3.81.63S0 1.31 0 1.31" style="opacity:.6"/><path d="M0 0h7.91v11H0z" style="opacity:0"/></symbol><symbol id="g" viewBox="0 0 13.02 11"><g style="mask:url(#b)"><path d="M.02 0h13v11h-13z" style="fill:#ff2020"/></g><use xlink:href="#c" width="13" height="11"/><use xlink:href="#d" width="7.91" height="11" transform="translate(.02)"/></symbol><symbol id="i" viewBox="0 0 7 16"><g style="mask:url(#f)"><path d="M0 0h7v16H0z" style="fill:#ff2020"/></g></symbol><mask id="b" width="13.02" height="11" x="0" y="0" maskUnits="userSpaceOnUse"><use xlink:href="#a" width="13" height="11" transform="translate(.02)"/></mask><mask id="f" width="7" height="16" x="0" y="0" maskUnits="userSpaceOnUse"><use xlink:href="#e" width="7" height="16"/></mask><linearGradient id="h" x1="16.55" x2="19.28" y1="-182.05" y2="-182.05" gradientTransform="matrix(3.78 0 0 -3.78 -62.54 -681.05)" gradientUnits="userSpaceOnUse"><stop offset=".69"/><stop offset="1" stop-opacity="0"/></linearGradient></defs><use xlink:href="#g" width="13.02" height="11"/><path d="M6.16 12.9c-.52 0-1-.1-1.46-.3-.46-.21-.86-.51-1.2-.92-.33-.39-.59-.88-.76-1.44-.16-.53-.24-1.14-.24-1.82 0-.77.08-1.39.25-1.92.17-.56.42-1.04.74-1.43.34-.41.74-.73 1.21-.93.45-.2.94-.3 1.45-.3s1 .1 1.45.3c.46.2.87.52 1.21.92.33.39.58.87.75 1.43.16.53.25 1.14.25 1.83 0 .77-.08 1.39-.25 1.92-.17.56-.42 1.04-.74 1.43q-.51.615-1.2.93c-.45.2-.94.3-1.46.3m0-5.71c-.03.07-.06.15-.08.28q-.06.3-.06.75v.3c0 .3.02.55.07.75.03.13.06.22.09.28.03-.07.06-.15.08-.28q.06-.3.06-.75v-.3c0-.3-.02-.55-.06-.74-.03-.13-.06-.22-.09-.29Z"/><path d="M8.81 8.32v.09c0 .59-.07 1.1-.2 1.53s-.32.8-.56 1.09-.52.51-.84.65-.67.22-1.05.22-.72-.07-1.05-.22-.61-.36-.85-.65-.43-.65-.57-1.09-.2-.95-.2-1.53v-.09c0-.59.07-1.1.2-1.53s.32-.8.56-1.09.52-.51.84-.65.67-.21 1.05-.21.72.07 1.05.21.6.36.85.65.43.65.57 1.09.2.95.2 1.53m-1.51.19v-.3q0-.555-.09-.96c-.09-.405-.14-.49-.24-.66s-.23-.3-.37-.38-.29-.12-.46-.12-.31.04-.45.12-.26.21-.37.38-.18.39-.24.66-.08.58-.08.96v.3q0 .555.09.96c.09.405.14.49.25.66s.23.3.37.38.29.13.45.13.32-.04.45-.13.26-.21.36-.38.18-.39.24-.66.08-.59.08-.96ZM10.53 12.78v-4.5l-1.7.67V5.52l3.86-1.56h1.35v8.82z"/><path d="M13.04 4.96v6.82h-1.51V6.82l-1.71.67V6.21l3.06-1.24h.15Z"/><path d="M8.81 8.32v.09c0 .59-.07 1.1-.2 1.53s-.32.8-.56 1.09-.52.51-.84.65-.67.22-1.05.22-.72-.07-1.05-.22-.61-.36-.85-.65-.43-.65-.57-1.09-.2-.95-.2-1.53v-.09c0-.59.07-1.1.2-1.53s.32-.8.56-1.09.52-.51.84-.65.67-.21 1.05-.21.72.07 1.05.21.6.36.85.65.43.65.57 1.09.2.95.2 1.53m-1.51.19v-.3q0-.555-.09-.96c-.09-.405-.14-.49-.24-.66s-.23-.3-.37-.38-.29-.12-.46-.12-.31.04-.45.12-.26.21-.37.38-.18.39-.24.66-.08.58-.08.96v.3q0 .555.09.96c.09.405.14.49.25.66s.23.3.37.38.29.13.45.13.32-.04.45-.13.26-.21.36-.38.18-.39.24-.66.08-.59.08-.96ZM13.04 4.96v6.82h-1.51V6.82l-1.71.67V6.21l3.06-1.24h.15Z" style="fill:#36cbff"/><path d="m0 0 1 2 5.34 2.2 2.32 1.47 2.1-.42.23-3.25v12l-.18-6.23-1.08.39-1.96 3.89L3.37 14H0z" style="fill:url(#h)"/><use xlink:href="#i" width="7" height="16"/></svg>