<svg xmlns="http://www.w3.org/2000/svg" xmlns:xlink="http://www.w3.org/1999/xlink" width="16" height="16"><defs><symbol id="a" viewBox="0 0 13 11"><path d="M0 0v11h10.98c.55 0 1-.45 1-1V6c.55 0 1-.45 1-1V1c.01-.75-.39-.99-.99-1z" style="fill:#fff"/></symbol><symbol id="c" viewBox="0 0 13 11"><path d="M0 0v11h11c.55 0 1-.45 1-1V6c.55 0 1-.45 1-1V1c0-.75-.41-.99-1-1z" style="isolation:isolate;opacity:.3"/></symbol><symbol id="e" viewBox="0 0 7 16"><path d="M7 2.95c0-.6-.37-1.14-.93-1.36L0 0v14l6 2c1 0 1-1 1-1z" style="fill:#fff"/></symbol><symbol id="d" viewBox="0 0 7.91 11"><path d="M0 1.31V11h7.91V3.39C7.91.51 5.89.63 3.81.63S0 1.31 0 1.31" style="opacity:.6"/><path d="M0 0h7.91v11H0z" style="opacity:0"/></symbol><symbol id="g" viewBox="0 0 13.02 11"><g style="mask:url(#b)"><path d="M.02 0h13v11h-13z" style="fill:#ff6700"/></g><use xlink:href="#c" width="13" height="11"/><use xlink:href="#d" width="7.91" height="11" transform="translate(.02)"/></symbol><symbol id="i" viewBox="0 0 7 16"><g style="mask:url(#f)"><path d="M0 0h7v16H0z" style="fill:#ff6700"/></g></symbol><mask id="b" width="13.02" height="11" x="0" y="0" maskUnits="userSpaceOnUse"><use xlink:href="#a" width="13" height="11" transform="translate(.02)"/></mask><mask id="f" width="7" height="16" x="0" y="0" maskUnits="userSpaceOnUse"><use xlink:href="#e" width="7" height="16"/></mask><linearGradient id="h" x1="90.09" x2="92.82" y1="-131.46" y2="-131.46" gradientTransform="matrix(3.78 0 0 -3.78 -340.49 -489.87)" gradientUnits="userSpaceOnUse"><stop offset=".69"/><stop offset="1" stop-opacity="0"/></linearGradient></defs><use xlink:href="#g" width="13.02" height="11"/><path d="M4.43 13.13V6.56H2.32V3.24h7.82v3.32H7.99v7.22H5.83z"/><path d="M9.14 4.24v1.31H3.32V4.24zm-2.15 0v8.53H5.43V4.24z"/><path d="M12.32 13.89c-.49 0-.96-.07-1.4-.22a3.7 3.7 0 0 1-1.26-.7c-.38-.32-.68-.73-.89-1.22-.21-.47-.31-1.02-.31-1.62v-1H10q-.165-.12-.3-.24c-.33-.29-.6-.63-.79-1.02q-.3-.615-.3-1.38c0-.765.09-.95.27-1.36.18-.42.45-.79.79-1.1.33-.29.72-.52 1.17-.68.43-.15.9-.23 1.4-.23q1.095 0 1.92.48c.55.32.99.77 1.29 1.32.29.54.44 1.15.44 1.81v1h-1.25c.17.14.32.28.46.43.28.32.5.68.64 1.08.13.38.2.81.2 1.28s-.09.94-.26 1.35c-.18.43-.44.8-.78 1.1-.33.3-.73.53-1.18.68-.43.15-.9.22-1.41.22Zm-.3-3.73c0 .18.02.29.04.36.08.07.16.08.29.08h.04v-.05c0-.09 0-.15-.02-.19-.01 0-.06-.04-.15-.1-.06-.04-.13-.07-.2-.11Zm.15-3.73s.09.07.15.11c0-.05-.02-.09-.03-.13h-.11v.01Z"/><path d="M13.38 10.55c0-.17-.02-.32-.05-.45s-.1-.25-.19-.36-.23-.22-.4-.33-.4-.22-.68-.33q-.495-.195-.93-.42c-.435-.225-.55-.33-.79-.52s-.41-.43-.54-.7-.2-.58-.2-.94.06-.67.19-.96.31-.54.54-.75.51-.37.83-.48.68-.17 1.07-.17c.55 0 1.02.12 1.42.35s.7.54.91.94.32.84.32 1.34h-1.56c0-.26-.04-.49-.11-.69s-.2-.36-.36-.47-.38-.17-.63-.17c-.24 0-.44.05-.6.14s-.27.22-.35.39-.11.35-.11.55c0 .15.03.28.1.4s.16.23.28.33.27.19.44.28.37.17.58.25c.39.15.74.31 1.04.49s.54.38.74.6.34.47.44.75.15.59.15.95-.06.67-.18.96-.3.54-.53.74-.51.37-.83.48-.69.17-1.09.17-.75-.06-1.09-.17-.65-.28-.92-.51-.47-.51-.63-.86-.23-.75-.23-1.22h1.56c0 .26.03.49.09.68s.15.34.26.46.26.2.42.25.35.08.56.08c.25 0 .45-.04.6-.13s.26-.21.33-.37.11-.34.11-.54Z"/><path d="M10.64 4.24h3.06v8.22h-3.06z"/><path d="M9.14 4.24v1.31H3.32V4.24zm-2.15 0v8.53H5.43V4.24zM13.38 10.55c0-.17-.02-.32-.05-.45s-.1-.25-.19-.36-.23-.22-.4-.33-.4-.22-.68-.33q-.495-.195-.93-.42c-.435-.225-.55-.33-.79-.52s-.41-.43-.54-.7-.2-.58-.2-.94.06-.67.19-.96.31-.54.54-.75.51-.37.83-.48.68-.17 1.07-.17c.55 0 1.02.12 1.42.35s.7.54.91.94.32.84.32 1.34h-1.56c0-.26-.04-.49-.11-.69s-.2-.36-.36-.47-.38-.17-.63-.17c-.24 0-.44.05-.6.14s-.27.22-.35.39-.11.35-.11.55c0 .15.03.28.1.4s.16.23.28.33.27.19.44.28.37.17.58.25c.39.15.74.31 1.04.49s.54.38.74.6.34.47.44.75.15.59.15.95-.06.67-.18.96-.3.54-.53.74-.51.37-.83.48-.69.17-1.09.17-.75-.06-1.09-.17-.65-.28-.92-.51-.47-.51-.63-.86-.23-.75-.23-1.22h1.56c0 .26.03.49.09.68s.15.34.26.46.26.2.42.25.35.08.56.08c.25 0 .45-.04.6-.13s.26-.21.33-.37.11-.34.11-.54Z" style="fill:#36cbff"/><path d="m0 0 1 2 5 1.75 4.74.22L11 2v12l-.36-1.1L8.78 11l-3.08-.06L1 14H0z" style="fill:url(#h)"/><use xlink:href="#i" width="7" height="16"/></svg>