<svg xmlns="http://www.w3.org/2000/svg" xmlns:xlink="http://www.w3.org/1999/xlink" width="16" height="16"><defs><symbol id="b" viewBox="0 0 13 10"><path d="M5 0H1C.45 0 0 .45 0 1v8c0 .55.45 1 1 1h11c.55 0 1-.45 1-1V2c0-.55-.45-1-1-1H6c0-.55-.45-1-1-1" style="fill:#fff"/></symbol><symbol id="d" viewBox="0 0 6 2"><path d="M0 1v1h5c.55 0 1-.45 1-1s-.45-1-1-1H1C.45 0 0 .45 0 1" style="fill:url(#a);isolation:isolate;opacity:.72"/></symbol><symbol id="e" viewBox="0 0 13 10"><g style="mask:url(#c)"><path d="M0 0h13v10H0z" style="fill:#ff2020"/></g><use xlink:href="#d" width="6" height="2"/></symbol><linearGradient id="a" x1="-7226.14" x2="-7226.14" y1="23619.99" y2="23623.99" gradientTransform="matrix(.5 0 0 -.5 3616.07 11811.99)" gradientUnits="userSpaceOnUse"><stop offset="0"/><stop offset="1" stop-opacity=".15"/></linearGradient><mask id="c" width="13" height="10" x="0" y="0" maskUnits="userSpaceOnUse"><use xlink:href="#b" width="13" height="10"/></mask></defs><use xlink:href="#e" width="13" height="10"/><path d="M8.37 15.97c-.64 0-1.19-.48-1.27-1.11l-.13-.91c-.06-.03-.11-.06-.17-.09l-1.1.43-.28.02c-.46 0-.89-.25-1.12-.64l-1.12-1.89c-.33-.58-.19-1.27.32-1.66l.76-.58v-.15l-.76-.58c-.52-.4-.65-1.11-.32-1.67l1.13-1.9c.22-.38.65-.63 1.1-.63.14 0 .28.02.41.07l.98.38c.05-.03.11-.06.16-.09l.14-.93c.08-.61.62-1.08 1.27-1.08h2.26c.64 0 1.19.48 1.27 1.11l.13.91c.06.03.11.06.17.09l1.1-.43.29-.02c.46 0 .89.24 1.11.64l1.12 1.89c.32.57.18 1.27-.32 1.66l-.76.58v.15l.76.58c.5.39.64 1.09.33 1.64l-1.14 1.92c-.22.38-.64.63-1.1.63-.14 0-.28-.02-.41-.07l-.98-.38c-.05.03-.11.06-.16.09l-.14.93c-.08.61-.62 1.08-1.27 1.08H8.37Z"/><path d="M13.7 10.01c.02-.18.04-.35.04-.54s-.02-.36-.04-.54l1.19-.91c.11-.08.14-.23.07-.35l-1.13-1.9a.28.28 0 0 0-.25-.14c-.03 0-.07 0-.1.02l-1.41.55q-.435-.33-.96-.54L10.9 4.2a.28.28 0 0 0-.28-.23H8.36c-.14 0-.26.1-.28.23l-.21 1.46q-.51.21-.96.54L5.5 5.65s-.07-.02-.1-.02c-.1 0-.19.05-.24.14l-1.13 1.9c-.07.12-.04.27.07.35l1.19.91c-.02.18-.04.36-.04.54s.02.36.04.54l-1.19.91c-.11.08-.14.23-.07.35l1.13 1.9c.05.09.15.14.25.14.03 0 .07 0 .1-.02l1.41-.55q.435.33.96.54l.21 1.46c.02.13.14.23.28.23h2.26c.14 0 .26-.1.28-.23l.21-1.46q.51-.21.96-.54l1.41.55s.07.02.1.02c.1 0 .19-.05.24-.14l1.13-1.9c.07-.12.04-.27-.07-.35z" style="fill:#e8eaed"/><path d="M6.92 12.74q.435.33.96.54l.21 1.46c.02.13.14.23.28.23h2.26c.14 0 .26-.1.28-.23l.21-1.46q.51-.21.96-.54l1.41.55s.07.02.1.02c.1 0 .19-.05.24-.14l1.13-1.9c.07-.12.04-.27-.07-.35l-1.19-.91c.02-.18.04-.35.04-.54s-.02-.36-.04-.54l1.19-.91c.11-.08.14-.23.07-.35l-1.13-1.9a.28.28 0 0 0-.25-.14c-.03 0-.07 0-.1.02l-1.41.55" style="fill:#aeaeaf"/><circle cx="9.5" cy="9.5" r="2.5"/></svg>