<svg xmlns="http://www.w3.org/2000/svg" xmlns:xlink="http://www.w3.org/1999/xlink" width="16" height="16"><defs><symbol id="a" viewBox="0 0 13 11"><path d="M0 0v11h10.98c.55 0 1-.45 1-1V6c.55 0 1-.45 1-1V1c.01-.75-.39-.99-.99-1z" style="fill:#fff"/></symbol><symbol id="c" viewBox="0 0 13 11"><path d="M0 0v11h11c.55 0 1-.45 1-1V6c.55 0 1-.45 1-1V1c0-.75-.41-.99-1-1z" style="isolation:isolate;opacity:.3"/></symbol><symbol id="e" viewBox="0 0 7 16"><path d="M7 2.95c0-.6-.37-1.14-.93-1.36L0 0v14l6 2c1 0 1-1 1-1z" style="fill:#fff"/></symbol><symbol id="d" viewBox="0 0 7.91 11"><path d="M0 1.31V11h7.91V3.39C7.91.51 5.89.63 3.81.63S0 1.31 0 1.31" style="opacity:.6"/><path d="M0 0h7.91v11H0z" style="opacity:0"/></symbol><symbol id="g" viewBox="0 0 13.02 11"><g style="mask:url(#b)"><path d="M.02 0h13v11h-13z" style="fill:#a040ff"/></g><use xlink:href="#c" width="13" height="11"/><use xlink:href="#d" width="7.91" height="11" transform="translate(.02)"/></symbol><symbol id="i" viewBox="0 0 7 16"><g style="mask:url(#f)"><path d="M0 0h7v16H0z" style="fill:#a040ff"/></g></symbol><mask id="b" width="13.02" height="11" x="0" y="0" maskUnits="userSpaceOnUse"><use xlink:href="#a" width="13" height="11" transform="translate(.02)"/></mask><mask id="f" width="7" height="16" x="0" y="0" maskUnits="userSpaceOnUse"><use xlink:href="#e" width="7" height="16"/></mask><linearGradient id="h" x1="1.84" x2="4.57" y1="-232.63" y2="-232.63" gradientTransform="matrix(3.78 0 0 -3.78 -6.95 -872.23)" gradientUnits="userSpaceOnUse"><stop offset=".69"/><stop offset="1" stop-opacity="0"/></linearGradient></defs><use xlink:href="#g" width="13.02" height="11"/><path d="M2 12.85v-1.08L8.65 1l1.43 6.41-7.44 6.51z" style="opacity:1"/><path d="m9 2.48-5.92 9.63L9 6.92z"/><path d="M9.46 10.22 8.65 1h1.52L16 11.77v1.08z" style="opacity:1"/><path d="M14.92 12.11 9.74 2.48l.73 7.08z"/><path d="m2.64 13.92 4.75-5.48 8.6 4.14.01.27-.44 1.07z" style="opacity:1"/><path d="M3.08 12.85h11.84l-7.4-3.18z"/><path d="m9 2.48-5.92 9.63L9 6.92z" style="fill:#40a0ff"/><path d="m10.47 9.56 4.45 2.55-5.18-9.63" style="fill:#ff4040"/><path d="M3.08 12.85h11.84l-7.4-3.18z" style="fill:#40ff40"/><path d="m0 0 1 2h2.47L6 7l3-5h2v12H0z" style="fill:url(#h)"/><use xlink:href="#i" width="7" height="16"/></svg>