<svg xmlns="http://www.w3.org/2000/svg" xmlns:xlink="http://www.w3.org/1999/xlink" width="16" height="16"><defs><symbol id="b" viewBox="0 0 13 10"><path d="M5 0H1C.45 0 0 .45 0 1v8c0 .55.45 1 1 1h11c.55 0 1-.45 1-1V2c0-.55-.45-1-1-1H6c0-.55-.45-1-1-1" style="fill:#fff"/></symbol><symbol id="d" viewBox="0 0 6 2"><path d="M0 1v1h5c.55 0 1-.45 1-1s-.45-1-1-1H1C.45 0 0 .45 0 1" style="fill:url(#a);isolation:isolate;opacity:.72"/></symbol><symbol id="e" viewBox="0 0 13 10"><g style="mask:url(#c)"><path d="M0 0h13v10H0z" style="fill:#ff2020"/></g><use xlink:href="#d" width="6" height="2"/></symbol><linearGradient id="a" x1="-7226.14" x2="-7226.14" y1="23619.99" y2="23623.99" gradientTransform="matrix(.5 0 0 -.5 3616.07 11811.99)" gradientUnits="userSpaceOnUse"><stop offset="0"/><stop offset="1" stop-opacity=".15"/></linearGradient><mask id="c" width="13" height="10" x="0" y="0" maskUnits="userSpaceOnUse"><use xlink:href="#b" width="13" height="10"/></mask></defs><use xlink:href="#e" width="13" height="10"/><path d="M13 16c-1.39 0-2.57-.96-2.9-2.24l-1.22-.42c-.53.43-1.18.66-1.87.66-1.65 0-3-1.35-3-3a3.01 3.01 0 0 1 3.94-2.85l1.2-1.25c-.09-.29-.14-.59-.14-.9 0-1.65 1.35-3 3-3s3 1.35 3 3-1.35 3-3 3c-.24 0-.48-.03-.71-.09l-1.31 1.37 1.14.39a2.98 2.98 0 0 1 1.88-.67c1.62 0 2.85 1.29 2.85 3s-1.22 3-2.85 3Z" style="fill-rule:evenodd"/><path d="M13 11c-.66 0-1.24.33-1.61.82L9 11c0-.33-.09-.63-.22-.9l2.25-2.36c.29.16.62.26.97.26 1.1 0 2-.9 2-2s-.9-2-2-2-2 .9-2 2c0 .41.12.78.33 1.1L8.16 9.38c-.33-.23-.72-.37-1.16-.37-1.1 0-2 .9-2 2s.9 2 2 2c.66 0 1.24-.32 1.6-.81l2.4.82c0 1.1.9 1.99 2 1.99s2-.9 2-2-.9-2-2-2Z" style="fill:#fff;fill-rule:evenodd"/></svg>