<svg xmlns="http://www.w3.org/2000/svg" xmlns:xlink="http://www.w3.org/1999/xlink" width="16" height="16"><defs><symbol id="b" viewBox="0 0 13 10"><path d="M5 0H1C.45 0 0 .45 0 1v8c0 .55.45 1 1 1h11c.55 0 1-.45 1-1V2c0-.55-.45-1-1-1H6c0-.55-.45-1-1-1" style="fill:#fff"/></symbol><symbol id="d" viewBox="0 0 6 2"><path d="M0 1v1h5c.55 0 1-.45 1-1s-.45-1-1-1H1C.45 0 0 .45 0 1" style="fill:url(#a);isolation:isolate;opacity:.72"/></symbol><symbol id="e" viewBox="0 0 13 10"><g style="mask:url(#c)"><path d="M0 0h13v10H0z" style="fill:#ff13c0"/></g><use xlink:href="#d" width="6" height="2"/></symbol><linearGradient id="a" x1="-7226.14" x2="-7226.14" y1="23619.99" y2="23623.99" gradientTransform="matrix(.5 0 0 -.5 3616.07 11811.99)" gradientUnits="userSpaceOnUse"><stop offset="0"/><stop offset="1" stop-opacity=".15"/></linearGradient><mask id="c" width="13" height="10" x="0" y="0" maskUnits="userSpaceOnUse"><use xlink:href="#b" width="13" height="10"/></mask></defs><use xlink:href="#e" width="13" height="10"/><path d="M2 4h14v12H2z"/><path d="M3 5h12v10H3z"/><path d="M3.38 5.38h11.25v9.25H3.38z" style="fill:#0054a0"/><path d="M14.25 5.75v8.5H3.75v-8.5zM15 5H3v10h12z" style="fill:#006fff"/><path d="m15 12-4-3-4 4v2h8z" style="fill:#49c41c"/><path d="M3 15h7.3l-1.08-1.08-2.93-2.93L3 14z" style="fill:#7cff5c"/><path d="M4.73 8.94c-.62.12-1.22.03-1.73-.21V4.99h3.75c.23.51.32 1.11.2 1.73a2.83 2.83 0 0 1-2.22 2.22" style="fill:#f3d55a"/></svg>