<svg xmlns="http://www.w3.org/2000/svg" xmlns:xlink="http://www.w3.org/1999/xlink" width="16" height="16"><defs><symbol id="a" viewBox="0 0 13 11"><path d="M0 0v11h10.98c.55 0 1-.45 1-1V6c.55 0 1-.45 1-1V1c.01-.75-.39-.99-.99-1z" style="fill:#fff"/></symbol><symbol id="c" viewBox="0 0 13 11"><path d="M0 0v11h11c.55 0 1-.45 1-1V6c.55 0 1-.45 1-1V1c0-.75-.41-.99-1-1z" style="isolation:isolate;opacity:.3"/></symbol><symbol id="e" viewBox="0 0 7 16"><path d="M7 2.95c0-.6-.37-1.14-.93-1.36L0 0v14l6 2c1 0 1-1 1-1z" style="fill:#fff"/></symbol><symbol id="d" viewBox="0 0 7.91 11"><path d="M0 1.31V11h7.91V3.39C7.91.51 5.89.63 3.81.63S0 1.31 0 1.31" style="opacity:.6"/><path d="M0 0h7.91v11H0z" style="opacity:0"/></symbol><symbol id="g" viewBox="0 0 13.02 11"><g style="mask:url(#b)"><path d="M.02 0h13v11h-13z" style="fill:#ff6700"/></g><use xlink:href="#c" width="13" height="11"/><use xlink:href="#d" width="7.91" height="11" transform="translate(.02)"/></symbol><symbol id="i" viewBox="0 0 7 16"><g style="mask:url(#f)"><path d="M0 0h7v16H0z" style="fill:#ff6700"/></g></symbol><mask id="b" width="13.02" height="11" x="0" y="0" maskUnits="userSpaceOnUse"><use xlink:href="#a" width="13" height="11" transform="translate(.02)"/></mask><mask id="f" width="7" height="16" x="0" y="0" maskUnits="userSpaceOnUse"><use xlink:href="#e" width="7" height="16"/></mask><linearGradient id="h" x1="90.09" x2="92.82" y1="-232.63" y2="-232.63" gradientTransform="matrix(3.78 0 0 -3.78 -340.49 -872.23)" gradientUnits="userSpaceOnUse"><stop offset=".69"/><stop offset="1" stop-opacity="0"/></linearGradient></defs><use xlink:href="#g" width="13.02" height="11"/><path d="M12 13c-.84 0-1.93 0-3-.83C7.93 13 6.84 13 6 13c-2.35 0-4-2.08-4-5.05S3.65 2.9 6 2.9c.81 0 1.94 0 3 1.2 1.06-1.2 2.19-1.2 3-1.2 2.35 0 4 2.08 4 5.05S14.35 13 12 13" style="opacity:1"/><path d="M12 3.9c-.98 0-2 0-3 2.02C8 3.9 6.98 3.9 6 3.9c-1.93 0-3 1.81-3 4.05S4.07 12 6 12c.98 0 2 0 3-1.22C10 12 11.02 12 12 12c1.93 0 3-1.81 3-4.05S13.93 3.9 12 3.9" style="fill:#40a0ff"/><path d="M12 10c-.71 0-2-.76-2-2.05S11.29 6 12 6s1 .66 1 1.95S12.71 10 12 10M6 10c.71 0 2-.76 2-2.05S6.71 6 6 6s-1 .66-1 1.95S5.29 10 6 10"/><path d="m0 0 1 2h1.59L9 4.45l1.82-.68L11 2v12l-.15-1.27L9 11.91 1 14H0z" style="fill:url(#h)"/><use xlink:href="#i" width="7" height="16"/></svg>