<svg xmlns="http://www.w3.org/2000/svg" width="16" height="16" data-name="Row 1 &amp;amp; 2"><defs><linearGradient id="b" x1="867.86" x2="867.86" y1="-601.01" y2="-597.01" gradientTransform="matrix(.5 0 0 -.5 -430.43 -297.5)" gradientUnits="userSpaceOnUse"><stop offset="0"/><stop offset="1" stop-opacity=".15"/></linearGradient><mask id="a" width="16" height="13" x="0" y="1" data-name="mask" maskUnits="userSpaceOnUse"><g fill="#fff"><path d="M6 1H1c-.55 0-1 .45-1 1v11c0 .55.45 1 1 1h14c.55 0 1-.45 1-1V3c0-.55-.45-1-1-1H7c0-.55-.45-1-1-1" data-name="folder"/><path d="M6 1H1c-.55 0-1 .45-1 1v11c0 .55.45 1 1 1h14c.55 0 1-.45 1-1V3c0-.55-.45-1-1-1H7c0-.55-.45-1-1-1" data-name="folder"/></g></mask></defs><g data-name="Layer 7"><g mask="url(#a)"><path fill="#ffeead" d="M0 1h16v13H0z" data-name="( closed-folder )"/></g><path fill="url(#b)" d="M0 2v1h6c.55 0 1-.45 1-1s-.45-1-1-1H1c-.55 0-1 .45-1 1" data-name="tab" opacity=".72" style="isolation:isolate"/></g></svg>