<svg xmlns="http://www.w3.org/2000/svg" xmlns:xlink="http://www.w3.org/1999/xlink" width="16" height="16"><defs><symbol id="b" viewBox="0 0 13 10"><path d="M5 0H1C.45 0 0 .45 0 1v8c0 .55.45 1 1 1h11c.55 0 1-.45 1-1V2c0-.55-.45-1-1-1H6c0-.55-.45-1-1-1" style="fill:#fff"/></symbol><symbol id="d" viewBox="0 0 6 2"><path d="M0 1v1h5c.55 0 1-.45 1-1s-.45-1-1-1H1C.45 0 0 .45 0 1" style="fill:url(#a);isolation:isolate;opacity:.72"/></symbol><symbol id="e" viewBox="0 0 13 10"><g style="mask:url(#c)"><path d="M0 0h13v10H0z" style="fill:#0ff"/></g><use xlink:href="#d" width="6" height="2"/></symbol><linearGradient id="a" x1="-7226.14" x2="-7226.14" y1="23619.99" y2="23623.99" gradientTransform="matrix(.5 0 0 -.5 3616.07 11811.99)" gradientUnits="userSpaceOnUse"><stop offset="0"/><stop offset="1" stop-opacity=".15"/></linearGradient><mask id="c" width="13" height="10" x="0" y="0" maskUnits="userSpaceOnUse"><use xlink:href="#b" width="13" height="10"/></mask></defs><use xlink:href="#e" width="13" height="10"/><path d="M2 4h14v12H2z"/><path d="M15 5v10H3V5z" style="fill:#fff"/><path d="M4.5 6.5h9v3h-9z" style="fill:red"/><path d="M13 7v2H5V7zm1-1H4v4h10z"/><path d="M4.5 9.5h3v4h-3z" style="fill:#0ff"/><path d="M7 10v3H5v-3zm1-1H4v5h4zM9 11h5v1H9zM9 13h5v1H9z"/></svg>