<svg xmlns="http://www.w3.org/2000/svg" xmlns:xlink="http://www.w3.org/1999/xlink" width="16" height="16"><defs><symbol id="a" viewBox="0 0 13 11"><path d="M0 0v11h10.98c.55 0 1-.45 1-1V6c.55 0 1-.45 1-1V1c.01-.75-.39-.99-.99-1z" style="fill:#fff"/></symbol><symbol id="c" viewBox="0 0 13 11"><path d="M0 0v11h11c.55 0 1-.45 1-1V6c.55 0 1-.45 1-1V1c0-.75-.41-.99-1-1z" style="isolation:isolate;opacity:.3"/></symbol><symbol id="e" viewBox="0 0 7 16"><path d="M7 2.95c0-.6-.37-1.14-.93-1.36L0 0v14l6 2c1 0 1-1 1-1z" style="fill:#fff"/></symbol><symbol id="d" viewBox="0 0 7.91 11"><path d="M0 1.31V11h7.91V3.39C7.91.51 5.89.63 3.81.63S0 1.31 0 1.31" style="opacity:.6"/><path d="M0 0h7.91v11H0z" style="opacity:0"/></symbol><symbol id="g" viewBox="0 0 13.02 11"><g style="mask:url(#b)"><path d="M.02 0h13v11h-13z" style="fill:#0ff"/></g><use xlink:href="#c" width="13" height="11"/><use xlink:href="#d" width="7.91" height="11" transform="translate(.02)"/></symbol><symbol id="i" viewBox="0 0 7 16"><g style="mask:url(#f)"><path d="M0 0h7v16H0z" style="fill:#0ff"/></g></symbol><mask id="b" width="13.02" height="11" x="0" y="0" maskUnits="userSpaceOnUse"><use xlink:href="#a" width="13" height="11" transform="translate(.02)"/></mask><mask id="f" width="7" height="16" x="0" y="0" maskUnits="userSpaceOnUse"><use xlink:href="#e" width="7" height="16"/></mask><linearGradient id="h" x1="-57" x2="-54.26" y1="-131.46" y2="-131.46" gradientTransform="matrix(3.78 0 0 -3.78 215.41 -489.87)" gradientUnits="userSpaceOnUse"><stop offset=".69"/><stop offset="1" stop-opacity="0"/></linearGradient></defs><use xlink:href="#g" width="13.02" height="11"/><path d="M15.72 4.5c0-.33.1-1.12-.72-1.5V1.98c.14-.91.18-1.98-1.26-1.98-1.32.42-2.29 1.38-2.29 1.38l-.39.65C10.66 2 10.46 2 9.99 2c-2.51 0-5.5.43-5.5 2.5 0 .29.08.78.5 1.24v2.25c0 .13.02.26.05.37l.97 2.77v1.35c-.02.4.14.78.42 1.07.28.28.66.44 1.06.44h5c.82 0 1.49-.68 1.5-1.5v-1.38l.96-2.77c.03-.12.05-.25.05-.38V5.93c.6-.49.71-1.08.71-1.43Z"/><path d="M10.5 5.5c-1 0-4-.42-4-.42v2.91l1.02 2.96v1.55h4.99v-1.57l1.01-2.96-.02-2.98s-2 .51-3 .51" style="fill:#f50637;stroke:#f50637;stroke-linecap:round;stroke-linejoin:round"/><path d="M6 4.5c0 .55 1.79 1 4 1s4.22-.45 4.22-1-2.01-1-4.22-1-4 .45-4 1Z" style="stroke:#ff0135;stroke-linecap:round;stroke-miterlimit:10"/><path d="m11.43 7.29 1.08-4.84M12.51 2.45l1.07-.95" style="fill:#f50637;stroke:#ff0135;stroke-linecap:round;stroke-linejoin:round"/><path d="m0 0 1 2h2.97l3.3.89 3.42-.29.3-.6v12H0z" style="fill:url(#h)"/><use xlink:href="#i" width="7" height="16"/></svg>