<svg xmlns="http://www.w3.org/2000/svg" xmlns:xlink="http://www.w3.org/1999/xlink" width="16" height="16"><defs><symbol id="b" viewBox="0 0 13 10"><path d="M5 0H1C.45 0 0 .45 0 1v8c0 .55.45 1 1 1h11c.55 0 1-.45 1-1V2c0-.55-.45-1-1-1H6c0-.55-.45-1-1-1" style="fill:#fff"/></symbol><symbol id="d" viewBox="0 0 6 2"><path d="M0 1v1h5c.55 0 1-.45 1-1s-.45-1-1-1H1C.45 0 0 .45 0 1" style="fill:url(#a);isolation:isolate;opacity:.72"/></symbol><symbol id="e" viewBox="0 0 13 10"><g style="mask:url(#c)"><path d="M0 0h13v10H0z" style="fill:#40a0ff"/></g><use xlink:href="#d" width="6" height="2"/></symbol><linearGradient id="a" x1="-7226.14" x2="-7226.14" y1="23619.99" y2="23623.99" gradientTransform="matrix(.5 0 0 -.5 3616.07 11811.99)" gradientUnits="userSpaceOnUse"><stop offset="0"/><stop offset="1" stop-opacity=".15"/></linearGradient><mask id="c" width="13" height="10" x="0" y="0" maskUnits="userSpaceOnUse"><use xlink:href="#b" width="13" height="10"/></mask></defs><use xlink:href="#e" width="13" height="10"/><path d="M15.12 8.51c0-.7-.37-1.42-.83-1.81l.71-.71v-2s-.99-1-1-1h-2l-1 1-1-1H7l-1 1v2l.94.94c-.36.41-.54.93-.55 1.52-.55.39-.9 1.02-.96 1.73s.18 1.39.65 1.86c.02.02.04.03.06.05v.02c0 .31.03.76.32 1.23.39.8 1.07 1.29 1.92 1.4.05 0 .09 0 .14.01.06.12.14.25.27.38.56.56 1.21.84 1.92.84.78 0 1.46-.31 1.92-.88l.06-.07c.07-.09.13-.17.18-.26H13l.1-.02c.91-.18 1.61-.75 1.95-1.55.18-.36.25-.74.23-1.13.04-.03.07-.05.11-.09.38-.44.59-1.02.59-1.59 0-.78-.33-1.45-.88-1.89Z"/><path d="M10.48 9.5c0-.79-.67-1.3-1.49-1.06-.67.16-1.18.86-1.14 1.57s.67 1.22 1.38 1.06 1.26-.86 1.26-1.57ZM11.03 9.22c-.12.75.39 1.49 1.1 1.73.79.24 1.49-.27 1.49-1.1 0-.63-.43-1.26-1.06-1.49-.71-.28-1.41.16-1.53.86M10.76 10.84c-.16 0-.27.04-.39.04-.47.16-.83.43-.94.94-.08.51.08.9.47 1.22.51.43 1.34.39 1.85-.04s.55-1.18.08-1.69c-.28-.31-.67-.47-1.06-.47ZM13.66 11.32c-.12.04-.24.08-.35.16-.2.16-.39.35-.59.55-.31.35-.47.75-.51 1.14 0 .51.16.67.51.63h.2c.59-.12 1.02-.47 1.26-1.02.2-.39.16-.79 0-1.18-.08-.24-.27-.31-.51-.27ZM7.85 11.54c-.43-.12-.67.04-.71.47v.12c0 .27.04.51.2.75.24.51.63.83 1.22.9.43.08.63-.12.63-.55-.04-.71-.67-1.49-1.34-1.69M9.89 8.05c.28.16.59.2.9.2.08 0 .2 0 .31-.04.24-.04.47-.08.67-.24.24-.2.28-.43.08-.67l-.12-.12c-.55-.47-1.34-.51-1.92-.08-.43.31-.43.67.08.94ZM11.86 13.94c-.08-.04-.2-.08-.28-.12-.39-.12-.79-.12-1.18-.08-.31.04-.59.12-.86.27-.2.12-.2.28-.04.43.35.35.75.55 1.22.55.51 0 .9-.2 1.18-.55l.04-.04c.2-.24.16-.35-.08-.47ZM7.5 9.81c0-.12-.04-.27-.04-.39-.08-.31-.24-.35-.47-.16-.67.47-.75 1.53-.2 2.08.12.12.2.12.31-.04.08-.08.12-.16.16-.28.16-.39.24-.79.24-1.22ZM14.37 9.19c-.16-.12-.24-.08-.31.08-.04.08-.08.2-.08.28-.04.43 0 .86.12 1.26.04.2.12.39.24.55.12.12.2.12.31 0 .24-.28.35-.63.35-.94 0-.55-.24-.98-.63-1.22ZM7.69 8.64c.2-.12.39-.24.59-.39.31-.28.67-.55.94-.9.04-.08.12-.16.12-.28-.51-.08-.98 0-1.41.31s-.59.79-.55 1.3c.08.08.16 0 .31-.04M13.04 8.09c.24.2.51.39.79.55.08.08.2.12.27.08.12-.35-.12-.98-.51-1.3-.39-.35-1.18-.39-1.41-.28 0 .08.08.16.12.24.24.24.47.47.75.71Z" style="fill:red"/><path d="M9.85 5.73c-.55-.43-1.14-.75-1.81-.98.59.35 1.18.67 1.65 1.14-.04.43-.59.71-1.22.67-.04-.04.04-.04.04-.12-.16-.04-.35 0-.47-.08 0-.04.08-.04.04-.08-.12-.08-.27-.12-.39-.2 0-.04.08-.04.12-.08-.12-.08-.27-.12-.39-.24.04-.04.08 0 .12-.08-.12-.08-.24-.16-.31-.27.04-.04.08 0 .12-.04-.04-.12-.2-.2-.24-.31.08 0 .12.04.2-.04-.08-.12-.24-.16-.27-.31.04-.04.12 0 .16-.04 0-.12-.08-.2-.12-.31.12-.04.27 0 .39-.04 0-.04-.04-.08-.04-.12.16-.08.31 0 .47.04.04-.08-.04-.08 0-.16.12 0 .24.08.39.08.04-.08-.08-.08-.08-.16.16 0 .27.08.39.16.04-.04 0-.08.04-.16.12.04.2.12.31.2.08 0 .04-.08.08-.12.12.04.2.16.27.2.08 0 .04-.08.08-.12.12.08.2.2.27.27.08 0 .04-.08.12-.08.24.27.47.59.43.98 0 .2-.16.31-.35.39ZM13.66 6s.08.04.12.04c-.12.12-.27.12-.43.2 0 .04.04.04.04.08-.12.08-.31.04-.43.08-.04.04.04.08 0 .12-.16.04-.31 0-.51-.04-.35-.08-.63-.24-.75-.59.47-.51 1.06-.82 1.65-1.14-.67.24-1.26.55-1.81.94-.24-.08-.35-.27-.35-.51 0-.27.24-.71.47-.9l.08.12c.12-.08.2-.24.31-.27.04.04 0 .12.08.12.08-.04.16-.16.27-.2.04.04 0 .08.08.12.12 0 .2-.12.35-.16 0 .04-.04.08 0 .16.12-.08.24-.16.39-.16 0 .04-.08.08-.04.16.12 0 .24-.08.39-.08 0 .04-.04.08 0 .16.16-.04.31-.08.47-.04 0 .04-.04.08-.04.12.12.04.27 0 .39.04-.04.12-.16.2-.16.31.04.04.12 0 .16.04-.04.16-.2.2-.24.31.04.08.12 0 .16.04-.04.12-.2.2-.27.31.04.08.08.04.12.04-.08.12-.2.16-.27.27.04.04.08.04.12.08-.08.12-.24.16-.35.24Z" style="fill:#40ffa0"/></svg>