<svg xmlns="http://www.w3.org/2000/svg" xmlns:xlink="http://www.w3.org/1999/xlink" width="16" height="16"><defs><symbol id="b" viewBox="0 0 13 10"><path d="M5 0H1C.45 0 0 .45 0 1v8c0 .55.45 1 1 1h11c.55 0 1-.45 1-1V2c0-.55-.45-1-1-1H6c0-.55-.45-1-1-1" style="fill:#fff"/></symbol><symbol id="d" viewBox="0 0 6 2"><path d="M0 1v1h5c.55 0 1-.45 1-1s-.45-1-1-1H1C.45 0 0 .45 0 1" style="fill:url(#a);isolation:isolate;opacity:.72"/></symbol><symbol id="e" viewBox="0 0 13 10"><g style="mask:url(#c)"><path d="M0 0h13v10H0z" style="fill:#a040ff"/></g><use xlink:href="#d" width="6" height="2"/></symbol><linearGradient id="a" x1="-7226.14" x2="-7226.14" y1="23619.99" y2="23623.99" gradientTransform="matrix(.5 0 0 -.5 3616.07 11811.99)" gradientUnits="userSpaceOnUse"><stop offset="0"/><stop offset="1" stop-opacity=".15"/></linearGradient><mask id="c" width="13" height="10" x="0" y="0" maskUnits="userSpaceOnUse"><use xlink:href="#b" width="13" height="10"/></mask></defs><use xlink:href="#e" width="13" height="10"/><path d="M9.7 16v-5.09c-.49-.09-.84-.24-1.09-.35-.02 0-.04-.02-.05-.02-.02.03-1.86 2.24-1.86 2.24V9c0-.58 0-2.36 1.59-2.36.3 0 .59.07.92.15.15.04.32.08.49.11V4h2.54l3.46 5.23v1.58L12.23 16z"/><path d="M7 11.39v.35S9 12 11 12v3l4-5-4-5v3c-2.21 0-4 1.1-4 3.39" style="fill:#0f0"/><path d="M5.9 16v-5.11c-.13-.03-.24-.07-.35-.11l-1.65 2V8.47c-.01-.74-.01-1.14.35-1.51l.29-.3.49-.03c.24 0 .43.07.61.14.07.03.16.06.25.09V4h2.68l2.4 6-2.4 6H5.89Z"/><path d="M4 12h3v3l4-5-4-5v3H4z" style="fill:#0f0"/><path d="M2 16V4h2.68l2.4 6-2.4 6z"/><path d="M3 11v4l4-5-4-5v6" style="fill:#0f0"/></svg>