<svg xmlns="http://www.w3.org/2000/svg" xmlns:xlink="http://www.w3.org/1999/xlink" width="16" height="16"><defs><symbol id="a" viewBox="0 0 13 11"><path d="M0 0v11h10.98c.55 0 1-.45 1-1V6c.55 0 1-.45 1-1V1c.01-.75-.39-.99-.99-1z" style="fill:#fff"/></symbol><symbol id="c" viewBox="0 0 13 11"><path d="M0 0v11h11c.55 0 1-.45 1-1V6c.55 0 1-.45 1-1V1c0-.75-.41-.99-1-1z" style="isolation:isolate;opacity:.3"/></symbol><symbol id="e" viewBox="0 0 7 16"><path d="M7 2.95c0-.6-.37-1.14-.93-1.36L0 0v14l6 2c1 0 1-1 1-1z" style="fill:#fff"/></symbol><symbol id="d" viewBox="0 0 7.91 11"><path d="M0 1.31V11h7.91V3.39C7.91.51 5.89.63 3.81.63S0 1.31 0 1.31" style="opacity:.6"/><path d="M0 0h7.91v11H0z" style="opacity:0"/></symbol><symbol id="g" viewBox="0 0 13.02 11"><g style="mask:url(#b)"><path d="M.02 0h13v11h-13z" style="fill:#0ff"/></g><use xlink:href="#c" width="13" height="11"/><use xlink:href="#d" width="7.91" height="11" transform="translate(.02)"/></symbol><symbol id="i" viewBox="0 0 7 16"><g style="mask:url(#f)"><path d="M0 0h7v16H0z" style="fill:#0ff"/></g></symbol><mask id="b" width="13.02" height="11" x="0" y="0" maskUnits="userSpaceOnUse"><use xlink:href="#a" width="13" height="11" transform="translate(.02)"/></mask><mask id="f" width="7" height="16" x="0" y="0" maskUnits="userSpaceOnUse"><use xlink:href="#e" width="7" height="16"/></mask><linearGradient id="h" x1="-12.87" x2="-10.13" y1="-80.88" y2="-80.88" gradientTransform="matrix(3.78 0 0 -3.78 48.64 -298.69)" gradientUnits="userSpaceOnUse"><stop offset=".69"/><stop offset="1" stop-opacity="0"/></linearGradient></defs><use xlink:href="#g" width="13.02" height="11"/><path d="M13 11H5l1-2.46V5h7z"/><rect width="5" height="4" x="11" y="9" rx=".5" ry=".5"/><path d="M14.9 10h-2.8c-.06 0-.1.04-.1.1v1.8c0 .06.04.1.1.1h2.8c.06 0 .1-.04.1-.1v-1.8c0-.06-.04-.1-.1-.1" style="fill:#ff2020"/><rect width="5" height="4" x="1" y="9" rx=".5" ry=".5"/><path d="M4.9 10H2.1c-.06 0-.1.04-.1.1v1.8c0 .06.04.1.1.1h2.8c.06 0 .1-.04.1-.1v-1.8c0-.06-.04-.1-.1-.1" style="fill:#ff2020"/><rect width="6" height="4" x="3" y="6" rx=".5" ry=".5"/><path d="M7.9 7H4.1c-.06 0-.1.04-.1.1v1.8c0 .06.04.1.1.1h3.8c.06 0 .1-.04.1-.1V7.1c0-.06-.04-.1-.1-.1" style="fill:#ff2020"/><rect width="6" height="4" x="9" y="6" rx=".5" ry=".5"/><path d="M13.9 7h-3.8c-.06 0-.1.04-.1.1v1.8c0 .06.04.1.1.1h3.8c.06 0 .1-.04.1-.1V7.1c0-.06-.04-.1-.1-.1" style="fill:#ff2020"/><rect width="5" height="4" x="11" y="3" rx=".5" ry=".5"/><path d="M14.9 4h-2.8c-.06 0-.1.04-.1.1v1.8c0 .06.04.1.1.1h2.8c.06 0 .1-.04.1-.1V4.1c0-.06-.04-.1-.1-.1" style="fill:#ff2020"/><rect width="6" height="4" x="5" y="3" rx=".5" ry=".5"/><path d="M9.9 4H6.1c-.06 0-.1.04-.1.1v1.8c0 .06.04.1.1.1h3.8c.06 0 .1-.04.1-.1V4.1c0-.06-.04-.1-.1-.1" style="fill:#ff2020"/><rect width="5" height="4" x="6" y="9" rx=".5" ry=".5"/><path d="M9.9 10H7.1c-.06 0-.1.04-.1.1v1.8c0 .06.04.1.1.1h2.8c.06 0 .1-.04.1-.1v-1.8c0-.06-.04-.1-.1-.1" style="fill:#ff2020"/><path d="m0 0 1 2 4.74 1.71h5.11L11 2v12l-.15-1.61-5.85.27L1 14H0z" style="fill:url(#h)"/><use xlink:href="#i" width="7" height="16"/></svg>