<svg xmlns="http://www.w3.org/2000/svg" xmlns:xlink="http://www.w3.org/1999/xlink" width="16" height="16"><defs><symbol id="a" viewBox="0 0 13 11"><path d="M0 0v11h10.98c.55 0 1-.45 1-1V6c.55 0 1-.45 1-1V1c.01-.75-.39-.99-.99-1z" style="fill:#fff"/></symbol><symbol id="c" viewBox="0 0 13 11"><path d="M0 0v11h11c.55 0 1-.45 1-1V6c.55 0 1-.45 1-1V1c0-.75-.41-.99-1-1z" style="isolation:isolate;opacity:.3"/></symbol><symbol id="e" viewBox="0 0 7 16"><path d="M7 2.95c0-.6-.37-1.14-.93-1.36L0 0v14l6 2c1 0 1-1 1-1z" style="fill:#fff"/></symbol><symbol id="d" viewBox="0 0 7.91 11"><path d="M0 1.31V11h7.91V3.39C7.91.51 5.89.63 3.81.63S0 1.31 0 1.31" style="opacity:.6"/><path d="M0 0h7.91v11H0z" style="opacity:0"/></symbol><symbol id="g" viewBox="0 0 13.02 11"><g style="mask:url(#b)"><path d="M.02 0h13v11h-13z" style="fill:#ff13c0"/></g><use xlink:href="#c" width="13" height="11"/><use xlink:href="#d" width="7.91" height="11" transform="translate(.02)"/></symbol><symbol id="i" viewBox="0 0 7 16"><g style="mask:url(#f)"><path d="M0 0h7v16H0z" style="fill:#ff13c0"/></g></symbol><mask id="b" width="13.02" height="11" x="0" y="0" maskUnits="userSpaceOnUse"><use xlink:href="#a" width="13" height="11" transform="translate(.02)"/></mask><mask id="f" width="7" height="16" x="0" y="0" maskUnits="userSpaceOnUse"><use xlink:href="#e" width="7" height="16"/></mask><linearGradient id="h" x1="75.38" x2="78.12" y1="-30.3" y2="-30.3" gradientTransform="matrix(3.78 0 0 -3.78 -284.9 -107.51)" gradientUnits="userSpaceOnUse"><stop offset=".69"/><stop offset="1" stop-opacity="0"/></linearGradient></defs><use xlink:href="#g" width="13.02" height="11"/><path d="M4 13.29V10L3 7.24V5.59L3.59 5h-.41l-.16-.81C3 4.11 2.97 3.93 3 2.97v-.39l1.59-1.57h1.65L8.6 2.19l.26.26h.3l1.44-1.44 1.41-1h2l2 1v6l-1 1-3 1 2 1 1 2v2H6.06L4 13.3Z" style="fill-rule:evenodd"/><path d="M9.67 11.32s-.05 0-.06-.02a.9.9 0 0 0-.66-.17c-.03 0-.06 0-.08-.02s.14.9.14.9c-1-2-2-5-1-8h2c-1 3 0 6 1 8 0 .04-1.24-.72-1.28-.7-.02 0-.03.01-.05.01Z" style="fill:#ce7730;fill-rule:evenodd"/><path d="M11 6h1l1 1h1V6h1l-2-2h-3l2-1h1l2 1V2l-2-1-2 1-1 1-1 1-1-1-2-1H5L4 3s-.03.85 0 1h3s.5.16.87.29C6.92 4.5 5 5 5 5L4 6l1 3 1-2 1-1s1 0 2-1c1 0 1.96.98 2 1" style="fill:#b4ef11;fill-rule:evenodd"/><path d="M5 13c0-.62.38-1 1-1 .04 0 0-.89 1-1 .65-.07 1.08-.22 2 0 2.92 0 3.62.04 3.9.94C14 12 14.04 13 14.04 13z" style="fill:#e6bb7e;fill-rule:evenodd"/><circle cx="8.5" cy="4.5" r="1.5" style="fill:#576821;stroke:#101604;stroke-miterlimit:10;stroke-width:.5px"/><path d="m0 0 1 2 7.96.56L11 2v12H0z" style="fill:url(#h)"/><use xlink:href="#i" width="7" height="16"/></svg>