<svg xmlns="http://www.w3.org/2000/svg" xmlns:xlink="http://www.w3.org/1999/xlink" width="16" height="16"><defs><symbol id="a" viewBox="0 0 13 11"><path d="M0 0v11h10.98c.55 0 1-.45 1-1V6c.55 0 1-.45 1-1V1c.01-.75-.39-.99-.99-1z" style="fill:#fff"/></symbol><symbol id="c" viewBox="0 0 13 11"><path d="M0 0v11h11c.55 0 1-.45 1-1V6c.55 0 1-.45 1-1V1c0-.75-.41-.99-1-1z" style="isolation:isolate;opacity:.3"/></symbol><symbol id="e" viewBox="0 0 7 16"><path d="M7 2.95c0-.6-.37-1.14-.93-1.36L0 0v14l6 2c1 0 1-1 1-1z" style="fill:#fff"/></symbol><symbol id="d" viewBox="0 0 7.91 11"><path d="M0 1.31V11h7.91V3.39C7.91.51 5.89.63 3.81.63S0 1.31 0 1.31" style="opacity:.6"/><path d="M0 0h7.91v11H0z" style="opacity:0"/></symbol><symbol id="g" viewBox="0 0 13.02 11"><g style="mask:url(#b)"><path d="M.02 0h13v11h-13z" style="fill:#ff6700"/></g><use xlink:href="#c" width="13" height="11"/><use xlink:href="#d" width="7.91" height="11" transform="translate(.02)"/></symbol><symbol id="i" viewBox="0 0 7 16"><g style="mask:url(#f)"><path d="M0 0h7v16H0z" style="fill:#ff6700"/></g></symbol><mask id="b" width="13.02" height="11" x="0" y="0" maskUnits="userSpaceOnUse"><use xlink:href="#a" width="13" height="11" transform="translate(.02)"/></mask><mask id="f" width="7" height="16" x="0" y="0" maskUnits="userSpaceOnUse"><use xlink:href="#e" width="7" height="16"/></mask><linearGradient id="h" x1="16.55" x2="19.28" y1="-80.88" y2="-80.88" gradientTransform="matrix(3.78 0 0 -3.78 -62.54 -298.69)" gradientUnits="userSpaceOnUse"><stop offset=".69"/><stop offset="1" stop-opacity="0"/></linearGradient></defs><use xlink:href="#g" width="13.02" height="11"/><path d="m10.54 14-2.75-3.21-1.84 1.58-2.31-2.31L5.4 8.01 3.64 5.96l2.31-2.31 1.84 1.58 2.75-3.21h2.7L16 3.4v9.24l-2.76 1.38h-2.7Z" style="fill-rule:evenodd"/><path d="M13 3h-2L7.89 6.62 6 5 5 6l1.71 2L5 10l1 1 1.89-1.62L11 13h2l2-1V4zm0 8L9.5 8 13 5z" style="fill:#41b3ff;fill-rule:evenodd"/><path d="m11 3-6 7 1 1 7-6V3z" style="fill:#007dd2;fill-rule:evenodd"/><path d="M11 13 5 6l1-1 7 6v2z" style="fill:#0098ff;fill-rule:evenodd"/><path d="M13 13h-2l2-2V5l-2-2h2l2 1v8z" style="fill:#41b3ff;fill-rule:evenodd"/><path d="m0 0 1 2 7 3.7L10.73 2H11v12h-.22l-2.93-3.57L1 14H0z" style="fill:url(#h)"/><use xlink:href="#i" width="7" height="16"/></svg>