<svg xmlns="http://www.w3.org/2000/svg" xmlns:xlink="http://www.w3.org/1999/xlink" width="16" height="16"><defs><symbol id="b" viewBox="0 0 13 10"><path d="M5 0H1C.45 0 0 .45 0 1v8c0 .55.45 1 1 1h11c.55 0 1-.45 1-1V2c0-.55-.45-1-1-1H6c0-.55-.45-1-1-1" style="fill:#fff"/></symbol><symbol id="d" viewBox="0 0 6 2"><path d="M0 1v1h5c.55 0 1-.45 1-1s-.45-1-1-1H1C.45 0 0 .45 0 1" style="fill:url(#a);isolation:isolate;opacity:.72"/></symbol><symbol id="e" viewBox="0 0 13 10"><g style="mask:url(#c)"><path d="M0 0h13v10H0z" style="fill:#ff13c0"/></g><use xlink:href="#d" width="6" height="2"/></symbol><linearGradient id="a" x1="-7226.14" x2="-7226.14" y1="23619.99" y2="23623.99" gradientTransform="matrix(.5 0 0 -.5 3616.07 11811.99)" gradientUnits="userSpaceOnUse"><stop offset="0"/><stop offset="1" stop-opacity=".15"/></linearGradient><mask id="c" width="13" height="10" x="0" y="0" maskUnits="userSpaceOnUse"><use xlink:href="#b" width="13" height="10"/></mask></defs><use xlink:href="#e" width="13" height="10"/><path d="M4 16v-4L3 9.24V7.59L3.59 7h-.41l-.16-.81C3 6.11 2.97 5.93 3 4.97v-.39l1.59-1.57h1.65L8.6 4.19l.26.26h.3l1.44-1.44 1.41-1h2l2 1v6l-1 1-3 1 2 1 1 2v2H4Z" style="fill-rule:evenodd"/><path d="M9.67 13.32s-.05 0-.06-.02a.9.9 0 0 0-.66-.17c-.03 0-.06 0-.08-.02s.14.9.14.9c-1-2-2-5-1-8h2c-1 3 0 6 1 8 0 .04-1.24-.72-1.28-.7-.02 0-.03.01-.05.01Z" style="fill:#ce7730;fill-rule:evenodd"/><path d="M11 8h1l1 1h1V8h1l-2-2h-3l2-1h1l2 1V4l-2-1-2 1-1 1-1 1-1-1-2-1H5L4 5s-.03.85 0 1h3s.5.16.87.29C6.92 6.5 5 7 5 7L4 8l1 3 1-2 1-1s1 0 2-1c1 0 1.96.98 2 1" style="fill:#b4ef11;fill-rule:evenodd"/><path d="M5 15c0-.62.38-1 1-1 .04 0 0-.89 1-1 .65-.07 1.08-.22 2 0 2.92 0 3.62.04 3.9.94C14 14 14.04 15 14.04 15z" style="fill:#e6bb7e;fill-rule:evenodd"/><circle cx="8.5" cy="6.5" r="1.5" style="fill:#576821;stroke:#101604;stroke-miterlimit:10;stroke-width:.5px"/></svg>