<svg xmlns="http://www.w3.org/2000/svg" xmlns:xlink="http://www.w3.org/1999/xlink" width="16" height="16" data-name="Row 5 &amp;amp; 6"><defs><symbol id="g" data-name="( openFolder_back )" viewBox="0 0 13 11"><path fill="#fff" d="M0 0v11h10.98c.55 0 1-.45 1-1V6c.55 0 1-.45 1-1V1c.01-.75-.39-.99-.99-1z" data-name="folder"/></symbol><symbol id="c" data-name="( openFolder_backShadows )" viewBox="0 0 13 11"><path d="M0 0v11h11c.55 0 1-.45 1-1V6c.55 0 1-.45 1-1V1c0-.75-.41-.99-1-1z" data-name="folder_shadow" opacity=".3" style="isolation:isolate"/></symbol><symbol id="h" data-name="( openFolder_flap )" viewBox="0 0 7 16"><path fill="#fff" d="M7 2.95c0-.6-.37-1.14-.93-1.36L0 0v14l6 2c1 0 1-1 1-1z" data-name="flap"/></symbol><symbol id="d" data-name="( openFolder_flapShadow )" viewBox="0 0 7.91 11"><g><path d="M0 1.31V11h7.91V3.39C7.91.51 5.89.63 3.81.63S0 1.31 0 1.31" opacity=".6"/><path d="M0 0h7.91v11H0z" opacity="0"/></g></symbol><symbol id="i" data-name="-folder-back-blue" viewBox="0 0 13.02 11"><g><g mask="url(#a)"><path fill="#40a0ff" d="M.02 0h13v11h-13z"/></g><use xlink:href="#c" width="13" height="11"/><use xlink:href="#d" width="7.91" height="11" transform="translate(.02)"/></g></symbol><symbol id="k" data-name="-folder-flap-blue" viewBox="0 0 7 16"><g mask="url(#e)"><path fill="#40a0ff" d="M0 0h7v16H0z"/></g></symbol><mask id="a" width="13.02" height="11" x="0" y="0" data-name="mask" maskUnits="userSpaceOnUse"><use xlink:href="#g" width="13" height="11" transform="translate(.02)"/></mask><mask id="e" width="7" height="16" x="0" y="0" data-name="mask-1" maskUnits="userSpaceOnUse"><use xlink:href="#h" width="7" height="16"/></mask><linearGradient id="j" x1="45.96" x2="48.7" y1="-131.46" y2="-131.46" gradientTransform="matrix(3.78 0 0 -3.78 -173.72 -489.87)" gradientUnits="userSpaceOnUse"><stop offset=".69"/><stop offset="1" stop-opacity="0"/></linearGradient></defs><g data-name="Layer 8 copy 29"><use xlink:href="#i" width="13.02" height="11"/><g data-name="icon"><rect width="11" height="12" x="5" y="2" rx="1.49" ry="1.49"/><path fill="#f29b00" d="M6 7v5c0 .55.45 1 1 1h7c.55 0 1-.45 1-1V7c0-.55-.45-1-1-1H7c-.55 0-1 .45-1 1"/><rect width="9" height="2" x="6" y="3" fill="#efe39a" rx="1" ry="1"/><path fill="red" d="m8 10 1 1V5c0-.55-.45-1-1-1s-1 .45-1 1v6z"/></g><path fill="url(#j)" d="m0 0 1 2h10v12H0z" data-name="icon_shadow"/><use xlink:href="#k" width="7" height="16"/></g></svg>