<svg xmlns="http://www.w3.org/2000/svg" xmlns:xlink="http://www.w3.org/1999/xlink" width="16" height="16"><defs><symbol id="a" viewBox="0 0 13 11"><path d="M0 0v11h10.98c.55 0 1-.45 1-1V6c.55 0 1-.45 1-1V1c.01-.75-.39-.99-.99-1z" style="fill:#fff"/></symbol><symbol id="c" viewBox="0 0 13 11"><path d="M0 0v11h11c.55 0 1-.45 1-1V6c.55 0 1-.45 1-1V1c0-.75-.41-.99-1-1z" style="isolation:isolate;opacity:.3"/></symbol><symbol id="e" viewBox="0 0 7 16"><path d="M7 2.95c0-.6-.37-1.14-.93-1.36L0 0v14l6 2c1 0 1-1 1-1z" style="fill:#fff"/></symbol><symbol id="d" viewBox="0 0 7.91 11"><path d="M0 1.31V11h7.91V3.39C7.91.51 5.89.63 3.81.63S0 1.31 0 1.31" style="opacity:.6"/><path d="M0 0h7.91v11H0z" style="opacity:0"/></symbol><symbol id="g" viewBox="0 0 13.02 11"><g style="mask:url(#b)"><path d="M.02 0h13v11h-13z" style="fill:#ff2020"/></g><use xlink:href="#c" width="13" height="11"/><use xlink:href="#d" width="7.91" height="11" transform="translate(.02)"/></symbol><symbol id="i" viewBox="0 0 7 16"><g style="mask:url(#f)"><path d="M0 0h7v16H0z" style="fill:#ff2020"/></g></symbol><mask id="b" width="13.02" height="11" x="0" y="0" maskUnits="userSpaceOnUse"><use xlink:href="#a" width="13" height="11" transform="translate(.02)"/></mask><mask id="f" width="7" height="16" x="0" y="0" maskUnits="userSpaceOnUse"><use xlink:href="#e" width="7" height="16"/></mask><linearGradient id="h" x1="-42.29" x2="-39.55" y1="-131.46" y2="-131.46" gradientTransform="matrix(3.78 0 0 -3.78 159.82 -489.87)" gradientUnits="userSpaceOnUse"><stop offset=".69"/><stop offset="1" stop-opacity="0"/></linearGradient></defs><use xlink:href="#g" width="13.02" height="11"/><path d="M13 14c-1.39 0-2.57-.96-2.9-2.24l-1.22-.42c-.53.43-1.18.66-1.87.66-1.65 0-3-1.35-3-3a3.01 3.01 0 0 1 3.94-2.85l1.2-1.25c-.09-.29-.14-.59-.14-.9 0-1.65 1.35-3 3-3s3 1.35 3 3-1.35 3-3 3c-.24 0-.48-.03-.71-.09L9.99 8.28l1.14.39A2.98 2.98 0 0 1 13.01 8c1.62 0 2.85 1.29 2.85 3s-1.22 3-2.85 3Z" style="fill-rule:evenodd"/><path d="M13 9c-.66 0-1.24.33-1.61.82L9 9c0-.33-.09-.63-.22-.9l2.25-2.36c.29.16.62.26.97.26 1.1 0 2-.9 2-2s-.9-2-2-2-2 .9-2 2c0 .41.12.78.33 1.1L8.16 7.38c-.33-.23-.72-.37-1.16-.37-1.1 0-2 .9-2 2s.9 2 2 2c.66 0 1.24-.32 1.6-.81l2.4.82c0 1.1.9 1.99 2 1.99s2-.9 2-2-.9-2-2-2Z" style="fill:#fff;fill-rule:evenodd"/><path d="m0 0 1 2 4.31 4.44 2.37.15 1.61-1.27.88-3.31h.82v12l-.14-2.57-2.13-.68-3.24 1.76-.36 1.5H0z" style="fill:url(#h)"/><use xlink:href="#i" width="7" height="16"/></svg>