<svg xmlns="http://www.w3.org/2000/svg" xmlns:xlink="http://www.w3.org/1999/xlink" width="16" height="16"><defs><symbol id="b" viewBox="0 0 13 10"><path d="M5 0H1C.45 0 0 .45 0 1v8c0 .55.45 1 1 1h11c.55 0 1-.45 1-1V2c0-.55-.45-1-1-1H6c0-.55-.45-1-1-1" style="fill:#fff"/></symbol><symbol id="d" viewBox="0 0 6 2"><path d="M0 1v1h5c.55 0 1-.45 1-1s-.45-1-1-1H1C.45 0 0 .45 0 1" style="fill:url(#a);isolation:isolate;opacity:.72"/></symbol><symbol id="e" viewBox="0 0 13 10"><g style="mask:url(#c)"><path d="M0 0h13v10H0z" style="fill:#ff13c0"/></g><use xlink:href="#d" width="6" height="2"/></symbol><linearGradient id="a" x1="-7226.14" x2="-7226.14" y1="23619.99" y2="23623.99" gradientTransform="matrix(.5 0 0 -.5 3616.07 11811.99)" gradientUnits="userSpaceOnUse"><stop offset="0"/><stop offset="1" stop-opacity=".15"/></linearGradient><mask id="c" width="13" height="10" x="0" y="0" maskUnits="userSpaceOnUse"><use xlink:href="#b" width="13" height="10"/></mask></defs><use xlink:href="#e" width="13" height="10"/><path d="M3 16V7h1.62C5.09 6.61 6 6 7 6h5c1 0 1.91.62 2.38 1.01H16V16z"/><path d="M10 8.01H9L7 7C6 7 5 8 5 8H4v8h11V8h-1s-2-2.01-4 0Zm0 7H9l-1-.49s-1-.51-2 .49H5V9.02h1c.63-.33 2.34-.27 3 0l.05 4.01.95 1V9.02c.66-.26 1.36-.81 2-.49l1 .5h1v6h-1c-1-1.01-2.02-.54-2.02-.54l-.98.54Z"/><circle cx="9.5" cy="4.5" r="2.5"/><circle cx="9.5" cy="5.5" r="1.5"/><path d="M10 8.01H9c-2-2.01-4 0-4 0H4v7h11V8.02h-1s-2-2.01-4 0Zm0 6H9s-2-2-4 0V9.02s2-2.01 4 0l.05 3.01.95 1V9.02c2-2 4 0 4 0v5c-2-2.01-4 0-4 0Z" style="fill:#fff"/><circle cx="9.5" cy="4.5" r="1.5" style="fill:#fff"/></svg>