<svg xmlns="http://www.w3.org/2000/svg" xmlns:xlink="http://www.w3.org/1999/xlink" width="16" height="16"><defs><symbol id="b" viewBox="0 0 13 10"><path d="M5 0H1C.45 0 0 .45 0 1v8c0 .55.45 1 1 1h11c.55 0 1-.45 1-1V2c0-.55-.45-1-1-1H6c0-.55-.45-1-1-1" style="fill:#fff"/></symbol><symbol id="d" viewBox="0 0 6 2"><path d="M0 1v1h5c.55 0 1-.45 1-1s-.45-1-1-1H1C.45 0 0 .45 0 1" style="fill:url(#a);isolation:isolate;opacity:.72"/></symbol><symbol id="e" viewBox="0 0 13 10"><g style="mask:url(#c)"><path d="M0 0h13v10H0z" style="fill:#a040ff"/></g><use xlink:href="#d" width="6" height="2"/></symbol><linearGradient id="a" x1="-7226.14" x2="-7226.14" y1="23619.99" y2="23623.99" gradientTransform="matrix(.5 0 0 -.5 3616.07 11811.99)" gradientUnits="userSpaceOnUse"><stop offset="0"/><stop offset="1" stop-opacity=".15"/></linearGradient><mask id="c" width="13" height="10" x="0" y="0" maskUnits="userSpaceOnUse"><use xlink:href="#b" width="13" height="10"/></mask></defs><use xlink:href="#e" width="13" height="10"/><path d="M13 3H6c-1.86.04-2 2-2 2v7H1.92s0 4 3 4H12c1.86-.05 2-2.01 2-2.01v-7h2s0-4-3-4Z" style="fill-rule:evenodd"/><path d="M14 4c1 0 1 2 1 2h-3V4z" style="fill:#b29f79;fill-rule:evenodd"/><path d="M7 4c-1.1 0-2 .9-2 2v7H2.91s0 2 2 2H11c1.1 0 2-.9 2-2V6c-.01-1.33.32-2 1-2z" style="fill:#ffe9a3;fill-rule:evenodd"/><path d="M11.04 12H3v1h7.05s0 .99 1 .99c0 0 1 0 1-1-1 0-1-1-1-1Z" style="fill-rule:evenodd"/></svg>