<svg xmlns="http://www.w3.org/2000/svg" xmlns:xlink="http://www.w3.org/1999/xlink" width="16" height="16"><defs><symbol id="a" viewBox="0 0 13 11"><path d="M0 0v11h10.98c.55 0 1-.45 1-1V6c.55 0 1-.45 1-1V1c.01-.75-.39-.99-.99-1z" style="fill:#fff"/></symbol><symbol id="c" viewBox="0 0 13 11"><path d="M0 0v11h11c.55 0 1-.45 1-1V6c.55 0 1-.45 1-1V1c0-.75-.41-.99-1-1z" style="isolation:isolate;opacity:.3"/></symbol><symbol id="e" viewBox="0 0 7 16"><path d="M7 2.95c0-.6-.37-1.14-.93-1.36L0 0v14l6 2c1 0 1-1 1-1z" style="fill:#fff"/></symbol><symbol id="d" viewBox="0 0 7.91 11"><path d="M0 1.31V11h7.91V3.39C7.91.51 5.89.63 3.81.63S0 1.31 0 1.31" style="opacity:.6"/><path d="M0 0h7.91v11H0z" style="opacity:0"/></symbol><symbol id="g" viewBox="0 0 13.02 11"><g style="mask:url(#b)"><path d="M.02 0h13v11h-13z" style="fill:#ff2020"/></g><use xlink:href="#c" width="13" height="11"/><use xlink:href="#d" width="7.91" height="11" transform="translate(.02)"/></symbol><symbol id="i" viewBox="0 0 7 16"><g style="mask:url(#f)"><path d="M0 0h7v16H0z" style="fill:#ff2020"/></g></symbol><mask id="b" width="13.02" height="11" x="0" y="0" maskUnits="userSpaceOnUse"><use xlink:href="#a" width="13" height="11" transform="translate(.02)"/></mask><mask id="f" width="7" height="16" x="0" y="0" maskUnits="userSpaceOnUse"><use xlink:href="#e" width="7" height="16"/></mask><linearGradient id="h" x1="1.84" x2="4.55" y1="-131.46" y2="-131.46" gradientTransform="matrix(3.78 0 0 -3.78 -6.95 -489.87)" gradientUnits="userSpaceOnUse"><stop offset=".69"/><stop offset="1" stop-opacity="0"/></linearGradient></defs><use xlink:href="#g" width="13.02" height="11"/><path d="M7.52 12.89c-.6 0-1.15-.11-1.64-.33a3.5 3.5 0 0 1-1.29-.99c-.34-.41-.59-.92-.76-1.49a6.4 6.4 0 0 1-.24-1.83V6.77c0-.68.08-1.3.25-1.84.17-.58.43-1.08.77-1.49.36-.43.8-.77 1.31-.99.49-.21 1.04-.32 1.64-.32.78 0 1.46.16 2.02.47.58.33 1.04.81 1.35 1.43.28.56.45 1.24.5 2.01l.07 1.06H7.91l-.04-.96c-.02-.41-.07-.61-.1-.69-.03 0-.1-.02-.21-.02-.12 0-.18.02-.19.03-.06.09-.11.2-.16.43-.04.23-.07.52-.07.87v1.49q0 .51.06.87c.04.24.09.36.12.42.01.03.06.05.19.05.22 0 .3-.04.3-.04-.04-.03.02-.22.04-.64l.04-.95h3.56L11.41 9c-.03.77-.2 1.45-.5 2.02-.32.61-.79 1.09-1.39 1.41-.57.3-1.25.46-2.02.46Zm.26-7.45"/><path d="M8.86 8.96h1.56c-.03.63-.16 1.16-.38 1.6s-.55.77-.98.99-.94.34-1.54.34c-.46 0-.87-.08-1.24-.24s-.67-.4-.92-.71-.44-.69-.57-1.14-.2-.97-.2-1.55V6.77c0-.58.07-1.1.21-1.55s.33-.84.59-1.15.57-.55.93-.71.78-.24 1.24-.24c.61 0 1.12.12 1.53.35s.73.57.95 1.01q.33.66.39 1.62H8.87q-.03-.615-.15-.99c-.12-.375-.22-.42-.4-.52s-.43-.16-.75-.16c-.25 0-.46.04-.64.13s-.33.23-.44.42-.2.43-.25.72-.08.64-.08 1.05v1.49c0 .39.02.74.07 1.03s.12.54.23.73.24.34.42.43.39.14.66.14c.32 0 .57-.05.76-.14s.33-.26.42-.5.15-.57.17-.99Z"/><path d="M10.2 10V8.79H9V6.2h1.2V5h2.6v1.21H14V8.8h-1.2V10z" style="opacity:1"/><path d="M12.2 10V8.79H11V6.2h1.2V5h2.6v1.21H16V8.8h-1.2V10z" style="opacity:1"/><path d="M8.86 8.96h1.56c-.03.63-.16 1.16-.38 1.6s-.55.77-.98.99-.94.34-1.54.34c-.46 0-.87-.08-1.24-.24s-.67-.4-.92-.71-.44-.69-.57-1.14-.2-.97-.2-1.55V6.77c0-.58.07-1.1.21-1.55s.33-.84.59-1.15.57-.55.93-.71.78-.24 1.24-.24c.61 0 1.12.12 1.53.35s.73.57.95 1.01q.33.66.39 1.62H8.87q-.03-.615-.15-.99c-.12-.375-.22-.42-.4-.52s-.43-.16-.75-.16c-.25 0-.46.04-.64.13s-.33.23-.44.42-.2.43-.25.72-.08.64-.08 1.05v1.49c0 .39.02.74.07 1.03s.12.54.23.73.24.34.42.43.39.14.66.14c.32 0 .57-.05.76-.14s.33-.26.42-.5.15-.57.17-.99Z" style="fill:#0ff"/><path d="M13 7.21v.59h-3v-.6h3ZM11.8 6v3h-.6V6z" style="fill:#0ff"/><path d="M15 7.21v.59h-3v-.6h3ZM13.8 6v3h-.6V6z" style="fill:#0ff"/><path d="m0 0 1 2h5.73l1.04.55 3.13 1.71v6.38l-4.07 2.13-5.84 1.22H0z" style="fill:url(#h)"/><use xlink:href="#i" width="7" height="16"/></svg>