<svg xmlns="http://www.w3.org/2000/svg" xmlns:xlink="http://www.w3.org/1999/xlink" width="16" height="16"><defs><symbol id="b" viewBox="0 0 13 10"><path d="M5 0H1C.45 0 0 .45 0 1v8c0 .55.45 1 1 1h11c.55 0 1-.45 1-1V2c0-.55-.45-1-1-1H6c0-.55-.45-1-1-1" style="fill:#fff"/></symbol><symbol id="d" viewBox="0 0 6 2"><path d="M0 1v1h5c.55 0 1-.45 1-1s-.45-1-1-1H1C.45 0 0 .45 0 1" style="fill:url(#a);isolation:isolate;opacity:.72"/></symbol><symbol id="e" viewBox="0 0 13 10"><g style="mask:url(#c)"><path d="M0 0h13v10H0z" style="fill:#ff13c0"/></g><use xlink:href="#d" width="6" height="2"/></symbol><linearGradient id="a" x1="-7226.14" x2="-7226.14" y1="23619.99" y2="23623.99" gradientTransform="matrix(.5 0 0 -.5 3616.07 11811.99)" gradientUnits="userSpaceOnUse"><stop offset="0"/><stop offset="1" stop-opacity=".15"/></linearGradient><mask id="c" width="13" height="10" x="0" y="0" maskUnits="userSpaceOnUse"><use xlink:href="#b" width="13" height="10"/></mask></defs><use xlink:href="#e" width="13" height="10"/><path d="M14 6h-1v-.06C13 5.06 13 3 10 3H9C6.8 3 6 4.79 6 6c-1.21 0-3 .8-3 3v1c0 2.97 1.92 3 2 3h1v.06C6 13.94 6 16 9 16h1c3 0 3-2.03 3-3 1.21 0 3-.8 3-3V9c0-1.38-.52-3-2-3"/><path d="M13 7v.77C13 8.98 11.96 10 10.77 10H8.76c-.96 0-1.75.82-1.75 1.79v1.27c0 .95 0 1.94 2 1.94h1c2 0 2-.98 2-2h-1v1h-1v-2h3s2 0 2-2V9s0-2-1-2h-1Z" style="fill:#f6c20a"/><path d="M6 12v-.77C6 10.02 7.04 9 8.23 9h2.01c.96 0 1.75-.82 1.75-1.79V5.94c0-.95 0-1.94-2-1.94h-1c-2 0-2 2-2 2h1V5h1v2h-3s-2 0-2 2v1c0 2 1 2 1 2h1Z" style="fill:#06b7ff"/></svg>