<svg xmlns="http://www.w3.org/2000/svg" xmlns:xlink="http://www.w3.org/1999/xlink" width="16" height="16" data-name="Layer 177"><defs><symbol id="f" data-name="( openFolder_back )" viewBox="0 0 13 11"><path fill="#fff" d="M0 0v11h10.98c.55 0 1-.45 1-1V6c.55 0 1-.45 1-1V1c.01-.75-.39-.99-.99-1z" data-name="folder"/></symbol><symbol id="b" data-name="( openFolder_backShadows )" viewBox="0 0 13 11"><path d="M0 0v11h11c.55 0 1-.45 1-1V6c.55 0 1-.45 1-1V1c0-.75-.41-.99-1-1z" data-name="folder_shadow" opacity=".3" style="isolation:isolate"/></symbol><symbol id="h" data-name="( openFolder_flap )" viewBox="0 0 7 16"><path fill="#fff" d="M7 2.95c0-.6-.37-1.14-.93-1.36L0 0v14l6 2c1 0 1-1 1-1z" data-name="flap"/></symbol><symbol id="d" data-name="( openFolder_flapShadow )" viewBox="0 0 7.91 11"><g><path d="M0 1.31V11h7.91V3.39C7.91.51 5.89.63 3.81.63S0 1.31 0 1.31" opacity=".6"/><path d="M0 0h7.91v11H0z" opacity="0"/></g></symbol><symbol id="i" data-name="-folder-back-purple" viewBox="0 0 13.02 11"><g><g mask="url(#a)"><path fill="#a040ff" d="M.02 0h13v11h-13z"/></g><use xlink:href="#b" width="13" height="11"/><use xlink:href="#d" width="7.91" height="11" transform="translate(.02)"/></g></symbol><symbol id="l" data-name="-folder-flap-purple" viewBox="0 0 7 16"><g mask="url(#e)"><path fill="#a040ff" d="M0 0h7v16H0z"/></g></symbol><linearGradient id="j" x1="-13.37" x2="-18.66" y1="165.77" y2="171.07" gradientTransform="translate(26 -160)" gradientUnits="userSpaceOnUse"><stop offset="0" stop-color="#06b7ff"/><stop offset="1" stop-color="red"/></linearGradient><linearGradient id="k" x1="-27.58" x2="-24.84" y1="-232.63" y2="-232.63" gradientTransform="matrix(3.78 0 0 -3.78 104.23 -872.23)" gradientUnits="userSpaceOnUse"><stop offset=".69"/><stop offset="1" stop-opacity="0"/></linearGradient><mask id="a" width="13.02" height="11" x="0" y="0" data-name="mask" maskUnits="userSpaceOnUse"><use xlink:href="#f" width="13" height="11" transform="translate(.02)"/></mask><mask id="e" width="7" height="16" x="0" y="0" data-name="mask-1" maskUnits="userSpaceOnUse"><use xlink:href="#h" width="7" height="16"/></mask></defs><use xlink:href="#i" width="13.02" height="11"/><g><g><path fill="none" d="M3.14 8.84c-.05-.26-.09-.52-.11-.79.02.27.05.53.11.79M8.7 3.2V1.27h1c1.94 0 3.68.88 4.84 2.26A6.37 6.37 0 0 0 9.6 1.19c-3.33 0-6.23 2.54-6.56 5.78h1.88A4.444 4.444 0 0 1 8.7 3.19ZM3.32 9.53s-.02-.08-.04-.12c.01.04.02.08.04.12m6.38 4.4h-.82c-.27-.02-.53-.06-.79-.11.49.11.99.18 1.5.18 1.99 0 3.77-.91 4.94-2.34a6.31 6.31 0 0 1-4.84 2.26Z"/><path d="M9.7 13.93c1.94 0 3.68-.88 4.84-2.26a6.38 6.38 0 0 0 0-8.12A6.31 6.31 0 0 0 9.7 1.29h-1v1.93A4.434 4.434 0 0 0 4.92 7H3.04c-.02.2-.03.41-.03.62 0 .15.01.3.02.44.01.27.06.53.11.79.04.19.09.39.15.57.01.04.02.08.04.12.71 2.12 2.56 3.76 4.77 4.29.26.05.52.09.79.11h.82Z"/></g><path fill="#f5f5f5" d="M9.32 4.14a3.461 3.461 0 0 0 0 6.92 3.461 3.461 0 0 0 0-6.92m0 5.25c-.99 0-1.79-.8-1.79-1.79s.8-1.79 1.79-1.79 1.79.8 1.79 1.79-.8 1.79-1.79 1.79"/><path fill="url(#j)" fill-rule="evenodd" d="M9.7 3.57v-1.3c2.94 0 5.33 2.39 5.33 5.33s-2.39 5.33-5.33 5.33v-1.29a4.05 4.05 0 0 0 3.73-4.33A4.044 4.044 0 0 0 9.7 3.58Zm-3.47 6.69c-.55-.64-.89-1.44-.95-2.28H4.03c.06 1.18.53 2.29 1.31 3.17zm2.71 2.66v-1.29c-.87-.07-1.7-.41-2.36-.99l-.91.91c.9.82 2.05 1.3 3.27 1.37"/></g><path fill="url(#k)" d="m0 0 1 2 4.1 2.19 3.7-.71.8-1.49H11v11.63l-1.15.03-3.54-.43-5.31.77H0z" data-name="icon_shadow"/><use xlink:href="#l" width="7" height="16"/></svg>