<svg xmlns="http://www.w3.org/2000/svg" xmlns:xlink="http://www.w3.org/1999/xlink" width="16" height="16" data-name="Layer 178"><defs><symbol id="e" data-name="( closedFolder )" viewBox="0 0 13 10"><path fill="#fff" d="M5 0H1C.45 0 0 .45 0 1v8c0 .55.45 1 1 1h11c.55 0 1-.45 1-1V2c0-.55-.45-1-1-1H6c0-.55-.45-1-1-1" data-name="folder"/></symbol><symbol id="d" data-name="( closedFolder_tab )" viewBox="0 0 6 2"><path fill="url(#a)" d="M0 1v1h5c.55 0 1-.45 1-1s-.45-1-1-1H1C.45 0 0 .45 0 1" data-name="tab" opacity=".72" style="isolation:isolate"/></symbol><symbol id="f" data-name="-folder-closed-purple" viewBox="0 0 13 10"><g><g mask="url(#b)"><path fill="#a040ff" d="M0 0h13v10H0z"/></g><use xlink:href="#d" width="6" height="2"/></g></symbol><linearGradient id="a" x1="-7226.14" x2="-7226.14" y1="23619.99" y2="23623.99" gradientTransform="matrix(.5 0 0 -.5 3616.07 11811.99)" gradientUnits="userSpaceOnUse"><stop offset="0"/><stop offset="1" stop-opacity=".15"/></linearGradient><mask id="b" width="13" height="10" x="0" y="0" data-name="mask" maskUnits="userSpaceOnUse"><use xlink:href="#e" width="13" height="10"/></mask></defs><use xlink:href="#f" width="13" height="10"/><g><path d="M2 13.72V5.28l7-2.33 7 2.33v8.44l-7 2.33z"/><path fill="#e6a475" d="M15 6 9 8 3 6l6-2z"/><path fill="#a06841" d="m15 13-6 2V8l6-2z"/><path fill="#c78c61" d="m3 13 6 2V8L3 6z"/><path fill="#ecb354" d="m13 6.67-2 .66v7l2-.66z"/><path fill="#fce8b2" d="m11 7.33-6-2 2.04-.68L13 6.67z"/></g></svg>