<svg xmlns="http://www.w3.org/2000/svg" xmlns:xlink="http://www.w3.org/1999/xlink" width="16" height="16"><defs><symbol id="a" viewBox="0 0 13 11"><path d="M0 0v11h10.98c.55 0 1-.45 1-1V6c.55 0 1-.45 1-1V1c.01-.75-.39-.99-.99-1z" style="fill:#fff"/></symbol><symbol id="c" viewBox="0 0 13 11"><path d="M0 0v11h11c.55 0 1-.45 1-1V6c.55 0 1-.45 1-1V1c0-.75-.41-.99-1-1z" style="isolation:isolate;opacity:.3"/></symbol><symbol id="e" viewBox="0 0 7 16"><path d="M7 2.95c0-.6-.37-1.14-.93-1.36L0 0v14l6 2c1 0 1-1 1-1z" style="fill:#fff"/></symbol><symbol id="d" viewBox="0 0 7.91 11"><path d="M0 1.31V11h7.91V3.39C7.91.51 5.89.63 3.81.63S0 1.31 0 1.31" style="opacity:.6"/><path d="M0 0h7.91v11H0z" style="opacity:0"/></symbol><symbol id="g" viewBox="0 0 13.02 11"><g style="mask:url(#b)"><path d="M.02 0h13v11h-13z" style="fill:#ff13c0"/></g><use xlink:href="#c" width="13" height="11"/><use xlink:href="#d" width="7.91" height="11" transform="translate(.02)"/></symbol><symbol id="i" viewBox="0 0 7 16"><g style="mask:url(#f)"><path d="M0 0h7v16H0z" style="fill:#ff13c0"/></g></symbol><mask id="b" width="13.02" height="11" x="0" y="0" maskUnits="userSpaceOnUse"><use xlink:href="#a" width="13" height="11" transform="translate(.02)"/></mask><mask id="f" width="7" height="16" x="0" y="0" maskUnits="userSpaceOnUse"><use xlink:href="#e" width="7" height="16"/></mask><linearGradient id="h" x1="-42.29" x2="-39.55" y1="-80.88" y2="-80.88" gradientTransform="matrix(3.78 0 0 -3.78 159.82 -298.69)" gradientUnits="userSpaceOnUse"><stop offset=".69"/><stop offset="1" stop-opacity="0"/></linearGradient></defs><use xlink:href="#g" width="13.02" height="11"/><path d="M14.61 2.01C12.74.13 10.83.13 8.95 2l-.06.06-.05.06c-.73 1.01-1.03 1.95-.89 2.85S6.86 6.06 6.86 6.06v-.12c-.79-.03-1.66.24-2.68.84l-.11.06-.09.09C2.1 8.8 2.1 10.71 3.97 12.59s3.78 1.88 5.66.01l.06-.06.05-.08c.6-.87.89-1.75.89-2.69v-.13l.98-.98h.15c.93 0 1.81-.29 2.67-.87l.08-.05.07-.07c1.88-1.87 1.88-3.78.01-5.66Zm-2.83 2.82"/><path d="M12.49 4.12c-.71-.71-2.12-.71-3.54.7-.09-.58.08-1.25.71-2.12 1.57-1.56 2.83-1.41 4.24 0s1.56 2.68 0 4.24c-.78.52-1.47.7-2.12.7 1.42-1.41 1.42-2.83.71-3.53Z" style="fill:#e8eaed"/><rect width="5" height="2" x="6.8" y="6.3" rx=".5" ry=".5" style="fill:#e8eaed" transform="rotate(-44.89 9.298 7.298)"/><path d="M6.11 10.48c-.71-.71-.7-2.12.71-3.53-.55-.02-1.23.17-2.12.7-1.57 1.56-1.42 2.83 0 4.24s2.68 1.57 4.24 0c.52-.76.71-1.46.71-2.12-1.42 1.41-2.83 1.41-3.54.7Z" style="fill:#e8eaed"/><path d="m0 0 1 2 4.5 5.66 2.43-1.29 1.08-3.54L11 2v12l-.1-3.94-2.24 2.86L4.54 14H0z" style="fill:url(#h)"/><use xlink:href="#i" width="7" height="16"/></svg>