<?xml version="1.0" encoding="UTF-8"?><svg id="Layer_8_copy" xmlns="http://www.w3.org/2000/svg" width="24" height="24" viewBox="13 8 24 24"><path d="m26.67,9.5c2.94,0,5.34,2.26,5.34,5.04v4.39h1.94c.08.03.17.09.28.26.35.5.6,1.51.39,2.66-.32,1.73-1.17,2.68-1.63,2.68-.02,0-.04,0-.06,0l-.13-.02h-.98s-.45.62-.45.62c-1.63,2.24-4.7,5.38-6.42,5.38-2.7,0-5.07-2.22-6.2-5.81l-.33-1.05h-1.72l-.37.24s-.02.01-.03.02c-.2-.13-.7-.76-.94-2.02-.21-1.22.06-2.14.37-2.59.12-.18.19-.19.28-.21h.03s1.81.65,1.81.65v-7.14c0-1.23,1.07-2.24,2.4-2.24.38,0,.74.07.98.19l.78.38.72-.49c.88-.6,1.97-.93,3.05-.93h.87m0-1.5h-.87c-1.39,0-2.77.42-3.9,1.19-.52-.25-1.13-.34-1.65-.34-2.16,0-3.9,1.7-3.9,3.74v5.01s-.15-.04-.32-.04c-.09,0-.18,0-.27.04-.51.09-.94.34-1.29.86-.6.86-.86,2.23-.6,3.69.34,1.86,1.29,3.27,2.41,3.27.27,0,.56-.09.85-.27h.17c1.37,4.37,4.37,6.86,7.63,6.86s7.63-6,7.63-6h0,.08c.11.02.21.03.32.03,1.41,0,2.69-1.64,3.11-3.91.27-1.44,0-2.89-.63-3.79-.36-.54-.81-.81-1.35-.9h-.6v-2.89c0-3.57-3.03-6.54-6.84-6.54h0Z" style="fill:#d7dae0;"/><path d="m25.2,14.87c1.56,0,2.79,1.22,2.79,2.79,0,1.13-.74,1.91-1.17,2.28l-.54.45v1.77h-.03l-.45.51c-.31.35-.51.43-.56.43-.07,0-.31-.1-.66-.47l-.44-.46v-1.82l-.6-.45c-1.06-.79-1.57-2.44-.59-3.81.51-.72,1.35-1.18,2.18-1.2h.08m0-1.5s-.08,0-.12,0c-1.33.03-2.59.74-3.36,1.83-1.5,2.11-.73,4.65.91,5.88v1.71c0,.47.38.86.86.86.59.62,1.17.93,1.75.93s1.13-.31,1.68-.93c.47,0,.86-.38.86-.86v-1.71c1.03-.86,1.71-2.06,1.71-3.43,0-2.4-1.89-4.29-4.29-4.29h0Z" style="fill:#d7dae0;"/></svg>