<?xml version="1.0" encoding="UTF-8"?><svg id="Layer_2" xmlns="http://www.w3.org/2000/svg" width="23.5" height="23.5" viewBox="0 0 23.5 23.5"><g id="Layer_1-2"><path d="m23.13,16.82c-.63-2.6-3.53-4.16-6.46-3.48-.25.06-.5.14-.74.23-2.16-4.67,1.28-12.21,1.32-12.3.09-.19,0-.42-.19-.51-.2-.09-.43,0-.52.19-.03.06-.15.33-.32.74-.7-.18-1.45-.15-2.18,0-.68-.88-1.69-1.16-2.09-1.27-1.8-.48-3.49.23-4.33.69-.62.34-1.06.71-1.45,1.04-.58.49-1,.85-1.74.88-.23.01-.43-.01-.59-.03-.26-.03-.61-.07-.75.26-.04.09-.07.23,0,.41.27.62,2.17,1.79,3.92,2.41.56.2,1.65.59,2.84.78-1.81,2.1-2.98,4.72-3.68,6.7-2.7-.32-5.22,1.19-5.8,3.59-.63,2.6,1.25,5.26,4.19,5.94.46.11.93.16,1.39.16.95,0,1.87-.22,2.69-.66,1.23-.66,2.08-1.72,2.38-2.98.31-1.27.03-2.58-.77-3.71-.77-1.08-1.94-1.85-3.3-2.2.73-2.04,1.96-4.73,3.84-6.74.1,0,.21,0,.31,0,1.03,0,2.03-.25,2.71-.99.39-.42.64-.97.77-1.55.25-.08.49-.15.74-.2-.82,2.75-1.52,6.68-.13,9.66-.78.41-1.45.98-1.95,1.69-.8,1.13-1.07,2.44-.77,3.71.31,1.27,1.15,2.32,2.38,2.98.82.44,1.74.66,2.69.66.46,0,.93-.05,1.39-.16,2.94-.68,4.82-3.34,4.19-5.94Zm-13.52-.48c.67.94.9,2.04.65,3.09-.25,1.05-.96,1.93-1.99,2.48-1.05.56-2.3.71-3.52.43-2.52-.58-4.13-2.83-3.61-5.02.44-1.83,2.26-3.05,4.31-3.05.16,0,.31.01.47.03-.25.78-.42,1.41-.51,1.79-.39-.16-.66-.41-.68-.44-.15-.15-.4-.15-.55,0-.15.15-.15.39,0,.54.29.28.81.62,1.42.75,0,0,.02,0,.03.01.02,0,.04,0,.06,0,.13.02.26.04.39.04.42,0,.87-.12,1.31-.44.17-.13.21-.37.08-.54-.13-.17-.37-.2-.55-.08-.25.18-.49.26-.73.28.1-.39.27-1.02.53-1.8,1.2.29,2.23.97,2.9,1.91Zm3.64-10.88c-.94,1.01-2.95.98-5.97-.1-1.27-.45-2.38-1.11-2.99-1.56.06,0,.12,0,.18,0,1.01-.05,1.59-.55,2.21-1.07.38-.32.77-.65,1.32-.96.6-.33,2.16-1.05,3.74-.62.28.08.94.26,1.45.74-1.59.49-2.9,1.34-2.99,1.4-.18.12-.23.36-.1.53.08.11.2.17.32.17.08,0,.15-.02.22-.07.02-.01,1.43-.93,3.02-1.37.42.92.25,2.18-.42,2.91Zm1.43-1.86c0-.42-.07-.84-.22-1.22.51-.08,1.02-.08,1.5.02-.11.3-.23.63-.35.99-.31.05-.62.11-.92.2Zm4.09,18.41c-1.23.28-2.48.13-3.52-.43-1.03-.55-1.74-1.43-1.99-2.48-.25-1.05-.02-2.15.65-3.09.43-.6,1-1.09,1.67-1.45.22.36.48.69.77,1.01-.07.02-.14.06-.19.13-.13.17-.09.41.08.54.44.32.88.44,1.31.44.06,0,.12,0,.18-.01.03,0,.06.01.1.01.07,0,.14-.02.2-.06.61-.13,1.13-.47,1.42-.75.15-.15.15-.39,0-.54-.15-.15-.4-.15-.55,0-.03.03-.44.42-1,.54-.67-.45-1.19-1-1.58-1.62.18-.06.36-.12.55-.16.4-.09.81-.14,1.2-.14,2.06,0,3.87,1.21,4.31,3.05.53,2.19-1.09,4.44-3.61,5.02Z" style="stroke:#000; stroke-miterlimit:10; stroke-width:.5px;"/></g></svg>