<svg xmlns="http://www.w3.org/2000/svg" width="16" height="16"><defs><clipPath id="a"><path d="M-1 7h3V2h7l3 5h5v-8H-1" style="fill:none"/></clipPath></defs><g style="clip-path:url(#a)"><path d="M15 1v14H1V1zm0-1H1C.45 0 0 .45 0 1v14c0 .55.45 1 1 1h14c.55 0 1-.45 1-1V1c0-.55-.45-1-1-1" style="fill:#0f0"/></g><path d="m3.04 10.36-1.48 5.39H.31l2.04-6.4h.78zm1.21 3.01v.98H1.28v-.98h2.96Zm-.04 2.38-1.48-5.39-.1-1.01h.79l2.05 6.4zM6.76 9.35v6.4H5.57v-6.4zm2.37 2.63v.98H6.44v-.98zm.89-2.63v6.4H8.84v-6.4zM12.58 9.35v6.4h-1.19v-6.4zm3.22 0-2.13 3.13-1.29 1.58-.22-1.2.86-1.34 1.34-2.17zm-1.34 6.4-1.52-2.98.85-.8 2.08 3.78z" style="fill:#0f0"/></svg>