<svg xmlns="http://www.w3.org/2000/svg" xmlns:xlink="http://www.w3.org/1999/xlink" width="16" height="16" data-name="Row 8"><defs><symbol id="b" data-name="Gear Mask" viewBox="0 0 11 11"><path d="M11 0H6.5c-.7 0-1.37.11-2 .32L4.1.4l-.47.28q-.45.225-.87.51l-.14.08-.05.06A6.47 6.47 0 0 0 .02 6.99H0V11h11z"/></symbol><symbol id="d" data-name="Gear again" viewBox="0 0 8 8"><g><g><circle cx="4" cy="4" r="3" fill="#fff"/><path fill="#fff" d="m6 4 2-1V2L7 1 5 3V0H3v3L1 1 0 2v1l2 1-2 1v1l1 1 2-2v3h2V5l2 2 1-1V5z"/><path d="M4 2c-1.1 0-2 .9-2 2s.9 2 2 2 2-.9 2-2-.9-2-2-2m0 3c-.55 0-1-.45-1-1s.45-1 1-1 1 .45 1 1-.45 1-1 1"/></g><circle cx="4" cy="4" r="1"/></g></symbol><filter id="a" width="17" height="17" x="0" y="0" color-interpolation-filters="sRGB" filterUnits="userSpaceOnUse"><feFlood flood-color="#fff" result="bg"/><feBlend in="SourceGraphic" in2="bg"/></filter><mask id="c" width="17" height="17" x="0" y="0" data-name="mask-2" maskUnits="userSpaceOnUse"><g filter="url(#a)"><use xlink:href="#b" width="11" height="11" transform="translate(6 6)"/></g></mask></defs><g data-name="Layer 106"><g mask="url(#c)"><g fill="#0ff" fill-rule="evenodd"><path d="M8.76 6c0-2.21-1.79-4-4.26-4S0 3.79 0 6s2.01 4 4.5 4c1.22 0 1.92-.16 2.63-.69 0 0-.59-.49-.7-1.25-.61.64-1.93.48-1.93.48-1.54-.03-2.86-1.14-2.86-2.55S2.92 3.44 4.5 3.44s2.63 1.19 2.63 2.55" data-name="arrow_infinity-[#239]"/><path d="M7.13 6c0 2.21 1.9 4 4.37 4s4.01-1.79 4.01-4c0-2.64-2.37-4.12-2.37-4.12L11.88 3.1s1.73 1.58 1.73 3.3c0 1.4-1.12 2.12-2.11 2.14-1.61.03-2.73-1.19-2.73-2.55" data-name="arrow_infinity-[#239]"/><path d="m15 0-5 5V0z"/></g></g><use xlink:href="#d" width="8" height="8" transform="translate(8 8)"/></g></svg>