<svg xmlns="http://www.w3.org/2000/svg" width="16" height="16"><defs><clipPath id="a"><path d="M-1 7h3V2h7l3 5h5v-8H-1" style="fill:none"/></clipPath></defs><g style="clip-path:url(#a)"><path d="M15 1v14H1V1zm0-1H1C.45 0 0 .45 0 1v14c0 .55.45 1 1 1h14c.55 0 1-.45 1-1V1c0-.55-.45-1-1-1" style="fill:#0cf"/></g><path d="M5.68 13.16v.07c0 .44-.05.82-.15 1.15q-.15.495-.42.81c-.27.315-.39.38-.64.49s-.51.16-.79.16-.55-.05-.79-.16-.46-.27-.64-.49-.33-.49-.43-.81-.15-.71-.15-1.15v-.07c0-.44.05-.82.15-1.15s.24-.6.42-.82.39-.38.64-.49c.24-.11.51-.16.79-.16s.55.05.79.16.46.27.64.49.33.49.43.82.15.71.15 1.15m-1.14.14v-.22c0-.28-.02-.52-.07-.72-.04-.2-.11-.36-.18-.49-.08-.13-.17-.23-.28-.29a.7.7 0 0 0-.97.29c-.08.13-.14.3-.18.49s-.06.44-.06.72v.22c0 .28.02.52.07.72.04.2.11.37.19.5s.17.23.28.29a.69.69 0 0 0 .68 0c.1-.06.2-.16.28-.29s.14-.29.18-.5.06-.44.06-.72M9.15 10.63v5.12H8.01v-3.72l-1.29.5v-.96l2.32-.93h.12ZM14.31 13.16v.07c0 .44-.05.82-.15 1.15q-.15.495-.42.81c-.18.22-.39.38-.64.49s-.51.16-.79.16-.55-.05-.79-.16-.46-.27-.64-.49c-.19-.22-.33-.49-.43-.81s-.15-.71-.15-1.15v-.07c0-.44.05-.82.15-1.15s.24-.6.42-.82.39-.38.64-.49c.24-.11.51-.16.79-.16s.55.05.79.16.46.27.64.49.33.49.43.82.15.71.15 1.15m-1.14.14v-.22c0-.28-.02-.52-.07-.72-.04-.2-.11-.36-.18-.49a.8.8 0 0 0-.28-.29c-.11-.06-.22-.09-.35-.09s-.24.03-.34.09-.2.16-.28.29-.14.3-.18.49q-.06.3-.06.72v.22c0 .28.02.52.07.72.04.2.11.37.19.5s.17.23.28.29c.1.06.22.09.34.09s.24-.03.34-.09c.11-.06.2-.16.28-.29s.14-.29.18-.5.06-.44.06-.72" style="fill:#0cf"/></svg>