<svg xmlns="http://www.w3.org/2000/svg" xmlns:xlink="http://www.w3.org/1999/xlink" width="16" height="16" data-name="Row 9"><defs><symbol id="b" data-name="Gear Mask" viewBox="0 0 11 11"><path d="M11 0H6.5c-.7 0-1.37.11-2 .32L4.1.4l-.47.28q-.45.225-.87.51l-.14.08-.05.06A6.47 6.47 0 0 0 .02 6.99H0V11h11z"/></symbol><symbol id="d" data-name="Gear again" viewBox="0 0 8 8"><g><g><circle cx="4" cy="4" r="3" fill="#fff"/><path fill="#fff" d="m6 4 2-1V2L7 1 5 3V0H3v3L1 1 0 2v1l2 1-2 1v1l1 1 2-2v3h2V5l2 2 1-1V5z"/><path d="M4 2c-1.1 0-2 .9-2 2s.9 2 2 2 2-.9 2-2-.9-2-2-2m0 3c-.55 0-1-.45-1-1s.45-1 1-1 1 .45 1 1-.45 1-1 1"/></g><circle cx="4" cy="4" r="1"/></g></symbol><filter id="a" width="17" height="17" x="0" y="0" color-interpolation-filters="sRGB" filterUnits="userSpaceOnUse"><feFlood flood-color="#fff" result="bg"/><feBlend in="SourceGraphic" in2="bg"/></filter><mask id="c" width="17" height="17" x="0" y="0" data-name="mask-2" maskUnits="userSpaceOnUse"><g filter="url(#a)"><use xlink:href="#b" width="11" height="11" transform="translate(6 6)"/></g></mask></defs><g data-name="Layer 122"><g mask="url(#c)"><g data-name="Layer 121"><path d="M13 11H5l1-2.46V5h7z"/><rect width="5" height="4" x="11" y="9" rx=".5" ry=".5"/><path fill="#ff2020" d="M14.9 10h-2.8c-.06 0-.1.04-.1.1v1.8c0 .06.04.1.1.1h2.8c.06 0 .1-.04.1-.1v-1.8c0-.06-.04-.1-.1-.1"/><rect width="5" height="4" x="1" y="9" rx=".5" ry=".5"/><path fill="#ff2020" d="M4.9 10H2.1c-.06 0-.1.04-.1.1v1.8c0 .06.04.1.1.1h2.8c.06 0 .1-.04.1-.1v-1.8c0-.06-.04-.1-.1-.1"/><rect width="3" height="4" y="6" rx=".5" ry=".5"/><path fill="#ff2020" d="M1.9 7h-.8c-.06 0-.1.04-.1.1v1.8c0 .06.04.1.1.1h.8c.06 0 .1-.04.1-.1V7.1c0-.06-.04-.1-.1-.1"/><rect width="6" height="4" x="3" y="6" rx=".5" ry=".5"/><path fill="#ff2020" d="M7.9 7H4.1c-.06 0-.1.04-.1.1v1.8c0 .06.04.1.1.1h3.8c.06 0 .1-.04.1-.1V7.1c0-.06-.04-.1-.1-.1"/><rect width="6" height="4" x="9" y="6" rx=".5" ry=".5"/><path fill="#ff2020" d="M13.9 7h-3.8c-.06 0-.1.04-.1.1v1.8c0 .06.04.1.1.1h3.8c.06 0 .1-.04.1-.1V7.1c0-.06-.04-.1-.1-.1"/><rect width="6" height="4" x="5" y="3" rx=".5" ry=".5"/><path fill="#ff2020" d="M9.9 4H6.1c-.06 0-.1.04-.1.1v1.8c0 .06.04.1.1.1h3.8c.06 0 .1-.04.1-.1V4.1c0-.06-.04-.1-.1-.1"/><rect width="5" height="4" x="6" y="9" rx=".5" ry=".5"/><path fill="#ff2020" d="M9.9 10H7.1c-.06 0-.1.04-.1.1v1.8c0 .06.04.1.1.1h2.8c.06 0 .1-.04.1-.1v-1.8c0-.06-.04-.1-.1-.1"/><rect width="5" height="4" x="11" y="3" rx=".5" ry=".5"/><path fill="#ff2020" d="M14.9 4h-2.8c-.06 0-.1.04-.1.1v1.8c0 .06.04.1.1.1h2.8c.06 0 .1-.04.1-.1V4.1c0-.06-.04-.1-.1-.1"/><rect width="5" height="4" y="3" rx=".5" ry=".5"/><path fill="#ff2020" d="M3.9 4H1.1c-.06 0-.1.04-.1.1v1.8c0 .06.04.1.1.1h2.8c.06 0 .1-.04.1-.1V4.1c0-.06-.04-.1-.1-.1"/><rect width="6" height="4" x="7" rx=".5" ry=".5"/><path fill="#ff2020" d="M11.9 1H8.1c-.06 0-.1.04-.1.1v1.8c0 .06.04.1.1.1h3.8c.06 0 .1-.04.1-.1V1.1c0-.06-.04-.1-.1-.1"/><rect width="6" height="4" x="1" rx=".5" ry=".5"/><path fill="#ff2020" d="M5.9 1H2.1c-.06 0-.1.04-.1.1v1.8c0 .06.04.1.1.1h3.8c.06 0 .1-.04.1-.1V1.1c0-.06-.04-.1-.1-.1"/><rect width="3" height="4" x="13" rx=".5" ry=".5"/><path fill="#ff2020" d="M14.9 1h-.8c-.06 0-.1.04-.1.1v1.8c0 .06.04.1.1.1h.8c.06 0 .1-.04.1-.1V1.1c0-.06-.04-.1-.1-.1"/></g></g><use xlink:href="#d" width="8" height="8" transform="translate(8 8)"/></g></svg>