<svg xmlns="http://www.w3.org/2000/svg" xmlns:xlink="http://www.w3.org/1999/xlink" width="16" height="16" data-name="Row 3"><defs><symbol id="d" data-name="Lock" viewBox="0 0 8.01 11"><g data-name="Layer 99"><g><path fill="#fff" fill-rule="evenodd" d="M8.01 5v5H0V5c-.01-.55.44-1 .99-1H7c.55 0 1 .45 1 1Z" data-name="lock"/><path fill="#b1b1b1" fill-rule="evenodd" d="M8.01 7v3H0s8-5 8-3Zm-2-1h-3" data-name="lock"/><path fill="#fff" fill-rule="evenodd" d="M5.01 0h-2a2 2 0 0 0-2 2v3h1V2c0-.55.45-1 1-1h2c.55 0 1 .45 1 1v3h1V2c0-1.1-.9-2-2-2"/><path d="M3.01 5h2v3h-2zm-2-1.5h1V4h-1zm5 0h1V4h-1z"/></g></g></symbol><symbol id="b" data-name="Lock Mask" viewBox="0 0 10 12.3"><path fill-rule="evenodd" d="M10 1.38C9.27.54 8.2 0 7 0H5C2.79 0 1 1.79 1 4v.77l-.12.12C.31 5.45 0 6.2 0 7v5.29h10z"/></symbol><filter id="a" width="16" height="16.3" x="0" y="0" color-interpolation-filters="sRGB" filterUnits="userSpaceOnUse"><feFlood flood-color="#fff" result="bg"/><feBlend in="SourceGraphic" in2="bg"/></filter><mask id="c" width="16" height="16.3" x="0" y="0" data-name="mask-1" maskUnits="userSpaceOnUse"><g filter="url(#a)"><use xlink:href="#b" width="10" height="12.3" transform="translate(6 4)"/></g></mask></defs><g data-name="Layer"><g mask="url(#c)"><g><path fill="#fff8e1" d="M13.97 6.34c0-.39-.06-.77-.16-1.15v.02a5.6 5.6 0 0 0-2.88-3.39C9.19.88 8.83.01 7.53 0s-1.96.33-2.9.88C2.38 2.12-.14 3.6 0 6.58c0-.01 0-.03.01-.04.1 1.43.82 2.75 1.96 3.62 3.89 3.38 12.02 1.3 12-3.82"/><path fill="#181f21" d="M8.91 8.04a.42.42 0 0 0-.3-.12H5.36c-.11 0-.22.04-.3.12a.25.25 0 0 0-.07.23c.13.47.42.88.82 1.17.33.27.74.43 1.17.46.43-.03.84-.19 1.17-.46.4-.29.69-.7.82-1.17.02-.08 0-.17-.07-.23Z"/><g><circle cx="9.98" cy="6.27" r="1" fill="#181f21"/><circle cx="9.48" cy="5.77" r=".5" fill="#fafafa"/></g><g><path fill="#181f21" d="M4 7.27c.55 0 1-.44 1-1 0-.55-.44-1-1-1-.55 0-1 .44-1 1 0 .55.45 1 1 1"/><circle cx="3.49" cy="5.77" r=".5" fill="#fafafa"/></g></g></g><use xlink:href="#d" width="8.01" height="11" transform="translate(7.99 6)"/></g></svg>