<svg xmlns="http://www.w3.org/2000/svg" xmlns:xlink="http://www.w3.org/1999/xlink" width="16" height="16" data-name="Row 3"><defs><symbol id="b" data-name="Gear Mask" viewBox="0 0 11 11"><path d="M11 0H6.5c-.7 0-1.37.11-2 .32L4.1.4l-.47.28q-.45.225-.87.51l-.14.08-.05.06A6.47 6.47 0 0 0 .02 6.99H0V11h11z"/></symbol><filter id="a" width="17" height="17" x="0" y="0" color-interpolation-filters="sRGB" filterUnits="userSpaceOnUse"><feFlood flood-color="#fff" result="bg"/><feBlend in="SourceGraphic" in2="bg"/></filter><mask id="c" width="17" height="17" x="0" y="0" data-name="mask-1" maskUnits="userSpaceOnUse"><g filter="url(#a)"><use xlink:href="#b" width="11" height="11" transform="translate(6 6)"/></g></mask></defs><g data-name="Layer"><g mask="url(#c)"><g><path fill="#fff8e1" d="M14.07 6.42c0-.39-.06-.77-.16-1.15v.02a5.6 5.6 0 0 0-2.88-3.39C9.29.96 8.93.09 7.63.08s-1.96.33-2.9.88C2.48 2.2-.04 3.68.11 6.66c0-.01 0-.03.01-.04.1 1.43.82 2.75 1.96 3.62 3.89 3.38 12.02 1.3 12-3.82Z"/><path fill="#181f21" d="M9.01 8.12a.42.42 0 0 0-.3-.12H5.46c-.11 0-.22.04-.3.12a.25.25 0 0 0-.07.23c.13.47.42.88.82 1.17.33.27.74.43 1.17.46.43-.03.84-.19 1.17-.46.4-.29.69-.7.82-1.17.02-.08 0-.17-.07-.23Z"/><g><circle cx="10.08" cy="6.35" r="1" fill="#181f21"/><circle cx="9.58" cy="5.85" r=".5" fill="#fafafa"/></g><g><path fill="#181f21" d="M4.1 7.34c.55 0 1-.44 1-1 0-.55-.44-1-1-1-.55 0-1 .44-1 1 0 .55.45 1 1 1"/><circle cx="3.59" cy="5.85" r=".5" fill="#fafafa"/></g></g></g><g><g><circle cx="12" cy="12" r="3" fill="#fff"/><path fill="#fff" d="m14 12 2-1v-1l-1-1-2 2V8h-2v3L9 9l-1 1v1l2 1-2 1v1l1 1 2-2v3h2v-3l2 2 1-1v-1z"/><path d="M12 10c-1.1 0-2 .9-2 2s.9 2 2 2 2-.9 2-2-.9-2-2-2m0 3c-.55 0-1-.45-1-1s.45-1 1-1 1 .45 1 1-.45 1-1 1"/></g><circle cx="12" cy="12" r="1"/></g></g></svg>