<svg xmlns="http://www.w3.org/2000/svg" width="16" height="16" data-name="Row 3"><g data-name="Layer"><path fill="#fff8e1" d="M14.97 8.42c0-.39-.06-.77-.16-1.15v.02a5.6 5.6 0 0 0-2.88-3.39C10.19 2.96 9.31 2.24 8.54 2c-.97-.35-1.97.41-2.91.96C3.38 4.2.86 5.68 1.01 8.66c0-.01 0-.03.01-.04.1 1.43.82 2.75 1.96 3.62 3.89 3.38 12.02 1.3 12-3.82Z"/><path fill="#181f21" d="M9.91 10.12a.42.42 0 0 0-.3-.12H6.36c-.11 0-.22.04-.3.12a.25.25 0 0 0-.07.23c.13.47.42.88.82 1.17.33.27.74.43 1.17.46.43-.03.84-.19 1.17-.46.4-.29.69-.7.82-1.17.02-.08 0-.17-.07-.23Z"/><g><circle cx="10.98" cy="8.35" r="1" fill="#181f21"/><circle cx="10.48" cy="7.85" r=".5" fill="#fafafa"/></g><g><path fill="#181f21" d="M5 9.34c.55 0 1-.44 1-1 0-.55-.44-1-1-1-.55 0-1 .44-1 1 0 .55.45 1 1 1"/><circle cx="4.49" cy="7.85" r=".5" fill="#fafafa"/></g></g></svg>