<svg xmlns="http://www.w3.org/2000/svg" width="16" height="16"><defs><clipPath id="a"><path d="M-1 16h9v-3H2V2h7l3 3h5v-6H-1" style="fill:none"/></clipPath></defs><g style="clip-path:url(#a)"><path d="M15 1v14H1V1zm0-1H1C.45 0 0 .45 0 1v14c0 .55.45 1 1 1h14c.55 0 1-.45 1-1V1c0-.55-.45-1-1-1" style="fill:#0087ff"/></g><path d="M14.15 12.94h1.56c-.03.63-.16 1.16-.38 1.6s-.55.77-.98.99-.94.34-1.54.34c-.46 0-.87-.08-1.24-.24s-.67-.4-.92-.71-.44-.69-.57-1.14-.2-.97-.2-1.55v-1.48c0-.58.07-1.1.21-1.55s.33-.84.59-1.15.57-.55.93-.71.78-.24 1.24-.24c.61 0 1.12.12 1.53.35s.73.57.95 1.01.35.98.39 1.62h-1.56q-.03-.615-.15-.99c-.12-.375-.22-.42-.4-.52s-.43-.16-.75-.16c-.25 0-.46.04-.64.13s-.33.23-.44.42-.2.43-.25.72-.08.64-.08 1.05v1.49c0 .39.02.74.07 1.03s.12.54.23.73.24.34.42.43.39.14.66.14c.32 0 .57-.05.76-.14s.33-.26.42-.5.15-.57.17-.99Z" style="fill:#0087ff"/></svg>