<svg xmlns="http://www.w3.org/2000/svg" xmlns:xlink="http://www.w3.org/1999/xlink" width="16" height="16" data-name="Row 8"><defs><symbol id="b" data-name="Gear Mask" viewBox="0 0 11 11"><path d="M11 0H6.5c-.7 0-1.37.11-2 .32L4.1.4l-.47.28q-.45.225-.87.51l-.14.08-.05.06A6.47 6.47 0 0 0 .02 6.99H0V11h11z"/></symbol><filter id="a" width="17" height="17" x="0" y="0" color-interpolation-filters="sRGB" filterUnits="userSpaceOnUse"><feFlood flood-color="#fff" result="bg"/><feBlend in="SourceGraphic" in2="bg"/></filter><mask id="c" width="17" height="17" x="0" y="0" data-name="mask-2" maskUnits="userSpaceOnUse"><g filter="url(#a)"><use xlink:href="#b" width="11" height="11" transform="translate(6 6)"/></g></mask></defs><g data-name="Layer copy 2"><g mask="url(#c)"><g><path fill="#f2f2f2" d="m10.74 6 1.15-1.58c.12-.09.07-.38.07-.38l-1.24-2.08s-.24-.18-.38-.13l-1.79.13L7.52.25C7.5.11 7.23 0 7.23 0H4.75s-.28.11-.3.25L3.4 1.94l-1.77-.11s-.07-.02-.11-.02c-.11 0-.27.15-.27.15L0 4.04s-.04.29.07.38L1.28 6 .08 7.58c-.12.09-.07.38-.07.38l1.24 2.08s.24.18.38.13l1.77-.08 1.05 1.66c.02.14.15.25.3.25h2.47c.15 0 .28-.11.3-.25l1.03-1.66 1.79.08s.07.02.11.02c.11 0 .21-.05.27-.15l1.24-2.08c.07-.13.04-.29-.07-.38z" data-name="Gear"/><path fill="#b4b4b4" d="m10.74 6 1.15-1.58c.12-.09.07-.38.07-.38l-1.24-2.08-9.47 8.08s.24.18.38.13l1.77-.08 1.05 1.66c.02.14.15.25.3.25h2.47c.15 0 .28-.11.3-.25l1.03-1.66 1.79.08s.07.02.11.02c.11 0 .21-.05.27-.15l1.24-2.08c.07-.13.04-.29-.07-.38z" data-name="Gear"/><ellipse cx="5.97" cy="6" rx="3.44" ry="3.43"/><g data-name="Clock"><circle cx="6" cy="6" r="3" data-name="Clock Border"/><circle cx="6" cy="6" r="2.25" fill="#fff" data-name="Clock Face"/><path d="m5.4 6.3 1.16.83.35-.53-.9-.6"/><path d="M6.15 6.3V5.07H5.4V6.3"/></g></g></g><g><g><circle cx="12" cy="12" r="3" fill="#fff"/><path fill="#fff" d="m14 12 2-1v-1l-1-1-2 2V8h-2v3L9 9l-1 1v1l2 1-2 1v1l1 1 2-2v3h2v-3l2 2 1-1v-1z"/><path d="M12 10c-1.1 0-2 .9-2 2s.9 2 2 2 2-.9 2-2-.9-2-2-2m0 3c-.55 0-1-.45-1-1s.45-1 1-1 1 .45 1 1-.45 1-1 1"/></g><circle cx="12" cy="12" r="1"/></g></g></svg>