<svg xmlns="http://www.w3.org/2000/svg" width="16" height="16"><path d="m14.32 8 1.53-2.1c.16-.12.1-.51.1-.51L14.3 2.62s-.31-.25-.5-.18l-2.39.17L10.04.33c-.03-.19-.39-.34-.39-.34H6.34s-.38.14-.4.34l-1.4 2.25-2.36-.15s-.1-.02-.15-.02c-.14 0-.35.2-.35.2L.01 5.38s-.06.39.1.51l1.61 2.1L.11 10.1c-.16.12-.1.51-.1.51l1.65 2.77s.31.25.5.18l2.36-.11 1.4 2.21c.02.19.2.34.4.34h3.3c.21 0 .38-.14.4-.34l1.37-2.21 2.39.11s.1.02.15.02c.14 0 .28-.07.35-.2l1.65-2.77c.1-.18.06-.39-.1-.51L14.3 8Z" style="fill:#f2f2f2"/><path d="m14.32 8 1.53-2.1c.16-.12.1-.51.1-.51L14.3 2.62 1.66 13.38s.31.25.5.18l2.36-.11 1.4 2.21c.02.19.2.34.4.34h3.3c.21 0 .38-.14.4-.34l1.37-2.21 2.39.11s.1.02.15.02c.14 0 .28-.07.35-.2l1.65-2.77c.1-.18.06-.39-.1-.51L14.3 8Z" style="fill:#b4b4b4"/><ellipse cx="7.96" cy="8" rx="4.58" ry="4.57"/><circle cx="8" cy="8" r="4"/><circle cx="8" cy="8" r="3" style="fill:#fff"/><path d="m7.2 8.4 1.55 1.1.46-.7-1.2-.8"/><path d="M8.2 8.4V6.76h-1V8.4"/></svg>