<svg xmlns="http://www.w3.org/2000/svg" xmlns:xlink="http://www.w3.org/1999/xlink" width="16" height="16" data-name="Layer 142"><defs><symbol id="b" data-name="Gear Mask" viewBox="0 0 11 11"><path d="M11 0H6.5c-.7 0-1.37.11-2 .32L4.1.4l-.47.28q-.45.225-.87.51l-.14.08-.05.06A6.47 6.47 0 0 0 .02 6.99H0V11h11z"/></symbol><symbol id="d" data-name="Gear again" viewBox="0 0 8 8"><g><g><circle cx="4" cy="4" r="3" fill="#fff"/><path fill="#fff" d="m6 4 2-1V2L7 1 5 3V0H3v3L1 1 0 2v1l2 1-2 1v1l1 1 2-2v3h2V5l2 2 1-1V5z"/><path d="M4 2c-1.1 0-2 .9-2 2s.9 2 2 2 2-.9 2-2-.9-2-2-2m0 3c-.55 0-1-.45-1-1s.45-1 1-1 1 .45 1 1-.45 1-1 1"/></g><circle cx="4" cy="4" r="1"/></g></symbol><filter id="a" width="17" height="17" x="0" y="0" color-interpolation-filters="sRGB" filterUnits="userSpaceOnUse"><feFlood flood-color="#fff" result="bg"/><feBlend in="SourceGraphic" in2="bg"/></filter><mask id="c" width="17" height="17" x="0" y="0" data-name="mask-8" maskUnits="userSpaceOnUse"><g filter="url(#a)"><use xlink:href="#b" width="11" height="11" transform="translate(6 6)"/></g></mask></defs><g mask="url(#c)"><path fill="#ff2020" d="M1.39 7.73c-.08.29.23.91.24 1.21C.86 8.18.82 6.5.01 5.69c.83 0 2.03-.03 2.9-.87 1.97-.74 2.23-1.39 3.11-3.27h.03l.16 1.54h.04c.5-1.28.99-1.85 1.57-3.1.18 1.2-.17 1.72-.5 2.86l.02.02c.85-.62 1.82-1.12 2.89-.83C11.44 1.49 11.71.44 13 0c-1.46 1.94-.44 4.32 0 4.06-.33 1.1 0 4.88 0 4.88-.36.36-2.44-2.44-4.06 0-1.58.34-4.06 3.25-4.88 3.25 0-.81-.99-1.18-.65-.94-.97-.68-.89-1.15-.97-1.5.76.85 1.56.95 1.19.07 1.25 1.55 2.79-1.26 3.69-1.7.53-1.17.1-.89 1.27-1.6 0 0-.01-.02-.02-.03-.76.79-3.37.17-2.75 1.28-1.04-.62-3.03-.46-1.75-.46-.81 0-1.07.61-.86.9-.47-.08-.84-.34-1.22-.61-.02.3.36 1.06.45 1.34-.22-.24-.82-.98-1.02-1.23-.01 0-.02.01-.03.02m.68-1.48c1.46-1.33 4.43.26 4.74-2.13-.11.8-1.14-.92-2.24.74-.55.83-2.09.42-2.6 1.43 0 0 .02.01.03.02.02-.02.05-.04.07-.06"/></g><use xlink:href="#d" width="8" height="8" transform="translate(8 8)"/></svg>