<svg xmlns="http://www.w3.org/2000/svg" width="16" height="16"><path d="M12.16 13.32h-.05c-.72 0-1.49-.19-2.21-.55-.59.24-1.23.37-1.9.37-2.84 0-5.14-2.31-5.14-5.14 0-1.38.56-2.64 1.45-3.56-.14-.02-.29-.05-.44-.05-1.42-.06-3.03.86-3.8 2.58-.04.34-.07.68-.07 1.04 0 4.42 3.58 8 8 8 2.57 0 4.84-1.22 6.3-3.1-.69.27-1.42.42-2.14.42Z" style="fill:#64dd17"/><path d="M3.81 2.67h.09c.71.01 1.45.2 2.15.58.6-.25 1.26-.39 1.95-.39 2.84 0 5.14 2.31 5.14 5.14 0 1.38-.56 2.64-1.45 3.56.14.02.28.04.44.04h.04c1.44 0 2.98-.81 3.71-2.24.08-.45.13-.9.13-1.37A8.01 8.01 0 0 0 8 0C5.41 0 3.13 1.24 1.66 3.15c.71-.3 1.44-.48 2.15-.48" style="fill:#1e88e5"/><path d="M8.85 7.89c.09 1.27.5 2.25 1.16 2.88.86-.62 1.42-1.63 1.42-2.77 0-1.89-1.54-3.43-3.43-3.43-.13 0-.25.02-.37.04.59.8 1.04 1.87 1.22 3.28" style="fill:#1e88e5"/><path d="M7.14 8.06c-.16-1.2-.59-2.14-1.21-2.78-.82.63-1.36 1.61-1.36 2.72 0 1.89 1.54 3.43 3.43 3.43.09 0 .17-.02.26-.03-.6-.81-1.02-1.9-1.12-3.35Z" style="fill:#64dd17"/></svg>