<svg xmlns="http://www.w3.org/2000/svg" width="16" height="16" data-name="Row 9"><defs><filter id="a" width="16" height="16" x="0" y="0" color-interpolation-filters="sRGB" filterUnits="userSpaceOnUse"><feFlood flood-color="#fff" result="bg"/><feBlend in="SourceGraphic" in2="bg"/></filter><mask id="b" width="16" height="16" x="0" y="0" data-name="mask-7" maskUnits="userSpaceOnUse"><g filter="url(#a)"><path d="M16 6H8C6.35 6 5 7.35 5 9v.45a2.5 2.5 0 0 0-1 1.99v1.12c0 .8.39 1.53 1 1.99V15c0 .35.07.69.18 1H16z"/></g></mask></defs><g data-name="Layer 137"><g mask="url(#b)"><g data-name="Layer 123 copy 9"><path fill="#ff2020" d="m6 6 7 4V9L8 0H7z"/><path fill="#06b7ff" d="M6 0H5L0 9v1l5-2"/><path fill="#0f0" d="m8 8-8 3v1h13v-1z"/></g></g><g fill="#ff0"><path d="M15.58 10.95c-.65-.13-.58-.51-.58-.95V9c0-.55-.45-1-1-1h-1.75c-.14 0-.25.11-.25.25v.5c0 .14.11.25.25.25H13c.55 0 1 .45 1 1 0 0 0 2 1 2-1 0-1 2-1 2 0 .55-.45 1-1 1h-.75c-.14 0-.25.11-.25.25v.5c0 .14.11.25.25.25H14c.55 0 1-.45 1-1v-1c0-.44-.07-.82.58-.95.24-.05.42-.25.42-.49v-1.11c0-.24-.18-.44-.42-.49ZM9.75 8H8c-.55 0-1 .45-1 1v1c0 .44.07.82-.58.95-.24.05-.42.25-.42.49v1.11c0 .24.18.44.42.49.65.13.58.51.58.95v1c0 .55.45 1 1 1h1.75c.14 0 .25-.11.25-.25v-.5c0-.14-.11-.25-.25-.25H9c-.55 0-1-.45-1-1 0 0 0-2-1-2 1 0 1-2 1-2 0-.55.45-1 1-1h.75c.14 0 .25-.11.25-.25v-.5c0-.14-.11-.25-.25-.25Z"/></g></g></svg>