<svg xmlns="http://www.w3.org/2000/svg" width="16" height="16" data-name="Row 9"><defs><filter id="a" width="16" height="16" x="0" y="0" color-interpolation-filters="sRGB" filterUnits="userSpaceOnUse"><feFlood flood-color="#fff" result="bg"/><feBlend in="SourceGraphic" in2="bg"/></filter><mask id="b" width="16" height="16" x="0" y="0" data-name="mask-3" maskUnits="userSpaceOnUse"><g filter="url(#a)"><path d="M3 8h13v8H3z"/></g></mask></defs><g data-name="Layer 123"><g mask="url(#b)"><g data-name="Layer 121 copy"><path d="M13 11H5l1-2.46V5h7z"/><rect width="5" height="4" x="11" y="9" rx=".5" ry=".5"/><path fill="#ff2020" d="M14.9 10h-2.8c-.06 0-.1.04-.1.1v1.8c0 .06.04.1.1.1h2.8c.06 0 .1-.04.1-.1v-1.8c0-.06-.04-.1-.1-.1"/><rect width="5" height="4" x="1" y="9" rx=".5" ry=".5"/><path fill="#ff2020" d="M4.9 10H2.1c-.06 0-.1.04-.1.1v1.8c0 .06.04.1.1.1h2.8c.06 0 .1-.04.1-.1v-1.8c0-.06-.04-.1-.1-.1"/><rect width="3" height="4" y="6" rx=".5" ry=".5"/><path fill="#ff2020" d="M1.9 7h-.8c-.06 0-.1.04-.1.1v1.8c0 .06.04.1.1.1h.8c.06 0 .1-.04.1-.1V7.1c0-.06-.04-.1-.1-.1"/><rect width="6" height="4" x="3" y="6" rx=".5" ry=".5"/><path fill="#ff2020" d="M7.9 7H4.1c-.06 0-.1.04-.1.1v1.8c0 .06.04.1.1.1h3.8c.06 0 .1-.04.1-.1V7.1c0-.06-.04-.1-.1-.1"/><rect width="6" height="4" x="9" y="6" rx=".5" ry=".5"/><path fill="#ff2020" d="M13.9 7h-3.8c-.06 0-.1.04-.1.1v1.8c0 .06.04.1.1.1h3.8c.06 0 .1-.04.1-.1V7.1c0-.06-.04-.1-.1-.1"/><rect width="6" height="4" x="5" y="3" rx=".5" ry=".5"/><path fill="#ff2020" d="M9.9 4H6.1c-.06 0-.1.04-.1.1v1.8c0 .06.04.1.1.1h3.8c.06 0 .1-.04.1-.1V4.1c0-.06-.04-.1-.1-.1"/><rect width="5" height="4" x="6" y="9" rx=".5" ry=".5"/><path fill="#ff2020" d="M9.9 10H7.1c-.06 0-.1.04-.1.1v1.8c0 .06.04.1.1.1h2.8c.06 0 .1-.04.1-.1v-1.8c0-.06-.04-.1-.1-.1"/><rect width="5" height="4" x="11" y="3" rx=".5" ry=".5"/><path fill="#ff2020" d="M14.9 4h-2.8c-.06 0-.1.04-.1.1v1.8c0 .06.04.1.1.1h2.8c.06 0 .1-.04.1-.1V4.1c0-.06-.04-.1-.1-.1"/><rect width="5" height="4" y="3" rx=".5" ry=".5"/><path fill="#ff2020" d="M3.9 4H1.1c-.06 0-.1.04-.1.1v1.8c0 .06.04.1.1.1h2.8c.06 0 .1-.04.1-.1V4.1c0-.06-.04-.1-.1-.1"/><rect width="6" height="4" x="7" rx=".5" ry=".5"/><path fill="#ff2020" d="M11.9 1H8.1c-.06 0-.1.04-.1.1v1.8c0 .06.04.1.1.1h3.8c.06 0 .1-.04.1-.1V1.1c0-.06-.04-.1-.1-.1"/><rect width="6" height="4" x="1" rx=".5" ry=".5"/><path fill="#ff2020" d="M5.9 1H2.1c-.06 0-.1.04-.1.1v1.8c0 .06.04.1.1.1h3.8c.06 0 .1-.04.1-.1V1.1c0-.06-.04-.1-.1-.1"/><rect width="3" height="4" x="13" rx=".5" ry=".5"/><path fill="#ff2020" d="M14.9 1h-.8c-.06 0-.1.04-.1.1v1.8c0 .06.04.1.1.1h.8c.06 0 .1-.04.1-.1V1.1c0-.06-.04-.1-.1-.1"/></g></g><g fill="#fff" data-name="Text"><path d="M8.06 13.54h1.25c-.02.49-.12.91-.31 1.25q-.27.51-.78.78c-.34.18-.75.27-1.24.27-.37 0-.7-.06-.99-.19s-.54-.31-.74-.55-.35-.54-.46-.89c-.1-.35-.16-.76-.16-1.21v-1.16c0-.46.05-.86.16-1.22.11-.35.27-.65.47-.9.2-.24.45-.43.75-.55.29-.13.62-.19.99-.19.49 0 .9.09 1.22.27s.58.44.76.79.28.77.31 1.27H8.04c-.01-.32-.05-.58-.12-.77a.75.75 0 0 0-.32-.41q-.225-.12-.6-.12c-.2 0-.37.04-.51.11a.85.85 0 0 0-.35.33c-.09.15-.16.34-.2.57s-.07.5-.07.83v1.17q0 .465.06.81c.06.345.1.42.18.57s.19.26.34.34.32.11.52.11c.25 0 .45-.04.6-.11.15-.08.26-.21.34-.39.07-.19.12-.44.13-.77Zm1.71-4.47h1.05l.16 4.33v2.35H9.76V9.07Zm.44 0h1.12l1.49 4.77 1.47-4.77h1.02l-2.02 6.68h-.94l-2.13-6.68Zm4.58 0h1.06v6.68h-1.22V13.4z"/></g></g></svg>