<svg xmlns="http://www.w3.org/2000/svg" width="16" height="16"><path d="M11.74 3.9c0 .62-1.99 1.12-4.74 1.12s-4.74-.5-4.74-1.12S4.25 2.78 7 2.78s4.74.5 4.74 1.12Z" style="fill:#330c00;fill-rule:evenodd;stroke:#bf7445;stroke-miterlimit:10;stroke-width:.5px"/><path d="M2 4v7c0 .87.74 1.93 1.47 2.39C4.21 13.86 6 14 7 14s2.73-.14 3.47-.61C11.2 12.92 12 11.86 12 11V4c-1 1-4 1-5 1S3 5 2 4" style="fill:#a5531c;fill-rule:evenodd"/><path d="M7 14c1 0 2.73-.14 3.47-.61C11.2 12.92 12 11.86 12 11V4c-.42.42-1.19.66-2.02.8C12 12 6 14 7 14" style="fill-rule:evenodd;opacity:.25"/><path d="M2 4v7c0 .87.74 1.93 1.47 2.39.14.09.31.16.52.23V4.8C3.18 4.66 2.42 4.42 2 4" style="fill:#fff;fill-rule:evenodd;opacity:.1"/><path d="M12 4.97V6c1 0 2 0 2 2s-1 2-2 2v1c2 0 3 0 3-3s-1-3-3-3.03" style="fill:#aa592d;fill-rule:evenodd"/></svg>