<svg xmlns="http://www.w3.org/2000/svg" width="16" height="16"><path d="m14.32 8 1.53-2.1c.16-.12.1-.51.1-.51L14.3 2.62s-.31-.25-.5-.18l-2.39.17L10.04.33c-.03-.19-.39-.34-.39-.34H6.34s-.38.14-.4.34l-1.4 2.25-2.36-.15s-.1-.02-.15-.02c-.14 0-.35.2-.35.2L.01 5.38s-.06.39.1.51l1.61 2.1L.11 10.1c-.16.12-.1.51-.1.51l1.65 2.77s.31.25.5.18l2.36-.11 1.4 2.21c.02.19.2.34.4.34h3.3c.21 0 .38-.14.4-.34l1.37-2.21 2.39.11s.1.02.15.02c.14 0 .28-.07.35-.2l1.65-2.77c.1-.18.06-.39-.1-.51L14.3 8Z" style="fill:#f2f2f2"/><path d="m14.32 8 1.53-2.1c.16-.12.1-.51.1-.51L14.3 2.62 1.66 13.38s.31.25.5.18l2.36-.11 1.4 2.21c.02.19.2.34.4.34h3.3c.21 0 .38-.14.4-.34l1.37-2.21 2.39.11s.1.02.15.02c.14 0 .28-.07.35-.2l1.65-2.77c.1-.18.06-.39-.1-.51L14.3 8Z" style="fill:#b4b4b4"/><ellipse cx="7.96" cy="8" rx="4.58" ry="4.57"/><path d="M4.33 10.78 12.3 6.5a4.8 4.8 0 0 0-.68-1.27l-7.96 4.3c.15.44.38.85.68 1.25Z" style="fill:#707070"/><path d="m8.67 12.53.04-9.04q-.69-.12-1.44 0l-.02 9.05c.46.07.93.07 1.42 0Z" style="fill:#707070"/><path d="M12.31 9.49 4.32 5.26c-.28.37-.51.8-.67 1.27l8.01 4.22c.28-.37.49-.79.66-1.26Z" style="fill:#707070"/><circle cx="8" cy="8" r="1.5" style="fill:#fff"/></svg>