<svg xmlns="http://www.w3.org/2000/svg" width="16" height="16"><defs><clipPath id="a"><path d="M-1 7h3V2h7l3 5h5v-8H-1" style="fill:none"/></clipPath></defs><g style="clip-path:url(#a)"><path d="M15 1v14H1V1zm0-1H1C.45 0 0 .45 0 1v14c0 .55.45 1 1 1h14c.55 0 1-.45 1-1V1c0-.55-.45-1-1-1" style="fill:#00baff"/></g><path d="M5.37 13.64h1.19c-.02.47-.12.87-.29 1.2s-.42.58-.74.75-.71.25-1.17.25c-.35 0-.66-.06-.94-.18s-.51-.3-.7-.53-.34-.52-.43-.85c-.1-.34-.15-.73-.15-1.16v-1.11c0-.44.05-.82.16-1.16s.25-.63.45-.86.43-.41.71-.53.59-.18.94-.18c.46 0 .85.09 1.16.26s.55.43.72.76.27.74.3 1.22H5.39c-.01-.31-.05-.56-.12-.74-.06-.18-.17-.31-.31-.39s-.33-.12-.57-.12c-.19 0-.35.03-.48.1a.76.76 0 0 0-.33.31c-.09.14-.15.32-.19.54s-.06.48-.06.79v1.12c0 .3.02.55.05.77s.09.4.17.55c.08.14.18.25.32.33s.3.11.5.11c.24 0 .43-.04.57-.11s.25-.2.32-.37c.07-.18.11-.42.13-.74ZM10.54 12.2v1.06H6.82V12.2zm-1.31-1.75v4.66H8.14v-4.66zM14.36 12.2v1.06h-3.72V12.2zm-1.31-1.75v4.66h-1.09v-4.66z" style="fill:#00b9fd"/></svg>