<svg xmlns="http://www.w3.org/2000/svg" width="16" height="16"><path d="M1.14 3.43v9.14L8 16l6.86-3.43V3.43L8 0z" style="fill:#046fa5"/><path d="M1.14 12.57 8 16l6.86-3.43V3.43z" style="fill:#013a51"/><path d="M9.17 11.1c0 .06-.04.15-.12.25-.68.87-1.58 1.31-2.7 1.31s-2.08-.42-2.79-1.27c-.7-.82-1.04-1.85-1.04-3.1s.34-2.24 1.02-3.08c.71-.88 1.61-1.32 2.71-1.32 1.19 0 2.13.4 2.81 1.19.07.09.11.17.11.23 0 .08-.13.36-.38.84-.26.49-.42.76-.48.82a.16.16 0 0 1-.11.05c-.02 0-.11-.08-.28-.24-.2-.19-.39-.34-.59-.45-.29-.16-.59-.24-.91-.24-.54 0-.97.22-1.3.66q-.45.615-.45 1.5c0 .885.15 1.11.45 1.52.32.45.76.67 1.3.67.32 0 .62-.08.91-.23q.285-.15.57-.42c.16-.15.25-.23.27-.23.04 0 .07.02.11.07q.09.105.48.75c.27.44.4.68.4.73Z" style="fill:#fff"/><path d="M9.02 7.01h2.96V8H9.02z" style="fill:#fff"/><path d="M10 5.9h.98v3.15H10zM11.02 7.01h2.96V8h-2.96z" style="fill:#fff"/><path d="M12 5.9h.98v3.15H12z" style="fill:#fff"/></svg>