<svg xmlns="http://www.w3.org/2000/svg" width="16" height="16"><path d="M6.87 2H1v2h5.5c0-.71.14-1.38.37-2M7.51 7.27c-.27-.39-.48-.82-.65-1.27H1v2h6.92zM12.24 12.49c-.08 0-.16.01-.23.01-.67 0-1.3-.27-1.78-.71L9.02 13h-4l-2-2v-1H1v2l3 3h6l2.4-2.4-.17-.11Z" style="fill:#71c6ff"/><path d="M8.5 4.06c0 .77.24 1.52.7 2.13l2.24 3.96s.03.05.04.07h0c.12.18.31.28.51.27.19 0 .36-.09.48-.23h0l.02-.04a.5.5 0 0 0 .08-.15l2.2-3.88a3.6 3.6 0 0 0 .71-2.15c0-1.97-1.68-3.56-3.62-3.56S8.48 2.07 8.48 4.04Z" style="fill:#f50637;stroke:#d20f39;stroke-linecap:round;stroke-linejoin:round"/><circle cx="12" cy="4" r="1.5"/></svg>