<svg xmlns="http://www.w3.org/2000/svg" width="16" height="16"><path d="M6 6.17v1.66c0 .09.07.17.14.17h1.71c.08 0 .14-.07.14-.17V6.16c0-.09-.07-.16-.16-.16h-1.7c-.08 0-.14.07-.14.17ZM10 5.84V4.18c0-.11-.07-.18-.14-.18H8.15c-.08 0-.14.06-.14.18v1.65c0 .08.07.17.14.17h1.7c.09 0 .16-.07.16-.16ZM10 7.83V6.17c0-.08-.07-.17-.15-.17h-1.7c-.08 0-.14.07-.14.17v1.66c0 .09.07.17.14.17h1.7c.09 0 .15-.07.15-.17M8 5.83V4.17C8 4.09 7.94 4 7.84 4H6.15c-.08 0-.14.07-.14.17v1.66c0 .09.06.17.14.17h1.69c.1 0 .16-.07.16-.17M8 3.83V2.17C8 2.09 7.94 2 7.84 2H6.15c-.08 0-.14.07-.14.17v1.66c0 .09.06.17.14.17h1.69c.1 0 .16-.07.16-.17M4 7.81V6.17C4 6.08 3.94 6 3.84 6H2.15c-.08 0-.14.06-.14.17v1.64c0 .09.06.19.14.19h1.69c.1 0 .16-.09.16-.19M4 5.81V4.17C4 4.08 3.94 4 3.84 4H2.15c-.08 0-.14.06-.14.17v1.64c0 .09.06.19.14.19h1.69c.1 0 .16-.09.16-.19" style="fill:#0288d1"/><path d="M6 7.81V6.17C6 6.08 5.94 6 5.84 6H4.15c-.08 0-.14.06-.14.17v1.64c0 .09.06.19.14.19h1.69c.1 0 .16-.09.16-.19" style="fill:#0288d1"/><path d="M16 5.29s-.81-.22-2 .71c0-2-2-3-2-3s-.59 1.98 0 4c-.23.12-.42 1-1 1H0c0 2.29.69 7 6 7 3.81 0 6.57-2.86 7.36-6.85 2 .15 2.64-2.86 2.64-2.86" style="fill:#10c7ff"/></svg>