<svg xmlns="http://www.w3.org/2000/svg" width="16" height="16" data-name="Row 5"><g data-name="Layer"><path fill="#ede7f6" d="M3.88 9.36c.23-.15.42-.52.3-.79-.31.13-.3.44-.3.79m3.55.86c.25-.08.49-.36.35-.65-.19.13-.32.32-.35.65"/><path fill="#fafafa" d="M.46 14.34c0 .31.08.65.3.77.81.45 3.64.1 4.6-.11.5-.11.91-.49 1.39-.69 1.07-.46 1.84-.84 2.69-1.46.62-.45 1.6-1.73 1.71-2.49l-.84-.19c-.02.86-.21 1.05-.98 1.25-.51.14-1.52.17-2.04.08-.69-.11-1.01-.48-1.32-.89-.61-.81.13-1.37-.83-1.43-1.01 1.24-2.8.35-3.58.22-.33.48-1.12 3.63-1.11 4.34.48-.16.79.01 1.22.18 1.54.59.19 1.12-.42.96-.42-.1-.55-.37-.79-.55Zm2.01-7.17c.62.12 1.18.38 1.71.64.86.43 1.02.37 1.1.97 0 .11 0 .17.3.27.53.16-.3-.13 1.11-.12.84 0 2.77.34 3.4.74.26.16.21.37 1.09.35 0-1.03-.28-2.57-.69-3.52C10 5.35 9.34 5.18 8.01 4.75c-.78-.25-3.06-.52-3.77-.08-.66.41-.79.91-1.41 1.78-.18.25-.24.45-.36.74Z"/><path fill="#fafafa" d="M7.96 9.3c.5.2-.02 1.53-.72 1.21-.22-.63.31-.99.45-1.28-.3-.04-1.15-.18-1.41-.08-.33.12-.4.83-.23 1.16.8 1.57 4.32 1.23 3.95.01-.15-.49-.29-.57-.79-.74-.4-.13-.81-.27-1.25-.27Zm-6.27-.17c.4.38 1.3.44 1.89.47.07-.77.14-1.35.76-1.31.3.41.14.9-.17 1.22.54 0 .86-.41.78-1.01-.46-.33-1.85-.99-2.55-1.08-.19.21-.67 1.36-.7 1.71Z"/><path d="M.75 14.06c.33-.03 1.19.22 1.26.5-.53.06-1.21.01-1.26-.5m-.29.28c.24.17.37.45.79.55.61.15 1.96-.37.42-.96-.43-.17-.74-.35-1.22-.18 0-.72.77-3.86 1.11-4.34.78.12 2.57 1.02 3.58-.22.96.05.22.62.83 1.43.31.41.63.78 1.32.89.52.09 1.53.06 2.04-.08.76-.2.96-.39.98-1.25l.84.19c-.1.76-1.09 2.04-1.71 2.49-.85.62-1.63 1-2.69 1.46-.47.2-.88.58-1.39.69-.96.21-3.8.57-4.6.11-.22-.12-.3-.46-.3-.77Zm6.98-4.13c.03-.33.16-.51.35-.65.13.29-.1.57-.35.65m.52-.92c.44 0 .85.14 1.25.27.5.17.64.25.79.74.37 1.22-3.15 1.55-3.95-.01-.17-.33-.09-1.03.23-1.16.25-.09 1.11.04 1.41.08-.14.28-.68.64-.45 1.28.69.32 1.22-1 .72-1.21Zm-4.07.06c0-.34 0-.65.3-.79.11.26-.07.64-.3.79M1.7 9.12c.02-.35.5-1.5.7-1.71.7.09 2.09.75 2.55 1.08.08.59-.23 1-.78 1.01.32-.31.48-.8.17-1.22-.62-.04-.68.53-.76 1.31-.58-.03-1.49-.09-1.89-.47Zm-.5-.4c-.18-.51-.18-1.3.6-1.37l-.4 1.11c-.1.24-.1.18-.2.25Zm1.28-1.55c.11-.29.18-.48.36-.74.62-.87.74-1.36 1.41-1.78.71-.44 2.99-.16 3.77.08 1.33.43 1.99.6 2.48 1.75.4.95.68 2.49.69 3.52-.88.02-.83-.18-1.09-.35-.62-.39-2.55-.73-3.4-.74-1.42 0-.58.29-1.11.12-.31-.1-.29-.16-.3-.27-.08-.6-.23-.54-1.1-.97-.53-.26-1.08-.52-1.71-.64Zm8.83-.24c-.09-.31.08-.29.38-.51.17-.12.31-.25.53-.37.8-.45 2.3-.52 2.94 0 .26.21.68.63.62 1.18-.13 1.09-.88 1.69-1.5 2.19-.62.51-1.66 1.03-2.73.68-.09-.22-.02-1.61-.12-2.12-.09-.46-.04-.51.22-.78.78-.81 2.46-1.4 3.42-.7.4.3.29.41.5.64.26-.28-.22-1.22-2.01-1.16-1.21.04-1.74.99-2.24.94ZM4.05 4.09c.02-.69.66-2.13 1.3-2.63C6.12.86 6.93.3 8.12.97c.29.16.28.25.31.66.02.39 0 .54-.11.86-.79 2.54-1.45 1.08-3.97 1.69.09-.83.81-1.57 1.21-1.95.68-.66 1.18-1.09 2.2-.95.28.47.31.77-.03 1.33-.46.74-.57.69-.5 1.2.36-.09.47-.44.63-.79 1-2.09-.45-2.35-1.35-1.97-.6.25-1.67 1.43-2.01 2.14-.07.14-.14.32-.21.47zm3.95.1c.1-.62.72-.78.72-2.7C8.72.66 7.7-.08 6.37.47c-1.14.47-1.32.83-1.93 1.75-.57.87-.55 1.82-1.05 2.62-.14.23-.27.31-.43.54-.11.17-.2.38-.31.58-.23.38-.47.66-.66 1.12-.6.01-1.1.02-1.16.64-.08.85.32 1.06.32 1.38 0 .34-1.4 3.82-1.01 5.89.11.57.48.57 1.08.64 1.44.17 3.31.11 4.6-.4l2.34-1.12c.59-.33 1.59-.97 2.03-1.43.31-.32.48-.6.75-.98.37-.54.38-.53.46-1.26.49.09 1.4.3 1.71.57-.03.34-.2.18-.2.49.19 0 .52-.24.6-.51-.2-.3-.42-.25-.71-.49.23-.18.66-.27.98-.4.7-.29 1.89-1.17 2.18-1.97.23-.64.06-1.72-.32-2.13-.4-.44-1.33-.66-2.08-.66-.9 0-1.84.65-2.56.93-.28-.24-.3-.52-.5-.79-.23-.32-1.76-1.12-2.49-1.27Z"/><path fill="#efebe9" d="M11.3 6.93c.51.04 1.03-.9 2.24-.94 1.79-.06 2.27.88 2.01 1.16-.21-.23-.09-.34-.5-.64-.96-.69-2.64-.1-3.42.7-.26.27-.31.32-.22.78.1.51.03 1.91.12 2.12 1.07.35 2.11-.17 2.73-.68.61-.5 1.36-1.1 1.5-2.19.06-.55-.36-.97-.62-1.18-.64-.53-2.13-.46-2.94 0-.21.12-.35.25-.53.37-.3.21-.48.19-.38.51ZM4.04 4.09l.24-.43c.06-.15.14-.33.21-.47.35-.71 1.42-1.89 2.01-2.14.89-.38 2.35-.13 1.35 1.97-.16.35-.27.7-.63.79-.07-.5.04-.46.5-1.2.34-.55.31-.85.03-1.33-1.03-.14-1.52.29-2.2.95-.4.38-1.12 1.12-1.21 1.95 2.52-.6 3.18.86 3.97-1.69.1-.32.13-.46.11-.86-.03-.41-.01-.49-.31-.66-1.19-.67-2-.11-2.77.49-.64.5-1.28 1.94-1.3 2.63"/><path fill="#eee" d="M1.19 8.72c.09-.07.09-.01.2-.25l.4-1.11c-.78.06-.78.86-.6 1.37Z"/><path fill="#efebe9" d="M2.01 14.56c-.07-.28-.93-.53-1.26-.5.04.51.72.56 1.26.5"/></g></svg>