<svg xmlns="http://www.w3.org/2000/svg" xmlns:xlink="http://www.w3.org/1999/xlink" width="16" height="16" data-name="Row 4"><defs><symbol id="b" data-name="Gear Mask" viewBox="0 0 11 11"><path d="M11 0H6.5c-.7 0-1.37.11-2 .32L4.1.4l-.47.28q-.45.225-.87.51l-.14.08-.05.06A6.47 6.47 0 0 0 .02 6.99H0V11h11z"/></symbol><filter id="a" width="17" height="17" x="0" y="0" color-interpolation-filters="sRGB" filterUnits="userSpaceOnUse"><feFlood flood-color="#fff" result="bg"/><feBlend in="SourceGraphic" in2="bg"/></filter><mask id="c" width="17" height="17" x="0" y="0" data-name="mask-2" maskUnits="userSpaceOnUse"><g filter="url(#a)"><use xlink:href="#b" width="11" height="11" transform="translate(6 6)"/></g></mask></defs><g data-name="Layer"><g mask="url(#c)"><g fill-rule="evenodd"><path fill="#b4ef11" d="M11.91 8.52a.16.16 0 0 1-.14-.08l-.57-.98s-.03-.08-.02-.12l.11-.45-.25.19c-.07.05-.16.04-.21-.02l-.72-.72s-.06-.1-.04-.16c0 0 .17-.69-.09-1.09-.09.24-.17.53-.16.7v.05c0 .09-.07.16-.16.16s-.05 0-.07-.01c-.05-.02-1.29-.6-2-1.75h-.02s-.06-.08-.06-.12 0-.09.03-.12c.08-.11.13-.23.13-.37 0-.04.02-.09.05-.12s.08-.04.12-.04c1.15.09 3.24.48 4.24 2.06 0 0 .01.02.02.03.03.08.67 1.85-.05 2.9a.17.17 0 0 1-.13.07ZM7.83 3.28s-.08-.02-.11-.04a.17.17 0 0 1-.05-.12c0-.21-.1-.41-.27-.53a.2.2 0 0 1-.07-.11c0-.05 0-.09.04-.13C8.19 1.42 9.96 1.02 10 1c.01 0-.22 0 0 0 2.09 0 2.93 1.52 3.05 1.73.02.03.04.06.04.1 0 .09-.07.16-.16.16l-1.06-.02s-.08-.02-.11-.05l-.31-.3-.02.31c0 .08-.07.14-.15.15l-1.04.11c-.08 0-.15-.04-.17-.11-.1-.31-.47-.47-.76-.55l.25.35s.04.11.02.16-.08.09-.13.09l-1.59.14h-.01Zm-1.62.15h-.03l-1.59-.27c-.06 0-.1-.05-.12-.1a.18.18 0 0 1 .02-.16l.25-.35c-.29.08-.66.24-.76.55-.02.07-.1.12-.17.11L2.77 3.1c-.08 0-.14-.07-.15-.15l-.02-.28-.15.25S2.37 3 2.31 3l-1.2.02a.16.16 0 0 1-.14-.08.15.15 0 0 1 0-.16C1.01 2.71 1.8 1 4 1c.22 0-1 0 0 0 .04.02 1.85.57 2.67 1.5.03.03.05.08.04.13s-.03.09-.07.11a.65.65 0 0 0-.27.53c0 .05-.02.09-.06.13a.15.15 0 0 1-.11.04Z"/><path fill="#b4ef11" d="M2.13 8.19A.17.17 0 0 1 2 8.12c-.73-1.05-.08-2.83-.05-2.9 0-.01 0-.02.02-.03 1-1.58 3.08-1.97 4.24-2.06.04 0 .09.01.12.04s.05.07.05.12c0 .13.05.26.13.37.03.03.04.08.03.12 0 .04-.03.08-.06.11h-.02c-.71 1.16-1.95 1.74-2 1.76-.06.03-.12.02-.17-.02a.17.17 0 0 1-.06-.16c.03-.16-.06-.47-.15-.72-.26.4-.09 1.09-.09 1.09.01.06 0 .12-.04.16l-.72.72c-.06.06-.15.06-.21.02l-.25-.19.11.45s0 .08-.02.12l-.57.98s-.08.08-.14.08Z"/><path fill="#e77825" d="M7.3 11.35s-.07-.01-.1-.03c-.29-.21-.64-.31-1-.26-.04 0-.09 0-.13-.04s-.06-.07-.06-.12c-.15-2.26-.05-4.64.28-7.07 0-.06.05-.11.11-.13s.12 0 .17.04a.67.67 0 0 0 .79.09c.05-.03.12-.03.17 0s.08.09.07.16c-.24 2.09-.29 4.44-.13 7.19 0 .06-.03.12-.09.15-.02.01-.05.02-.08.02"/><path fill="#e6bb7e" d="M0 14c0-.94.76-1.87 1.7-1.87.1 0 .2 0 .3.03.25-.66.88-1.11 1.6-1.11.43 0 .84.16 1.15.45.21-.71.86-1.2 1.63-1.2.83 0 1.52.59 1.67 1.37.3-.23.66-.36 1.05-.36.49 0 .94.2 1.27.57.16-.05.33-.07.5-.07.5 0 .97.22 1.29.6.9-.08 1.68.54 1.83 1.41v.19H0Z"/></g></g><g><g><circle cx="12" cy="12" r="3" fill="#fff"/><path fill="#fff" d="m14 12 2-1v-1l-1-1-2 2V8h-2v3L9 9l-1 1v1l2 1-2 1v1l1 1 2-2v3h2v-3l2 2 1-1v-1z"/><path d="M12 10c-1.1 0-2 .9-2 2s.9 2 2 2 2-.9 2-2-.9-2-2-2m0 3c-.55 0-1-.45-1-1s.45-1 1-1 1 .45 1 1-.45 1-1 1"/></g><circle cx="12" cy="12" r="1"/></g></g></svg>