<svg xmlns="http://www.w3.org/2000/svg" width="16" height="16"><path d="M13.54 9.65c-.06 0-.12-.04-.15-.09l-.64-1.11s-.03-.09-.02-.14l.12-.51-.29.22c-.07.06-.18.05-.24-.02l-.82-.82s-.06-.11-.05-.18c0 0 .2-.79-.1-1.24-.1.27-.2.6-.18.79v.06c0 .1-.08.19-.19.19s-.05 0-.08-.02c-.06-.03-1.47-.68-2.27-1.99l-.02-.02s-.07-.07-.07-.12 0-.1.04-.14c.09-.12.14-.27.15-.42 0-.05.02-.1.06-.13s.09-.05.14-.05c1.31.1 3.68.55 4.82 2.34 0 .01.01.02.02.04.03.09.77 2.11-.06 3.3-.03.05-.09.08-.15.08ZM8.91 3.69s-.09-.02-.13-.05a.2.2 0 0 1-.06-.14c0-.24-.12-.46-.31-.6a.22.22 0 0 1-.08-.13c0-.05.01-.1.05-.14.94-1.06 2.95-1.51 2.99-1.53.01 0-.25 0 0 0 2.37 0 3.33 1.72 3.47 1.97.02.03.04.07.04.12 0 .1-.08.19-.19.19l-1.21-.02s-.09-.02-.13-.05L13 2.96l-.03.35c0 .09-.08.16-.17.17l-1.18.12c-.09 0-.17-.04-.2-.13-.12-.36-.53-.54-.86-.63l.29.4c.04.05.05.13.02.19a.21.21 0 0 1-.15.11l-1.8.16H8.9ZM7.07 3.86h-.03l-1.8-.31c-.06-.01-.12-.05-.14-.11s-.02-.13.02-.18l.29-.4c-.33.09-.75.27-.86.63-.03.08-.11.14-.2.13L3.17 3.5c-.09 0-.16-.08-.17-.17l-.02-.32-.18.28a.19.19 0 0 1-.16.09l-1.36.02c-.07 0-.13-.03-.16-.09s-.04-.13 0-.19c.04-.08.94-2.02 3.44-2.02.25 0-1.14 0 0 0 .05.02 2.11.65 3.04 1.7.03.04.05.09.05.14s-.03.1-.08.13c-.19.14-.31.36-.31.6 0 .05-.02.11-.07.14-.03.03-.08.04-.12.04Z" style="fill:#b4ef11;fill-rule:evenodd"/><path d="M2.43 9.27c-.06 0-.12-.03-.15-.08-.83-1.19-.09-3.21-.06-3.3 0-.01.01-.02.02-.04 1.14-1.79 3.5-2.23 4.82-2.34.05 0 .1.01.14.05.04.03.06.08.06.13 0 .15.06.3.15.42.03.04.04.09.04.14s-.03.09-.07.12l-.02.02C6.55 5.7 5.15 6.35 5.09 6.38s-.14.02-.19-.02a.2.2 0 0 1-.07-.18c.03-.19-.07-.54-.17-.82-.29.45-.1 1.23-.1 1.24.02.06 0 .13-.05.18l-.82.82c-.07.07-.17.07-.24.02l-.29-.22.12.51s0 .1-.02.14l-.64 1.11c-.03.06-.09.09-.15.09Z" style="fill:#b4ef11;fill-rule:evenodd"/><path d="M8.31 12.86s-.08-.01-.11-.04c-.33-.24-.73-.35-1.14-.3-.05 0-.1 0-.14-.04s-.06-.08-.07-.13c-.17-2.57-.06-5.27.32-8.04 0-.07.06-.13.12-.15.07-.02.14 0 .19.04a.73.73 0 0 0 .89.09.182.182 0 0 1 .28.18c-.28 2.37-.33 5.05-.15 8.18 0 .07-.03.14-.1.17-.03.01-.06.02-.09.02Z" style="fill:#e77825;fill-rule:evenodd"/><path d="M.01 15.88c0-1.07.87-2.12 1.94-2.12.12 0 .23.01.34.03.28-.75 1-1.26 1.81-1.26.49 0 .96.19 1.31.51.24-.8.98-1.37 1.85-1.37.94 0 1.72.67 1.9 1.56.34-.26.75-.41 1.19-.41.56 0 1.07.23 1.44.64q.27-.09.57-.09c.57 0 1.1.25 1.47.68 1.02-.09 1.91.61 2.07 1.6v.22H.01Z" style="fill:#e6bb7e;fill-rule:evenodd"/></svg>