<svg xmlns="http://www.w3.org/2000/svg" width="16" height="16"><path d="M0 0h16v16H0z" style="fill:#2b313f"/><path d="M15 6H1V1h14zM15 15H1V7h14z" style="fill:#424a60"/><path d="M9.53 4.07H6.9c-.46 0-.84-.38-.84-.84v-.36c0-.13.11-.24.24-.24s.24.11.24.24v.36c0 .2.16.36.36.36h2.63c.2 0 .36-.16.36-.36v-.36c0-.13.11-.24.24-.24s.24.11.24.24v.36c0 .46-.38.84-.84.84M9.53 11H6.9c-.46 0-.84-.38-.84-.84V9.8c0-.13.11-.24.24-.24s.24.11.24.24v.36c0 .2.16.36.36.36h2.63c.2 0 .36-.16.36-.36V9.8c0-.13.11-.24.24-.24s.24.11.24.24v.36c0 .46-.38.84-.84.84" style="fill:#e7eced"/></svg>