<svg xmlns="http://www.w3.org/2000/svg" width="16" height="16"><defs><clipPath id="a"><path d="M-1 17h8v-5H2V2h8l2 3h5v-6H-1" style="fill:none"/></clipPath></defs><g style="clip-path:url(#a)"><path d="M15 1v14H1V1zm0-1H1C.45 0 0 .45 0 1v13.99c0 .55.45 1 1 1h13.99c.55 0 1-.45 1-1V1c0-.55-.45-1-1-1Z" style="fill:#40a0ff"/></g><path d="M12.29 6.75v9h-1.51v-9zm-.24 5.61h-.44c0-.44.04-.84.14-1.22s.23-.7.41-.98.4-.49.65-.64.54-.23.85-.23c.26 0 .49.04.71.13s.4.23.56.42.28.44.36.75.13.68.13 1.12v4.04h-1.51V11.7c0-.29-.03-.51-.09-.68s-.15-.29-.27-.36-.27-.11-.44-.11-.34.05-.48.14-.25.22-.33.39-.15.36-.19.57-.06.45-.06.7Z" style="fill:#40a0ff"/></svg>