<svg xmlns="http://www.w3.org/2000/svg" width="16" height="16"><rect width="15" height="15" x=".5" y=".5" rx=".99" ry=".99" style="fill:#0054a0"/><path d="M14.51 1c.18 0 .29.09.35.14.05.05.14.17.14.35v13.02c0 .27-.22.49-.49.49H1.49a.49.49 0 0 1-.49-.49V1.49c0-.27.22-.49.49-.49zm0-1H1.49C.67 0 0 .67 0 1.49v13.02C0 15.33.67 16 1.49 16h13.02c.82 0 1.49-.67 1.49-1.49V1.49C16 .67 15.33 0 14.51 0" style="fill:#006fff"/><path d="M.53 12.36s-.03.1-.03.15v1.5c0 .4.16.77.44 1.05s.66.44 1.05.44h1.4q.075 0 .15-.03s.1-.05.13-.09l3.85-2.4c.07-.07.65-.72.65-.82s-.76.5-.82.43c1.02-1.01-.49-1.9-.5-1.92L5.01 8.81c-.08-.08-.41-.43-.52-.43s-2 1.97-2.07 2.05l-1.79 1.8s-.07.08-.09.13Z" style="fill:#3d8c2a;stroke:#0c3500;stroke-miterlimit:10"/><path d="M.03 12.86S0 12.95 0 13v1.5c0 .4.16.77.44 1.05s.66.44 1.05.44h1.4q.075 0 .15-.03s.1-.05.13-.09l4.14-4.14a.385.385 0 0 0 .03-.53c0-.02-.02-.03-.03-.05L4.78 8.62a.4.4 0 0 0-.29-.12.4.4 0 0 0-.29.12l-4.08 4.1s-.07.08-.09.13Z" style="fill:#4ee01e"/><path d="M6.28 15.42c.05 0 2.28-1.14 2.28-1.14.05.02 2.28 0 2.28 0 .4 0 3.43-.75 3.43-1.14 0 0 1.16-1.09 1.14-1.14s.04-1.1 0-1.14l-3.85-3.95s-.08-.07-.13-.09-.1-.03-.16-.03-.11.01-.16.03a.4.4 0 0 0-.13.09L2.6 15.3s-.27.5 1.79-.54c0 0 1.89-.48 1.89.66Z" style="fill:#71b263;stroke:#0c3500;stroke-miterlimit:10"/><path d="M2.52 15.45s-.03.1-.03.15.01.1.03.15c.04.1.12.18.22.22s.1.03.15.03h11.62c.4 0 .77-.16 1.05-.44s.44-.66.44-1.05v-3.03q0-.075-.03-.15a.3.3 0 0 0-.09-.13l-4.3-4.29s-.08-.07-.13-.09-.1-.03-.16-.03-.11.01-.16.03a.4.4 0 0 0-.13.09l-8.39 8.4s-.07.08-.09.13Z" style="fill:#7cff5c"/><path d="M2.76 5.57c-.65 0-1.28-.27-1.76-.64V1.38c0-.27.18-.37.39-.38h3.64c.36.48.58 1.07.58 1.72a2.86 2.86 0 0 1-2.86 2.86Z" style="fill:#f8b64c"/></svg>