<svg xmlns="http://www.w3.org/2000/svg" width="16" height="16" data-name="Row 1"><defs><clipPath id="a"><path fill="none" d="M-1-1v18h4v-5H2v-1.98L-.1 6.31c-.55-.77-.84-1.71-.85-2.67C-1 0 .96-.9 3.41-.9 5.32-.9 6.99.32 7.68 2H9l3 3h5v-6z"/></clipPath></defs><g data-name="Layer"><g clip-path="url(#a)"><path fill="#ff0" d="M15 1v14H1V1zm0-1H1C.45 0 0 .45 0 1v14c0 .55.45 1 1 1h14c.55 0 1-.45 1-1V1c0-.55-.45-1-1-1"/></g><g data-name="icon"><g fill="#ff0" data-name="Text"><path d="M7.87 13.15V7.21h1.57v5.94c0 .57-.11 1.05-.32 1.46s-.5.72-.87.93-.78.32-1.24.32-.89-.09-1.25-.28-.66-.47-.87-.86-.32-.87-.32-1.46h1.58c0 .32.04.57.11.76s.17.33.3.41.28.13.45.13.33-.05.46-.16.23-.27.3-.48.1-.46.1-.76Zm6.57.38c0-.17-.02-.32-.05-.45s-.1-.25-.19-.36-.23-.22-.4-.33-.4-.22-.68-.33q-.495-.195-.93-.42c-.435-.225-.55-.33-.79-.52s-.41-.43-.54-.7-.2-.58-.2-.94.06-.67.19-.96.31-.54.54-.75.51-.37.83-.48.68-.17 1.07-.17c.55 0 1.02.12 1.42.35s.7.54.91.94.32.84.32 1.34h-1.56c0-.26-.04-.49-.11-.69s-.2-.36-.36-.47-.38-.17-.63-.17c-.24 0-.44.05-.6.14s-.27.22-.35.39-.11.35-.11.55c0 .15.03.28.1.4s.16.23.28.33.27.19.44.28.37.17.58.25c.39.15.74.31 1.04.49s.54.38.74.6.34.47.44.75.15.59.15.95-.06.67-.18.96-.3.54-.53.74-.51.37-.83.48-.69.17-1.09.17-.75-.06-1.09-.17-.65-.28-.92-.51-.47-.51-.63-.86-.23-.75-.23-1.22h1.56c0 .26.03.49.09.68s.15.34.26.46.26.2.42.25.35.08.56.08c.25 0 .45-.04.6-.13s.26-.21.33-.37.11-.34.11-.54Z"/></g></g><path fill="#f50637" d="M3.53 10.06c.19 0 .36-.09.48-.23l1.66-2.92.93-1.59c.27-.51.42-1.09.41-1.68C7.02 1.69 5.34.1 3.41.1S.04 1.69.04 3.65c0 .77.24 1.51.69 2.12l2.28 4.02c.12.17.31.27.51.26ZM1.67 3.41a1.9 1.9 0 1 1 3.8 0 1.9 1.9 0 1 1-3.8 0"/></g></svg>