<svg xmlns="http://www.w3.org/2000/svg" width="16" height="16"><defs><clipPath id="a"><path d="M-1 16h4v-3H2V2h7l3 3h5v-6H-1" style="fill:none"/></clipPath></defs><g style="clip-path:url(#a)"><path d="M15 1v14H1V1zm0-1H1C.45 0 0 .45 0 1v14c0 .55.45 1 1 1h14c.55 0 1-.45 1-1V1c0-.55-.45-1-1-1" style="fill:#ff0"/></g><path d="M7.87 13.15V7.21h1.57v5.94c0 .57-.11 1.05-.32 1.46s-.5.72-.87.93-.78.32-1.24.32-.89-.09-1.25-.28-.66-.47-.87-.86-.32-.87-.32-1.46h1.58c0 .32.04.57.11.76s.17.33.3.41.28.13.45.13.33-.05.46-.16.23-.27.3-.48.1-.46.1-.76ZM14.44 13.53c0-.17-.02-.32-.05-.45s-.1-.25-.19-.36-.23-.22-.4-.33-.4-.22-.68-.33q-.495-.195-.93-.42c-.435-.225-.55-.33-.79-.52s-.41-.43-.54-.7-.2-.58-.2-.94.06-.67.19-.96.31-.54.54-.75.51-.37.83-.48.68-.17 1.07-.17c.55 0 1.02.12 1.42.35s.7.54.91.94.32.84.32 1.34h-1.56c0-.26-.04-.49-.11-.69s-.2-.36-.36-.47-.38-.17-.63-.17c-.24 0-.44.05-.6.14s-.27.22-.35.39-.11.35-.11.55c0 .15.03.28.1.4s.16.23.28.33.27.19.44.28.37.17.58.25c.39.15.74.31 1.04.49s.54.38.74.6.34.47.44.75.15.59.15.95-.06.67-.18.96-.3.54-.53.74-.51.37-.83.48-.69.17-1.09.17-.75-.06-1.09-.17-.65-.28-.92-.51-.47-.51-.63-.86-.23-.75-.23-1.22h1.56c0 .26.03.49.09.68s.15.34.26.46.26.2.42.25.35.08.56.08c.25 0 .45-.04.6-.13s.26-.21.33-.37.11-.34.11-.54Z" style="fill:#ff0"/></svg>