<svg xmlns="http://www.w3.org/2000/svg" xmlns:xlink="http://www.w3.org/1999/xlink" width="16" height="16" data-name="Row 7"><defs><symbol id="b" data-name="Gear Mask" viewBox="0 0 11 11"><path d="M11 0H6.5c-.7 0-1.37.11-2 .32L4.1.4l-.47.28q-.45.225-.87.51l-.14.08-.05.06A6.47 6.47 0 0 0 .02 6.99H0V11h11z"/></symbol><filter id="a" width="17" height="17" x="0" y="0" color-interpolation-filters="sRGB" filterUnits="userSpaceOnUse"><feFlood flood-color="#fff" result="bg"/><feBlend in="SourceGraphic" in2="bg"/></filter><mask id="c" width="17" height="17" x="0" y="0" data-name="mask-2" maskUnits="userSpaceOnUse"><g filter="url(#a)"><use xlink:href="#b" width="11" height="11" transform="translate(6 6)"/></g></mask></defs><g data-name="Layer"><g mask="url(#c)"><g fill="#ff2020"><path d="M14.01 6.44c.11-.61 0-1.18-.88-2.06L14.01 0H6.13l1.75 4.38C7 7.01 4.86 7.65 3.5 7.88 1.75 7 2.13 5.45 1.75 4.38c-.1-.27-.58-.14-.58-.37C.43 5.51.1 7.14.22 8.48c0 .65.16 1.39.69 1.94.71.93 2.59 1.83 4.34.95.58-.22 2-.57 2.63-.88.99-.48.7-.62 1.75-.88.4-.1.78-.99 1.18-1.04.74-.1 1.43-.2 2.01-.53.45-.26.84-.71 1.04-1.14 0 0 .01-.02.02-.03.07-.15.12-.31.13-.44Z"/><circle cx="1.75" cy="3.45" r="1.7"/></g></g><g><g><circle cx="12" cy="12" r="3" fill="#fff"/><path fill="#fff" d="m14 12 2-1v-1l-1-1-2 2V8h-2v3L9 9l-1 1v1l2 1-2 1v1l1 1 2-2v3h2v-3l2 2 1-1v-1z"/><path d="M12 10c-1.1 0-2 .9-2 2s.9 2 2 2 2-.9 2-2-.9-2-2-2m0 3c-.55 0-1-.45-1-1s.45-1 1-1 1 .45 1 1-.45 1-1 1"/></g><circle cx="12" cy="12" r="1"/></g></g></svg>