<svg xmlns="http://www.w3.org/2000/svg" xmlns:xlink="http://www.w3.org/1999/xlink" width="16" height="16" data-name="Row 7"><defs><symbol id="b" data-name="Gear Mask" viewBox="0 0 11 11"><path d="M11 0H6.5c-.7 0-1.37.11-2 .32L4.1.4l-.47.28q-.45.225-.87.51l-.14.08-.05.06A6.47 6.47 0 0 0 .02 6.99H0V11h11z"/></symbol><filter id="a" width="17" height="17" x="0" y="0" color-interpolation-filters="sRGB" filterUnits="userSpaceOnUse"><feFlood flood-color="#fff" result="bg"/><feBlend in="SourceGraphic" in2="bg"/></filter><mask id="c" width="17" height="17" x="0" y="0" data-name="mask-2" maskUnits="userSpaceOnUse"><g filter="url(#a)"><use xlink:href="#b" width="11" height="11" transform="translate(6 6)"/></g></mask></defs><g data-name="Layer"><g mask="url(#c)"><g fill="#f43e14"><path d="M10.74 0h-6.9l1.53 4.6c0 1.53-.71 3.36-1.06 3.69-.47.45-1.02.79-1.6.99-.7-.36-1.03-1.16-.73-1.85.03-.08.13-.45.17-.53-.12-.15-.17-.24-.17-.3-.11.18-.25.32-.44.31-.67-.04-.77-1.42-.77-.77 0 .39.1.67.4.87-.28.64-.7 1.32-.83 2.1-.16.94 0 1.93.81 2.49 1.89 1.31 3.89-1.02 6.09-1.34 1.97-.29 4.05-1.15 4.28-1.82.22-.67 0-1.53-2.3-3.07L10.75 0Z"/><circle cx="1.53" cy="6.91" r="1.53"/></g></g><g><g><circle cx="12" cy="12" r="3" fill="#fff"/><path fill="#fff" d="m14 12 2-1v-1l-1-1-2 2V8h-2v3L9 9l-1 1v1l2 1-2 1v1l1 1 2-2v3h2v-3l2 2 1-1v-1z"/><path d="M12 10c-1.1 0-2 .9-2 2s.9 2 2 2 2-.9 2-2-.9-2-2-2m0 3c-.55 0-1-.45-1-1s.45-1 1-1 1 .45 1 1-.45 1-1 1"/></g><circle cx="12" cy="12" r="1"/></g></g></svg>