<svg xmlns="http://www.w3.org/2000/svg" width="16" height="16"><path d="M3.96 1.5c-1.15 0-2.31 1.37-2.31 2.33v1.75C1.65 6.87.49 7.33.49 7.91s1.16 1.05 1.16 2.33v1.75c0 1.17 1.15 2.33 2.31 2.33M12.04 1.5c1.15 0 2.31 1.17 2.31 2.33v1.75c0 1.29 1.16 1.75 1.16 2.33s-1.16 1.05-1.16 2.33v1.75c0 1.17-1.15 2.33-2.31 2.33" style="fill:none;stroke:#ffd000;stroke-linecap:round;stroke-linejoin:round"/><rect width="2.31" height="2.33" x="6.85" y="7.92" rx=".75" ry=".75" style="fill:#ffcf00"/><rect width="2.31" height="2.33" x="10.31" y="7.92" rx=".75" ry=".75" style="fill:#ffcf00"/><rect width="2.31" height="2.33" x="3.39" y="7.92" rx=".75" ry=".75" style="fill:#ffcf00"/></svg>