<svg xmlns="http://www.w3.org/2000/svg" width="16" height="16"><path d="M4.43 6.29C3.88 7.71 7.49 7.03 9 8c-.45-1.98-2.64-4.88-4-5.46s-1.77-.4-1.87-.34c-.09.06-.14.17-.13.27 0 0 1.98 2.4 1.43 3.82" style="fill:#c6c6c6"/><path d="M15.88 3.43c-1.88-.46-1.86.06-2.51.12-.28-.25-1.4-.92-2.54-.37-1.15.55-1.29 1.3-1.29 2.37 0 .41-.38.87-.38.87.2.41.11 1.31 0 1.14-.12-.18-.35-1.11-.68-1.51C5.95 3.63.53 4.13.53 4.13c-.58.16-1.04.44.65 1.62 1.91 1.34 4 2.76 4.82 3.33.66.45-.49 1.54-1.42 1.92H1.14l3.43 3.43 1.14-1.14c2.64-.02 4.91-.92 6.28-2.29 2-2 1-4.02 1-4.02 1-1 1-2 1-2 2-1 2.19-1.39 1.88-1.54Z" style="fill:#fff"/></svg>