<svg xmlns="http://www.w3.org/2000/svg" width="16" height="16"><path d="M12 5 11.94.5c0-.28-.22-.5-.5-.5H1.48A.48.48 0 0 0 1 .48v13.04c0 .26.21.48.48.48H8v-1H2V1h9v4" style="fill:#fff"/><path d="M3 6h5v1H3zM3 9h4v1H3zM3 3h7v1H3z" style="fill:#fff"/><path d="M11.46 7.05c-1.21.21-2.2 1.21-2.41 2.42-.19 1.1.22 2.1.95 2.75v3.06c0 .27.32.4.51.21l1.04-1.04c.25-.25.66-.25.91 0l1.04 1.04a.3.3 0 0 0 .51-.21v-3.06c.61-.55 1-1.34 1-2.22a3 3 0 0 0-3.54-2.95ZM12 12c-1.1 0-2-.9-2-2s.9-2 2-2 2 .9 2 2-.9 2-2 2" style="fill:red"/></svg>