<svg xmlns="http://www.w3.org/2000/svg" width="16" height="16" data-name="Layer 125 copy 2"><defs><filter id="a" width="16" height="16" x="0" y="0" color-interpolation-filters="sRGB" filterUnits="userSpaceOnUse"><feFlood flood-color="#fff" result="bg"/><feBlend in="SourceGraphic" in2="bg"/></filter><mask id="b" width="16" height="16" x="0" y="0" data-name="mask-8" maskUnits="userSpaceOnUse"><g filter="url(#a)"><path d="M6 6h10v10H6z"/></g></mask></defs><g mask="url(#b)"><g fill="#ff13c0"><g><path d="m3.47 8.67.92.86h.81V13l.87-.87V8.67zm5.2.86.86-.86V7.8h-.86zm-1.74-.86v2.6l.87-.87V8.67z"/></g><g><path d="M12.13 6.93H1.73l.87.87H13zM10.4 5.2H0l.87.87h10.4z"/></g><g><path d="m4.33 3.47-.86.86v.87h.86zm1.74-1.74-.87.87v1.73h.87zm2.6 1.74H7.8V0l-.87.87v3.47h2.6l-.87-.87Z"/></g></g></g><g fill="#e8eaed"><path d="M13 13h3v3h-3zm0-5h3v3h-3zM8 8h3v4H8zm3 2v1h1v3h1v-4z"/></g></svg>