<svg xmlns="http://www.w3.org/2000/svg" width="16" height="16"><path d="M7.34.42c.41-.23.92-.23 1.33 0 1.91 1.08 3.82 2.16 5.74 3.24.36.2.6.61.6 1.02v6.86c0 .44-.26.85-.65 1.05-1.92 1.08-3.84 2.17-5.77 3.25-.39.22-.9.21-1.28-.04-.58-.33-1.15-.67-1.73-1-.12-.07-.25-.13-.33-.24.07-.1.2-.11.31-.15.24-.08.46-.2.68-.32.06-.04.12-.02.18.01.49.28.98.57 1.48.85.11.06.21-.02.3-.07 1.88-1.06 3.77-2.12 5.65-3.19l.11-.19V5.01c0-.09-.04-.17-.12-.2-1.92-1.08-3.83-2.16-5.75-3.24a.195.195 0 0 0-.23 0C5.94 2.65 4.03 3.73 2.12 4.81c-.08.04-.13.11-.12.2v6.62s1 .8 1.54 1.1c.3.16.67.26 1.01.13.29-.11.5-.41.49-.72V5.37c0-.1.09-.18.19-.17H6c.11 0 .18.11.17.21v6.81c0 .61-.25 1.26-.81 1.56-.69.36-1.54.28-2.22-.06-.59-.29-1.15-.64-1.73-.96-.4-.21-.4-1.1-.4-1.1v-7c0-.43.25-.84.62-1.04 1.9-1.05 3.8-2.13 5.71-3.2" style="fill:#a3ea0a"/><path d="M9.19 5.06c.88-.06 1.82-.03 2.61.4.61.33.95 1.03.96 1.71-.02.09-.11.14-.2.14h-.77c-.11 0-.17-.1-.18-.19-.07-.33-.25-.65-.56-.81-.47-.24-1.02-.22-1.53-.22-.37.02-.78.05-1.1.27-.24.17-.32.5-.23.78.08.19.31.26.49.32 1.06.28 2.18.25 3.22.61.43.15.85.44 1 .89.19.6.11 1.33-.32 1.81-.35.4-.86.62-1.36.73-.67.15-1.37.15-2.06.09-.64-.07-1.31-.24-1.81-.68-.42-.37-.63-.94-.61-1.5 0-.09.1-.16.19-.15h.77c.1 0 .18.08.18.18.05.31.16.64.43.82.52.34 1.18.31 1.78.32.5-.02 1.05-.03 1.46-.36.21-.19.28-.5.22-.77-.06-.23-.3-.33-.5-.4-1.05-.33-2.18-.21-3.22-.59-.42-.15-.83-.43-.99-.86-.23-.61-.12-1.37.35-1.84.46-.47 1.13-.65 1.77-.71Z" style="fill:#a3ea0a"/></svg>