<svg xmlns="http://www.w3.org/2000/svg" width="16" height="16" data-name="Row 2"><defs><filter id="a" width="18" height="18" x="0" y="0" color-interpolation-filters="sRGB" filterUnits="userSpaceOnUse"><feFlood flood-color="#fff" result="bg"/><feBlend in="SourceGraphic" in2="bg"/></filter><mask id="b" width="18" height="18" x="0" y="0" data-name="mask-1" maskUnits="userSpaceOnUse"><g filter="url(#a)"><path d="M17 8.82v-.7C17 6.4 15.65 5 14 5H8C6.35 5 5 6.4 5 8.12v.7c-.62.47-1 1.22-1 2.05v1.25c0 .83.38 1.58 1 2.05v.7c0 .4.07.78.2 1.13.43 1.17 1.53 2 2.8 2h1.75c.46 0 .89-.14 1.25-.39.36.24.79.39 1.25.39H14c1.27 0 2.36-.83 2.8-2 .13-.35.2-.73.2-1.13v-.7c.62-.47 1-1.22 1-2.05v-1.25c0-.83-.38-1.58-1-2.05"/></g></mask></defs><g data-name="Layer 146"><g mask="url(#b)"><g fill-rule="evenodd"><path fill="#815405" d="m14 0-2 2v12l2-2z"/><path fill="#d48a08" d="M12 14V2H0v12z"/><path fill="#f6a009" d="M14 0H2L0 2h12z"/><path fill="#ffd491" d="M9 0H7L5 2h2zM7 14V2H5v12z"/></g></g><g fill="#ff0"><path d="M15.58 10.32c-.65-.15-.58-.57-.58-1.07V8.13c0-.62-.45-1.12-1-1.12h-1.75c-.14 0-.25.13-.25.28v.56c0 .16.11.28.25.28H13c.55 0 1 .5 1 1.12 0 0 0 2.25 1 2.25-1 0-1 2.25-1 2.25 0 .62-.45 1.12-1 1.12h-.75c-.14 0-.25.13-.25.28v.56c0 .16.11.28.25.28H14c.55 0 1-.5 1-1.12v-1.12c0-.5-.07-.92.58-1.07.24-.05.42-.28.42-.55v-1.25c0-.28-.18-.5-.42-.55ZM9.75 7H8c-.55 0-1 .5-1 1.12v1.12c0 .5.07.92-.58 1.07-.24.05-.42.28-.42.55v1.25c0 .28.18.5.42.55.65.15.58.57.58 1.07v1.12c0 .62.45 1.12 1 1.12h1.75c.14 0 .25-.13.25-.28v-.56c0-.16-.11-.28-.25-.28H9c-.55 0-1-.5-1-1.12 0 0 0-2.25-1-2.25 1 0 1-2.25 1-2.25 0-.62.45-1.12 1-1.12h.75c.14 0 .25-.13.25-.28v-.56c0-.16-.11-.28-.25-.28Z"/></g></g></svg>