<svg xmlns="http://www.w3.org/2000/svg" xmlns:xlink="http://www.w3.org/1999/xlink" width="16" height="16" data-name="Row 2"><defs><symbol id="d" data-name="Lock" viewBox="0 0 8.01 11"><g data-name="Layer 99"><g><path fill="#fff" fill-rule="evenodd" d="M8.01 5v5H0V5c-.01-.55.44-1 .99-1H7c.55 0 1 .45 1 1Z" data-name="lock"/><path fill="#b1b1b1" fill-rule="evenodd" d="M8.01 7v3H0s8-5 8-3Zm-2-1h-3" data-name="lock"/><path fill="#fff" fill-rule="evenodd" d="M5.01 0h-2a2 2 0 0 0-2 2v3h1V2c0-.55.45-1 1-1h2c.55 0 1 .45 1 1v3h1V2c0-1.1-.9-2-2-2"/><path d="M3.01 5h2v3h-2zm-2-1.5h1V4h-1zm5 0h1V4h-1z"/></g></g></symbol><symbol id="b" data-name="Lock Mask" viewBox="0 0 10 12.3"><path fill-rule="evenodd" d="M10 1.38C9.27.54 8.2 0 7 0H5C2.79 0 1 1.79 1 4v.77l-.12.12C.31 5.45 0 6.2 0 7v5.29h10z"/></symbol><filter id="a" width="16" height="16.3" x="0" y="0" color-interpolation-filters="sRGB" filterUnits="userSpaceOnUse"><feFlood flood-color="#fff" result="bg"/><feBlend in="SourceGraphic" in2="bg"/></filter><mask id="c" width="16" height="16.3" x="0" y="0" data-name="mask-1" maskUnits="userSpaceOnUse"><g filter="url(#a)"><use xlink:href="#b" width="10" height="12.3" transform="translate(6 4)"/></g></mask></defs><g data-name="Layer"><g mask="url(#c)"><g fill-rule="evenodd"><path fill="#815405" d="m14 0-2 2v12l2-2z"/><path fill="#d48a08" d="M12 14V2H0v12z"/><path fill="#f6a009" d="M14 0H2L0 2h12z"/><path fill="#ffd491" d="M9 0H7L5 2h2zM7 14V2H5v12z"/></g></g><use xlink:href="#d" width="8.01" height="11" transform="translate(7.99 6)"/></g></svg>