<svg xmlns="http://www.w3.org/2000/svg" width="16" height="16" data-name="Row 2"><defs><filter id="a" width="16" height="16" x="0" y="0" color-interpolation-filters="sRGB" filterUnits="userSpaceOnUse"><feFlood flood-color="#fff" result="bg"/><feBlend in="SourceGraphic" in2="bg"/></filter><mask id="b" width="16" height="16" x="0" y="0" data-name="mask-1" maskUnits="userSpaceOnUse"><g filter="url(#a)"><path fill-rule="evenodd" d="M11 4c-5 0-7 3-6.99 7v5H16V4z"/></g></mask></defs><g data-name="Layer 96"><g mask="url(#b)"><g fill-rule="evenodd"><path fill="#815405" d="m14 0-2 2v12l2-2z"/><path fill="#d48a08" d="M12 14V2H0v12z"/><path fill="#f6a009" d="M14 0H2L0 2h12z"/><path fill="#ffd491" d="M9 0H7L5 2h2zM7 14V2H5v12z"/></g></g><path fill="#fff" fill-rule="evenodd" d="M6.42 9H8l1-2.58C7.07 7.25 6.42 9 6.42 9M8 10H6.1c-.13.67-.13 1.33 0 2H8zm-1.58 3.01c.54 1.22 1.43 2.04 2.58 2.57-.34-.63-.82-1.87-1-2.57zM10 6.09 9 9h4l-1-2.91a5.6 5.6 0 0 0-2 0M15.58 9c-.49-1.17-1.39-2-2.58-2.58L14 9zM10 15.9c.67.13 1.33.13 2 0l1-2.9H9zm3-.32c1.15-.53 2.04-1.36 2.58-2.57H14zM15.9 10H14v2h1.9c.13-.67.13-1.33 0-2M9 10v2h4v-2z" data-name="path"/></g></svg>