<svg xmlns="http://www.w3.org/2000/svg" width="16" height="16"><path d="M0 11.43h2.28v2.29H0zM13.7 11.43h2.28v2.29H13.7zM4.57 11.43h2.28v2.29H4.57zM9.14 11.43h2.28v2.29H9.14z" style="fill:#606060"/><path d="M2.28 11.43h2.28v2.29H2.28zM6.85 11.43h2.28v2.29H6.85zM11.42 11.43h2.28v2.29h-2.28z" style="fill:#282828"/><path d="M2.28 9.14h2.28v2.29H2.28zM6.85 9.14h2.28v2.29H6.85zM11.42 9.14h2.28v2.29h-2.28z" style="fill:#606060"/><path d="M4.57 9.14h2.28v2.29H4.57zM9.14 9.14h2.28v2.29H9.14zM13.7 9.14h2.28v2.29H13.7zM0 9.14h2.28v2.29H0z" style="fill:#282828"/><path d="M0 6.86h2.28v2.29H0zM13.7 6.86h2.28v2.29H13.7zM4.57 6.86h2.28v2.29H4.57zM9.14 6.86h2.28v2.29H9.14z" style="fill:#606060"/><path d="M2.28 6.86h2.28v2.29H2.28zM6.85 6.86h2.28v2.29H6.85zM11.42 6.86h2.28v2.29h-2.28z" style="fill:#282828"/><path d="M2.28 4.57h2.28v2.29H2.28zM6.85 4.57h2.28v2.29H6.85zM11.42 4.57h2.28v2.29h-2.28z" style="fill:#606060"/><path d="M4.57 4.57h2.28v2.29H4.57zM9.14 4.57h2.28v2.29H9.14zM13.7 4.57h2.28v2.29H13.7zM0 4.57h2.28v2.29H0z" style="fill:#282828"/><path d="M0 2.29h2.28v2.29H0zM13.7 2.29h2.28v2.29H13.7zM4.57 2.29h2.28v2.29H4.57zM9.14 2.29h2.28v2.29H9.14z" style="fill:#606060"/><path d="M2.28 2.29h2.28v2.29H2.28zM6.85 2.29h2.28v2.29H6.85zM11.42 2.29h2.28v2.29h-2.28z" style="fill:#282828"/><path d="M2.28 0h2.28v2.29H2.28zM6.85 0h2.28v2.29H6.85zM11.42 0h2.28v2.29h-2.28z" style="fill:#606060"/><path d="M4.57 0h2.28v2.29H4.57zM9.14 0h2.28v2.29H9.14zM13.7 0h1.28c.56 0 1.01.45 1.01 1v1.28h-2.28V0ZM1 0h1.28v2.29H0V1.01C0 .45.45 0 1 0" style="fill:#282828"/><path d="M.6 12.28s-.03.1-.03.15v1.5c0 .4.16.77.44 1.05s.66.44 1.05.44h1.4q.075 0 .15-.03s.1-.05.13-.09l3.85-2.4c.07-.07.65-.72.65-.82s-.76.5-.82.43c1.02-1.01-.49-1.9-.5-1.92L5.08 8.73c-.08-.08-.41-.43-.52-.43s-2 1.97-2.07 2.05L.7 12.15s-.07.08-.09.13Z" style="fill:#3d8c2a;stroke:#0c3500;stroke-miterlimit:10"/><path d="M.03 12.85S0 12.95 0 13v1.5c0 .4.16.77.44 1.05s.66.44 1.05.44h1.4q.075 0 .15-.03s.1-.05.13-.09l4.14-4.14a.385.385 0 0 0 .03-.53c0-.02-.02-.03-.03-.05L4.78 8.61a.4.4 0 0 0-.29-.12.4.4 0 0 0-.29.12L.12 12.72s-.07.08-.09.13" style="fill:#4ee01e"/><path d="M6.28 15.43c.05 0 2.28-1.14 2.28-1.14.05.02 2.28 0 2.28 0 .4 0 3.43-.75 3.43-1.14 0 0 1.16-1.1 1.14-1.14-.02-.05.04-1.1 0-1.14l-3.85-3.95s-.08-.07-.13-.09-.1-.03-.16-.03-.11.01-.16.03a.4.4 0 0 0-.13.09L2.6 15.31s-.27.5 1.79-.54c0 0 1.89-.48 1.89.66Z" style="fill:#71b263;stroke:#0c3500;stroke-miterlimit:10"/><path d="M2.51 15.45s-.03.1-.03.15.01.1.03.15c.04.1.12.18.22.22s.1.03.15.03h11.61c.4 0 .77-.16 1.05-.44s.44-.66.44-1.05v-3.03q0-.075-.03-.15a.3.3 0 0 0-.09-.13l-4.3-4.29s-.08-.07-.13-.09-.1-.03-.16-.03-.11.01-.16.03a.4.4 0 0 0-.13.09l-8.38 8.4s-.07.08-.09.13Z" style="fill:#7cff5c"/></svg>