<svg xmlns="http://www.w3.org/2000/svg" width="16" height="16" data-name="Row 1"><defs><clipPath id="a"><path fill="none" d="M-1 16h3V2h7l3 3h5v-6H-1"/></clipPath></defs><g data-name="Layer"><g clip-path="url(#a)"><path fill="#0f0" d="M15 1v14H1V1zm0-1H1C.45 0 0 .45 0 1v14c0 .55.45 1 1 1h14c.55 0 1-.45 1-1V1c0-.55-.45-1-1-1"/></g><g fill="#0f0" data-name="Text"><path d="M6.9 12.67H5.12v-1.31H6.9c.27 0 .49-.06.65-.17s.29-.28.36-.48.11-.44.11-.7-.04-.49-.11-.72-.2-.41-.36-.54-.38-.21-.65-.21H5.61v7.22H4.04V7.22h2.87c.57 0 1.05.12 1.46.36s.72.57.93.98.33.89.33 1.43-.11 1.03-.33 1.43-.53.71-.93.93-.89.33-1.46.33Zm7.54.86c0-.17-.02-.32-.05-.45s-.1-.25-.19-.36-.23-.22-.4-.33-.4-.22-.68-.33q-.495-.195-.93-.42c-.435-.225-.55-.33-.79-.52s-.41-.43-.54-.7-.2-.58-.2-.94.06-.67.19-.96.31-.54.54-.75.51-.37.83-.48.68-.17 1.07-.17c.55 0 1.02.12 1.42.35s.7.54.91.94.32.84.32 1.34h-1.56c0-.26-.04-.49-.11-.69s-.2-.36-.36-.47-.38-.17-.63-.17c-.24 0-.44.05-.6.14s-.27.22-.35.39-.11.35-.11.55c0 .15.03.28.1.4s.16.23.28.33.27.19.44.28.37.17.58.25c.39.15.74.31 1.04.49s.54.38.74.6.34.47.44.75.15.59.15.95-.06.67-.18.96-.3.54-.53.74-.51.37-.83.48-.69.17-1.09.17-.75-.06-1.09-.17-.65-.28-.92-.51-.47-.51-.63-.86-.23-.75-.23-1.22h1.56c0 .26.03.49.09.68s.15.34.26.46.26.2.42.25.35.08.56.08c.25 0 .45-.04.6-.13s.26-.21.33-.37.11-.34.11-.54Z"/></g></g></svg>