<svg xmlns="http://www.w3.org/2000/svg" xmlns:xlink="http://www.w3.org/1999/xlink" width="16" height="16" data-name="Row 4"><defs><symbol id="b" data-name="Gear Mask" viewBox="0 0 11 11"><path d="M11 0H6.5c-.7 0-1.37.11-2 .32L4.1.4l-.47.28q-.45.225-.87.51l-.14.08-.05.06A6.47 6.47 0 0 0 .02 6.99H0V11h11z"/></symbol><filter id="a" width="16" height="16" x="0" y="0" color-interpolation-filters="sRGB" filterUnits="userSpaceOnUse"><feFlood flood-color="#fff" result="bg"/><feBlend in="SourceGraphic" in2="bg"/></filter><mask id="c" width="16" height="16" x="0" y="0" data-name="mask-1" maskUnits="userSpaceOnUse"><g filter="url(#a)"><use xlink:href="#b" width="11" height="11" transform="translate(5 5)"/></g></mask></defs><g data-name="Layer copy 4"><g mask="url(#c)"><g data-name="Layer copy 7"><path fill="#ff0" d="M11 5c0 1.1-.9 2-2 2H5c-1.1 0-2 .9-2 2v2c0 1.1.9 2 2 2h3c1.1 0 2-.9 2-2v-1H8v1c0 .48-.52 1-1 1s-1-.52-1-1V9h6c.55 0 1-.45 1-1V5c0-.55-.45-1-1-1h-1z"/><path fill="#00c6fd" d="M2 8c0-1.1.9-2 2-2h4c1.1 0 2-.9 2-2V2c0-1.1-.9-2-2-2H5C3.9 0 3 .9 3 2v1h2V2c0-.48.52-1 1-1s1 .52 1 1v2H1c-.55 0-1 .45-1 1v3c0 .55.45 1 1 1h1z"/></g></g><g><g><circle cx="12" cy="12" r="3" fill="#fff"/><path fill="#fff" d="m14 12 2-1v-1l-1-1-2 2V8h-2v3L9 9l-1 1v1l2 1-2 1v1l1 1 2-2v3h2v-3l2 2 1-1v-1z"/><path d="M12 10c-1.1 0-2 .9-2 2s.9 2 2 2 2-.9 2-2-.9-2-2-2m0 3c-.55 0-1-.45-1-1s.45-1 1-1 1 .45 1 1-.45 1-1 1"/></g><circle cx="12" cy="12" r="1"/></g></g></svg>