<svg xmlns="http://www.w3.org/2000/svg" width="16" height="16"><path d="M11.99 8V4.97h-10c-.55 0-1 .45-1 1V13c0 .55.45 1 1 1h1.03v-3.5c0-.83.67-1.5 1.5-1.5h6.47c.55 0 1-.45 1-1" style="fill:#71c6ff"/><path d="M.99 13c0 .55.45 1 1 1h1.03v-3.5C2 14 .99 13 .99 13" style="opacity:.3"/><circle cx="9" cy="7" r="1"/><path d="M13 5v3.49c0 .83-.67 1.51-1.51 1.51H5.02c-.55 0-1 .45-1 1v2.99h9.97c.55 0 1-.45 1-1V6c0-.55-.45-1-1-1h-1Z" style="fill:#ffd028"/><path d="M4.03 13.99H14c.55 0 1-.45 1-1V6c0 8-10.97 7.99-10.97 7.99" style="opacity:.22"/><circle cx="7" cy="12" r="1"/><path d="M5 2v2h1V3h4v1h1V2z" style="fill:#71c6ff"/><path d="M5 4h1v1H5z" style="fill:#005369"/><path d="M10 4h1v1h-1z" style="fill:#005468"/></svg>