<svg xmlns="http://www.w3.org/2000/svg" width="16" height="16"><path d="M4.76 3.97h-.38s-.38-.13-.08-.6c.3-.46.85-.53 1.13-1.2 0 0 .06 1.3-.67 1.8" style="fill:#5b2d0e"/><path d="M6.44 1.74a.38.38 0 0 0-.5-.15c-.24.13-.56.38-.71.87-.03.09-.04.19-.05.29-.02.24-.15.84-.8 1.2 0 0 .84.61 1.49 0 0 0 .9-.81 1.52-.4 0 0-.58-1.23-.94-1.82ZM8.17 3.45s-.01-.63.57-1.27c0 0 .65-.66.7-1.38A.76.76 0 0 0 8.8.01c-.34-.05-.82.02-1.38.51l-.22.2c-.09.08-.11.22-.05.33.27.46.94 1.67 1.01 2.41Z" style="fill:#a85c29"/><path d="M6.31 2.22s.24.29.78.02c.17-.09.32-.23.39-.41.06-.15.09-.35-.03-.57 0 0 .72.75.84 2.43h-.86s-.84-.47-1.12-1.47" style="fill:#f9a369"/><path d="M6.86 2.38c-.15.03-.45 0-.55-.16-.15-.24-.07-.49.23-.74 0 0 .68-.53.92-.2.06.08.12.3.09.48-.04.25-.21.54-.68.63Z" style="fill:#5b2d0e"/><path d="M7.47 4.47s-.37.22-.51.71c0 0-.67 2.23-2.42 3.54-.19.14-.37.3-.53.47-.54.61-1.5 2.13-.73 4.02 0 0 .82 2.23 4.29 2.73 1.28.18 2.6-.07 3.68-.78.82-.54 1.62-1.39 1.93-2.72.11-.45.12-.92.02-1.37-.13-.61-.47-1.47-1.35-2.21-.56-.48-1.09-.99-1.54-1.56-.67-.85-1.51-2.02-1.85-2.93l-1 .11Z" style="fill:#f9a369"/><path d="M11.87 8.86c-.56-.48-1.09-.99-1.54-1.56-.11-.13-.22-.28-.33-.42.21.8.37 1.74.39 2.72.04 3.06-2.4 5.44-5.23 5.56.61.35 1.4.65 2.43.8 1.28.18 2.6-.07 3.68-.78.82-.54 1.62-1.39 1.93-2.72.11-.45.12-.92.02-1.37-.13-.61-.47-1.47-1.35-2.21Z" style="fill:#a85c29"/><path d="M7.77 3.74s-.25 1.06-.45 1.58c-.02.05-.03.1-.02.15v.01c.05.34.53.33.57-.02 0-.08.01-.17 0-.29 0 0-.16-.89-.1-1.44Z" style="fill:#5b2d0e"/><path d="M8.2 4.45s.67 1.65-.09 3.52c-.06.14.03.29.17.31.11.02.22-.05.25-.16.17-.55.42-2.23-.08-3.63z" style="fill:#281104;stroke:#2a0900;stroke-miterlimit:10;stroke-width:.25px"/><path d="M8 4.35S8.67 6 7.91 7.87c-.06.14.03.29.17.31.11.02.22-.05.25-.16.17-.55.61-2.24.11-3.64z" style="fill:#66320e"/><path d="M7.89 4.57s1.66 1.69.88 6.05c-.03.15.07.29.21.31.15.03.29-.07.32-.21.18-.94.46-4.2-.8-6.16h-.61Z" style="fill:#281104;stroke:#2a0900;stroke-miterlimit:10;stroke-width:.25px"/><path d="M8.01 4.55s1.34 1.61.55 5.97c-.03.15.07.29.21.31.15.03.29-.07.32-.21.18-.94.69-4.2-.57-6.16l-.51.08Z" style="fill:#66320e"/><path d="M7.12 4.31c0 .14-.05.24.09.25l1.15.14c.16.02.15-.04.17-.24L7.12 4.3Z" style="fill:#281104;stroke:#2a0900;stroke-miterlimit:10;stroke-width:.25px"/><path d="M6.97 4.3v.03c0 .13.1.24.23.25l1.19.1c.15.01.28-.1.28-.25 0-.13-.1-.24-.23-.25l-1.19-.13a.25.25 0 0 0-.28.25" style="fill:#66320e"/><path d="M7.12 3.81c0 .14-.05.24.09.25l1.15.14c.16.02.15-.04.17-.24L7.12 3.8Z" style="fill:#281104;stroke:#2a0900;stroke-miterlimit:10;stroke-width:.25px"/><path d="M6.97 3.8c0 .14.1.25.24.27l1.15.14c.16.02.31-.11.31-.27v-.02c0-.14-.11-.26-.24-.27l-1.15-.12a.27.27 0 0 0-.3.27Z" style="fill:#66320e"/></svg>