<svg xmlns="http://www.w3.org/2000/svg" width="16" height="16"><path d="M9 3H1" style="fill:none;stroke:#7f8c8d;stroke-linecap:round;stroke-linejoin:round;stroke-width:2px"/><path d="M10.22 1.97C10.99.66 12.68.21 14 .96s1.79 2.43 1.04 3.76a2.8 2.8 0 0 1-3.77 1.06 2.76 2.76 0 0 1-1.09-3.74M1.72 12.25c.58-.99 1.86-1.33 2.86-.76s1.35 1.84.78 2.84-1.84 1.36-2.85.8a2.08 2.08 0 0 1-.82-2.83M6.2 13.44c2.34 0 6.42-.49 6.42-7.11" style="fill:none;stroke:#f1c40f;stroke-linecap:round;stroke-linejoin:round;stroke-width:1.2px"/></svg>