<svg xmlns="http://www.w3.org/2000/svg" width="16" height="16"><path d="M4.13 6.51a1.011 1.011 0 0 0 1.7.52l.8.59c-.35.61-.19 1.38.37 1.8l-.65 1.11c-.36-.11-.75.1-.86.46s.1.75.46.86.75-.1.86-.46c.07-.25 0-.52-.19-.7l.64-1.11c.67.29 1.45.02 1.78-.63l1.24.54a.639.639 0 1 0 .7-.56.65.65 0 0 0-.58.26l-1.24-.54a1.38 1.38 0 0 0-.47-1.41l.64-1a.86.86 0 0 0 1.11-.48c.18-.44-.04-.93-.48-1.11s-.93.04-1.11.48c-.13.33-.05.7.21.94l-.64 1a1.39 1.39 0 0 0-1.61.29l-.8-.6c.26-.5.06-1.11-.43-1.36-.5-.26-1.11-.06-1.36.43-.11.2-.14.44-.09.67Z" style="fill:#71c6ff"/><path d="M14.65 6.38a7 7 0 0 0-.83-1.9c.27-.39.54-.78.78-1.2L12.72 1.4q-.645.375-1.23.81c-.57-.34-1.19-.6-1.84-.76C9.57.97 9.47.48 9.35 0H6.68c-.12.47-.22.95-.3 1.42-.67.15-1.31.41-1.9.75-.38-.27-.77-.53-1.18-.77L1.41 3.28c.23.39.47.76.72 1.12-.4.61-.69 1.29-.88 1.99-.42.07-.83.16-1.25.27v2.67c.39.1.77.18 1.16.25.16.77.45 1.5.85 2.17-.21.31-.42.62-.61.95l1.89 1.89c.32-.19.62-.38.92-.59.68.44 1.44.75 2.23.93.06.35.14.71.23 1.06h2.67c.09-.36.17-.72.24-1.09.77-.18 1.51-.5 2.17-.94.31.22.64.43.97.62l1.88-1.89c-.21-.36-.44-.7-.67-1.04.38-.64.65-1.34.8-2.07.42-.07.85-.16 1.27-.27V6.65c-.45-.12-.9-.21-1.35-.29Zm-1.97 3.44a5.1 5.1 0 0 1-2.7 2.93 5.03 5.03 0 0 1-6.77-2.84 5.05 5.05 0 0 1 .19-3.96 5.017 5.017 0 0 1 9.03-.02c.59 1.2.67 2.61.23 3.87Z" style="fill:#71c6ff"/></svg>