<svg xmlns="http://www.w3.org/2000/svg" xmlns:xlink="http://www.w3.org/1999/xlink" width="16" height="16" data-name="Row 6"><defs><symbol id="b" data-name="Gear Mask" viewBox="0 0 11 11"><path d="M11 0H6.5c-.7 0-1.37.11-2 .32L4.1.4l-.47.28q-.45.225-.87.51l-.14.08-.05.06A6.47 6.47 0 0 0 .02 6.99H0V11h11z"/></symbol><filter id="a" width="17" height="17" x="0" y="0" color-interpolation-filters="sRGB" filterUnits="userSpaceOnUse"><feFlood flood-color="#fff" result="bg"/><feBlend in="SourceGraphic" in2="bg"/></filter><mask id="c" width="17" height="17" x="0" y="0" data-name="mask-2" maskUnits="userSpaceOnUse"><g filter="url(#a)"><use xlink:href="#b" width="11" height="11" transform="translate(6 6)"/></g></mask></defs><g data-name="Layer"><g mask="url(#c)"><g fill="#71c6ff"><path d="M3.61 5.7c.1.48.57.79 1.04.69.17-.03.32-.12.44-.24l.7.52a1.2 1.2 0 0 0 .32 1.57l-.57.97c-.32-.1-.65.09-.75.41s.09.65.41.75.65-.09.75-.41c.06-.22 0-.45-.16-.61l.56-.97c.58.26 1.26.01 1.56-.55L9 8.3c-.03.32.19.59.5.62s.58-.19.61-.5-.19-.58-.5-.61c-.2-.02-.39.07-.51.23l-1.09-.47c.12-.46-.04-.94-.41-1.23l.56-.87c.38.15.82-.03.97-.42.15-.38-.03-.82-.42-.97s-.82.03-.97.42a.76.76 0 0 0 .18.82l-.56.87a1.21 1.21 0 0 0-1.41.26l-.7-.52a.89.89 0 0 0-.38-1.19.89.89 0 0 0-1.19.38c-.09.18-.12.38-.08.58Z"/><path d="M12.82 5.58c-.16-.59-.4-1.15-.72-1.66.24-.34.47-.68.68-1.05l-1.65-1.64c-.38.22-.73.46-1.08.71-.5-.3-1.04-.52-1.61-.66C8.37.86 8.28.44 8.17.01H5.83c-.11.41-.19.83-.26 1.24-.58.14-1.14.36-1.66.66-.33-.24-.68-.47-1.04-.68L1.22 2.88c.2.34.41.66.63.98-.35.54-.61 1.12-.77 1.74-.37.06-.73.14-1.09.24v2.33c.34.09.67.16 1.01.22.14.67.39 1.32.75 1.9-.19.27-.37.55-.53.84l1.65 1.65q.42-.24.81-.51c.6.38 1.26.66 1.95.81.06.31.12.62.2.93h2.33c.08-.32.15-.63.21-.95.68-.16 1.32-.44 1.9-.82.28.19.56.37.85.55l1.65-1.65c-.18-.31-.38-.61-.59-.91.33-.56.57-1.18.7-1.81.37-.07.74-.14 1.11-.24V5.85c-.39-.1-.79-.18-1.18-.25ZM11.1 8.59a4.4 4.4 0 0 1-2.36 2.56c-1.1.5-2.37.51-3.49.05a4.45 4.45 0 0 1-2.43-2.53c-.42-1.12-.36-2.38.17-3.46a4.4 4.4 0 0 1 2.23-2.12c1.12-.49 2.45-.47 3.56.05.92.42 1.67 1.15 2.12 2.07.52 1.05.59 2.28.2 3.39Z"/></g></g><g><g><circle cx="12" cy="12" r="3" fill="#fff"/><path fill="#fff" d="m14 12 2-1v-1l-1-1-2 2V8h-2v3L9 9l-1 1v1l2 1-2 1v1l1 1 2-2v3h2v-3l2 2 1-1v-1z"/><path d="M12 10c-1.1 0-2 .9-2 2s.9 2 2 2 2-.9 2-2-.9-2-2-2m0 3c-.55 0-1-.45-1-1s.45-1 1-1 1 .45 1 1-.45 1-1 1"/></g><circle cx="12" cy="12" r="1"/></g></g></svg>