<svg xmlns="http://www.w3.org/2000/svg" width="16" height="16"><defs><clipPath id="a"><path d="M-1 7h3V2h7l3 5h5v-8H-1" style="fill:none"/></clipPath></defs><g style="clip-path:url(#a)"><path d="M15 1v14H1V1zm0-1H1C.45 0 0 .45 0 1v14c0 .55.45 1 1 1h14c.55 0 1-.45 1-1V1c0-.55-.45-1-1-1" style="fill:#fff"/></g><path d="M5.34 9.35v.98H.93v-.98zm-1.63 0v6.4H2.53v-6.4zM7.09 9.35l.99 2.21.96-2.21h1.33l-1.59 3.17 1.62 3.23H9.03l-.99-2.25-.99 2.25H5.71l1.64-3.25-1.6-3.15h1.36ZM14.98 9.35v.98h-4.41v-.98zm-1.63 0v6.4h-1.18v-6.4z" style="fill:#fff"/></svg>