<svg xmlns="http://www.w3.org/2000/svg" width="16" height="16" data-name="Layer 151"><defs><linearGradient id="a" x1="86.51" x2="78.82" y1="145.6" y2="153.29" gradientTransform="translate(-74 -140)" gradientUnits="userSpaceOnUse"><stop offset="0" stop-color="#06b7ff"/><stop offset="1" stop-color="red"/></linearGradient></defs><path fill="#f5f5f5" d="M7.69 3.21c-2.78 0-5.04 2.25-5.04 5.04s2.25 5.04 5.04 5.04 5.04-2.25 5.04-5.04c0-2.78-2.26-5.03-5.04-5.04m0 7.64c-1.44 0-2.61-1.17-2.61-2.61s1.17-2.61 2.61-2.61S10.3 6.8 10.3 8.24s-1.17 2.61-2.61 2.61"/><path fill="url(#a)" fill-rule="evenodd" d="M8.25 2.39V.5a7.75 7.75 0 0 1 0 15.5v-1.88c3.24-.24 5.66-3.07 5.42-6.3-.22-2.9-2.52-5.2-5.42-5.42ZM3.2 12.13a5.67 5.67 0 0 1-1.38-3.32H0c.09 1.71.76 3.34 1.91 4.61zM7.14 16v-1.88a5.9 5.9 0 0 1-3.43-1.44l-1.33 1.33A7.72 7.72 0 0 0 7.13 16"/></svg>