<svg xmlns="http://www.w3.org/2000/svg" width="16" height="16" data-name="Layer 152"><defs><linearGradient id="c" x1="84.17" x2="77.91" y1="144.64" y2="150.89" gradientTransform="translate(-74 -140)" gradientUnits="userSpaceOnUse"><stop offset="0" stop-color="#06b7ff"/><stop offset="1" stop-color="red"/></linearGradient><filter id="a" width="18" height="17.5" x="0" y=".5" color-interpolation-filters="sRGB" filterUnits="userSpaceOnUse"><feFlood flood-color="#fff" result="bg"/><feBlend in="SourceGraphic" in2="bg"/></filter><mask id="b" width="18" height="17.5" x="0" y=".5" data-name="mask-8" maskUnits="userSpaceOnUse"><g filter="url(#a)"><path d="M17 9.46V9c0-1.65-1.35-3-3-3H8C6.35 6 5 7.35 5 9v.45c-.62.47-1 1.2-1 1.99v1.12c0 .8.38 1.52 1 1.99v.46c0 1.65 1.35 3 3 3h6c1.65 0 3-1.35 3-3v-.45c.62-.47 1-1.2 1-1.99v-1.12c0-.8-.38-1.52-1-1.99"/></g></mask></defs><g mask="url(#b)"><g><path fill="#f5f5f5" d="M6.25 2.71c-2.26 0-4.09 1.83-4.09 4.09s1.83 4.09 4.09 4.09 4.09-1.83 4.09-4.09-1.83-4.09-4.09-4.09m0 6.21a2.121 2.121 0 0 1 0-4.24 2.121 2.121 0 0 1 0 4.24"/><path fill="url(#c)" fill-rule="evenodd" d="M6.7 2.04V.5C10.18.5 13 3.32 13 6.8s-2.82 6.3-6.3 6.3v-1.53c2.63-.2 4.6-2.49 4.4-5.12-.18-2.35-2.05-4.23-4.4-4.4ZM2.6 9.95c-.66-.75-1.05-1.7-1.12-2.7H0c.07 1.39.62 2.71 1.55 3.74L2.6 9.94Zm3.2 3.15v-1.53a4.76 4.76 0 0 1-2.78-1.17l-1.08 1.08c1.06.97 2.43 1.54 3.86 1.62"/></g></g><g fill="#ff0"><path d="M15.58 10.95c-.65-.13-.58-.51-.58-.95V9c0-.55-.45-1-1-1h-1.75c-.14 0-.25.11-.25.25v.5c0 .14.11.25.25.25H13c.55 0 1 .45 1 1 0 0 0 2 1 2-1 0-1 2-1 2 0 .55-.45 1-1 1h-.75c-.14 0-.25.11-.25.25v.5c0 .14.11.25.25.25H14c.55 0 1-.45 1-1v-1c0-.44-.07-.82.58-.95.24-.05.42-.25.42-.49v-1.11c0-.24-.18-.44-.42-.49ZM9.75 8H8c-.55 0-1 .45-1 1v1c0 .44.07.82-.58.95-.24.05-.42.25-.42.49v1.11c0 .24.18.44.42.49.65.13.58.51.58.95v1c0 .55.45 1 1 1h1.75c.14 0 .25-.11.25-.25v-.5c0-.14-.11-.25-.25-.25H9c-.55 0-1-.45-1-1 0 0 0-2-1-2 1 0 1-2 1-2 0-.55.45-1 1-1h.75c.14 0 .25-.11.25-.25v-.5c0-.14-.11-.25-.25-.25Z"/></g></svg>