<svg xmlns="http://www.w3.org/2000/svg" xmlns:xlink="http://www.w3.org/1999/xlink" width="16" height="16" data-name="Layer 145"><defs><symbol id="c" data-name="Gear again" viewBox="0 0 8 8"><g><g><circle cx="4" cy="4" r="3" fill="#fff"/><path fill="#fff" d="m6 4 2-1V2L7 1 5 3V0H3v3L1 1 0 2v1l2 1-2 1v1l1 1 2-2v3h2V5l2 2 1-1V5z"/><path d="M4 2c-1.1 0-2 .9-2 2s.9 2 2 2 2-.9 2-2-.9-2-2-2m0 3c-.55 0-1-.45-1-1s.45-1 1-1 1 .45 1 1-.45 1-1 1"/></g><circle cx="4" cy="4" r="1"/></g></symbol><filter id="a" width="17" height="17" x="0" y="0" color-interpolation-filters="sRGB" filterUnits="userSpaceOnUse"><feFlood flood-color="#fff" result="bg"/><feBlend in="SourceGraphic" in2="bg"/></filter><mask id="b" width="17" height="17" x="0" y="0" data-name="mask-8" maskUnits="userSpaceOnUse"><g filter="url(#a)"><path d="M17 6h-4.5c-.7 0-1.37.11-2 .32l-.4.08-.47.28q-.45.225-.87.51l-.14.08-.05.06c-1.56 1.19-2.58 3.06-2.58 5.17 0 .16.01.33.02.49h-.02V17h11V6Z"/></g></mask></defs><g mask="url(#b)"><g><path fill="#a040ff" d="M5.69 13 0 4.06V2l4 1h6l3-1v2.06L7.31 13H5.68Z"/><path d="M5 6H3V5l1-5h7l-1 2h2l-5 8H5z"/><path fill="#ffd000" d="M9 1H5L4 5h2v4l4-6H8z"/></g></g><use xlink:href="#c" width="8" height="8" transform="translate(8 8)"/></svg>