<svg xmlns="http://www.w3.org/2000/svg" xmlns:xlink="http://www.w3.org/1999/xlink" width="16" height="16" data-name="Row 8"><defs><symbol id="b" data-name="Gear Mask" viewBox="0 0 11 11"><path d="M11 0H6.5c-.7 0-1.37.11-2 .32L4.1.4l-.47.28q-.45.225-.87.51l-.14.08-.05.06A6.47 6.47 0 0 0 .02 6.99H0V11h11z"/></symbol><symbol id="d" data-name="Gear again" viewBox="0 0 8 8"><g><g><circle cx="4" cy="4" r="3" fill="#fff"/><path fill="#fff" d="m6 4 2-1V2L7 1 5 3V0H3v3L1 1 0 2v1l2 1-2 1v1l1 1 2-2v3h2V5l2 2 1-1V5z"/><path d="M4 2c-1.1 0-2 .9-2 2s.9 2 2 2 2-.9 2-2-.9-2-2-2m0 3c-.55 0-1-.45-1-1s.45-1 1-1 1 .45 1 1-.45 1-1 1"/></g><circle cx="4" cy="4" r="1"/></g></symbol><filter id="a" width="17" height="17" x="0" y="0" color-interpolation-filters="sRGB" filterUnits="userSpaceOnUse"><feFlood flood-color="#fff" result="bg"/><feBlend in="SourceGraphic" in2="bg"/></filter><mask id="c" width="17" height="17" x="0" y="0" data-name="mask-2" maskUnits="userSpaceOnUse"><g filter="url(#a)"><use xlink:href="#b" width="11" height="11" transform="translate(6 6)"/></g></mask></defs><g data-name="Layer copy 10"><g mask="url(#c)"><g fill-rule="evenodd"><path fill="#00677f" d="M13 1 8 0 0 9l1 1" data-name="path36"/><path fill="#008aaa" d="m13 12-4 1-9-9 1-1" data-name="path37"/><path fill="#31b5ff" d="M11 13H9l.75-.81L10 1 8 0h3l2 1v11z" data-name="path38"/></g></g><use xlink:href="#d" width="8" height="8" transform="translate(8 8)"/></g></svg>