<svg xmlns="http://www.w3.org/2000/svg" width="16" height="16"><path d="M12.55 13.71c-.75.52-2.63 1.64-2.63 1.64s.5.55.08.65H5c-1-1 1-1 1-1s-1 0-1.54-1.07c-.13.31-.71 1.73-1.05 2.07H1.12c-.58-.31.88-2 .88-2s-1 1.14-1 0v-2c0-1.14 1-2 1-2V9c0-2.29 2.55-2.14 2.55-2.14s-1.14 0-1.14-2.29c0-1.14-.09-1.11 0-1.14.31-.12 1.27-.54 1.49-.78.79-1.5 1.93-1.5 1.93-1.5L8 .01l1 1v1l1-1h1c.44.86 1 2 1 4s-2 3-2.88 3c-.08.13.33.33 1.14 1.14 1.14 1.14.49 3.94.58 4.08.02.03.02.04.02.04s.39.11 1.68-.69c.69-.43 1.35-1.13 2.29-1.14.9-.02 1 1.08 0 1.14s-1.53.62-2.29 1.14Z" style="fill:#36cbff"/></svg>