<svg xmlns="http://www.w3.org/2000/svg" xmlns:xlink="http://www.w3.org/1999/xlink" width="16" height="16" data-name="Row 6"><defs><symbol id="d" data-name="Lock" viewBox="0 0 8.01 11"><g data-name="Layer 99"><g><path fill="#fff" fill-rule="evenodd" d="M8.01 5v5H0V5c-.01-.55.44-1 .99-1H7c.55 0 1 .45 1 1Z" data-name="lock"/><path fill="#b1b1b1" fill-rule="evenodd" d="M8.01 7v3H0s8-5 8-3Zm-2-1h-3" data-name="lock"/><path fill="#fff" fill-rule="evenodd" d="M5.01 0h-2a2 2 0 0 0-2 2v3h1V2c0-.55.45-1 1-1h2c.55 0 1 .45 1 1v3h1V2c0-1.1-.9-2-2-2"/><path d="M3.01 5h2v3h-2zm-2-1.5h1V4h-1zm5 0h1V4h-1z"/></g></g></symbol><symbol id="b" data-name="Lock Mask" viewBox="0 0 10 12.3"><path fill-rule="evenodd" d="M10 1.38C9.27.54 8.2 0 7 0H5C2.79 0 1 1.79 1 4v.77l-.12.12C.31 5.45 0 6.2 0 7v5.29h10z"/></symbol><filter id="a" width="16" height="16.3" x="0" y="0" color-interpolation-filters="sRGB" filterUnits="userSpaceOnUse"><feFlood flood-color="#fff" result="bg"/><feBlend in="SourceGraphic" in2="bg"/></filter><mask id="c" width="16" height="16.3" x="0" y="0" data-name="mask-2" maskUnits="userSpaceOnUse"><g filter="url(#a)"><use xlink:href="#b" width="10" height="12.3" transform="translate(6 4)"/></g></mask></defs><g data-name="Layer"><g mask="url(#c)"><path fill="#36cbff" d="M10.1 12c-.66.46-2.3 1.43-2.3 1.43s.44.48.07.57H3.5c-.87-.87.87-.87.87-.87s-.87 0-1.35-.94c-.11.27-.62 1.51-.92 1.81h-2c-.46-.28.78-1.75.77-1.75 0 0-.87 1-.87 0V10.5c0-1 .87-1.75.87-1.75v-.87c0-2 2.23-1.87 2.23-1.87s-1 0-1-2c0-1-.08-.97 0-1 .27-.1 1.11-.47 1.31-.68C4.1 1.01 5.1 1.01 5.1 1.01l1.02-1 .87.87v.87l.87-.87h.87c.39.75.87 1.75.87 3.5S7.85 7 7.08 7c-.07.11.29.29 1 1 1 1 .43 3.44.51 3.57.01.02.02.03.02.03s.34.1 1.47-.6c.6-.37 1.18-.99 2-1 .79-.01.87.94 0 1s-1.34.54-2 1Z"/></g><use xlink:href="#d" width="8.01" height="11" transform="translate(7.99 6)"/></g></svg>