<svg xmlns="http://www.w3.org/2000/svg" xmlns:xlink="http://www.w3.org/1999/xlink" width="16" height="16" data-name="Row 6"><defs><symbol id="b" data-name="Gear Mask" viewBox="0 0 11 11"><path d="M11 0H6.5c-.7 0-1.37.11-2 .32L4.1.4l-.47.28q-.45.225-.87.51l-.14.08-.05.06A6.47 6.47 0 0 0 .02 6.99H0V11h11z"/></symbol><filter id="a" width="17" height="17" x="0" y="0" color-interpolation-filters="sRGB" filterUnits="userSpaceOnUse"><feFlood flood-color="#fff" result="bg"/><feBlend in="SourceGraphic" in2="bg"/></filter><mask id="c" width="17" height="17" x="0" y="0" data-name="mask-2" maskUnits="userSpaceOnUse"><g filter="url(#a)"><use xlink:href="#b" width="11" height="11" transform="translate(6 6)"/></g></mask></defs><g data-name="Layer"><g mask="url(#c)"><path fill="#36cbff" d="M10.1 12c-.66.46-2.3 1.43-2.3 1.43s.44.48.07.57H3.5c-.87-.87.87-.87.87-.87s-.87 0-1.35-.94c-.11.27-.62 1.51-.92 1.81h-2c-.46-.28.78-1.75.77-1.75 0 0-.87 1-.87 0V10.5c0-1 .87-1.75.87-1.75v-.87c0-2 2.23-1.87 2.23-1.87s-1 0-1-2c0-1-.08-.97 0-1 .27-.1 1.11-.47 1.31-.68C4.1 1.01 5.1 1.01 5.1 1.01l1.02-1 .87.87v.87l.87-.87h.87c.39.75.87 1.75.87 3.5S7.85 7 7.08 7c-.07.11.29.29 1 1 1 1 .43 3.44.51 3.57.01.02.02.03.02.03s.34.1 1.47-.6c.6-.37 1.18-.99 2-1 .79-.01.87.94 0 1s-1.34.54-2 1Z"/></g><g><g><circle cx="12" cy="12" r="3" fill="#fff"/><path fill="#fff" d="m14 12 2-1v-1l-1-1-2 2V8h-2v3L9 9l-1 1v1l2 1-2 1v1l1 1 2-2v3h2v-3l2 2 1-1v-1z"/><path d="M12 10c-1.1 0-2 .9-2 2s.9 2 2 2 2-.9 2-2-.9-2-2-2m0 3c-.55 0-1-.45-1-1s.45-1 1-1 1 .45 1 1-.45 1-1 1"/></g><circle cx="12" cy="12" r="1"/></g></g></svg>